<!-- 
    ****************************** PROPERTY_MANAGEMENT_SYSTEM **************************************
    DATE : 02.11.2021
    LINK : https://tahsin000.github.io/DATABASE_MANAGEMENT_SYSTEM/PROPERTY_MANAGEMENT_SYSTEM/ERD.svg
 -->
<svg width="2234" height="1512" viewBox="0 0 2234 1512" fill="none" xmlns="http://www.w3.org/2000/svg">
<rect x="1003" y="1143.27" width="128.104" height="81.1328" rx="2.43399" fill="#85B6FF"/>
<path d="M1036.19 1190.27H1041.16C1043.78 1190.27 1045.17 1188.91 1045.17 1187.06C1045.17 1185.34 1043.94 1184.3 1042.61 1184.23V1184.12C1043.82 1183.85 1044.71 1182.99 1044.71 1181.62C1044.71 1179.87 1043.42 1178.64 1040.85 1178.64H1036.19V1190.27ZM1038.65 1188.26V1185.17H1040.71C1041.9 1185.17 1042.63 1185.85 1042.63 1186.81C1042.63 1187.69 1042.03 1188.26 1040.66 1188.26H1038.65ZM1038.65 1183.51V1180.62H1040.52C1041.61 1180.62 1042.23 1181.19 1042.23 1182.03C1042.23 1182.95 1041.48 1183.51 1040.48 1183.51H1038.65ZM1053.78 1178.64V1185.98C1053.78 1187.31 1052.85 1188.27 1051.42 1188.27C1049.99 1188.27 1049.05 1187.31 1049.05 1185.98V1178.64H1046.59V1186.19C1046.59 1188.74 1048.51 1190.44 1051.42 1190.44C1054.31 1190.44 1056.24 1188.74 1056.24 1186.19V1178.64H1053.78ZM1057.41 1178.64L1061.65 1186.16V1190.27H1064.09V1186.16L1068.34 1178.64H1065.58L1062.93 1183.65H1062.82L1060.16 1178.64H1057.41ZM1069.51 1190.27H1077.37V1188.24H1071.97V1185.47H1076.94V1183.44H1071.97V1180.66H1077.35V1178.64H1069.51V1190.27ZM1079.13 1190.27H1081.59V1186.15H1083.38L1085.59 1190.27H1088.3L1085.83 1185.75C1087.16 1185.18 1087.89 1184.03 1087.89 1182.44C1087.89 1180.12 1086.36 1178.64 1083.72 1178.64H1079.13V1190.27ZM1081.59 1184.17V1180.65H1083.25C1084.67 1180.65 1085.36 1181.28 1085.36 1182.44C1085.36 1183.59 1084.67 1184.17 1083.26 1184.17H1081.59ZM1095.76 1181.98H1098.12C1098.09 1179.91 1096.38 1178.48 1093.79 1178.48C1091.24 1178.48 1089.37 1179.89 1089.38 1182C1089.38 1183.72 1090.59 1184.7 1092.55 1185.17L1093.82 1185.49C1095.09 1185.8 1095.79 1186.16 1095.8 1186.94C1095.79 1187.8 1094.99 1188.37 1093.74 1188.37C1092.46 1188.37 1091.54 1187.78 1091.46 1186.62H1089.08C1089.14 1189.14 1090.94 1190.44 1093.76 1190.44C1096.61 1190.44 1098.28 1189.08 1098.28 1186.95C1098.28 1185.01 1096.82 1183.98 1094.79 1183.53L1093.75 1183.28C1092.74 1183.05 1091.89 1182.67 1091.91 1181.84C1091.91 1181.09 1092.57 1180.53 1093.78 1180.53C1094.95 1180.53 1095.67 1181.07 1095.76 1181.98Z" fill="#333333"/>
<rect x="516" y="943.273" width="128.104" height="81.1328" rx="2.43399" fill="#85B6FF"/>
<path d="M547.391 990.273H549.851V986.5H551.919C554.595 986.5 556.152 984.903 556.152 982.58C556.152 980.267 554.624 978.636 551.981 978.636H547.391V990.273ZM549.851 984.528V980.648H551.51C552.93 980.648 553.618 981.42 553.618 982.58C553.618 983.733 552.93 984.528 551.521 984.528H549.851ZM557.528 990.273H559.949V985.335C559.949 984.261 560.733 983.523 561.801 983.523C562.136 983.523 562.597 983.58 562.824 983.653V981.506C562.608 981.455 562.307 981.42 562.063 981.42C561.085 981.42 560.284 981.989 559.966 983.068H559.875V981.545H557.528V990.273ZM567.436 990.443C570.084 990.443 571.732 988.631 571.732 985.943C571.732 983.239 570.084 981.432 567.436 981.432C564.789 981.432 563.141 983.239 563.141 985.943C563.141 988.631 564.789 990.443 567.436 990.443ZM567.448 988.568C566.226 988.568 565.601 987.449 565.601 985.926C565.601 984.403 566.226 983.278 567.448 983.278C568.647 983.278 569.272 984.403 569.272 985.926C569.272 987.449 568.647 988.568 567.448 988.568ZM573.13 993.545H575.55V988.875H575.624C575.959 989.602 576.692 990.415 578.101 990.415C580.09 990.415 581.641 988.841 581.641 985.92C581.641 982.92 580.022 981.432 578.107 981.432C576.647 981.432 575.948 982.301 575.624 983.011H575.516V981.545H573.13V993.545ZM575.499 985.909C575.499 984.352 576.158 983.358 577.334 983.358C578.533 983.358 579.169 984.398 579.169 985.909C579.169 987.432 578.522 988.489 577.334 988.489C576.169 988.489 575.499 987.466 575.499 985.909ZM587.056 990.443C589.215 990.443 590.67 989.392 591.01 987.773L588.772 987.625C588.527 988.29 587.902 988.636 587.096 988.636C585.885 988.636 585.118 987.835 585.118 986.534V986.528H591.062V985.864C591.062 982.898 589.266 981.432 586.959 981.432C584.391 981.432 582.726 983.256 582.726 985.949C582.726 988.716 584.368 990.443 587.056 990.443ZM585.118 985.028C585.17 984.034 585.925 983.239 586.999 983.239C588.05 983.239 588.777 983.989 588.783 985.028H585.118ZM592.465 990.273H594.886V985.335C594.886 984.261 595.67 983.523 596.738 983.523C597.073 983.523 597.533 983.58 597.761 983.653V981.506C597.545 981.455 597.244 981.42 596.999 981.42C596.022 981.42 595.221 981.989 594.903 983.068H594.812V981.545H592.465V990.273ZM603.916 981.545H602.273V979.455H599.853V981.545H598.66V983.364H599.853V987.909C599.842 989.619 601.006 990.466 602.762 990.392C603.387 990.369 603.83 990.244 604.075 990.165L603.694 988.364C603.575 988.386 603.319 988.443 603.092 988.443C602.609 988.443 602.273 988.261 602.273 987.591V983.364H603.916V981.545ZM606.811 993.545C608.612 993.545 609.566 992.625 610.061 991.216L613.453 981.557L610.89 981.545L609.066 987.955H608.975L607.168 981.545H604.623L607.754 990.523L607.612 990.892C607.293 991.71 606.686 991.75 605.833 991.489L605.288 993.295C605.634 993.443 606.197 993.545 606.811 993.545Z" fill="#333333"/>
<rect x="1307" y="1045.27" width="185" height="81.1328" rx="32.4531" fill="#FF9790"/>
<path d="M1373.74 1092.27H1378.2C1380.91 1092.27 1382.13 1090.93 1382.13 1089.14C1382.13 1087.34 1380.87 1086.32 1379.71 1086.26V1086.15C1380.78 1085.87 1381.67 1085.15 1381.67 1083.69C1381.67 1081.97 1380.48 1080.64 1378 1080.64H1373.74V1092.27ZM1375.5 1090.77V1087.04H1378.09C1379.5 1087.04 1380.38 1087.95 1380.38 1089.06C1380.38 1090.03 1379.72 1090.77 1378.03 1090.77H1375.5ZM1375.5 1085.67V1082.13H1377.9C1379.29 1082.13 1379.95 1082.86 1379.95 1083.83C1379.95 1084.95 1379.03 1085.67 1377.85 1085.67H1375.5ZM1383.14 1080.64L1387.36 1087.7V1092.27H1389.11V1087.7L1393.33 1080.64H1391.34L1388.3 1085.93H1388.17L1385.13 1080.64H1383.14ZM1394.81 1092.27H1396.57V1087.87H1398.95C1398.99 1087.87 1399.03 1087.87 1399.07 1087.87L1401.43 1092.27H1403.43L1400.85 1087.56C1402.28 1087.03 1402.99 1085.85 1402.99 1084.28C1402.99 1082.14 1401.66 1080.64 1398.96 1080.64H1394.81V1092.27ZM1396.57 1086.36V1082.14H1398.77C1400.5 1082.14 1401.22 1082.97 1401.22 1084.28C1401.22 1085.6 1400.5 1086.36 1398.79 1086.36H1396.57ZM1411.04 1092.27H1403.65V1093.72H1411.04V1092.27ZM1413.89 1080.64H1412.13V1092.27H1413.89V1080.64ZM1420.04 1092.27C1423.58 1092.27 1425.63 1090.07 1425.63 1086.44C1425.63 1082.82 1423.58 1080.64 1420.15 1080.64H1416.27V1092.27H1420.04ZM1418.02 1090.74V1082.17H1420.05C1422.59 1082.17 1423.9 1083.69 1423.9 1086.44C1423.9 1089.19 1422.59 1090.74 1419.94 1090.74H1418.02Z" fill="#333333"/>
<path d="M1372.46 1095.47H1426.54V1096.71H1372.46V1095.47Z" fill="#333333"/>
<rect x="228" y="845.273" width="192" height="81.1328" rx="32.4531" fill="#FF9790"/>
<path d="M298.007 892.273H299.763V888.182H302.15C304.848 888.182 306.184 886.551 306.184 884.403C306.184 882.261 304.86 880.636 302.155 880.636H298.007V892.273ZM299.763 886.693V882.142H301.968C303.706 882.142 304.417 883.085 304.417 884.403C304.417 885.722 303.706 886.693 301.99 886.693H299.763ZM308.066 892.273H309.822V887.869H312.208C312.248 887.869 312.282 887.869 312.322 887.869L314.685 892.273H316.685L314.106 887.562C315.532 887.034 316.242 885.847 316.242 884.284C316.242 882.142 314.912 880.636 312.214 880.636H308.066V892.273ZM309.822 886.358V882.142H312.026C313.759 882.142 314.475 882.966 314.475 884.284C314.475 885.597 313.759 886.358 312.049 886.358H309.822ZM328.31 886.455C328.31 882.733 326.083 880.477 323.072 880.477C320.049 880.477 317.827 882.733 317.827 886.455C317.827 890.17 320.049 892.432 323.072 892.432C326.083 892.432 328.31 890.176 328.31 886.455ZM326.572 886.455C326.572 889.29 325.072 890.83 323.072 890.83C321.066 890.83 319.572 889.29 319.572 886.455C319.572 883.619 321.066 882.08 323.072 882.08C325.072 882.08 326.572 883.619 326.572 886.455ZM335.779 892.273H328.387V893.716H335.779V892.273ZM338.622 880.636H336.866V892.273H338.622V880.636ZM344.77 892.273C348.315 892.273 350.366 890.074 350.366 886.437C350.366 882.818 348.315 880.636 344.889 880.636H341.002V892.273H344.77ZM342.758 890.739V882.17H344.781C347.326 882.17 348.639 883.693 348.639 886.437C348.639 889.193 347.326 890.739 344.673 890.739H342.758Z" fill="#333333"/>
<path d="M296.729 895.472H351.27V896.71H296.729V895.472Z" fill="#333333"/>
<rect x="1307" y="647.273" width="185" height="81.1328" rx="32.4531" fill="#FF9790"/>
<path d="M1377.04 685.693H1378.74C1378.69 683.83 1377.04 682.477 1374.67 682.477C1372.34 682.477 1370.55 683.812 1370.55 685.818C1370.55 687.437 1371.71 688.386 1373.58 688.892L1374.95 689.267C1376.2 689.597 1377.16 690.006 1377.16 691.04C1377.16 692.176 1376.07 692.926 1374.58 692.926C1373.23 692.926 1372.1 692.324 1372 691.057H1370.24C1370.35 693.165 1371.98 694.466 1374.59 694.466C1377.32 694.466 1378.9 693.028 1378.9 691.057C1378.9 688.96 1377.03 688.148 1375.55 687.784L1374.41 687.489C1373.5 687.256 1372.29 686.83 1372.3 685.716C1372.3 684.727 1373.2 683.994 1374.63 683.994C1375.97 683.994 1376.92 684.619 1377.04 685.693ZM1380.82 694.273H1388.18V692.761H1382.57V689.199H1387.73V687.693H1382.57V684.148H1388.11V682.636H1380.82V694.273ZM1390.28 694.273H1397.31V692.761H1392.04V682.636H1390.28V694.273ZM1399.14 694.273H1406.17V692.761H1400.89V682.636H1399.14V694.273ZM1414.09 694.273H1406.7V695.716H1414.09V694.273ZM1416.93 682.636H1415.18V694.273H1416.93V682.636ZM1423.08 694.273C1426.63 694.273 1428.68 692.074 1428.68 688.437C1428.68 684.818 1426.63 682.636 1423.2 682.636H1419.31V694.273H1423.08ZM1421.07 692.739V684.17H1423.09C1425.64 684.17 1426.95 685.693 1426.95 688.437C1426.95 691.193 1425.64 692.739 1422.98 692.739H1421.07Z" fill="#333333"/>
<path d="M1369.42 697.472H1429.58V698.71H1369.42V697.472Z" fill="#333333"/>
<rect x="1765" y="809.273" width="192" height="81.1328" rx="32.4531" fill="#FF9790"/>
<path d="M1835.14 856.273H1836.9V851.869H1839.28C1839.32 851.869 1839.36 851.869 1839.4 851.869L1841.76 856.273H1843.76L1841.18 851.562C1842.61 851.034 1843.32 849.847 1843.32 848.284C1843.32 846.142 1841.99 844.636 1839.29 844.636H1835.14V856.273ZM1836.9 850.358V846.142H1839.1C1840.83 846.142 1841.55 846.966 1841.55 848.284C1841.55 849.597 1840.83 850.358 1839.12 850.358H1836.9ZM1845.28 856.273H1852.64V854.761H1847.03V851.199H1852.19V849.693H1847.03V846.148H1852.57V844.636H1845.28V856.273ZM1862.62 848.312H1864.42C1864.03 846.045 1862.09 844.477 1859.58 844.477C1856.57 844.477 1854.37 846.744 1854.37 850.46C1854.37 854.142 1856.5 856.432 1859.66 856.432C1862.48 856.432 1864.5 854.58 1864.5 851.642V850.318H1859.92V851.767H1862.8C1862.76 853.642 1861.52 854.83 1859.66 854.83C1857.61 854.83 1856.11 853.278 1856.11 850.449C1856.11 847.631 1857.62 846.08 1859.59 846.08C1861.13 846.08 1862.18 846.932 1862.62 848.312ZM1872.65 856.273H1865.25V857.716H1872.65V856.273ZM1875.49 844.636H1873.73V856.273H1875.49V844.636ZM1881.64 856.273C1885.18 856.273 1887.23 854.074 1887.23 850.437C1887.23 846.818 1885.18 844.636 1881.76 844.636H1877.87V856.273H1881.64ZM1879.63 854.739V846.17H1881.65C1884.19 846.17 1885.51 847.693 1885.51 850.437C1885.51 853.193 1884.19 854.739 1881.54 854.739H1879.63Z" fill="#333333"/>
<path d="M1833.86 859.472H1888.14V860.71H1833.86V859.472Z" fill="#333333"/>
<rect x="1291" y="434.273" width="201" height="81.1328" rx="32.4531" fill="#FF9790"/>
<path d="M1368.16 469.636V477.148C1368.16 478.727 1367.07 479.864 1365.29 479.864C1363.53 479.864 1362.43 478.727 1362.43 477.148V469.636H1360.67V477.29C1360.67 479.733 1362.5 481.466 1365.29 481.466C1368.08 481.466 1369.92 479.733 1369.92 477.29V469.636H1368.16ZM1378.64 472.693H1380.33C1380.28 470.83 1378.64 469.477 1376.27 469.477C1373.94 469.477 1372.15 470.812 1372.15 472.818C1372.15 474.437 1373.31 475.386 1375.18 475.892L1376.55 476.267C1377.79 476.597 1378.75 477.006 1378.75 478.04C1378.75 479.176 1377.67 479.926 1376.18 479.926C1374.82 479.926 1373.7 479.324 1373.6 478.057H1371.83C1371.95 480.165 1373.58 481.466 1376.19 481.466C1378.92 481.466 1380.49 480.028 1380.49 478.057C1380.49 475.96 1378.62 475.148 1377.15 474.784L1376.01 474.489C1375.1 474.256 1373.89 473.83 1373.9 472.716C1373.9 471.727 1374.8 470.994 1376.23 470.994C1377.57 470.994 1378.52 471.619 1378.64 472.693ZM1382.42 481.273H1389.78V479.761H1384.17V476.199H1389.33V474.693H1384.17V471.148H1389.71V469.636H1382.42V481.273ZM1391.88 481.273H1393.64V476.869H1396.02C1396.06 476.869 1396.1 476.869 1396.14 476.869L1398.5 481.273H1400.5L1397.92 476.562C1399.35 476.034 1400.06 474.847 1400.06 473.284C1400.06 471.142 1398.73 469.636 1396.03 469.636H1391.88V481.273ZM1393.64 475.358V471.142H1395.84C1397.57 471.142 1398.29 471.966 1398.29 473.284C1398.29 474.597 1397.57 475.358 1395.86 475.358H1393.64ZM1408.11 481.273H1400.72V482.716H1408.11V481.273ZM1410.96 469.636H1409.2V481.273H1410.96V469.636ZM1417.1 481.273C1420.65 481.273 1422.7 479.074 1422.7 475.437C1422.7 471.818 1420.65 469.636 1417.22 469.636H1413.34V481.273H1417.1ZM1415.09 479.739V471.17H1417.11C1419.66 471.17 1420.97 472.693 1420.97 475.437C1420.97 478.193 1419.66 479.739 1417.01 479.739H1415.09Z" fill="#333333"/>
<path d="M1359.4 484.472H1423.6V485.71H1359.4V484.472Z" fill="#333333"/>
<rect x="1307" y="743.273" width="185" height="82" rx="32.8" fill="#FFD233"/>
<path d="M1361.57 781.693H1363.26C1363.21 779.83 1361.57 778.477 1359.2 778.477C1356.87 778.477 1355.08 779.812 1355.08 781.818C1355.08 783.437 1356.24 784.386 1358.11 784.892L1359.48 785.267C1360.72 785.597 1361.68 786.006 1361.68 787.04C1361.68 788.176 1360.6 788.926 1359.11 788.926C1357.75 788.926 1356.63 788.324 1356.53 787.057H1354.76C1354.88 789.165 1356.51 790.466 1359.12 790.466C1361.85 790.466 1363.42 789.028 1363.42 787.057C1363.42 784.96 1361.55 784.148 1360.08 783.784L1358.94 783.489C1358.03 783.256 1356.82 782.83 1356.83 781.716C1356.83 780.727 1357.73 779.994 1359.16 779.994C1360.5 779.994 1361.45 780.619 1361.57 781.693ZM1365.35 790.273H1372.71V788.761H1367.1V785.199H1372.26V783.693H1367.1V780.148H1372.64V778.636H1365.35V790.273ZM1374.81 790.273H1381.84V788.761H1376.57V778.636H1374.81V790.273ZM1383.67 790.273H1390.69V788.761H1385.42V778.636H1383.67V790.273ZM1398.62 790.273H1391.23V791.716H1398.62V790.273ZM1409.1 778.636H1407.36V787.182H1407.25L1401.33 778.636H1399.7V790.273H1401.46V781.739H1401.57L1407.48 790.273H1409.1V778.636ZM1412.46 790.273L1413.53 787.193H1418.08L1419.14 790.273H1421L1416.82 778.636H1414.79L1410.6 790.273H1412.46ZM1414.04 785.716L1415.76 780.75H1415.85L1417.57 785.716H1414.04ZM1422.51 778.636V790.273H1424.18V781.847H1424.29L1427.72 790.256H1429.1L1432.54 781.852H1432.64V790.273H1434.32V778.636H1432.18L1428.48 787.682H1428.34L1424.64 778.636H1422.51ZM1436.69 790.273H1444.06V788.761H1438.45V785.199H1443.61V783.693H1438.45V780.148H1443.99V778.636H1436.69V790.273Z" fill="#333333"/>
<rect x="1765" y="905.273" width="192" height="82" rx="32.8" fill="#FFD233"/>
<path d="M1824.1 952.273H1825.86V947.869H1828.25C1828.29 947.869 1828.32 947.869 1828.36 947.869L1830.72 952.273H1832.72L1830.14 947.562C1831.57 947.034 1832.28 945.847 1832.28 944.284C1832.28 942.142 1830.95 940.636 1828.25 940.636H1824.1V952.273ZM1825.86 946.358V942.142H1828.06C1829.8 942.142 1830.51 942.966 1830.51 944.284C1830.51 945.597 1829.8 946.358 1828.09 946.358H1825.86ZM1834.24 952.273H1841.6V950.761H1836V947.199H1841.15V945.693H1836V942.148H1841.54V940.636H1834.24V952.273ZM1851.58 944.312H1853.38C1852.99 942.045 1851.05 940.477 1848.54 940.477C1845.53 940.477 1843.33 942.744 1843.33 946.46C1843.33 950.142 1845.47 952.432 1848.62 952.432C1851.44 952.432 1853.46 950.58 1853.46 947.642V946.318H1848.89V947.767H1851.76C1851.72 949.642 1850.48 950.83 1848.62 950.83C1846.57 950.83 1845.07 949.278 1845.07 946.449C1845.07 943.631 1846.58 942.08 1848.55 942.08C1850.1 942.08 1851.14 942.932 1851.58 944.312ZM1861.61 952.273H1854.22V953.716H1861.61V952.273ZM1872.09 940.636H1870.35V949.182H1870.24L1864.32 940.636H1862.7V952.273H1864.45V943.739H1864.56L1870.47 952.273H1872.09V940.636ZM1881.96 940.636V948.148C1881.96 949.727 1880.87 950.864 1879.09 950.864C1877.33 950.864 1876.23 949.727 1876.23 948.148V940.636H1874.47V948.29C1874.47 950.733 1876.3 952.466 1879.09 952.466C1881.88 952.466 1883.72 950.733 1883.72 948.29V940.636H1881.96ZM1886.09 940.636V952.273H1887.76V943.847H1887.87L1891.3 952.256H1892.69L1896.12 943.852H1896.23V952.273H1897.9V940.636H1895.77L1892.07 949.682H1891.93L1888.22 940.636H1886.09Z" fill="#333333"/>
<rect x="1291" y="530.406" width="201" height="82" rx="32.8" fill="#FFD233"/>
<path d="M1348.43 577.406H1350.19V573.315H1352.58C1355.27 573.315 1356.61 571.684 1356.61 569.536C1356.61 567.394 1355.29 565.769 1352.58 565.769H1348.43V577.406ZM1350.19 571.826V567.275H1352.39C1354.13 567.275 1354.84 568.218 1354.84 569.536C1354.84 570.854 1354.13 571.826 1352.42 571.826H1350.19ZM1358.24 577.406L1359.31 574.326H1363.85L1364.92 577.406H1366.78L1362.59 565.769H1360.56L1356.38 577.406H1358.24ZM1359.82 572.849L1361.54 567.883H1361.63L1363.34 572.849H1359.82ZM1374.54 568.826H1376.23C1376.18 566.962 1374.53 565.61 1372.17 565.61C1369.83 565.61 1368.04 566.945 1368.04 568.951C1368.04 570.57 1369.2 571.519 1371.07 572.025L1372.45 572.4C1373.69 572.729 1374.65 573.138 1374.65 574.173C1374.65 575.309 1373.57 576.059 1372.07 576.059C1370.72 576.059 1369.59 575.457 1369.49 574.19H1367.73C1367.84 576.298 1369.47 577.599 1372.08 577.599C1374.82 577.599 1376.39 576.161 1376.39 574.19C1376.39 572.093 1374.52 571.281 1373.04 570.917L1371.91 570.621C1371 570.388 1369.79 569.962 1369.79 568.849C1369.79 567.86 1370.7 567.127 1372.13 567.127C1373.46 567.127 1374.41 567.752 1374.54 568.826ZM1384.66 568.826H1386.35C1386.3 566.962 1384.65 565.61 1382.29 565.61C1379.95 565.61 1378.16 566.945 1378.16 568.951C1378.16 570.57 1379.32 571.519 1381.19 572.025L1382.57 572.4C1383.81 572.729 1384.77 573.138 1384.77 574.173C1384.77 575.309 1383.69 576.059 1382.19 576.059C1380.84 576.059 1379.72 575.457 1379.61 574.19H1377.85C1377.97 576.298 1379.6 577.599 1382.2 577.599C1384.94 577.599 1386.51 576.161 1386.51 574.19C1386.51 572.093 1384.64 571.281 1383.16 570.917L1382.03 570.621C1381.12 570.388 1379.91 569.962 1379.91 568.849C1379.91 567.86 1380.82 567.127 1382.25 567.127C1383.58 567.127 1384.53 567.752 1384.66 568.826ZM1390.71 577.406H1392.48L1394.93 568.69H1395.02L1397.47 577.406H1399.24L1402.47 565.769H1400.62L1398.36 574.786H1398.25L1395.89 565.769H1394.06L1391.71 574.781H1391.6L1389.33 565.769H1387.48L1390.71 577.406ZM1413.43 571.587C1413.43 567.866 1411.2 565.61 1408.19 565.61C1405.17 565.61 1402.94 567.866 1402.94 571.587C1402.94 575.303 1405.17 577.565 1408.19 577.565C1411.2 577.565 1413.43 575.309 1413.43 571.587ZM1411.69 571.587C1411.69 574.423 1410.19 575.962 1408.19 575.962C1406.18 575.962 1404.69 574.423 1404.69 571.587C1404.69 568.752 1406.18 567.212 1408.19 567.212C1410.19 567.212 1411.69 568.752 1411.69 571.587ZM1415.44 577.406H1417.2V573.002H1419.58C1419.62 573.002 1419.66 573.002 1419.7 573.002L1422.06 577.406H1424.06L1421.48 572.695C1422.91 572.167 1423.62 570.979 1423.62 569.417C1423.62 567.275 1422.29 565.769 1419.59 565.769H1415.44V577.406ZM1417.2 571.491V567.275H1419.4C1421.13 567.275 1421.85 568.099 1421.85 569.417C1421.85 570.729 1421.13 571.491 1419.42 571.491H1417.2ZM1429.34 577.406C1432.89 577.406 1434.94 575.207 1434.94 571.57C1434.94 567.951 1432.89 565.769 1429.46 565.769H1425.58V577.406H1429.34ZM1427.33 575.871V567.303H1429.35C1431.9 567.303 1433.21 568.826 1433.21 571.57C1433.21 574.326 1431.9 575.871 1429.25 575.871H1427.33Z" fill="#333333"/>
<rect x="1307" y="840.273" width="185" height="82" rx="32.8" fill="#FFD233"/>
<path d="M1367.91 878.693H1369.61C1369.55 876.83 1367.91 875.477 1365.54 875.477C1363.21 875.477 1361.42 876.812 1361.42 878.818C1361.42 880.437 1362.58 881.386 1364.45 881.892L1365.82 882.267C1367.07 882.597 1368.03 883.006 1368.03 884.04C1368.03 885.176 1366.94 885.926 1365.45 885.926C1364.09 885.926 1362.97 885.324 1362.87 884.057H1361.11C1361.22 886.165 1362.85 887.466 1365.46 887.466C1368.19 887.466 1369.77 886.028 1369.77 884.057C1369.77 881.96 1367.9 881.148 1366.42 880.784L1365.28 880.489C1364.37 880.256 1363.16 879.83 1363.17 878.716C1363.17 877.727 1364.07 876.994 1365.5 876.994C1366.84 876.994 1367.79 877.619 1367.91 878.693ZM1371.69 887.273H1379.05V885.761H1373.44V882.199H1378.6V880.693H1373.44V877.148H1378.98V875.636H1371.69V887.273ZM1381.15 887.273H1388.18V885.761H1382.91V875.636H1381.15V887.273ZM1390.01 887.273H1397.04V885.761H1391.76V875.636H1390.01V887.273ZM1404.96 887.273H1397.57V888.716H1404.96V887.273ZM1407.03 887.273L1408.1 884.193H1412.64L1413.7 887.273H1415.57L1411.38 875.636H1409.35L1405.16 887.273H1407.03ZM1408.61 882.716L1410.32 877.75H1410.41L1412.13 882.716H1408.61ZM1420.84 887.273C1424.39 887.273 1426.44 885.074 1426.44 881.437C1426.44 877.818 1424.39 875.636 1420.96 875.636H1417.07V887.273H1420.84ZM1418.83 885.739V877.17H1420.85C1423.4 877.17 1424.71 878.693 1424.71 881.437C1424.71 884.193 1423.4 885.739 1420.74 885.739H1418.83ZM1432.21 887.273C1435.76 887.273 1437.81 885.074 1437.81 881.437C1437.81 877.818 1435.76 875.636 1432.33 875.636H1428.44V887.273H1432.21ZM1430.2 885.739V877.17H1432.22C1434.77 877.17 1436.08 878.693 1436.08 881.437C1436.08 884.193 1434.77 885.739 1432.11 885.739H1430.2Z" fill="#333333"/>
<rect x="1765" y="1002.27" width="192" height="82" rx="32.8" fill="#FFD233"/>
<path d="M1819.67 1049.27H1821.42V1044.87H1823.81C1823.85 1044.87 1823.88 1044.87 1823.92 1044.87L1826.29 1049.27H1828.29L1825.71 1044.56C1827.13 1044.03 1827.84 1042.85 1827.84 1041.28C1827.84 1039.14 1826.51 1037.64 1823.82 1037.64H1819.67V1049.27ZM1821.42 1043.36V1039.14H1823.63C1825.36 1039.14 1826.08 1039.97 1826.08 1041.28C1826.08 1042.6 1825.36 1043.36 1823.65 1043.36H1821.42ZM1829.8 1049.27H1837.17V1047.76H1831.56V1044.2H1836.72V1042.69H1831.56V1039.15H1837.1V1037.64H1829.8V1049.27ZM1847.14 1041.31H1848.95C1848.55 1039.05 1846.62 1037.48 1844.1 1037.48C1841.09 1037.48 1838.89 1039.74 1838.89 1043.46C1838.89 1047.14 1841.03 1049.43 1844.18 1049.43C1847.01 1049.43 1849.02 1047.58 1849.02 1044.64V1043.32H1844.45V1044.77H1847.33C1847.29 1046.64 1846.05 1047.83 1844.18 1047.83C1842.13 1047.83 1840.64 1046.28 1840.64 1043.45C1840.64 1040.63 1842.14 1039.08 1844.12 1039.08C1845.66 1039.08 1846.71 1039.93 1847.14 1041.31ZM1857.17 1049.27H1849.78V1050.72H1857.17V1049.27ZM1867.65 1037.64H1865.91V1046.18H1865.81L1859.89 1037.64H1858.26V1049.27H1860.02V1040.74H1860.12L1866.04 1049.27H1867.65V1037.64ZM1871.02 1049.27L1872.09 1046.19H1876.63L1877.7 1049.27H1879.56L1875.37 1037.64H1873.34L1869.16 1049.27H1871.02ZM1872.6 1044.72L1874.32 1039.75H1874.41L1876.12 1044.72H1872.6ZM1881.06 1037.64V1049.27H1882.74V1040.85H1882.84L1886.28 1049.26H1887.66L1891.09 1040.85H1891.2V1049.27H1892.87V1037.64H1890.74L1887.04 1046.68H1886.9L1883.2 1037.64H1881.06ZM1895.25 1049.27H1902.61V1047.76H1897V1044.2H1902.16V1042.69H1897V1039.15H1902.54V1037.64H1895.25V1049.27Z" fill="#333333"/>
<rect x="1765" y="1099.27" width="192" height="82" rx="32.8" fill="#FFD233"/>
<path d="M1823.07 1146.27H1824.83V1141.87H1827.22C1827.26 1141.87 1827.29 1141.87 1827.33 1141.87L1829.69 1146.27H1831.69L1829.11 1141.56C1830.54 1141.03 1831.25 1139.85 1831.25 1138.28C1831.25 1136.14 1829.92 1134.64 1827.22 1134.64H1823.07V1146.27ZM1824.83 1140.36V1136.14H1827.03C1828.77 1136.14 1829.48 1136.97 1829.48 1138.28C1829.48 1139.6 1828.77 1140.36 1827.06 1140.36H1824.83ZM1833.21 1146.27H1840.57V1144.76H1834.97V1141.2H1840.13V1139.69H1834.97V1136.15H1840.51V1134.64H1833.21V1146.27ZM1850.55 1138.31H1852.35C1851.96 1136.05 1850.02 1134.48 1847.51 1134.48C1844.5 1134.48 1842.3 1136.74 1842.3 1140.46C1842.3 1144.14 1844.44 1146.43 1847.59 1146.43C1850.41 1146.43 1852.43 1144.58 1852.43 1141.64V1140.32H1847.86V1141.77H1850.73C1850.69 1143.64 1849.45 1144.83 1847.59 1144.83C1845.54 1144.83 1844.04 1143.28 1844.04 1140.45C1844.04 1137.63 1845.55 1136.08 1847.52 1136.08C1849.07 1136.08 1850.11 1136.93 1850.55 1138.31ZM1860.58 1146.27H1853.19V1147.72H1860.58V1146.27ZM1860.19 1136.15H1863.81V1146.27H1865.56V1136.15H1869.19V1134.64H1860.19V1136.15ZM1870.11 1134.64L1874.33 1141.7V1146.27H1876.08V1141.7L1880.3 1134.64H1878.31L1875.27 1139.93H1875.14L1872.1 1134.64H1870.11ZM1881.78 1146.27H1883.54V1142.18H1885.93C1888.62 1142.18 1889.96 1140.55 1889.96 1138.4C1889.96 1136.26 1888.64 1134.64 1885.93 1134.64H1881.78V1146.27ZM1883.54 1140.69V1136.14H1885.74C1887.48 1136.14 1888.19 1137.09 1888.19 1138.4C1888.19 1139.72 1887.48 1140.69 1885.77 1140.69H1883.54ZM1891.84 1146.27H1899.21V1144.76H1893.6V1141.2H1898.76V1139.69H1893.6V1136.15H1899.14V1134.64H1891.84V1146.27Z" fill="#333333"/>
<rect x="228" y="943.273" width="192" height="82" rx="32.8" fill="#FFD233"/>
<path d="M282.535 990.273H284.291V986.182H286.677C289.376 986.182 290.711 984.551 290.711 982.403C290.711 980.261 289.387 978.636 286.683 978.636H282.535V990.273ZM284.291 984.693V980.142H286.495C288.234 980.142 288.944 981.085 288.944 982.403C288.944 983.722 288.234 984.693 286.518 984.693H284.291ZM292.593 990.273H294.349V985.869H296.735C296.775 985.869 296.809 985.869 296.849 985.869L299.213 990.273H301.213L298.633 985.562C300.059 985.034 300.77 983.847 300.77 982.284C300.77 980.142 299.44 978.636 296.741 978.636H292.593V990.273ZM294.349 984.358V980.142H296.554C298.287 980.142 299.003 980.966 299.003 982.284C299.003 983.597 298.287 984.358 296.576 984.358H294.349ZM312.838 984.455C312.838 980.733 310.611 978.477 307.599 978.477C304.576 978.477 302.355 980.733 302.355 984.455C302.355 988.17 304.576 990.432 307.599 990.432C310.611 990.432 312.838 988.176 312.838 984.455ZM311.099 984.455C311.099 987.29 309.599 988.83 307.599 988.83C305.594 988.83 304.099 987.29 304.099 984.455C304.099 981.619 305.594 980.08 307.599 980.08C309.599 980.08 311.099 981.619 311.099 984.455ZM320.307 990.273H312.915V991.716H320.307V990.273ZM330.786 978.636H329.047V987.182H328.939L323.019 978.636H321.394V990.273H323.149V981.739H323.257L329.172 990.273H330.786V978.636ZM334.154 990.273L335.222 987.193H339.767L340.83 990.273H342.693L338.506 978.636H336.477L332.29 990.273H334.154ZM335.733 985.716L337.449 980.75H337.54L339.256 985.716H335.733ZM344.198 978.636V990.273H345.868V981.847H345.976L349.408 990.256H350.794L354.226 981.852H354.334V990.273H356.005V978.636H353.874L350.169 987.682H350.033L346.328 978.636H344.198ZM358.381 990.273H365.745V988.761H360.137V985.199H365.296V983.693H360.137V980.148H365.677V978.636H358.381V990.273Z" fill="#333333"/>
<rect x="228" y="1038.27" width="192" height="82" rx="32.8" fill="#FFD233"/>
<path d="M285.941 1085.27H287.697V1081.18H290.083C292.782 1081.18 294.117 1079.55 294.117 1077.4C294.117 1075.26 292.794 1073.64 290.089 1073.64H285.941V1085.27ZM287.697 1079.69V1075.14H289.902C291.64 1075.14 292.35 1076.09 292.35 1077.4C292.35 1078.72 291.64 1079.69 289.924 1079.69H287.697ZM296 1085.27H297.755V1080.87H300.142C300.181 1080.87 300.216 1080.87 300.255 1080.87L302.619 1085.27H304.619L302.039 1080.56C303.466 1080.03 304.176 1078.85 304.176 1077.28C304.176 1075.14 302.846 1073.64 300.147 1073.64H296V1085.27ZM297.755 1079.36V1075.14H299.96C301.693 1075.14 302.409 1075.97 302.409 1077.28C302.409 1078.6 301.693 1079.36 299.983 1079.36H297.755ZM316.244 1079.45C316.244 1075.73 314.017 1073.48 311.005 1073.48C307.983 1073.48 305.761 1075.73 305.761 1079.45C305.761 1083.17 307.983 1085.43 311.005 1085.43C314.017 1085.43 316.244 1083.18 316.244 1079.45ZM314.505 1079.45C314.505 1082.29 313.005 1083.83 311.005 1083.83C309 1083.83 307.505 1082.29 307.505 1079.45C307.505 1076.62 309 1075.08 311.005 1075.08C313.005 1075.08 314.505 1076.62 314.505 1079.45ZM323.713 1085.27H316.321V1086.72H323.713V1085.27ZM323.32 1075.15H326.945V1085.27H328.695V1075.15H332.325V1073.64H323.32V1075.15ZM333.242 1073.64L337.463 1080.7V1085.27H339.213V1080.7L343.435 1073.64H341.441L338.401 1078.93H338.276L335.236 1073.64H333.242ZM344.917 1085.27H346.672V1081.18H349.059C351.757 1081.18 353.093 1079.55 353.093 1077.4C353.093 1075.26 351.769 1073.64 349.064 1073.64H344.917V1085.27ZM346.672 1079.69V1075.14H348.877C350.615 1075.14 351.326 1076.09 351.326 1077.4C351.326 1078.72 350.615 1079.69 348.899 1079.69H346.672ZM354.975 1085.27H362.339V1083.76H356.731V1080.2H361.89V1078.69H356.731V1075.15H362.27V1073.64H354.975V1085.27Z" fill="#333333"/>
<rect x="1307" y="1141.27" width="185" height="82" rx="32.8" fill="#FFD233"/>
<path d="M1358.27 1188.27H1362.73C1365.43 1188.27 1366.66 1186.93 1366.66 1185.14C1366.66 1183.34 1365.39 1182.32 1364.24 1182.26V1182.15C1365.31 1181.87 1366.2 1181.15 1366.2 1179.69C1366.2 1177.97 1365.01 1176.64 1362.53 1176.64H1358.27V1188.27ZM1360.03 1186.77V1183.04H1362.62C1364.03 1183.04 1364.91 1183.95 1364.91 1185.06C1364.91 1186.03 1364.25 1186.77 1362.56 1186.77H1360.03ZM1360.03 1181.67V1178.13H1362.42C1363.81 1178.13 1364.48 1178.86 1364.48 1179.83C1364.48 1180.95 1363.56 1181.67 1362.38 1181.67H1360.03ZM1367.66 1176.64L1371.89 1183.7V1188.27H1373.64V1183.7L1377.86 1176.64H1375.86L1372.82 1181.93H1372.7L1369.66 1176.64H1367.66ZM1379.34 1188.27H1381.09V1183.87H1383.48C1383.52 1183.87 1383.56 1183.87 1383.59 1183.87L1385.96 1188.27H1387.96L1385.38 1183.56C1386.81 1183.03 1387.52 1181.85 1387.52 1180.28C1387.52 1178.14 1386.19 1176.64 1383.49 1176.64H1379.34V1188.27ZM1381.09 1182.36V1178.14H1383.3C1385.03 1178.14 1385.75 1178.97 1385.75 1180.28C1385.75 1181.6 1385.03 1182.36 1383.32 1182.36H1381.09ZM1395.57 1188.27H1388.18V1189.72H1395.57V1188.27ZM1406.05 1176.64H1404.31V1185.18H1404.2L1398.28 1176.64H1396.66V1188.27H1398.41V1179.74H1398.52L1404.44 1188.27H1406.05V1176.64ZM1409.42 1188.27L1410.49 1185.19H1415.03L1416.1 1188.27H1417.96L1413.77 1176.64H1411.74L1407.56 1188.27H1409.42ZM1411 1183.72L1412.71 1178.75H1412.81L1414.52 1183.72H1411ZM1419.46 1176.64V1188.27H1421.13V1179.85H1421.24L1424.67 1188.26H1426.06L1429.49 1179.85H1429.6V1188.27H1431.27V1176.64H1429.14L1425.43 1185.68H1425.3L1421.59 1176.64H1419.46ZM1433.65 1188.27H1441.01V1186.76H1435.4V1183.2H1440.56V1181.69H1435.4V1178.15H1440.94V1176.64H1433.65V1188.27Z" fill="#333333"/>
<rect x="1307" y="1237.27" width="185" height="82" rx="32.8" fill="#FFD233"/>
<path d="M1351.97 1284.27H1356.43C1359.13 1284.27 1360.36 1282.93 1360.36 1281.14C1360.36 1279.34 1359.09 1278.32 1357.94 1278.26V1278.15C1359.01 1277.87 1359.9 1277.15 1359.9 1275.69C1359.9 1273.97 1358.71 1272.64 1356.23 1272.64H1351.97V1284.27ZM1353.72 1282.77V1279.04H1356.32C1357.73 1279.04 1358.61 1279.95 1358.61 1281.06C1358.61 1282.03 1357.95 1282.77 1356.26 1282.77H1353.72ZM1353.72 1277.67V1274.13H1356.12C1357.51 1274.13 1358.18 1274.86 1358.18 1275.83C1358.18 1276.95 1357.26 1277.67 1356.08 1277.67H1353.72ZM1361.36 1272.64L1365.59 1279.7V1284.27H1367.34V1279.7L1371.56 1272.64H1369.56L1366.52 1277.93H1366.4L1363.36 1272.64H1361.36ZM1373.04 1284.27H1374.79V1279.87H1377.18C1377.22 1279.87 1377.25 1279.87 1377.29 1279.87L1379.66 1284.27H1381.66L1379.08 1279.56C1380.5 1279.03 1381.21 1277.85 1381.21 1276.28C1381.21 1274.14 1379.89 1272.64 1377.19 1272.64H1373.04V1284.27ZM1374.79 1278.36V1274.14H1377C1378.73 1274.14 1379.45 1274.97 1379.45 1276.28C1379.45 1277.6 1378.73 1278.36 1377.02 1278.36H1374.79ZM1389.27 1284.27H1381.88V1285.72H1389.27V1284.27ZM1390.36 1272.64V1284.27H1392.03V1275.85H1392.14L1395.57 1284.26H1396.96L1400.39 1275.85H1400.49V1284.27H1402.17V1272.64H1400.03L1396.33 1281.68H1396.19L1392.49 1272.64H1390.36ZM1414.65 1278.45C1414.65 1274.73 1412.42 1272.48 1409.41 1272.48C1406.39 1272.48 1404.17 1274.73 1404.17 1278.45C1404.17 1282.17 1406.39 1284.43 1409.41 1284.43C1412.42 1284.43 1414.65 1282.18 1414.65 1278.45ZM1412.91 1278.45C1412.91 1281.29 1411.41 1282.83 1409.41 1282.83C1407.41 1282.83 1405.91 1281.29 1405.91 1278.45C1405.91 1275.62 1407.41 1274.08 1409.41 1274.08C1411.41 1274.08 1412.91 1275.62 1412.91 1278.45ZM1416.66 1284.27H1421.12C1423.83 1284.27 1425.05 1282.93 1425.05 1281.14C1425.05 1279.34 1423.79 1278.32 1422.63 1278.26V1278.15C1423.7 1277.87 1424.59 1277.15 1424.59 1275.69C1424.59 1273.97 1423.4 1272.64 1420.92 1272.64H1416.66V1284.27ZM1418.42 1282.77V1279.04H1421.02C1422.42 1279.04 1423.3 1279.95 1423.3 1281.06C1423.3 1282.03 1422.64 1282.77 1420.95 1282.77H1418.42ZM1418.42 1277.67V1274.13H1420.82C1422.21 1274.13 1422.87 1274.86 1422.87 1275.83C1422.87 1276.95 1421.95 1277.67 1420.77 1277.67H1418.42ZM1428.71 1272.64H1426.96V1284.27H1428.71V1272.64ZM1431.09 1284.27H1438.12V1282.76H1432.85V1272.64H1431.09V1284.27ZM1439.95 1284.27H1447.31V1282.76H1441.7V1279.2H1446.86V1277.69H1441.7V1274.15H1447.24V1272.64H1439.95V1284.27Z" fill="#333333"/>
<rect x="1307" y="1333.27" width="185" height="82" rx="32.8" fill="#FFD233"/>
<path d="M1364.61 1380.27H1369.07C1371.78 1380.27 1373 1378.93 1373 1377.14C1373 1375.34 1371.74 1374.32 1370.58 1374.26V1374.15C1371.65 1373.87 1372.54 1373.15 1372.54 1371.69C1372.54 1369.97 1371.35 1368.64 1368.87 1368.64H1364.61V1380.27ZM1366.37 1378.77V1375.04H1368.96C1370.37 1375.04 1371.25 1375.95 1371.25 1377.06C1371.25 1378.03 1370.59 1378.77 1368.9 1378.77H1366.37ZM1366.37 1373.67V1370.13H1368.76C1370.16 1370.13 1370.82 1370.86 1370.82 1371.83C1370.82 1372.95 1369.9 1373.67 1368.72 1373.67H1366.37ZM1374.01 1368.64L1378.23 1375.7V1380.27H1379.98V1375.7L1384.2 1368.64H1382.2L1379.17 1373.93H1379.04L1376 1368.64H1374.01ZM1385.68 1380.27H1387.44V1375.87H1389.82C1389.86 1375.87 1389.9 1375.87 1389.94 1375.87L1392.3 1380.27H1394.3L1391.72 1375.56C1393.15 1375.03 1393.86 1373.85 1393.86 1372.28C1393.86 1370.14 1392.53 1368.64 1389.83 1368.64H1385.68V1380.27ZM1387.44 1374.36V1370.14H1389.64C1391.37 1370.14 1392.09 1370.97 1392.09 1372.28C1392.09 1373.6 1391.37 1374.36 1389.66 1374.36H1387.44ZM1401.91 1380.27H1394.52V1381.72H1401.91V1380.27ZM1403.98 1380.27L1405.05 1377.19H1409.6L1410.66 1380.27H1412.52L1408.34 1368.64H1406.31L1402.12 1380.27H1403.98ZM1405.56 1375.72L1407.28 1370.75H1407.37L1409.09 1375.72H1405.56ZM1417.8 1380.27C1421.34 1380.27 1423.39 1378.07 1423.39 1374.44C1423.39 1370.82 1421.34 1368.64 1417.91 1368.64H1414.03V1380.27H1417.8ZM1415.78 1378.74V1370.17H1417.81C1420.35 1370.17 1421.66 1371.69 1421.66 1374.44C1421.66 1377.19 1420.35 1378.74 1417.7 1378.74H1415.78ZM1429.17 1380.27C1432.71 1380.27 1434.76 1378.07 1434.76 1374.44C1434.76 1370.82 1432.71 1368.64 1429.29 1368.64H1425.4V1380.27H1429.17ZM1427.15 1378.74V1370.17H1429.18C1431.72 1370.17 1433.04 1371.69 1433.04 1374.44C1433.04 1377.19 1431.72 1378.74 1429.07 1378.74H1427.15Z" fill="#333333"/>
<rect x="1307" y="1429.27" width="185" height="82" rx="32.8" fill="#FFD233"/>
<path d="M1361.5 1476.27H1365.96C1368.66 1476.27 1369.88 1474.93 1369.88 1473.14C1369.88 1471.34 1368.62 1470.32 1367.47 1470.26V1470.15C1368.54 1469.87 1369.43 1469.15 1369.43 1467.69C1369.43 1465.97 1368.23 1464.64 1365.76 1464.64H1361.5V1476.27ZM1363.25 1474.77V1471.04H1365.85C1367.26 1471.04 1368.14 1471.95 1368.14 1473.06C1368.14 1474.03 1367.47 1474.77 1365.79 1474.77H1363.25ZM1363.25 1469.67V1466.13H1365.65C1367.04 1466.13 1367.71 1466.86 1367.71 1467.83C1367.71 1468.95 1366.79 1469.67 1365.6 1469.67H1363.25ZM1370.89 1464.64L1375.11 1471.7V1476.27H1376.86V1471.7L1381.08 1464.64H1379.09L1376.05 1469.93H1375.93L1372.89 1464.64H1370.89ZM1382.57 1476.27H1384.32V1471.87H1386.71C1386.75 1471.87 1386.78 1471.87 1386.82 1471.87L1389.19 1476.27H1391.19L1388.61 1471.56C1390.03 1471.03 1390.74 1469.85 1390.74 1468.28C1390.74 1466.14 1389.41 1464.64 1386.71 1464.64H1382.57V1476.27ZM1384.32 1470.36V1466.14H1386.53C1388.26 1466.14 1388.97 1466.97 1388.97 1468.28C1388.97 1469.6 1388.26 1470.36 1386.55 1470.36H1384.32ZM1398.8 1476.27H1391.41V1477.72H1398.8V1476.27ZM1399.89 1476.27H1401.64V1472.18H1404.03C1406.73 1472.18 1408.06 1470.55 1408.06 1468.4C1408.06 1466.26 1406.74 1464.64 1404.03 1464.64H1399.89V1476.27ZM1401.64 1470.69V1466.14H1403.85C1405.58 1466.14 1406.29 1467.09 1406.29 1468.4C1406.29 1469.72 1405.58 1470.69 1403.87 1470.69H1401.64ZM1409.69 1476.27L1410.76 1473.19H1415.31L1416.37 1476.27H1418.23L1414.04 1464.64H1412.02L1407.83 1476.27H1409.69ZM1411.27 1471.72L1412.99 1466.75H1413.08L1414.79 1471.72H1411.27ZM1425.99 1467.69H1427.68C1427.63 1465.83 1425.98 1464.48 1423.62 1464.48C1421.29 1464.48 1419.5 1465.81 1419.5 1467.82C1419.5 1469.44 1420.65 1470.39 1422.52 1470.89L1423.9 1471.27C1425.14 1471.6 1426.1 1472.01 1426.1 1473.04C1426.1 1474.18 1425.02 1474.93 1423.52 1474.93C1422.17 1474.93 1421.05 1474.32 1420.94 1473.06H1419.18C1419.3 1475.16 1420.93 1476.47 1423.54 1476.47C1426.27 1476.47 1427.84 1475.03 1427.84 1473.06C1427.84 1470.96 1425.97 1470.15 1424.5 1469.78L1423.36 1469.49C1422.45 1469.26 1421.24 1468.83 1421.25 1467.72C1421.25 1466.73 1422.15 1465.99 1423.58 1465.99C1424.92 1465.99 1425.86 1466.62 1425.99 1467.69ZM1436.11 1467.69H1437.8C1437.75 1465.83 1436.1 1464.48 1433.74 1464.48C1431.41 1464.48 1429.62 1465.81 1429.62 1467.82C1429.62 1469.44 1430.78 1470.39 1432.64 1470.89L1434.02 1471.27C1435.26 1471.6 1436.22 1472.01 1436.22 1473.04C1436.22 1474.18 1435.14 1474.93 1433.64 1474.93C1432.29 1474.93 1431.17 1474.32 1431.07 1473.06H1429.3C1429.42 1475.16 1431.05 1476.47 1433.66 1476.47C1436.39 1476.47 1437.96 1475.03 1437.96 1473.06C1437.96 1470.96 1436.09 1470.15 1434.62 1469.78L1433.48 1469.49C1432.57 1469.26 1431.36 1468.83 1431.37 1467.72C1431.37 1466.73 1432.27 1465.99 1433.7 1465.99C1435.04 1465.99 1435.99 1466.62 1436.11 1467.69Z" fill="#333333"/>
<path d="M1135.1 1182.34C1134.28 1182.34 1133.6 1183.01 1133.6 1183.84C1133.6 1184.67 1134.28 1185.34 1135.1 1185.34V1182.34ZM1304.06 1086.9C1304.65 1086.31 1304.65 1085.36 1304.06 1084.78L1294.51 1075.23C1293.93 1074.65 1292.98 1074.65 1292.39 1075.23C1291.81 1075.82 1291.81 1076.77 1292.39 1077.35L1300.88 1085.84L1292.39 1094.32C1291.81 1094.91 1291.81 1095.86 1292.39 1096.45C1292.98 1097.03 1293.93 1097.03 1294.51 1096.45L1304.06 1086.9ZM1135.1 1185.34H1195.05V1182.34H1135.1V1185.34ZM1220.55 1159.84V1109.84H1217.55V1159.84H1220.55ZM1243.05 1087.34H1303V1084.34H1243.05V1087.34ZM1220.55 1109.84C1220.55 1097.41 1230.63 1087.34 1243.05 1087.34V1084.34C1228.97 1084.34 1217.55 1095.76 1217.55 1109.84H1220.55ZM1195.05 1185.34C1209.14 1185.34 1220.55 1173.92 1220.55 1159.84H1217.55C1217.55 1172.27 1207.48 1182.34 1195.05 1182.34V1185.34Z" fill="#C4C4C4"/>
<path d="M1135.1 1182.34C1134.28 1182.34 1133.6 1183.01 1133.6 1183.84C1133.6 1184.67 1134.28 1185.34 1135.1 1185.34V1182.34ZM1304.06 1183.33C1304.65 1182.75 1304.65 1181.8 1304.06 1181.21L1294.51 1171.67C1293.93 1171.08 1292.98 1171.08 1292.39 1171.67C1291.81 1172.25 1291.81 1173.2 1292.39 1173.79L1300.88 1182.27L1292.39 1190.76C1291.81 1191.34 1291.81 1192.29 1292.39 1192.88C1292.98 1193.47 1293.93 1193.47 1294.51 1192.88L1304.06 1183.33ZM1135.1 1185.34H1218.27V1182.34H1135.1V1185.34ZM1219.84 1183.77H1303V1180.77H1219.84V1183.77ZM1220.55 1183.06C1220.55 1183.45 1220.23 1183.77 1219.84 1183.77V1180.77C1218.57 1180.77 1217.55 1181.79 1217.55 1183.06H1220.55ZM1218.27 1185.34C1219.53 1185.34 1220.55 1184.32 1220.55 1183.06H1217.55C1217.55 1182.66 1217.87 1182.34 1218.27 1182.34V1185.34Z" fill="#C4C4C4"/>
<path d="M1135.1 1182.34C1134.28 1182.34 1133.6 1183.01 1133.6 1183.84C1133.6 1184.67 1134.28 1185.34 1135.1 1185.34V1182.34ZM1304.06 1279.33C1304.65 1278.75 1304.65 1277.8 1304.06 1277.21L1294.51 1267.67C1293.93 1267.08 1292.98 1267.08 1292.39 1267.67C1291.81 1268.25 1291.81 1269.2 1292.39 1269.79L1300.88 1278.27L1292.39 1286.76C1291.81 1287.34 1291.81 1288.29 1292.39 1288.88C1292.98 1289.47 1293.93 1289.47 1294.51 1288.88L1304.06 1279.33ZM1135.1 1185.34H1195.05V1182.34H1135.1V1185.34ZM1217.55 1207.84V1254.27H1220.55V1207.84H1217.55ZM1243.05 1279.77H1303V1276.77H1243.05V1279.77ZM1217.55 1254.27C1217.55 1268.36 1228.97 1279.77 1243.05 1279.77V1276.77C1230.63 1276.77 1220.55 1266.7 1220.55 1254.27H1217.55ZM1195.05 1185.34C1207.48 1185.34 1217.55 1195.41 1217.55 1207.84H1220.55C1220.55 1193.76 1209.14 1182.34 1195.05 1182.34V1185.34Z" fill="#C4C4C4"/>
<path d="M1135.1 1182.34C1134.28 1182.34 1133.6 1183.01 1133.6 1183.84C1133.6 1184.67 1134.28 1185.34 1135.1 1185.34V1182.34ZM1304.06 1375.33C1304.65 1374.75 1304.65 1373.8 1304.06 1373.21L1294.51 1363.67C1293.93 1363.08 1292.98 1363.08 1292.39 1363.67C1291.81 1364.25 1291.81 1365.2 1292.39 1365.79L1300.88 1374.27L1292.39 1382.76C1291.81 1383.34 1291.81 1384.29 1292.39 1384.88C1292.98 1385.47 1293.93 1385.47 1294.51 1384.88L1304.06 1375.33ZM1135.1 1185.34H1195.05V1182.34H1135.1V1185.34ZM1217.55 1207.84V1350.27H1220.55V1207.84H1217.55ZM1243.05 1375.77H1303V1372.77H1243.05V1375.77ZM1217.55 1350.27C1217.55 1364.36 1228.97 1375.77 1243.05 1375.77V1372.77C1230.63 1372.77 1220.55 1362.7 1220.55 1350.27H1217.55ZM1195.05 1185.34C1207.48 1185.34 1217.55 1195.41 1217.55 1207.84H1220.55C1220.55 1193.76 1209.14 1182.34 1195.05 1182.34V1185.34Z" fill="#C4C4C4"/>
<path d="M1135.1 1182.34C1134.28 1182.34 1133.6 1183.01 1133.6 1183.84C1133.6 1184.67 1134.28 1185.34 1135.1 1185.34V1182.34ZM1304.06 1471.33C1304.65 1470.75 1304.65 1469.8 1304.06 1469.21L1294.51 1459.67C1293.93 1459.08 1292.98 1459.08 1292.39 1459.67C1291.81 1460.25 1291.81 1461.2 1292.39 1461.79L1300.88 1470.27L1292.39 1478.76C1291.81 1479.34 1291.81 1480.29 1292.39 1480.88C1292.98 1481.47 1293.93 1481.47 1294.51 1480.88L1304.06 1471.33ZM1135.1 1185.34H1195.05V1182.34H1135.1V1185.34ZM1217.55 1207.84V1446.27H1220.55V1207.84H1217.55ZM1243.05 1471.77H1303V1468.77H1243.05V1471.77ZM1217.55 1446.27C1217.55 1460.36 1228.97 1471.77 1243.05 1471.77V1468.77C1230.63 1468.77 1220.55 1458.7 1220.55 1446.27H1217.55ZM1195.05 1185.34C1207.48 1185.34 1217.55 1195.41 1217.55 1207.84H1220.55C1220.55 1193.76 1209.14 1182.34 1195.05 1182.34V1185.34Z" fill="#C4C4C4"/>
<rect x="1003" y="743.273" width="128.104" height="81.1328" rx="2.43399" fill="#85B6FF"/>
<path d="M1047.97 781.983H1050.33C1050.3 779.909 1048.59 778.477 1046 778.477C1043.45 778.477 1041.58 779.886 1041.59 782C1041.59 783.716 1042.8 784.699 1044.76 785.17L1046.03 785.489C1047.3 785.795 1048 786.159 1048.01 786.943C1048 787.795 1047.2 788.375 1045.95 788.375C1044.67 788.375 1043.75 787.784 1043.67 786.619H1041.29C1041.35 789.136 1043.15 790.437 1045.97 790.437C1048.82 790.437 1050.49 789.08 1050.49 786.949C1050.49 785.011 1049.03 783.983 1047 783.528L1045.96 783.278C1044.95 783.045 1044.1 782.67 1044.12 781.835C1044.12 781.085 1044.78 780.534 1045.99 780.534C1047.16 780.534 1047.88 781.068 1047.97 781.983ZM1055.9 790.443C1058.06 790.443 1059.52 789.392 1059.86 787.773L1057.62 787.625C1057.37 788.29 1056.75 788.636 1055.94 788.636C1054.73 788.636 1053.96 787.835 1053.96 786.534V786.528H1059.91V785.864C1059.91 782.898 1058.11 781.432 1055.81 781.432C1053.24 781.432 1051.57 783.256 1051.57 785.949C1051.57 788.716 1053.21 790.443 1055.9 790.443ZM1053.96 785.028C1054.02 784.034 1054.77 783.239 1055.85 783.239C1056.9 783.239 1057.62 783.989 1057.63 785.028H1053.96ZM1063.73 778.636H1061.31V790.273H1063.73V778.636ZM1067.92 778.636H1065.49V790.273H1067.92V778.636ZM1073.66 790.443C1075.81 790.443 1077.27 789.392 1077.61 787.773L1075.37 787.625C1075.13 788.29 1074.5 788.636 1073.7 788.636C1072.48 788.636 1071.72 787.835 1071.72 786.534V786.528H1077.66V785.864C1077.66 782.898 1075.87 781.432 1073.56 781.432C1070.99 781.432 1069.33 783.256 1069.33 785.949C1069.33 788.716 1070.97 790.443 1073.66 790.443ZM1071.72 785.028C1071.77 784.034 1072.52 783.239 1073.6 783.239C1074.65 783.239 1075.38 783.989 1075.38 785.028H1071.72ZM1079.06 790.273H1081.49V785.335C1081.49 784.261 1082.27 783.523 1083.34 783.523C1083.67 783.523 1084.13 783.58 1084.36 783.653V781.506C1084.14 781.455 1083.84 781.42 1083.6 781.42C1082.62 781.42 1081.82 781.989 1081.5 783.068H1081.41V781.545H1079.06V790.273ZM1092.7 784.034C1092.48 782.426 1091.19 781.432 1088.98 781.432C1086.75 781.432 1085.28 782.466 1085.28 784.148C1085.28 785.455 1086.1 786.301 1087.8 786.642L1089.32 786.943C1090.08 787.097 1090.42 787.375 1090.44 787.812C1090.42 788.33 1089.86 788.699 1089.02 788.699C1088.15 788.699 1087.58 788.33 1087.43 787.619L1085.05 787.744C1085.28 789.415 1086.7 790.443 1089.01 790.443C1091.27 790.443 1092.89 789.29 1092.9 787.568C1092.89 786.307 1092.07 785.551 1090.37 785.205L1088.79 784.886C1087.98 784.71 1087.68 784.432 1087.69 784.011C1087.68 783.489 1088.27 783.148 1089.02 783.148C1089.86 783.148 1090.36 783.608 1090.48 784.17L1092.7 784.034Z" fill="#333333"/>
<rect x="1003" y="482.273" width="128.104" height="81.1328" rx="2.43399" fill="#85B6FF"/>
<path d="M1046.75 529.273H1054.2V527.244H1049.21V517.636H1046.75V529.273ZM1059.55 529.443C1062.2 529.443 1063.85 527.631 1063.85 524.943C1063.85 522.239 1062.2 520.432 1059.55 520.432C1056.9 520.432 1055.26 522.239 1055.26 524.943C1055.26 527.631 1056.9 529.443 1059.55 529.443ZM1059.56 527.568C1058.34 527.568 1057.72 526.449 1057.72 524.926C1057.72 523.403 1058.34 522.278 1059.56 522.278C1060.76 522.278 1061.39 523.403 1061.39 524.926C1061.39 526.449 1060.76 527.568 1059.56 527.568ZM1069.18 532.727C1071.67 532.727 1073.44 531.591 1073.44 529.358V520.545H1071.04V522.011H1070.95C1070.63 521.301 1069.92 520.432 1068.45 520.432C1066.54 520.432 1064.92 521.92 1064.92 524.892C1064.92 527.795 1066.49 529.148 1068.46 529.148C1069.85 529.148 1070.63 528.449 1070.95 527.727H1071.05V529.324C1071.05 530.523 1070.28 530.989 1069.23 530.989C1068.17 530.989 1067.63 530.523 1067.43 529.994L1065.19 530.295C1065.48 531.67 1066.82 532.727 1069.18 532.727ZM1069.23 527.33C1068.04 527.33 1067.39 526.386 1067.39 524.881C1067.39 523.398 1068.03 522.358 1069.23 522.358C1070.4 522.358 1071.06 523.352 1071.06 524.881C1071.06 526.42 1070.39 527.33 1069.23 527.33ZM1075.19 529.273H1077.61V520.545H1075.19V529.273ZM1076.41 519.42C1077.13 519.42 1077.72 518.869 1077.72 518.193C1077.72 517.523 1077.13 516.972 1076.41 516.972C1075.69 516.972 1075.1 517.523 1075.1 518.193C1075.1 518.869 1075.69 519.42 1076.41 519.42ZM1081.8 524.227C1081.8 523.102 1082.47 522.443 1083.45 522.443C1084.42 522.443 1085.01 523.08 1085 524.148V529.273H1087.42V523.716C1087.42 521.682 1086.23 520.432 1084.41 520.432C1083.12 520.432 1082.18 521.068 1081.79 522.085H1081.68V520.545H1079.38V529.273H1081.8V524.227Z" fill="#333333"/>
<path d="M1135.1 782.339C1134.28 782.339 1133.6 783.011 1133.6 783.839C1133.6 784.668 1134.28 785.339 1135.1 785.339V782.339ZM1304.06 688.9C1304.65 688.314 1304.65 687.364 1304.06 686.778L1294.51 677.233C1293.93 676.647 1292.98 676.647 1292.39 677.233C1291.81 677.818 1291.81 678.768 1292.39 679.354L1300.88 687.839L1292.39 696.324C1291.81 696.91 1291.81 697.86 1292.39 698.446C1292.98 699.031 1293.93 699.031 1294.51 698.446L1304.06 688.9ZM1135.1 785.339H1195.05V782.339H1135.1V785.339ZM1220.55 759.839V711.839H1217.55V759.839H1220.55ZM1243.05 689.339H1303V686.339H1243.05V689.339ZM1220.55 711.839C1220.55 699.413 1230.63 689.339 1243.05 689.339V686.339C1228.97 686.339 1217.55 697.756 1217.55 711.839H1220.55ZM1195.05 785.339C1209.14 785.339 1220.55 773.922 1220.55 759.839H1217.55C1217.55 772.266 1207.48 782.339 1195.05 782.339V785.339Z" fill="#C4C4C4"/>
<path d="M1135.1 782.339C1134.28 782.339 1133.6 783.011 1133.6 783.839C1133.6 784.668 1134.28 785.339 1135.1 785.339V782.339ZM1304.06 785.333C1304.65 784.748 1304.65 783.798 1304.06 783.212L1294.51 773.666C1293.93 773.08 1292.98 773.08 1292.39 773.666C1291.81 774.252 1291.81 775.202 1292.39 775.787L1300.88 784.273L1292.39 792.758C1291.81 793.344 1291.81 794.294 1292.39 794.879C1292.98 795.465 1293.93 795.465 1294.51 794.879L1304.06 785.333ZM1135.1 785.339H1218.84V782.339H1135.1V785.339ZM1219.27 785.773H1303V782.773H1219.27V785.773ZM1217.55 784.056C1217.55 785.004 1218.32 785.773 1219.27 785.773V782.773C1219.98 782.773 1220.55 783.347 1220.55 784.056H1217.55ZM1218.84 785.339C1218.13 785.339 1217.55 784.765 1217.55 784.056H1220.55C1220.55 783.108 1219.78 782.339 1218.84 782.339V785.339Z" fill="#C4C4C4"/>
<path d="M1135.1 782.339C1134.28 782.339 1133.6 783.011 1133.6 783.839C1133.6 784.668 1134.28 785.339 1135.1 785.339V782.339ZM1304.06 882.333C1304.65 881.748 1304.65 880.798 1304.06 880.212L1294.51 870.666C1293.93 870.08 1292.98 870.08 1292.39 870.666C1291.81 871.252 1291.81 872.202 1292.39 872.787L1300.88 881.273L1292.39 889.758C1291.81 890.344 1291.81 891.294 1292.39 891.879C1292.98 892.465 1293.93 892.465 1294.51 891.879L1304.06 882.333ZM1135.1 785.339H1195.05V782.339H1135.1V785.339ZM1217.55 807.839V857.273H1220.55V807.839H1217.55ZM1243.05 882.773H1303V879.773H1243.05V882.773ZM1217.55 857.273C1217.55 871.356 1228.97 882.773 1243.05 882.773V879.773C1230.63 879.773 1220.55 869.699 1220.55 857.273H1217.55ZM1195.05 785.339C1207.48 785.339 1217.55 795.413 1217.55 807.839H1220.55C1220.55 793.756 1209.14 782.339 1195.05 782.339V785.339Z" fill="#C4C4C4"/>
<path d="M884.136 889.535C886.208 887.852 889.177 887.852 891.249 889.535L1001.3 977.895C1004.08 980.152 1004.08 984.393 1001.3 986.65L891.249 1075.01C889.177 1076.69 886.208 1076.69 884.136 1075.01L774.083 986.65C771.306 984.393 771.306 980.152 774.083 977.895L884.136 889.535Z" fill="#4ECB71"/>
<path d="M843.67 991.273L844.966 987.293H851.264L852.56 991.273H856.514L850.497 973.818H845.741L839.716 991.273H843.67ZM845.903 984.412L848.051 977.807H848.187L850.335 984.412H845.903ZM872.739 979.929C872.253 975.898 869.202 973.58 865.163 973.58C860.552 973.58 857.032 976.835 857.032 982.545C857.032 988.239 860.492 991.511 865.163 991.511C869.637 991.511 872.339 988.537 872.739 985.324L869.006 985.307C868.657 987.173 867.191 988.247 865.222 988.247C862.572 988.247 860.773 986.278 860.773 982.545C860.773 978.915 862.546 976.844 865.248 976.844C867.268 976.844 868.725 978.011 869.006 979.929H872.739ZM890.33 979.929C889.844 975.898 886.793 973.58 882.753 973.58C878.143 973.58 874.623 976.835 874.623 982.545C874.623 988.239 878.083 991.511 882.753 991.511C887.228 991.511 889.93 988.537 890.33 985.324L886.597 985.307C886.248 987.173 884.782 988.247 882.813 988.247C880.163 988.247 878.364 986.278 878.364 982.545C878.364 978.915 880.137 976.844 882.839 976.844C884.859 976.844 886.316 978.011 886.597 979.929H890.33ZM892.52 991.273H904.316V988.23H896.211V984.062H903.677V981.02H896.211V976.861H904.282V973.818H892.52V991.273ZM916.229 978.838H919.765C919.714 975.727 917.157 973.58 913.271 973.58C909.444 973.58 906.64 975.693 906.657 978.864C906.649 981.437 908.464 982.912 911.413 983.619L913.314 984.097C915.214 984.557 916.271 985.102 916.28 986.278C916.271 987.557 915.061 988.426 913.186 988.426C911.268 988.426 909.888 987.54 909.768 985.793H906.197C906.291 989.568 908.993 991.52 913.229 991.52C917.49 991.52 919.996 989.483 920.004 986.287C919.996 983.381 917.805 981.838 914.771 981.156L913.203 980.781C911.686 980.432 910.416 979.869 910.442 978.616C910.442 977.491 911.439 976.665 913.246 976.665C915.01 976.665 916.092 977.466 916.229 978.838ZM931.499 978.838H935.036C934.985 975.727 932.428 973.58 928.542 973.58C924.715 973.58 921.911 975.693 921.928 978.864C921.92 981.437 923.735 982.912 926.684 983.619L928.584 984.097C930.485 984.557 931.542 985.102 931.55 986.278C931.542 987.557 930.331 988.426 928.456 988.426C926.539 988.426 925.158 987.54 925.039 985.793H921.468C921.562 989.568 924.263 991.52 928.499 991.52C932.76 991.52 935.266 989.483 935.275 986.287C935.266 983.381 933.076 981.838 930.042 981.156L928.474 980.781C926.956 980.432 925.687 979.869 925.712 978.616C925.712 977.491 926.709 976.665 928.516 976.665C930.28 976.665 931.363 977.466 931.499 978.838Z" fill="#333333"/>
<path d="M1151.71 915.557C1153.57 913.845 1156.43 913.845 1158.29 915.557L1241.43 991.697C1243.52 993.622 1243.52 996.923 1241.43 998.849L1158.29 1074.99C1156.43 1076.7 1153.57 1076.7 1151.71 1074.99L1068.57 998.849C1066.48 996.923 1066.48 993.622 1068.57 991.697L1151.71 915.557Z" fill="#4ECB71"/>
<path d="M1131.38 1004.27H1135.07V997.062H1142.56V1004.27H1146.24V986.818H1142.56V994.02H1135.07V986.818H1131.38V1004.27ZM1151.84 1004.27L1153.13 1000.29H1159.43L1160.73 1004.27H1164.68L1158.66 986.818H1153.91L1147.88 1004.27H1151.84ZM1154.07 997.412L1156.22 990.807H1156.36L1158.5 997.412H1154.07ZM1175.4 991.838H1178.93C1178.88 988.727 1176.33 986.58 1172.44 986.58C1168.61 986.58 1165.81 988.693 1165.83 991.864C1165.82 994.437 1167.63 995.912 1170.58 996.619L1172.48 997.097C1174.38 997.557 1175.44 998.102 1175.45 999.278C1175.44 1000.56 1174.23 1001.43 1172.35 1001.43C1170.44 1001.43 1169.06 1000.54 1168.94 998.793H1165.37C1165.46 1002.57 1168.16 1004.52 1172.4 1004.52C1176.66 1004.52 1179.16 1002.48 1179.17 999.287C1179.16 996.381 1176.97 994.838 1173.94 994.156L1172.37 993.781C1170.85 993.432 1169.58 992.869 1169.61 991.616C1169.61 990.491 1170.61 989.665 1172.41 989.665C1174.18 989.665 1175.26 990.466 1175.4 991.838Z" fill="#333333"/>
<path d="M724.136 691.535C726.208 689.852 729.177 689.852 731.249 691.535L841.301 779.895C844.079 782.152 844.079 786.393 841.301 788.65L731.249 877.01C729.177 878.694 726.208 878.694 724.136 877.01L614.083 788.65C611.306 786.393 611.306 782.152 614.083 779.895L724.136 691.535Z" fill="#4ECB71"/>
<path d="M676.525 775.818V793.273H680.105V781.869H680.25L684.767 793.187H687.204L691.721 781.912H691.866V793.273H695.446V775.818H690.894L686.088 787.545H685.883L681.076 775.818H676.525ZM701.039 793.273L702.334 789.293H708.632L709.928 793.273H713.882L707.865 775.818H703.11L697.084 793.273H701.039ZM703.272 786.412L705.419 779.807H705.556L707.703 786.412H703.272ZM730.127 775.818H726.453V786.795H726.3L718.766 775.818H715.527V793.273H719.218V782.287H719.345L726.939 793.273H730.127V775.818ZM735.728 793.273L737.024 789.293H743.322L744.617 793.273H748.572L742.555 775.818H737.799L731.774 793.273H735.728ZM737.961 786.412L740.109 779.807H740.245L742.393 786.412H737.961ZM760.97 781.46H764.72C764.243 778.008 761.2 775.58 757.254 775.58C752.644 775.58 749.09 778.903 749.09 784.562C749.09 790.085 752.414 793.511 757.331 793.511C761.737 793.511 764.882 790.724 764.882 786.131V783.932H757.578V786.71H761.328C761.277 788.875 759.803 790.247 757.348 790.247C754.578 790.247 752.831 788.176 752.831 784.528C752.831 780.898 754.646 778.844 757.314 778.844C759.215 778.844 760.502 779.824 760.97 781.46ZM767.198 793.273H778.994V790.23H770.889V786.062H778.355V783.02H770.889V778.861H778.96V775.818H767.198V793.273Z" fill="#333333"/>
<path d="M889.192 1080.27C889.192 1079.44 888.521 1078.77 887.692 1078.77C886.864 1078.77 886.192 1079.44 886.192 1080.27H889.192ZM1000.06 1184.9C1000.65 1184.31 1000.65 1183.36 1000.06 1182.78L990.515 1173.23C989.929 1172.65 988.979 1172.65 988.393 1173.23C987.808 1173.82 987.808 1174.77 988.393 1175.35L996.879 1183.84L988.393 1192.32C987.808 1192.91 987.808 1193.86 988.393 1194.45C988.979 1195.03 989.929 1195.03 990.515 1194.45L1000.06 1184.9ZM886.192 1080.27V1159.84H889.192V1080.27H886.192ZM911.692 1185.34H999V1182.34H911.692V1185.34ZM886.192 1159.84C886.192 1173.92 897.609 1185.34 911.692 1185.34V1182.34C899.266 1182.34 889.192 1172.27 889.192 1159.84H886.192Z" fill="#C4C4C4"/>
<path d="M1007.38 980.773C1006.56 980.773 1005.88 981.444 1005.88 982.273C1005.88 983.101 1006.56 983.773 1007.38 983.773V980.773ZM1068.11 827.345C1067.53 826.759 1066.58 826.759 1065.99 827.345L1056.45 836.891C1055.86 837.477 1055.86 838.426 1056.45 839.012C1057.03 839.598 1057.98 839.598 1058.57 839.012L1067.05 830.527L1075.54 839.012C1076.12 839.598 1077.07 839.598 1077.66 839.012C1078.24 838.426 1078.24 837.477 1077.66 836.891L1068.11 827.345ZM1007.38 983.773H1043.05V980.773H1007.38V983.773ZM1068.55 958.273V828.406H1065.55V958.273H1068.55ZM1043.05 983.773C1057.14 983.773 1068.55 972.356 1068.55 958.273H1065.55C1065.55 970.699 1055.48 980.773 1043.05 980.773V983.773Z" fill="#C4C4C4"/>
<path d="M512 985.339C512.828 985.339 513.5 984.668 513.5 983.839C513.5 983.011 512.828 982.339 512 982.339V985.339ZM422.939 884.778C422.354 885.364 422.354 886.314 422.939 886.9L432.485 896.446C433.071 897.031 434.021 897.031 434.607 896.446C435.192 895.86 435.192 894.91 434.607 894.324L426.121 885.839L434.607 877.354C435.192 876.768 435.192 875.818 434.607 875.233C434.021 874.647 433.071 874.647 432.485 875.233L422.939 884.778ZM512 982.339H492V985.339H512V982.339ZM469.5 959.839V909.839H466.5V959.839H469.5ZM444 884.339H424V887.339H444V884.339ZM469.5 909.839C469.5 895.756 458.083 884.339 444 884.339V887.339C456.426 887.339 466.5 897.413 466.5 909.839H469.5ZM492 982.339C479.574 982.339 469.5 972.266 469.5 959.839H466.5C466.5 973.922 477.917 985.339 492 985.339V982.339Z" fill="#C4C4C4"/>
<path d="M512 985.339C512.828 985.339 513.5 984.668 513.5 983.839C513.5 983.011 512.828 982.339 512 982.339V985.339ZM422.939 983.212C422.354 983.798 422.354 984.748 422.939 985.333L432.485 994.879C433.071 995.465 434.021 995.465 434.607 994.879C435.192 994.294 435.192 993.344 434.607 992.758L426.121 984.273L434.607 975.787C435.192 975.202 435.192 974.252 434.607 973.666C434.021 973.08 433.071 973.08 432.485 973.666L422.939 983.212ZM512 982.339H468.217V985.339H512V982.339ZM467.783 982.773H424V985.773H467.783V982.773ZM466.5 984.056C466.5 983.347 467.075 982.773 467.783 982.773V985.773C468.731 985.773 469.5 985.004 469.5 984.056H466.5ZM468.217 982.339C467.269 982.339 466.5 983.108 466.5 984.056H469.5C469.5 984.765 468.925 985.339 468.217 985.339V982.339Z" fill="#C4C4C4"/>
<path d="M512 985.339C512.828 985.339 513.5 984.668 513.5 983.839C513.5 983.011 512.828 982.339 512 982.339V985.339ZM422.939 1078.21C422.354 1078.8 422.354 1079.75 422.939 1080.33L432.485 1089.88C433.071 1090.47 434.021 1090.47 434.607 1089.88C435.192 1089.29 435.192 1088.34 434.607 1087.76L426.121 1079.27L434.607 1070.79C435.192 1070.2 435.192 1069.25 434.607 1068.67C434.021 1068.08 433.071 1068.08 432.485 1068.67L422.939 1078.21ZM512 982.339H492V985.339H512V982.339ZM466.5 1007.84V1055.27H469.5V1007.84H466.5ZM444 1077.77H424V1080.77H444V1077.77ZM466.5 1055.27C466.5 1067.7 456.426 1077.77 444 1077.77V1080.77C458.083 1080.77 469.5 1069.36 469.5 1055.27H466.5ZM492 982.339C477.917 982.339 466.5 993.756 466.5 1007.84H469.5C469.5 995.413 479.574 985.339 492 985.339V982.339Z" fill="#C4C4C4"/>
<rect x="1509" y="955.273" width="160.104" height="81.1328" rx="2.43399" fill="#85B6FF"/>
<path d="M1543.68 1002.27H1546.14V998.148H1547.94L1550.14 1002.27H1552.86L1550.38 997.75C1551.71 997.182 1552.44 996.028 1552.44 994.437C1552.44 992.125 1550.91 990.636 1548.27 990.636H1543.68V1002.27ZM1546.14 996.17V992.648H1547.8C1549.22 992.648 1549.91 993.278 1549.91 994.437C1549.91 995.591 1549.22 996.17 1547.81 996.17H1546.14ZM1557.8 1002.44C1559.95 1002.44 1561.41 1001.39 1561.75 999.773L1559.51 999.625C1559.27 1000.29 1558.64 1000.64 1557.84 1000.64C1556.62 1000.64 1555.86 999.835 1555.86 998.534V998.528H1561.8V997.864C1561.8 994.898 1560.01 993.432 1557.7 993.432C1555.13 993.432 1553.47 995.256 1553.47 997.949C1553.47 1000.72 1555.11 1002.44 1557.8 1002.44ZM1555.86 997.028C1555.91 996.034 1556.66 995.239 1557.74 995.239C1558.79 995.239 1559.52 995.989 1559.52 997.028H1555.86ZM1567.14 1005.73C1569.63 1005.73 1571.4 1004.59 1571.4 1002.36V993.545H1569V995.011H1568.91C1568.59 994.301 1567.87 993.432 1566.41 993.432C1564.5 993.432 1562.88 994.92 1562.88 997.892C1562.88 1000.8 1564.45 1002.15 1566.42 1002.15C1567.81 1002.15 1568.59 1001.45 1568.91 1000.73H1569.01V1002.32C1569.01 1003.52 1568.24 1003.99 1567.19 1003.99C1566.12 1003.99 1565.59 1003.52 1565.39 1002.99L1563.15 1003.3C1563.44 1004.67 1564.78 1005.73 1567.14 1005.73ZM1567.19 1000.33C1566 1000.33 1565.35 999.386 1565.35 997.881C1565.35 996.398 1565.99 995.358 1567.19 995.358C1568.36 995.358 1569.02 996.352 1569.02 997.881C1569.02 999.42 1568.35 1000.33 1567.19 1000.33ZM1573.15 1002.27H1575.57V993.545H1573.15V1002.27ZM1574.37 992.42C1575.09 992.42 1575.68 991.869 1575.68 991.193C1575.68 990.523 1575.09 989.972 1574.37 989.972C1573.65 989.972 1573.06 990.523 1573.06 991.193C1573.06 991.869 1573.65 992.42 1574.37 992.42ZM1584.6 996.034C1584.38 994.426 1583.09 993.432 1580.88 993.432C1578.65 993.432 1577.18 994.466 1577.18 996.148C1577.18 997.455 1578 998.301 1579.71 998.642L1581.22 998.943C1581.98 999.097 1582.33 999.375 1582.34 999.812C1582.33 1000.33 1581.76 1000.7 1580.92 1000.7C1580.05 1000.7 1579.48 1000.33 1579.33 999.619L1576.95 999.744C1577.18 1001.41 1578.6 1002.44 1580.91 1002.44C1583.17 1002.44 1584.79 1001.29 1584.8 999.568C1584.79 998.307 1583.97 997.551 1582.27 997.205L1580.69 996.886C1579.88 996.71 1579.58 996.432 1579.59 996.011C1579.58 995.489 1580.17 995.148 1580.92 995.148C1581.76 995.148 1582.26 995.608 1582.38 996.17L1584.6 996.034ZM1590.79 993.545H1589.15V991.455H1586.72V993.545H1585.53V995.364H1586.72V999.909C1586.71 1001.62 1587.88 1002.47 1589.63 1002.39C1590.26 1002.37 1590.7 1002.24 1590.95 1002.16L1590.57 1000.36C1590.45 1000.39 1590.19 1000.44 1589.96 1000.44C1589.48 1000.44 1589.15 1000.26 1589.15 999.591V995.364H1590.79V993.545ZM1592.19 1002.27H1594.61V997.335C1594.61 996.261 1595.39 995.523 1596.46 995.523C1596.8 995.523 1597.26 995.58 1597.48 995.653V993.506C1597.27 993.455 1596.97 993.42 1596.72 993.42C1595.74 993.42 1594.94 993.989 1594.63 995.068H1594.53V993.545H1592.19V1002.27ZM1600.8 1002.44C1602.09 1002.44 1602.92 1001.87 1603.35 1001.06H1603.42V1002.27H1605.71V996.386C1605.71 994.307 1603.95 993.432 1602.01 993.432C1599.92 993.432 1598.54 994.432 1598.21 996.023L1600.45 996.205C1600.61 995.625 1601.13 995.199 1602 995.199C1602.82 995.199 1603.29 995.614 1603.29 996.33V996.364C1603.29 996.926 1602.7 997 1601.18 997.148C1599.45 997.307 1597.9 997.886 1597.9 999.835C1597.9 1001.56 1599.13 1002.44 1600.8 1002.44ZM1601.49 1000.77C1600.75 1000.77 1600.21 1000.42 1600.21 999.756C1600.21 999.074 1600.77 998.739 1601.63 998.619C1602.16 998.545 1603.02 998.42 1603.31 998.227V999.153C1603.31 1000.07 1602.55 1000.77 1601.49 1000.77ZM1612.06 993.545H1610.41V991.455H1607.99V993.545H1606.8V995.364H1607.99V999.909C1607.98 1001.62 1609.15 1002.47 1610.9 1002.39C1611.53 1002.37 1611.97 1002.24 1612.22 1002.16L1611.83 1000.36C1611.72 1000.39 1611.46 1000.44 1611.23 1000.44C1610.75 1000.44 1610.41 1000.26 1610.41 999.591V995.364H1612.06V993.545ZM1613.46 1002.27H1615.88V993.545H1613.46V1002.27ZM1614.67 992.42C1615.39 992.42 1615.99 991.869 1615.99 991.193C1615.99 990.523 1615.39 989.972 1614.67 989.972C1613.96 989.972 1613.37 990.523 1613.37 991.193C1613.37 991.869 1613.96 992.42 1614.67 992.42ZM1620.06 997.227C1620.07 996.102 1620.74 995.443 1621.71 995.443C1622.69 995.443 1623.27 996.08 1623.27 997.148V1002.27H1625.69V996.716C1625.69 994.682 1624.49 993.432 1622.67 993.432C1621.38 993.432 1620.44 994.068 1620.05 995.085H1619.95V993.545H1617.64V1002.27H1620.06V997.227ZM1634.68 996.034C1634.46 994.426 1633.17 993.432 1630.96 993.432C1628.73 993.432 1627.26 994.466 1627.26 996.148C1627.26 997.455 1628.08 998.301 1629.79 998.642L1631.3 998.943C1632.06 999.097 1632.41 999.375 1632.42 999.812C1632.41 1000.33 1631.84 1000.7 1631 1000.7C1630.13 1000.7 1629.56 1000.33 1629.41 999.619L1627.03 999.744C1627.26 1001.41 1628.68 1002.44 1630.99 1002.44C1633.25 1002.44 1634.87 1001.29 1634.88 999.568C1634.87 998.307 1634.05 997.551 1632.35 997.205L1630.78 996.886C1629.96 996.71 1629.66 996.432 1629.67 996.011C1629.66 995.489 1630.25 995.148 1631 995.148C1631.84 995.148 1632.34 995.608 1632.46 996.17L1634.68 996.034Z" fill="#333333"/>
<path d="M1135.1 521.339C1134.28 521.339 1133.6 522.011 1133.6 522.839C1133.6 523.668 1134.28 524.339 1135.1 524.339V521.339ZM1288.06 475.9C1288.65 475.314 1288.65 474.364 1288.06 473.778L1278.51 464.233C1277.93 463.647 1276.98 463.647 1276.39 464.233C1275.81 464.818 1275.81 465.768 1276.39 466.354L1284.88 474.839L1276.39 483.324C1275.81 483.91 1275.81 484.86 1276.39 485.446C1276.98 486.031 1277.93 486.031 1278.51 485.446L1288.06 475.9ZM1135.1 524.339H1187.05V521.339H1135.1V524.339ZM1235.05 476.339H1287V473.339H1235.05V476.339ZM1212.55 498.839C1212.55 486.413 1222.63 476.339 1235.05 476.339V473.339C1220.97 473.339 1209.55 484.756 1209.55 498.839H1212.55ZM1187.05 524.339C1201.14 524.339 1212.55 512.922 1212.55 498.839H1209.55C1209.55 511.266 1199.48 521.339 1187.05 521.339V524.339Z" fill="#C4C4C4"/>
<path d="M1135.1 521.339C1134.28 521.339 1133.6 522.011 1133.6 522.839C1133.6 523.668 1134.28 524.339 1135.1 524.339V521.339ZM1288.06 572.466C1288.65 571.88 1288.65 570.931 1288.06 570.345L1278.51 560.799C1277.93 560.213 1276.98 560.213 1276.39 560.799C1275.81 561.385 1275.81 562.334 1276.39 562.92L1284.88 571.406L1276.39 579.891C1275.81 580.477 1275.81 581.426 1276.39 582.012C1276.98 582.598 1277.93 582.598 1278.51 582.012L1288.06 572.466ZM1135.1 524.339H1187.05V521.339H1135.1V524.339ZM1209.55 546.839V547.406H1212.55V546.839H1209.55ZM1235.05 572.906H1287V569.906H1235.05V572.906ZM1209.55 547.406C1209.55 561.489 1220.97 572.906 1235.05 572.906V569.906C1222.63 569.906 1212.55 559.832 1212.55 547.406H1209.55ZM1187.05 524.339C1199.48 524.339 1209.55 534.413 1209.55 546.839H1212.55C1212.55 532.756 1201.14 521.339 1187.05 521.339V524.339Z" fill="#C4C4C4"/>
<circle cx="1834.5" cy="203.773" r="15.5" fill="#FF9790"/>
<circle cx="1834.5" cy="275.773" r="15.5" fill="#85B6FF"/>
<circle cx="1834.5" cy="339.773" r="15.5" fill="#FFD233"/>
<path d="M1868.28 206.454H1870.03V202.364H1872.42C1875.12 202.364 1876.45 200.733 1876.45 198.585C1876.45 196.443 1875.13 194.818 1872.43 194.818H1868.28V206.454ZM1870.03 200.875V196.324H1872.24C1873.98 196.324 1874.69 197.267 1874.69 198.585C1874.69 199.903 1873.98 200.875 1872.26 200.875H1870.03ZM1878.34 206.454H1880.09V202.051H1882.48C1882.52 202.051 1882.55 202.051 1882.59 202.051L1884.96 206.454H1886.96L1884.38 201.744C1885.8 201.216 1886.51 200.028 1886.51 198.466C1886.51 196.324 1885.18 194.818 1882.48 194.818H1878.34V206.454ZM1880.09 200.54V196.324H1882.3C1884.03 196.324 1884.75 197.148 1884.75 198.466C1884.75 199.778 1884.03 200.54 1882.32 200.54H1880.09ZM1890.23 194.818H1888.47V206.454H1890.23V194.818ZM1892.61 194.818V206.454H1894.28V198.028H1894.39L1897.82 206.437H1899.21L1902.64 198.034H1902.75V206.454H1904.42V194.818H1902.29L1898.58 203.864H1898.45L1894.74 194.818H1892.61ZM1907.78 206.454L1908.84 203.375H1913.39L1914.45 206.454H1916.32L1912.13 194.818H1910.1L1905.91 206.454H1907.78ZM1909.36 201.898L1911.07 196.932H1911.16L1912.88 201.898H1909.36ZM1917.82 206.454H1919.58V202.051H1921.96C1922 202.051 1922.04 202.051 1922.08 202.051L1924.44 206.454H1926.44L1923.86 201.744C1925.29 201.216 1926 200.028 1926 198.466C1926 196.324 1924.67 194.818 1921.97 194.818H1917.82V206.454ZM1919.58 200.54V196.324H1921.78C1923.51 196.324 1924.23 197.148 1924.23 198.466C1924.23 199.778 1923.51 200.54 1921.8 200.54H1919.58ZM1926.64 194.818L1930.86 201.886V206.454H1932.61V201.886L1936.83 194.818H1934.84L1931.8 200.108H1931.67L1928.63 194.818H1926.64ZM1942.37 206.454H1944.13V202.835L1945.5 201.256L1949.26 206.454H1951.38L1946.67 200.057L1951.36 194.818H1949.15L1944.27 200.375H1944.13V194.818H1942.37V206.454ZM1952.82 206.454H1960.18V204.943H1954.58V201.381H1959.73V199.875H1954.58V196.329H1960.11V194.818H1952.82V206.454ZM1961.39 194.818L1965.61 201.886V206.454H1967.36V201.886L1971.58 194.818H1969.59L1966.55 200.108H1966.42L1963.38 194.818H1961.39Z" fill="#333333"/>
<path d="M1868.28 278.455H1875.64V276.943H1870.03V273.381H1875.19V271.875H1870.03V268.33H1875.57V266.818H1868.28V278.455ZM1887.14 266.818H1885.4V275.364H1885.29L1879.37 266.818H1877.74V278.455H1879.5V269.92H1879.61L1885.52 278.455H1887.14V266.818ZM1888.95 268.33H1892.57V278.455H1894.32V268.33H1897.95V266.818H1888.95V268.33ZM1901.52 266.818H1899.77V278.455H1901.52V266.818ZM1903.33 268.33H1906.95V278.455H1908.7V268.33H1912.33V266.818H1903.33V268.33ZM1913.25 266.818L1917.47 273.886V278.455H1919.22V273.886L1923.44 266.818H1921.45L1918.41 272.108H1918.28L1915.24 266.818H1913.25Z" fill="#333333"/>
<path d="M1869.26 342.455L1870.33 339.375H1874.88L1875.94 342.455H1877.8L1873.61 330.818H1871.59L1867.4 342.455H1869.26ZM1870.84 337.898L1872.56 332.932H1872.65L1874.36 337.898H1870.84ZM1877.34 332.33H1880.97V342.455H1882.72V332.33H1886.35V330.818H1877.34V332.33ZM1887.59 332.33H1891.21V342.455H1892.96V332.33H1896.59V330.818H1887.59V332.33ZM1898.41 342.455H1900.16V338.051H1902.55C1902.59 338.051 1902.62 338.051 1902.66 338.051L1905.03 342.455H1907.03L1904.45 337.744C1905.87 337.216 1906.58 336.028 1906.58 334.466C1906.58 332.324 1905.25 330.818 1902.55 330.818H1898.41V342.455ZM1900.16 336.54V332.324H1902.37C1904.1 332.324 1904.82 333.148 1904.82 334.466C1904.82 335.778 1904.1 336.54 1902.39 336.54H1900.16ZM1910.3 330.818H1908.54V342.455H1910.3V330.818ZM1912.68 342.455H1917.14C1919.84 342.455 1921.07 341.108 1921.07 339.324C1921.07 337.523 1919.8 336.506 1918.65 336.443V336.33C1919.72 336.057 1920.61 335.33 1920.61 333.875C1920.61 332.153 1919.42 330.818 1916.94 330.818H1912.68V342.455ZM1914.44 340.949V337.222H1917.03C1918.44 337.222 1919.32 338.131 1919.32 339.239C1919.32 340.216 1918.66 340.949 1916.97 340.949H1914.44ZM1914.44 335.852V332.313H1916.83C1918.23 332.313 1918.89 333.045 1918.89 334.011C1918.89 335.136 1917.97 335.852 1916.79 335.852H1914.44ZM1930.46 330.818V338.33C1930.46 339.909 1929.36 341.045 1927.59 341.045C1925.82 341.045 1924.73 339.909 1924.73 338.33V330.818H1922.97V338.472C1922.97 340.915 1924.8 342.648 1927.59 342.648C1930.38 342.648 1932.22 340.915 1932.22 338.472V330.818H1930.46ZM1934.02 332.33H1937.64V342.455H1939.39V332.33H1943.03V330.818H1934.02V332.33ZM1944.84 342.455H1952.2V340.943H1946.59V337.381H1951.75V335.875H1946.59V332.33H1952.13V330.818H1944.84V342.455ZM1960.65 333.875H1962.34C1962.29 332.011 1960.64 330.659 1958.28 330.659C1955.95 330.659 1954.16 331.994 1954.16 334C1954.16 335.619 1955.32 336.568 1957.18 337.074L1958.56 337.449C1959.8 337.778 1960.76 338.188 1960.76 339.222C1960.76 340.358 1959.68 341.108 1958.18 341.108C1956.83 341.108 1955.71 340.506 1955.6 339.239H1953.84C1953.96 341.347 1955.59 342.648 1958.2 342.648C1960.93 342.648 1962.5 341.21 1962.5 339.239C1962.5 337.142 1960.63 336.33 1959.16 335.966L1958.02 335.67C1957.11 335.438 1955.9 335.011 1955.91 333.898C1955.91 332.909 1956.81 332.176 1958.24 332.176C1959.58 332.176 1960.53 332.801 1960.65 333.875Z" fill="#333333"/>
<path d="M648.104 982.339C647.276 982.339 646.604 983.011 646.604 983.839C646.604 984.668 647.276 985.339 648.104 985.339V982.339ZM769.061 983.333C769.646 982.748 769.646 981.798 769.061 981.212L759.515 971.666C758.929 971.08 757.979 971.08 757.393 971.666C756.808 972.252 756.808 973.202 757.393 973.787L765.879 982.273L757.393 990.758C756.808 991.344 756.808 992.294 757.393 992.879C757.979 993.465 758.929 993.465 759.515 992.879L769.061 983.333ZM648.104 985.339H701.283V982.339H648.104V985.339ZM716.717 1000.77H731.5V997.773H716.717V1000.77ZM748.5 983.773H768V980.773H748.5V983.773ZM741.5 990.773C741.5 986.907 744.634 983.773 748.5 983.773V980.773C742.977 980.773 738.5 985.25 738.5 990.773H741.5ZM731.5 1000.77C737.023 1000.77 741.5 996.296 741.5 990.773H738.5C738.5 994.639 735.366 997.773 731.5 997.773V1000.77ZM707.5 991.556C707.5 996.646 711.627 1000.77 716.717 1000.77V997.773C713.283 997.773 710.5 994.989 710.5 991.556H707.5ZM701.283 985.339C704.717 985.339 707.5 988.122 707.5 991.556H710.5C710.5 986.466 706.374 982.339 701.283 982.339V985.339Z" fill="#C4C4C4"/>
<path d="M1068.55 567.406C1068.55 566.577 1067.88 565.906 1067.05 565.906C1066.22 565.906 1065.55 566.577 1065.55 567.406H1068.55ZM726.632 687.333C727.218 687.919 728.167 687.919 728.753 687.333L738.299 677.787C738.885 677.202 738.885 676.252 738.299 675.666C737.713 675.08 736.763 675.08 736.178 675.666L727.692 684.151L719.207 675.666C718.621 675.08 717.672 675.08 717.086 675.666C716.5 676.252 716.5 677.202 717.086 677.787L726.632 687.333ZM1065.55 567.406V602.839H1068.55V567.406H1065.55ZM1043.05 625.339H751.692V628.339H1043.05V625.339ZM726.192 650.839V686.273H729.192V650.839H726.192ZM751.692 625.339C737.609 625.339 726.192 636.756 726.192 650.839H729.192C729.192 638.413 739.266 628.339 751.692 628.339V625.339ZM1065.55 602.839C1065.55 615.266 1055.48 625.339 1043.05 625.339V628.339C1057.14 628.339 1068.55 616.922 1068.55 602.839H1065.55Z" fill="#C4C4C4"/>
<path d="M847.385 782.773C846.556 782.773 845.885 783.444 845.885 784.273C845.885 785.101 846.556 785.773 847.385 785.773V782.773ZM1000.06 784.9C1000.65 784.314 1000.65 783.364 1000.06 782.778L990.515 773.233C989.929 772.647 988.979 772.647 988.394 773.233C987.808 773.818 987.808 774.768 988.394 775.354L996.879 783.839L988.394 792.324C987.808 792.91 987.808 793.86 988.394 794.446C988.979 795.031 989.929 795.031 990.515 794.446L1000.06 784.9ZM847.385 785.773H922.976V782.773H847.385V785.773ZM923.409 785.339H999V782.339H923.409V785.339ZM924.692 784.056C924.692 784.765 924.118 785.339 923.409 785.339V782.339C922.461 782.339 921.692 783.108 921.692 784.056H924.692ZM922.976 785.773C923.924 785.773 924.692 785.004 924.692 784.056H921.692C921.692 783.347 922.267 782.773 922.976 782.773V785.773Z" fill="#C4C4C4"/>
<path d="M729.192 882.273C729.192 881.444 728.521 880.773 727.692 880.773C726.864 880.773 726.192 881.444 726.192 882.273H729.192ZM1068.11 1227.34C1067.53 1226.76 1066.58 1226.76 1065.99 1227.34L1056.45 1236.89C1055.86 1237.48 1055.86 1238.43 1056.45 1239.01C1057.03 1239.6 1057.98 1239.6 1058.57 1239.01L1067.05 1230.53L1075.54 1239.01C1076.12 1239.6 1077.07 1239.6 1077.66 1239.01C1078.24 1238.43 1078.24 1237.48 1077.66 1236.89L1068.11 1227.34ZM726.192 882.273V924.427H729.192V882.273H726.192ZM722.5 928.119V1232.41H725.5V928.119H722.5ZM748 1257.91H1043.05V1254.91H748V1257.91ZM1068.55 1232.41V1228.41H1065.55V1232.41H1068.55ZM1043.05 1257.91C1057.14 1257.91 1068.55 1246.49 1068.55 1232.41H1065.55C1065.55 1244.83 1055.48 1254.91 1043.05 1254.91V1257.91ZM722.5 1232.41C722.5 1246.49 733.917 1257.91 748 1257.91V1254.91C735.574 1254.91 725.5 1244.83 725.5 1232.41H722.5ZM725.846 924.773C723.998 924.773 722.5 926.271 722.5 928.119H725.5C725.5 927.928 725.655 927.773 725.846 927.773V924.773ZM726.192 924.427C726.192 924.618 726.037 924.773 725.846 924.773V927.773C727.694 927.773 729.192 926.275 729.192 924.427H726.192Z" fill="#C4C4C4"/>
<path d="M608 785.773C608.828 785.773 609.5 785.101 609.5 784.273C609.5 783.444 608.828 782.773 608 782.773V785.773ZM578.992 940.333C579.577 940.919 580.527 940.919 581.113 940.333L590.659 930.787C591.245 930.202 591.245 929.252 590.659 928.666C590.073 928.08 589.123 928.08 588.538 928.666L580.052 937.151L571.567 928.666C570.981 928.08 570.031 928.08 569.446 928.666C568.86 929.252 568.86 930.202 569.446 930.787L578.992 940.333ZM608 782.773H604.052V785.773H608V782.773ZM578.552 808.273V939.273H581.552V808.273H578.552ZM604.052 782.773C589.969 782.773 578.552 794.189 578.552 808.273H581.552C581.552 795.846 591.626 785.773 604.052 785.773V782.773Z" fill="#C4C4C4"/>
<path d="M1153.5 910.273C1153.5 911.101 1154.17 911.773 1155 911.773C1155.83 911.773 1156.5 911.101 1156.5 910.273H1153.5ZM1068.11 827.345C1067.53 826.759 1066.58 826.759 1065.99 827.345L1056.45 836.891C1055.86 837.477 1055.86 838.426 1056.45 839.012C1057.03 839.598 1057.98 839.598 1058.57 839.012L1067.05 830.527L1075.54 839.012C1076.12 839.598 1077.07 839.598 1077.66 839.012C1078.24 838.426 1078.24 837.477 1077.66 836.891L1068.11 827.345ZM1156.5 910.273V893.339H1153.5V910.273H1156.5ZM1131 867.839H1091.05V870.839H1131V867.839ZM1068.55 845.339V828.406H1065.55V845.339H1068.55ZM1091.05 867.839C1078.63 867.839 1068.55 857.766 1068.55 845.339H1065.55C1065.55 859.422 1076.97 870.839 1091.05 870.839V867.839ZM1156.5 893.339C1156.5 879.256 1145.08 867.839 1131 867.839V870.839C1143.43 870.839 1153.5 880.913 1153.5 893.339H1156.5Z" fill="#C4C4C4"/>
<path d="M1156.5 1080.27C1156.5 1079.44 1155.83 1078.77 1155 1078.77C1154.17 1078.77 1153.5 1079.44 1153.5 1080.27H1156.5ZM1065.99 1140.33C1066.58 1140.92 1067.53 1140.92 1068.11 1140.33L1077.66 1130.79C1078.24 1130.2 1078.24 1129.25 1077.66 1128.67C1077.07 1128.08 1076.12 1128.08 1075.54 1128.67L1067.05 1137.15L1058.57 1128.67C1057.98 1128.08 1057.03 1128.08 1056.45 1128.67C1055.86 1129.25 1055.86 1130.2 1056.45 1130.79L1065.99 1140.33ZM1153.5 1080.27V1085.77H1156.5V1080.27H1153.5ZM1131 1108.27H1091.05V1111.27H1131V1108.27ZM1065.55 1133.77V1139.27H1068.55V1133.77H1065.55ZM1091.05 1108.27C1076.97 1108.27 1065.55 1119.69 1065.55 1133.77H1068.55C1068.55 1121.35 1078.63 1111.27 1091.05 1111.27V1108.27ZM1153.5 1085.77C1153.5 1098.2 1143.43 1108.27 1131 1108.27V1111.27C1145.08 1111.27 1156.5 1099.86 1156.5 1085.77H1153.5Z" fill="#C4C4C4"/>
<path d="M1247 993.773C1246.17 993.773 1245.5 994.444 1245.5 995.273C1245.5 996.101 1246.17 996.773 1247 996.773V993.773ZM1506.06 996.9C1506.65 996.314 1506.65 995.364 1506.06 994.778L1496.51 985.233C1495.93 984.647 1494.98 984.647 1494.39 985.233C1493.81 985.818 1493.81 986.768 1494.39 987.354L1502.88 995.839L1494.39 1004.32C1493.81 1004.91 1493.81 1005.86 1494.39 1006.45C1494.98 1007.03 1495.93 1007.03 1496.51 1006.45L1506.06 996.9ZM1247 996.773H1375.72V993.773H1247V996.773ZM1376.28 997.339H1505V994.339H1376.28V997.339ZM1374.5 995.556C1374.5 996.541 1375.3 997.339 1376.28 997.339V994.339C1376.96 994.339 1377.5 994.884 1377.5 995.556H1374.5ZM1375.72 996.773C1375.04 996.773 1374.5 996.228 1374.5 995.556H1377.5C1377.5 994.571 1376.7 993.773 1375.72 993.773V996.773Z" fill="#C4C4C4"/>
<path d="M1673.1 994.339C1672.28 994.339 1671.6 995.011 1671.6 995.839C1671.6 996.668 1672.28 997.339 1673.1 997.339V994.339ZM1762.06 850.9C1762.65 850.314 1762.65 849.364 1762.06 848.778L1752.51 839.233C1751.93 838.647 1750.98 838.647 1750.39 839.233C1749.81 839.818 1749.81 840.768 1750.39 841.354L1758.88 849.839L1750.39 858.324C1749.81 858.91 1749.81 859.86 1750.39 860.446C1750.98 861.031 1751.93 861.031 1752.51 860.446L1762.06 850.9ZM1673.1 997.339H1693.05V994.339H1673.1V997.339ZM1718.55 971.839V873.839H1715.55V971.839H1718.55ZM1741.05 851.339H1761V848.339H1741.05V851.339ZM1718.55 873.839C1718.55 861.413 1728.63 851.339 1741.05 851.339V848.339C1726.97 848.339 1715.55 859.756 1715.55 873.839H1718.55ZM1693.05 997.339C1707.14 997.339 1718.55 985.922 1718.55 971.839H1715.55C1715.55 984.266 1705.48 994.339 1693.05 994.339V997.339Z" fill="#C4C4C4"/>
<path d="M1673.1 994.339C1672.28 994.339 1671.6 995.011 1671.6 995.839C1671.6 996.668 1672.28 997.339 1673.1 997.339V994.339ZM1762.06 947.333C1762.65 946.748 1762.65 945.798 1762.06 945.212L1752.51 935.666C1751.93 935.08 1750.98 935.08 1750.39 935.666C1749.81 936.252 1749.81 937.202 1750.39 937.787L1758.88 946.273L1750.39 954.758C1749.81 955.344 1749.81 956.294 1750.39 956.879C1750.98 957.465 1751.93 957.465 1752.51 956.879L1762.06 947.333ZM1673.1 997.339H1693.05V994.339H1673.1V997.339ZM1718.55 971.839V970.273H1715.55V971.839H1718.55ZM1741.05 947.773H1761V944.773H1741.05V947.773ZM1718.55 970.273C1718.55 957.846 1728.63 947.773 1741.05 947.773V944.773C1726.97 944.773 1715.55 956.189 1715.55 970.273H1718.55ZM1693.05 997.339C1707.14 997.339 1718.55 985.922 1718.55 971.839H1715.55C1715.55 984.266 1705.48 994.339 1693.05 994.339V997.339Z" fill="#C4C4C4"/>
<path d="M1673.1 994.339C1672.28 994.339 1671.6 995.011 1671.6 995.839C1671.6 996.668 1672.28 997.339 1673.1 997.339V994.339ZM1762.06 1044.33C1762.65 1043.75 1762.65 1042.8 1762.06 1042.21L1752.51 1032.67C1751.93 1032.08 1750.98 1032.08 1750.39 1032.67C1749.81 1033.25 1749.81 1034.2 1750.39 1034.79L1758.88 1043.27L1750.39 1051.76C1749.81 1052.34 1749.81 1053.29 1750.39 1053.88C1750.98 1054.47 1751.93 1054.47 1752.51 1053.88L1762.06 1044.33ZM1673.1 997.339H1693.34V994.339H1673.1V997.339ZM1740.77 1044.77H1761V1041.77H1740.77V1044.77ZM1715.55 1019.56C1715.55 1033.48 1726.84 1044.77 1740.77 1044.77V1041.77C1728.5 1041.77 1718.55 1031.83 1718.55 1019.56H1715.55ZM1693.34 997.339C1705.61 997.339 1715.55 1007.29 1715.55 1019.56H1718.55C1718.55 1005.63 1707.26 994.339 1693.34 994.339V997.339Z" fill="#C4C4C4"/>
<path d="M1673.1 994.339C1672.28 994.339 1671.6 995.011 1671.6 995.839C1671.6 996.668 1672.28 997.339 1673.1 997.339V994.339ZM1762.06 1141.33C1762.65 1140.75 1762.65 1139.8 1762.06 1139.21L1752.51 1129.67C1751.93 1129.08 1750.98 1129.08 1750.39 1129.67C1749.81 1130.25 1749.81 1131.2 1750.39 1131.79L1758.88 1140.27L1750.39 1148.76C1749.81 1149.34 1749.81 1150.29 1750.39 1150.88C1750.98 1151.47 1751.93 1151.47 1752.51 1150.88L1762.06 1141.33ZM1673.1 997.339H1693.05V994.339H1673.1V997.339ZM1715.55 1019.84V1116.27H1718.55V1019.84H1715.55ZM1741.05 1141.77H1761V1138.77H1741.05V1141.77ZM1715.55 1116.27C1715.55 1130.36 1726.97 1141.77 1741.05 1141.77V1138.77C1728.63 1138.77 1718.55 1128.7 1718.55 1116.27H1715.55ZM1693.05 997.339C1705.48 997.339 1715.55 1007.41 1715.55 1019.84H1718.55C1718.55 1005.76 1707.14 994.339 1693.05 994.339V997.339Z" fill="#C4C4C4"/>
<path d="M8.62926 103H20.4801V68.7514H53.8466V58.5881H20.4801V34.6562H57.3366V24.4545H8.62926V103ZM68.6141 103H80.0814V44.0909H68.6141V103ZM74.4053 35.0014C78.3555 35.0014 81.6538 31.9332 81.6538 28.1747C81.6538 24.4162 78.3555 21.3097 74.4053 21.3097C70.4166 21.3097 67.1567 24.4162 67.1567 28.1747C67.1567 31.9332 70.4166 35.0014 74.4053 35.0014ZM104.6 68.0227C104.6 58.6264 110.353 53.2571 118.33 53.2571C126.116 53.2571 130.833 58.358 130.833 66.9105V103H142.3V65.5298C142.3 50.956 134.285 43.3239 122.242 43.3239C113.383 43.3239 107.591 47.4276 104.868 53.679H104.14V44.0909H93.1326V103H104.6V68.0227ZM172.447 104.304C182.188 104.304 187.673 99.3565 189.859 94.946H190.319V103H201.518V63.8807C201.518 46.7372 188.018 43.3239 178.66 43.3239C167.998 43.3239 158.18 47.6193 154.345 58.358L165.122 60.8125C166.809 56.6321 171.105 52.6051 178.813 52.6051C186.215 52.6051 190.012 56.4787 190.012 63.152V63.4205C190.012 67.6009 185.717 67.5241 175.132 68.7514C163.971 70.0554 152.542 72.9702 152.542 86.3551C152.542 97.9375 161.248 104.304 172.447 104.304ZM174.94 95.0994C168.458 95.0994 163.779 92.1847 163.779 86.5085C163.779 80.3722 169.225 78.1861 175.86 77.304C179.58 76.8054 188.401 75.8082 190.051 74.1591V81.7528C190.051 88.733 184.49 95.0994 174.94 95.0994ZM225.883 24.4545H214.416V103H225.883V24.4545ZM266.061 103H277.912V75.3864H294.02C312.237 75.3864 321.25 64.3793 321.25 49.8821C321.25 35.4233 312.314 24.4545 294.058 24.4545H266.061V103ZM277.912 65.3381V34.6179H292.792C304.528 34.6179 309.322 40.9844 309.322 49.8821C309.322 58.7798 304.528 65.3381 292.946 65.3381H277.912ZM331.846 103H343.314V67.0256C343.314 59.3168 349.258 53.7557 357.389 53.7557C359.767 53.7557 362.451 54.1776 363.372 54.446V43.4773C362.221 43.3239 359.959 43.2088 358.501 43.2088C351.598 43.2088 345.692 47.1207 343.544 53.4489H342.93V44.0909H331.846V103ZM393.624 104.189C410.231 104.189 421.084 92.0312 421.084 73.8139C421.084 55.4815 410.231 43.3239 393.624 43.3239C377.018 43.3239 366.164 55.4815 366.164 73.8139C366.164 92.0312 377.018 104.189 393.624 104.189ZM393.662 94.5625C382.809 94.5625 377.746 85.0895 377.746 73.7756C377.746 62.5 382.809 52.9119 393.662 52.9119C404.439 52.9119 409.502 62.5 409.502 73.7756C409.502 85.0895 404.439 94.5625 393.662 94.5625ZM431.508 44.0909V106.759C431.508 112.205 429.246 115.196 423.8 115.196H421.959V125.053C422.764 125.091 423.493 125.091 424.298 125.091C436.494 125.091 442.976 118.648 442.976 106.835V44.0909H431.508ZM437.185 35.0014C441.135 35.0014 444.433 31.9332 444.433 28.1747C444.433 24.4162 441.135 21.3097 437.185 21.3097C433.196 21.3097 429.936 24.4162 429.936 28.1747C429.936 31.9332 433.196 35.0014 437.185 35.0014ZM481.416 104.189C494.264 104.189 503.354 97.8608 505.962 88.2727L495.108 86.3168C493.037 91.8778 488.051 94.7159 481.531 94.7159C471.713 94.7159 465.116 88.3494 464.81 76.9972H506.69V72.9318C506.69 51.6463 493.957 43.3239 480.611 43.3239C464.196 43.3239 453.381 55.8267 453.381 73.929C453.381 92.223 464.043 104.189 481.416 104.189ZM464.848 68.4062C465.308 60.0455 471.368 52.7969 480.687 52.7969C489.585 52.7969 495.415 59.3935 495.453 68.4062H464.848ZM541.852 104.189C555.773 104.189 564.786 95.8281 566.052 84.3608H554.891C553.434 90.7273 548.486 94.4858 541.928 94.4858C532.225 94.4858 525.974 86.3935 525.974 73.5455C525.974 60.9276 532.34 52.9886 541.928 52.9886C549.215 52.9886 553.664 57.5909 554.891 63.1136H566.052C564.825 51.2244 555.121 43.3239 541.736 43.3239C525.13 43.3239 514.391 55.8267 514.391 73.8139C514.391 91.571 524.746 104.189 541.852 104.189ZM603.438 44.0909H591.357V29.9773H579.889V44.0909H571.26V53.2955H579.889V88.081C579.851 98.7812 588.02 103.959 597.071 103.767C600.715 103.729 603.169 103.038 604.511 102.54L602.44 93.0668C601.673 93.2202 600.254 93.5653 598.413 93.5653C594.693 93.5653 591.357 92.3381 591.357 85.7031V53.2955H603.438V44.0909ZM647.508 60.8509C651.688 60.8509 655.178 57.4375 655.178 53.1804C655.178 49 651.688 45.5483 647.508 45.5483C643.289 45.5483 639.838 49 639.838 53.1804C639.838 57.4375 643.289 60.8509 647.508 60.8509ZM647.508 103.729C651.688 103.729 655.178 100.315 655.178 96.0582C655.178 91.8778 651.688 88.4261 647.508 88.4261C643.289 88.4261 639.838 91.8778 639.838 96.0582C639.838 100.315 643.289 103.729 647.508 103.729ZM695.289 103H707.14V75.3864H723.248C741.465 75.3864 750.478 64.3793 750.478 49.8821C750.478 35.4233 741.542 24.4545 723.286 24.4545H695.289V103ZM707.14 65.3381V34.6179H722.021C733.756 34.6179 738.55 40.9844 738.55 49.8821C738.55 58.7798 733.756 65.3381 722.174 65.3381H707.14ZM761.075 103H772.542V67.0256C772.542 59.3168 778.487 53.7557 786.617 53.7557C788.995 53.7557 791.68 54.1776 792.6 54.446V43.4773C791.45 43.3239 789.187 43.2088 787.729 43.2088C780.826 43.2088 774.92 47.1207 772.772 53.4489H772.158V44.0909H761.075V103ZM822.852 104.189C839.459 104.189 850.313 92.0312 850.313 73.8139C850.313 55.4815 839.459 43.3239 822.852 43.3239C806.246 43.3239 795.392 55.4815 795.392 73.8139C795.392 92.0312 806.246 104.189 822.852 104.189ZM822.891 94.5625C812.037 94.5625 806.975 85.0895 806.975 73.7756C806.975 62.5 812.037 52.9119 822.891 52.9119C833.668 52.9119 838.73 62.5 838.73 73.7756C838.73 85.0895 833.668 94.5625 822.891 94.5625ZM860.737 125.091H872.204V93.8338H872.894C874.965 97.5923 879.184 104.151 889.923 104.151C904.19 104.151 914.545 92.7216 914.545 73.6605C914.545 54.5611 904.036 43.3239 889.808 43.3239C878.877 43.3239 874.927 49.9972 872.894 53.6406H871.936V44.0909H860.737V125.091ZM871.974 73.5455C871.974 61.2344 877.343 53.0653 887.353 53.0653C897.747 53.0653 902.963 61.848 902.963 73.5455C902.963 85.358 897.593 94.3707 887.353 94.3707C877.497 94.3707 871.974 85.9332 871.974 73.5455ZM950.406 104.189C963.254 104.189 972.344 97.8608 974.952 88.2727L964.098 86.3168C962.027 91.8778 957.041 94.7159 950.521 94.7159C940.703 94.7159 934.106 88.3494 933.8 76.9972H975.68V72.9318C975.68 51.6463 962.947 43.3239 949.601 43.3239C933.186 43.3239 922.371 55.8267 922.371 73.929C922.371 92.223 933.033 104.189 950.406 104.189ZM933.838 68.4062C934.298 60.0455 940.358 52.7969 949.677 52.7969C958.575 52.7969 964.405 59.3935 964.443 68.4062H933.838ZM986.028 103H997.495V67.0256C997.495 59.3168 1003.44 53.7557 1011.57 53.7557C1013.95 53.7557 1016.63 54.1776 1017.55 54.446V43.4773C1016.4 43.3239 1014.14 43.2088 1012.68 43.2088C1005.78 43.2088 999.873 47.1207 997.725 53.4489H997.111V44.0909H986.028V103ZM1056.08 44.0909H1044V29.9773H1032.53V44.0909H1023.9V53.2955H1032.53V88.081C1032.49 98.7812 1040.66 103.959 1049.71 103.767C1053.36 103.729 1055.81 103.038 1057.15 102.54L1055.08 93.0668C1054.32 93.2202 1052.9 93.5653 1051.06 93.5653C1047.34 93.5653 1044 92.3381 1044 85.7031V53.2955H1056.08V44.0909ZM1073.64 125.091C1083.11 125.091 1089.09 120.143 1092.51 110.862L1116.86 44.206L1104.47 44.0909L1089.55 89.8068H1088.94L1074.02 44.0909H1061.75L1083.3 103.767L1081.88 107.679C1078.97 115.503 1074.86 116.155 1068.58 114.429L1065.81 123.825C1067.19 124.439 1070.19 125.091 1073.64 125.091ZM1158.82 103H1108.92V112.741H1158.82V103ZM1164.97 24.4545V103H1176.24V46.1236H1176.97L1200.14 102.885H1209.49L1232.66 46.1619H1233.39V103H1244.66V24.4545H1230.28L1205.28 85.5114H1204.36L1179.35 24.4545H1164.97ZM1275.74 104.304C1285.48 104.304 1290.97 99.3565 1293.15 94.946H1293.61V103H1304.81V63.8807C1304.81 46.7372 1291.31 43.3239 1281.95 43.3239C1271.29 43.3239 1261.47 47.6193 1257.64 58.358L1268.42 60.8125C1270.1 56.6321 1274.4 52.6051 1282.11 52.6051C1289.51 52.6051 1293.31 56.4787 1293.31 63.152V63.4205C1293.31 67.6009 1289.01 67.5241 1278.42 68.7514C1267.26 70.0554 1255.84 72.9702 1255.84 86.3551C1255.84 97.9375 1264.54 104.304 1275.74 104.304ZM1278.23 95.0994C1271.75 95.0994 1267.07 92.1847 1267.07 86.5085C1267.07 80.3722 1272.52 78.1861 1279.15 77.304C1282.87 76.8054 1291.69 75.8082 1293.34 74.1591V81.7528C1293.34 88.733 1287.78 95.0994 1278.23 95.0994ZM1329.18 68.0227C1329.18 58.6264 1334.93 53.2571 1342.91 53.2571C1350.69 53.2571 1355.41 58.358 1355.41 66.9105V103H1366.88V65.5298C1366.88 50.956 1358.86 43.3239 1346.82 43.3239C1337.96 43.3239 1332.17 47.4276 1329.44 53.679H1328.72V44.0909H1317.71V103H1329.18V68.0227ZM1397.02 104.304C1406.77 104.304 1412.25 99.3565 1414.44 94.946H1414.9V103H1426.09V63.8807C1426.09 46.7372 1412.59 43.3239 1403.24 43.3239C1392.57 43.3239 1382.76 47.6193 1378.92 58.358L1389.7 60.8125C1391.39 56.6321 1395.68 52.6051 1403.39 52.6051C1410.79 52.6051 1414.59 56.4787 1414.59 63.152V63.4205C1414.59 67.6009 1410.29 67.5241 1399.71 68.7514C1388.55 70.0554 1377.12 72.9702 1377.12 86.3551C1377.12 97.9375 1385.82 104.304 1397.02 104.304ZM1399.52 95.0994C1393.03 95.0994 1388.36 92.1847 1388.36 86.5085C1388.36 80.3722 1393.8 78.1861 1400.44 77.304C1404.16 76.8054 1412.98 75.8082 1414.63 74.1591V81.7528C1414.63 88.733 1409.07 95.0994 1399.52 95.0994ZM1463.69 126.318C1478.69 126.318 1490.27 119.453 1490.27 104.304V44.0909H1479.03V53.6406H1478.19C1476.16 49.9972 1472.09 43.3239 1461.12 43.3239C1446.89 43.3239 1436.42 54.5611 1436.42 73.3153C1436.42 92.108 1447.12 102.118 1461.04 102.118C1471.86 102.118 1476.04 96.0199 1478.11 92.2614H1478.84V103.844C1478.84 113.087 1472.51 117.075 1463.81 117.075C1454.26 117.075 1450.54 112.281 1448.5 108.906L1438.65 112.972C1441.75 120.182 1449.62 126.318 1463.69 126.318ZM1463.58 92.6065C1453.34 92.6065 1448.01 84.7443 1448.01 73.1619C1448.01 61.848 1453.22 53.0653 1463.58 53.0653C1473.59 53.0653 1478.96 61.2344 1478.96 73.1619C1478.96 85.3196 1473.47 92.6065 1463.58 92.6065ZM1528.66 104.189C1541.51 104.189 1550.6 97.8608 1553.21 88.2727L1542.35 86.3168C1540.28 91.8778 1535.3 94.7159 1528.78 94.7159C1518.96 94.7159 1512.36 88.3494 1512.06 76.9972H1553.94V72.9318C1553.94 51.6463 1541.2 43.3239 1527.86 43.3239C1511.44 43.3239 1500.63 55.8267 1500.63 73.929C1500.63 92.223 1511.29 104.189 1528.66 104.189ZM1512.09 68.4062C1512.55 60.0455 1518.61 52.7969 1527.93 52.7969C1536.83 52.7969 1542.66 59.3935 1542.7 68.4062H1512.09ZM1564.28 103H1575.75V66.6804C1575.75 58.7415 1581.31 53.2188 1587.83 53.2188C1594.2 53.2188 1598.61 57.4375 1598.61 63.8423V103H1610.04V65.4531C1610.04 58.358 1614.37 53.2188 1621.85 53.2188C1627.91 53.2188 1632.9 56.5938 1632.9 64.571V103H1644.36V63.4972C1644.36 50.0355 1636.85 43.3239 1626.18 43.3239C1617.71 43.3239 1611.34 47.3892 1608.5 53.679H1607.89C1605.32 47.2358 1599.91 43.3239 1592.05 43.3239C1584.26 43.3239 1578.47 47.1974 1576.02 53.679H1575.29V44.0909H1564.28V103ZM1682.75 104.189C1695.59 104.189 1704.68 97.8608 1707.29 88.2727L1696.44 86.3168C1694.37 91.8778 1689.38 94.7159 1682.86 94.7159C1673.04 94.7159 1666.45 88.3494 1666.14 76.9972H1708.02V72.9318C1708.02 51.6463 1695.29 43.3239 1681.94 43.3239C1665.53 43.3239 1654.71 55.8267 1654.71 73.929C1654.71 92.223 1665.37 104.189 1682.75 104.189ZM1666.18 68.4062C1666.64 60.0455 1672.7 52.7969 1682.02 52.7969C1690.91 52.7969 1696.74 59.3935 1696.78 68.4062H1666.18ZM1729.83 68.0227C1729.83 58.6264 1735.59 53.2571 1743.56 53.2571C1751.35 53.2571 1756.07 58.358 1756.07 66.9105V103H1767.53V65.5298C1767.53 50.956 1759.52 43.3239 1747.48 43.3239C1738.62 43.3239 1732.83 47.4276 1730.1 53.679H1729.37V44.0909H1718.37V103H1729.83V68.0227ZM1808.04 44.0909H1795.96V29.9773H1784.49V44.0909H1775.86V53.2955H1784.49V88.081C1784.45 98.7812 1792.62 103.959 1801.67 103.767C1805.31 103.729 1807.77 103.038 1809.11 102.54L1807.04 93.0668C1806.27 93.2202 1804.85 93.5653 1803.01 93.5653C1799.29 93.5653 1795.96 92.3381 1795.96 85.7031V53.2955H1808.04V44.0909ZM1860.42 103H1810.52V112.741H1860.42V103ZM1909.41 45.0881H1920.83C1920.49 32.5085 1909.37 23.3807 1893.41 23.3807C1877.65 23.3807 1865.57 32.3935 1865.57 45.9318C1865.57 56.8622 1873.39 63.267 1886.01 66.6804L1895.29 69.2116C1903.69 71.4361 1910.17 74.1974 1910.17 81.1776C1910.17 88.848 1902.85 93.9105 1892.76 93.9105C1883.63 93.9105 1876.04 89.8452 1875.35 81.2926H1863.46C1864.23 95.5213 1875.23 104.304 1892.84 104.304C1911.28 104.304 1921.91 94.6009 1921.91 81.2926C1921.91 67.1406 1909.29 61.6562 1899.32 59.2017L1891.65 57.2074C1885.51 55.6349 1877.34 52.7585 1877.38 45.2415C1877.38 38.5682 1883.48 33.6207 1893.14 33.6207C1902.16 33.6207 1908.56 37.8395 1909.41 45.0881ZM1940.02 125.091C1949.49 125.091 1955.48 120.143 1958.89 110.862L1983.24 44.206L1970.86 44.0909L1955.94 89.8068H1955.32L1940.41 44.0909H1928.13L1949.69 103.767L1948.27 107.679C1945.35 115.503 1941.25 116.155 1934.96 114.429L1932.2 123.825C1933.58 124.439 1936.57 125.091 1940.02 125.091ZM2035.82 58.473C2033.44 49.3068 2026.27 43.3239 2013.54 43.3239C2000.23 43.3239 1990.79 50.3423 1990.79 60.7741C1990.79 69.1349 1995.86 74.696 2006.9 77.1506L2016.87 79.3366C2022.55 80.6023 2025.19 83.1335 2025.19 86.8153C2025.19 91.3793 2020.32 94.946 2012.81 94.946C2005.94 94.946 2001.53 91.9929 2000.15 86.2017L1989.07 87.8892C1990.98 98.321 1999.65 104.189 2012.88 104.189C2027.11 104.189 2036.97 96.6335 2036.97 85.9716C2036.97 77.6491 2031.68 72.5099 2020.86 70.017L2011.5 67.8693C2005.02 66.3352 2002.22 64.1491 2002.26 60.1605C2002.22 55.6349 2007.13 52.4134 2013.65 52.4134C2020.78 52.4134 2024.08 56.3636 2025.42 60.3139L2035.82 58.473ZM2074.7 44.0909H2062.62V29.9773H2051.15V44.0909H2042.52V53.2955H2051.15V88.081C2051.11 98.7812 2059.28 103.959 2068.33 103.767C2071.98 103.729 2074.43 103.038 2075.77 102.54L2073.7 93.0668C2072.94 93.2202 2071.52 93.5653 2069.68 93.5653C2065.96 93.5653 2062.62 92.3381 2062.62 85.7031V53.2955H2074.7V44.0909ZM2109.77 104.189C2122.61 104.189 2131.7 97.8608 2134.31 88.2727L2123.46 86.3168C2121.39 91.8778 2116.4 94.7159 2109.88 94.7159C2100.06 94.7159 2093.47 88.3494 2093.16 76.9972H2135.04V72.9318C2135.04 51.6463 2122.31 43.3239 2108.96 43.3239C2092.54 43.3239 2081.73 55.8267 2081.73 73.929C2081.73 92.223 2092.39 104.189 2109.77 104.189ZM2093.2 68.4062C2093.66 60.0455 2099.72 52.7969 2109.04 52.7969C2117.93 52.7969 2123.76 59.3935 2123.8 68.4062H2093.2ZM2145.39 103H2156.85V66.6804C2156.85 58.7415 2162.41 53.2188 2168.93 53.2188C2175.3 53.2188 2179.71 57.4375 2179.71 63.8423V103H2191.14V65.4531C2191.14 58.358 2195.47 53.2188 2202.95 53.2188C2209.01 53.2188 2214 56.5938 2214 64.571V103H2225.47V63.4972C2225.47 50.0355 2217.95 43.3239 2207.29 43.3239C2198.81 43.3239 2192.44 47.3892 2189.61 53.679H2188.99C2186.42 47.2358 2181.02 43.3239 2173.15 43.3239C2165.37 43.3239 2159.58 47.1974 2157.12 53.679H2156.39V44.0909H2145.39V103Z" fill="#333333"/>
</svg>
