<!-- 

    MAKE : TAHSIN ABRAR
    DATE : 09-12-2021
    UPDATE 01 : 09-12-2021
    SHARE LINK : https://tahsin000.github.io/DATABASE_MANAGEMENT_SYSTEM/ERD/IFTIKHAR_MAHMUD_C193074.svg


 -->
 
 <svg width="3159" height="2431" viewBox="0 0 3159 2431" fill="none" xmlns="http://www.w3.org/2000/svg">
<path d="M1890.86 1033.66C1893.18 1031.45 1896.82 1031.45 1899.14 1033.66L2133.14 1256.65C2135.62 1259.01 2135.62 1262.97 2133.14 1265.33L1899.14 1488.32C1896.82 1490.53 1893.18 1490.53 1890.86 1488.32L1656.86 1265.33C1654.38 1262.97 1654.38 1259.01 1656.86 1256.65L1890.86 1033.66Z" fill="#FFD233"/>
<path d="M1784.55 1249.73V1273H1787.89V1256.15H1788.11L1794.97 1272.97H1797.75L1804.61 1256.16H1804.83V1273H1808.17V1249.73H1803.91L1796.5 1267.82H1796.22L1788.81 1249.73H1784.55ZM1814.53 1273L1816.67 1266.84H1825.76L1827.89 1273H1831.61L1823.24 1249.73H1819.18L1810.81 1273H1814.53ZM1817.69 1263.89L1821.12 1253.95H1821.31L1824.74 1263.89H1817.69ZM1853.05 1249.73H1849.58V1266.82H1849.36L1837.52 1249.73H1834.27V1273H1837.78V1255.93H1838L1849.83 1273H1853.05V1249.73ZM1859.44 1273L1861.57 1266.84H1870.67L1872.79 1273H1876.52L1868.14 1249.73H1864.09L1855.71 1273H1859.44ZM1862.6 1263.89L1866.03 1253.95H1866.21L1869.64 1263.89H1862.6ZM1893.83 1257.08H1897.43C1896.65 1252.55 1892.77 1249.41 1887.75 1249.41C1881.73 1249.41 1877.33 1253.94 1877.33 1261.38C1877.33 1268.74 1881.6 1273.32 1887.91 1273.32C1893.56 1273.32 1897.59 1269.61 1897.59 1263.74V1261.09H1888.44V1263.99H1894.19C1894.11 1267.74 1891.64 1270.11 1887.91 1270.11C1883.81 1270.11 1880.82 1267.01 1880.82 1261.35C1880.82 1255.72 1883.83 1252.61 1887.77 1252.61C1890.86 1252.61 1892.96 1254.32 1893.83 1257.08ZM1901.35 1273H1916.07V1269.98H1904.86V1262.85H1915.17V1259.84H1904.86V1252.75H1915.94V1249.73H1901.35V1273ZM1919.92 1249.73V1273H1923.26V1256.15H1923.48L1930.34 1272.97H1933.12L1939.98 1256.16H1940.2V1273H1943.54V1249.73H1939.27L1931.87 1267.82H1931.59L1924.18 1249.73H1919.92ZM1947.94 1273H1962.66V1269.98H1951.45V1262.85H1961.77V1259.84H1951.45V1252.75H1962.53V1249.73H1947.94V1273ZM1985.3 1249.73H1981.82V1266.82H1981.61L1969.76 1249.73H1966.51V1273H1970.03V1255.93H1970.24L1982.07 1273H1985.3V1249.73ZM1988.57 1252.75H1995.82V1273H1999.32V1252.75H2006.58V1249.73H1988.57V1252.75Z" fill="#333333"/>
<path d="M1149.86 1064.66C1152.18 1062.45 1155.82 1062.45 1158.14 1064.66L1360.14 1257.12C1362.62 1259.48 1362.62 1263.44 1360.14 1265.8L1158.14 1458.26C1155.82 1460.47 1152.18 1460.47 1149.86 1458.26L947.858 1265.8C945.381 1263.44 945.381 1259.48 947.858 1257.12L1149.86 1064.66Z" fill="#FFD233"/>
<path d="M1094.54 1255.84H1097.93C1097.83 1252.11 1094.53 1249.41 1089.8 1249.41C1085.13 1249.41 1081.55 1252.08 1081.55 1256.09C1081.55 1259.33 1083.87 1261.23 1087.61 1262.24L1090.36 1262.99C1092.85 1263.65 1094.77 1264.47 1094.77 1266.53C1094.77 1268.81 1092.6 1270.31 1089.61 1270.31C1086.91 1270.31 1084.66 1269.1 1084.45 1266.57H1080.93C1081.16 1270.78 1084.42 1273.39 1089.63 1273.39C1095.1 1273.39 1098.25 1270.51 1098.25 1266.57C1098.25 1262.38 1094.51 1260.75 1091.55 1260.02L1089.28 1259.43C1087.46 1258.97 1085.04 1258.11 1085.05 1255.89C1085.05 1253.91 1086.86 1252.44 1089.72 1252.44C1092.39 1252.44 1094.29 1253.69 1094.54 1255.84ZM1101.74 1273H1116.47V1269.98H1105.25V1262.85H1115.57V1259.84H1105.25V1252.75H1116.33V1249.73H1101.74V1273ZM1120.32 1273H1123.83V1264.19H1128.6C1128.68 1264.19 1128.75 1264.19 1128.83 1264.19L1133.55 1273H1137.55L1132.4 1263.58C1135.25 1262.52 1136.67 1260.15 1136.67 1257.02C1136.67 1252.74 1134.01 1249.73 1128.61 1249.73H1120.32V1273ZM1123.83 1261.17V1252.74H1128.24C1131.7 1252.74 1133.13 1254.39 1133.13 1257.02C1133.13 1259.65 1131.7 1261.17 1128.28 1261.17H1123.83ZM1141.68 1249.73H1137.88L1146.26 1273H1150.31L1158.69 1249.73H1154.89L1148.42 1268.68H1148.15L1141.68 1249.73ZM1164.86 1249.73H1161.35V1273H1164.86V1249.73ZM1188.6 1257.3C1187.8 1252.32 1183.9 1249.41 1178.98 1249.41C1172.96 1249.41 1168.52 1253.92 1168.52 1261.36C1168.52 1268.81 1172.94 1273.32 1178.98 1273.32C1184.1 1273.32 1187.83 1270.11 1188.6 1265.51L1185.05 1265.5C1184.45 1268.48 1181.95 1270.11 1179.01 1270.11C1175.02 1270.11 1172.01 1267.06 1172.01 1261.36C1172.01 1255.72 1175.01 1252.61 1179.02 1252.61C1181.98 1252.61 1184.47 1254.28 1185.05 1257.3H1188.6ZM1192.09 1273H1206.82V1269.98H1195.61V1262.85H1205.92V1259.84H1195.61V1252.75H1206.68V1249.73H1192.09V1273ZM1223.36 1255.84H1226.75C1226.65 1252.11 1223.35 1249.41 1218.63 1249.41C1213.96 1249.41 1210.38 1252.08 1210.38 1256.09C1210.38 1259.33 1212.69 1261.23 1216.43 1262.24L1219.18 1262.99C1221.67 1263.65 1223.59 1264.47 1223.59 1266.53C1223.59 1268.81 1221.42 1270.31 1218.43 1270.31C1215.73 1270.31 1213.48 1269.1 1213.27 1266.57H1209.75C1209.98 1270.78 1213.24 1273.39 1218.46 1273.39C1223.92 1273.39 1227.07 1270.51 1227.07 1266.57C1227.07 1262.38 1223.33 1260.75 1220.38 1260.02L1218.1 1259.43C1216.28 1258.97 1213.86 1258.11 1213.88 1255.89C1213.88 1253.91 1215.68 1252.44 1218.55 1252.44C1221.22 1252.44 1223.11 1253.69 1223.36 1255.84Z" fill="#333333"/>
<path d="M1890.86 1587.66C1893.18 1585.45 1896.82 1585.45 1899.14 1587.66L2101.14 1780.12C2103.62 1782.48 2103.62 1786.44 2101.14 1788.8L1899.14 1981.26C1896.82 1983.47 1893.18 1983.47 1890.86 1981.26L1688.86 1788.8C1686.38 1786.44 1686.38 1782.48 1688.86 1780.12L1890.86 1587.66Z" fill="#FFD233"/>
<path d="M1864.98 1796H1868.49V1785.85H1880.09V1796H1883.62V1772.73H1880.09V1782.84H1868.49V1772.73H1864.98V1796ZM1889.99 1796L1892.13 1789.84H1901.22L1903.34 1796H1907.07L1898.7 1772.73H1894.64L1886.26 1796H1889.99ZM1893.15 1786.89L1896.58 1776.95H1896.76L1900.2 1786.89H1893.15ZM1922.23 1778.84H1925.62C1925.52 1775.11 1922.22 1772.41 1917.49 1772.41C1912.82 1772.41 1909.24 1775.08 1909.24 1779.09C1909.24 1782.33 1911.56 1784.23 1915.3 1785.24L1918.05 1785.99C1920.54 1786.65 1922.46 1787.47 1922.46 1789.53C1922.46 1791.81 1920.29 1793.31 1917.3 1793.31C1914.6 1793.31 1912.35 1792.1 1912.14 1789.57H1908.62C1908.85 1793.78 1912.11 1796.39 1917.32 1796.39C1922.79 1796.39 1925.94 1793.51 1925.94 1789.57C1925.94 1785.38 1922.2 1783.75 1919.24 1783.02L1916.97 1782.43C1915.15 1781.97 1912.73 1781.11 1912.74 1778.89C1912.74 1776.91 1914.55 1775.44 1917.42 1775.44C1920.09 1775.44 1921.98 1776.69 1922.23 1778.84Z" fill="#333333"/>
<rect x="2313" y="1202" width="416" height="112" rx="3.36" fill="#FFD233"/>
<path d="M2470.32 1254.3C2469.52 1249.32 2465.63 1246.41 2460.71 1246.41C2454.68 1246.41 2450.24 1250.92 2450.24 1258.36C2450.24 1265.81 2454.66 1270.32 2460.71 1270.32C2465.82 1270.32 2469.56 1267.11 2470.32 1262.51L2466.77 1262.5C2466.17 1265.48 2463.67 1267.11 2460.73 1267.11C2456.74 1267.11 2453.73 1264.06 2453.73 1258.36C2453.73 1252.72 2456.73 1249.61 2460.74 1249.61C2463.71 1249.61 2466.19 1251.28 2466.77 1254.3H2470.32ZM2484.6 1262.76C2484.61 1265.73 2482.41 1267.14 2480.5 1267.14C2478.4 1267.14 2476.94 1265.61 2476.94 1263.24V1252.55H2473.54V1263.65C2473.54 1267.98 2475.92 1270.23 2479.27 1270.23C2481.9 1270.23 2483.68 1268.84 2484.49 1266.98H2484.67V1270H2488.01V1252.55H2484.6V1262.76ZM2504.95 1256.81C2504.25 1254.09 2502.12 1252.32 2498.35 1252.32C2494.41 1252.32 2491.61 1254.4 2491.61 1257.49C2491.61 1259.97 2493.11 1261.61 2496.38 1262.34L2499.34 1262.99C2501.02 1263.36 2501.8 1264.11 2501.8 1265.2C2501.8 1266.56 2500.36 1267.61 2498.13 1267.61C2496.1 1267.61 2494.79 1266.74 2494.38 1265.02L2491.1 1265.52C2491.67 1268.61 2494.23 1270.35 2498.16 1270.35C2502.37 1270.35 2505.29 1268.11 2505.29 1264.95C2505.29 1262.49 2503.72 1260.97 2500.52 1260.23L2497.75 1259.59C2495.83 1259.14 2495 1258.49 2495.01 1257.31C2495 1255.97 2496.45 1255.01 2498.38 1255.01C2500.5 1255.01 2501.47 1256.18 2501.87 1257.35L2504.95 1256.81ZM2516.47 1252.55H2512.89V1248.36H2509.49V1252.55H2506.94V1255.27H2509.49V1265.58C2509.48 1268.75 2511.9 1270.28 2514.58 1270.23C2515.66 1270.22 2516.39 1270.01 2516.79 1269.86L2516.18 1267.06C2515.95 1267.1 2515.53 1267.2 2514.98 1267.2C2513.88 1267.2 2512.89 1266.84 2512.89 1264.88V1255.27H2516.47V1252.55ZM2526.69 1270.35C2531.61 1270.35 2534.83 1266.75 2534.83 1261.35C2534.83 1255.92 2531.61 1252.32 2526.69 1252.32C2521.77 1252.32 2518.55 1255.92 2518.55 1261.35C2518.55 1266.75 2521.77 1270.35 2526.69 1270.35ZM2526.7 1267.5C2523.49 1267.5 2521.99 1264.69 2521.99 1261.34C2521.99 1258 2523.49 1255.16 2526.7 1255.16C2529.9 1255.16 2531.4 1258 2531.4 1261.34C2531.4 1264.69 2529.9 1267.5 2526.7 1267.5ZM2537.92 1270H2541.31V1259.24C2541.31 1256.89 2542.96 1255.25 2544.89 1255.25C2546.78 1255.25 2548.09 1256.5 2548.09 1258.4V1270H2551.47V1258.88C2551.47 1256.77 2552.76 1255.25 2554.97 1255.25C2556.77 1255.25 2558.25 1256.25 2558.25 1258.61V1270H2561.64V1258.3C2561.64 1254.31 2559.42 1252.32 2556.26 1252.32C2553.75 1252.32 2551.86 1253.52 2551.02 1255.39H2550.84C2550.07 1253.48 2548.47 1252.32 2546.14 1252.32C2543.84 1252.32 2542.12 1253.47 2541.39 1255.39H2541.18V1252.55H2537.92V1270ZM2573.02 1270.35C2576.82 1270.35 2579.52 1268.48 2580.29 1265.64L2577.07 1265.06C2576.46 1266.7 2574.98 1267.55 2573.05 1267.55C2570.14 1267.55 2568.19 1265.66 2568.1 1262.3H2580.5V1261.09C2580.5 1254.78 2576.73 1252.32 2572.78 1252.32C2567.91 1252.32 2564.71 1256.02 2564.71 1261.39C2564.71 1266.81 2567.87 1270.35 2573.02 1270.35ZM2568.11 1259.75C2568.24 1257.27 2570.04 1255.12 2572.8 1255.12C2575.44 1255.12 2577.16 1257.08 2577.17 1259.75H2568.11ZM2583.57 1270H2586.97V1259.34C2586.97 1257.06 2588.73 1255.41 2591.14 1255.41C2591.84 1255.41 2592.64 1255.53 2592.91 1255.61V1252.36C2592.57 1252.32 2591.9 1252.28 2591.47 1252.28C2589.42 1252.28 2587.67 1253.44 2587.04 1255.32H2586.85V1252.55H2583.57V1270Z" fill="#333333"/>
<rect x="1687" y="2058" width="416" height="112" rx="3.36" fill="#FFD233"/>
<path d="M1825.73 2126H1834.65C1840.06 2126 1842.5 2123.31 1842.5 2119.74C1842.5 2116.14 1839.98 2114.1 1837.67 2113.98V2113.75C1839.81 2113.2 1841.59 2111.75 1841.59 2108.84C1841.59 2105.4 1839.21 2102.73 1834.25 2102.73H1825.73V2126ZM1829.24 2122.99V2115.53H1834.44C1837.25 2115.53 1839.02 2117.35 1839.02 2119.57C1839.02 2121.52 1837.69 2122.99 1834.31 2122.99H1829.24ZM1829.24 2112.8V2105.72H1834.04C1836.82 2105.72 1838.15 2107.18 1838.15 2109.11C1838.15 2111.36 1836.31 2112.8 1833.95 2112.8H1829.24ZM1866.18 2114.36C1866.18 2106.92 1861.73 2102.41 1855.7 2102.41C1849.66 2102.41 1845.21 2106.92 1845.21 2114.36C1845.21 2121.8 1849.66 2126.32 1855.7 2126.32C1861.73 2126.32 1866.18 2121.81 1866.18 2114.36ZM1862.7 2114.36C1862.7 2120.03 1859.7 2123.11 1855.7 2123.11C1851.69 2123.11 1848.7 2120.03 1848.7 2114.36C1848.7 2108.69 1851.69 2105.61 1855.7 2105.61C1859.7 2105.61 1862.7 2108.69 1862.7 2114.36ZM1890.07 2114.36C1890.07 2106.92 1885.62 2102.41 1879.59 2102.41C1873.55 2102.41 1869.1 2106.92 1869.1 2114.36C1869.1 2121.8 1873.55 2126.32 1879.59 2126.32C1885.62 2126.32 1890.07 2121.81 1890.07 2114.36ZM1886.59 2114.36C1886.59 2120.03 1883.59 2123.11 1879.59 2123.11C1875.58 2123.11 1872.59 2120.03 1872.59 2114.36C1872.59 2108.69 1875.58 2105.61 1879.59 2105.61C1883.59 2105.61 1886.59 2108.69 1886.59 2114.36ZM1893.74 2126H1897.26V2118.76L1900.01 2115.6L1907.53 2126H1911.76L1902.34 2113.2L1911.72 2102.73H1907.3L1897.54 2113.84H1897.26V2102.73H1893.74V2126ZM1917.8 2102.73H1914.29V2126H1917.8V2102.73ZM1941 2102.73H1937.52V2119.82H1937.3L1925.46 2102.73H1922.21V2126H1925.72V2108.93H1925.94L1937.77 2126H1941V2102.73ZM1961.16 2110.08H1964.77C1963.98 2105.55 1960.11 2102.41 1955.08 2102.41C1949.06 2102.41 1944.66 2106.94 1944.66 2114.38C1944.66 2121.74 1948.94 2126.32 1955.24 2126.32C1960.89 2126.32 1964.92 2122.61 1964.92 2116.74V2114.09H1955.78V2116.99H1961.53C1961.45 2120.74 1958.97 2123.11 1955.24 2123.11C1951.14 2123.11 1948.15 2120.01 1948.15 2114.35C1948.15 2108.72 1951.16 2105.61 1955.11 2105.61C1958.2 2105.61 1960.29 2107.32 1961.16 2110.08Z" fill="#333333"/>
<rect x="1687" y="806" width="416" height="112" rx="3.36" fill="#FFD233"/>
<path d="M1874.49 856.841H1877.87C1877.77 853.114 1874.47 850.409 1869.75 850.409C1865.08 850.409 1861.5 853.08 1861.5 857.091C1861.5 860.33 1863.82 862.227 1867.55 863.239L1870.3 863.989C1872.79 864.648 1874.71 865.466 1874.71 867.534C1874.71 869.807 1872.54 871.307 1869.55 871.307C1866.85 871.307 1864.6 870.102 1864.4 867.568H1860.87C1861.1 871.784 1864.36 874.386 1869.58 874.386C1875.04 874.386 1878.19 871.511 1878.19 867.568C1878.19 863.375 1874.45 861.75 1871.5 861.023L1869.22 860.432C1867.41 859.966 1864.99 859.114 1865 856.886C1865 854.909 1866.8 853.443 1869.67 853.443C1872.34 853.443 1874.24 854.693 1874.49 856.841ZM1889.56 856.545H1885.98V852.364H1882.58V856.545H1880.02V859.273H1882.58V869.58C1882.57 872.75 1884.99 874.284 1887.67 874.227C1888.75 874.216 1889.48 874.011 1889.88 873.864L1889.26 871.057C1889.03 871.102 1888.61 871.205 1888.07 871.205C1886.97 871.205 1885.98 870.841 1885.98 868.875V859.273H1889.56V856.545ZM1897.69 874.386C1900.58 874.386 1902.2 872.92 1902.85 871.614H1902.99V874H1906.31V862.409C1906.31 857.33 1902.31 856.318 1899.53 856.318C1896.37 856.318 1893.46 857.591 1892.33 860.773L1895.52 861.5C1896.02 860.261 1897.29 859.068 1899.58 859.068C1901.77 859.068 1902.9 860.216 1902.9 862.193V862.273C1902.9 863.511 1901.62 863.489 1898.49 863.852C1895.18 864.239 1891.79 865.102 1891.79 869.068C1891.79 872.5 1894.37 874.386 1897.69 874.386ZM1898.43 871.659C1896.51 871.659 1895.12 870.795 1895.12 869.114C1895.12 867.295 1896.74 866.648 1898.7 866.386C1899.81 866.239 1902.42 865.943 1902.91 865.455V867.705C1902.91 869.773 1901.26 871.659 1898.43 871.659ZM1918.43 856.545H1914.67V854.977C1914.67 853.432 1915.31 852.591 1916.97 852.591C1917.67 852.591 1918.17 852.75 1918.49 852.852L1919.29 850.102C1918.81 849.92 1917.82 849.636 1916.45 849.636C1913.68 849.636 1911.26 851.25 1911.26 854.523V856.545H1908.57V859.273H1911.26V874H1914.67V859.273H1918.43V856.545ZM1929.54 856.545H1925.78V854.977C1925.78 853.432 1926.42 852.591 1928.08 852.591C1928.78 852.591 1929.28 852.75 1929.6 852.852L1930.39 850.102C1929.92 849.92 1928.93 849.636 1927.55 849.636C1924.79 849.636 1922.37 851.25 1922.37 854.523V856.545H1919.68V859.273H1922.37V874H1925.78V859.273H1929.54V856.545Z" fill="#333333"/>
<rect x="2839" y="991" width="320" height="112" rx="44.8" fill="#FFD233"/>
<path d="M2987.6 1043.3C2986.8 1038.32 2982.91 1035.41 2977.98 1035.41C2971.96 1035.41 2967.52 1039.92 2967.52 1047.36C2967.52 1054.81 2971.94 1059.32 2977.98 1059.32C2983.1 1059.32 2986.84 1056.11 2987.6 1051.51L2984.05 1051.5C2983.45 1054.48 2980.95 1056.11 2978.01 1056.11C2974.02 1056.11 2971.01 1053.06 2971.01 1047.36C2971.01 1041.72 2974.01 1038.61 2978.02 1038.61C2980.98 1038.61 2983.47 1040.28 2984.05 1043.3H2987.6ZM3002.01 1059H2987.22V1061.89H3002.01V1059ZM3007.34 1035.73H3003.83V1059H3007.34V1035.73ZM3019.28 1059C3026.38 1059 3030.48 1054.6 3030.48 1047.33C3030.48 1040.09 3026.38 1035.73 3019.52 1035.73H3011.75V1059H3019.28ZM3015.26 1055.93V1038.8H3019.31C3024.4 1038.8 3027.02 1041.84 3027.02 1047.33C3027.02 1052.84 3024.4 1055.93 3019.09 1055.93H3015.26Z" fill="#333333"/>
<rect x="994" y="863" width="320" height="112" rx="44.8" fill="#FFD233"/>
<path d="M1136.79 913.841H1140.18C1140.07 910.114 1136.78 907.409 1132.05 907.409C1127.38 907.409 1123.8 910.08 1123.8 914.091C1123.8 917.33 1126.12 919.227 1129.86 920.239L1132.61 920.989C1135.1 921.648 1137.02 922.466 1137.02 924.534C1137.02 926.807 1134.85 928.307 1131.86 928.307C1129.15 928.307 1126.9 927.102 1126.7 924.568H1123.18C1123.4 928.784 1126.67 931.386 1131.88 931.386C1137.35 931.386 1140.49 928.511 1140.49 924.568C1140.49 920.375 1136.76 918.75 1133.8 918.023L1131.53 917.432C1129.71 916.966 1127.29 916.114 1127.3 913.886C1127.3 911.909 1129.11 910.443 1131.97 910.443C1134.64 910.443 1136.54 911.693 1136.79 913.841ZM1156.18 931H1141.4V933.886H1156.18V931ZM1161.51 907.727H1158V931H1161.51V907.727ZM1173.46 931C1180.55 931 1184.65 926.602 1184.65 919.33C1184.65 912.091 1180.55 907.727 1173.7 907.727H1165.92V931H1173.46ZM1169.43 927.932V910.795H1173.48C1178.57 910.795 1181.2 913.841 1181.2 919.33C1181.2 924.841 1178.57 927.932 1173.26 927.932H1169.43Z" fill="#333333"/>
<rect width="320" height="112" rx="44.8" fill="#FFD233"/>
<path d="M123.291 50.8409H126.678C126.575 47.1136 123.28 44.4091 118.553 44.4091C113.882 44.4091 110.303 47.0795 110.303 51.0909C110.303 54.3295 112.621 56.2273 116.359 57.2386L119.109 57.9886C121.598 58.6477 123.519 59.4659 123.519 61.5341C123.519 63.8068 121.348 65.3068 118.359 65.3068C115.655 65.3068 113.405 64.1023 113.2 61.5682H109.678C109.905 65.7841 113.166 68.3864 118.382 68.3864C123.848 68.3864 126.996 65.5114 126.996 61.5682C126.996 57.375 123.257 55.75 120.303 55.0227L118.03 54.4318C116.212 53.9659 113.791 53.1136 113.803 50.8864C113.803 48.9091 115.609 47.4432 118.473 47.4432C121.144 47.4432 123.041 48.6932 123.291 50.8409ZM130.488 68H133.999V59.8182H138.772C144.17 59.8182 146.84 56.5568 146.84 52.2614C146.84 47.9773 144.192 44.7273 138.783 44.7273H130.488V68ZM133.999 56.8409V47.7386H138.408C141.886 47.7386 143.306 49.625 143.306 52.2614C143.306 54.8977 141.886 56.8409 138.454 56.8409H133.999ZM149.75 68L151.886 61.8409H160.977L163.102 68H166.829L158.454 44.7273H154.397L146.022 68H149.75ZM152.909 58.8864L156.341 48.9545H156.522L159.954 58.8864H152.909ZM181.679 68H166.895V70.8864H181.679V68ZM187.012 44.7273H183.501V68H187.012V44.7273ZM198.956 68C206.047 68 210.149 63.6023 210.149 56.3295C210.149 49.0909 206.047 44.7273 199.195 44.7273H191.422V68H198.956ZM194.933 64.9318V47.7955H198.979C204.07 47.7955 206.695 50.8409 206.695 56.3295C206.695 61.8409 204.07 64.9318 198.763 64.9318H194.933Z" fill="#333333"/>
<rect y="285" width="320" height="112" rx="44.8" fill="#FFD233"/>
<path d="M87.2634 353H90.7748V342.852H100.661V339.841H90.7748V332.75H101.695V329.727H87.2634V353ZM104.369 353L106.505 346.841H115.596L117.721 353H121.449L113.074 329.727H109.017L100.642 353H104.369ZM107.528 343.886L110.96 333.955H111.142L114.574 343.886H107.528ZM142.341 337.295C141.546 332.318 137.648 329.409 132.728 329.409C126.705 329.409 122.262 333.92 122.262 341.364C122.262 348.807 126.682 353.318 132.728 353.318C137.841 353.318 141.58 350.114 142.341 345.511L138.796 345.5C138.194 348.477 135.694 350.114 132.75 350.114C128.762 350.114 125.75 347.057 125.75 341.364C125.75 335.716 128.75 332.614 132.762 332.614C135.728 332.614 138.216 334.284 138.796 337.295H142.341ZM149.35 329.727H145.839V353H149.35V329.727ZM155.726 353L157.862 346.841H166.953L169.078 353H172.805L164.43 329.727H160.374L151.999 353H155.726ZM158.885 343.886L162.317 333.955H162.499L165.93 343.886H158.885ZM175.462 353H189.519V349.977H178.974V329.727H175.462V353ZM205.014 353H190.23V355.886H205.014V353ZM210.347 329.727H206.835V353H210.347V329.727ZM222.291 353C229.381 353 233.484 348.602 233.484 341.33C233.484 334.091 229.381 329.727 222.529 329.727H214.756V353H222.291ZM218.268 349.932V332.795H222.313C227.404 332.795 230.029 335.841 230.029 341.33C230.029 346.841 227.404 349.932 222.097 349.932H218.268Z" fill="#333333"/>
<rect y="570" width="320" height="112" rx="44.8" fill="#FFD233"/>
<path d="M54.9288 638H58.4402V629.818H63.2129C68.6106 629.818 71.2811 626.557 71.2811 622.261C71.2811 617.977 68.6334 614.727 63.2243 614.727H54.9288V638ZM58.4402 626.841V617.739H62.8493C66.3265 617.739 67.747 619.625 67.747 622.261C67.747 624.898 66.3265 626.841 62.8947 626.841H58.4402ZM74.6936 638H89.4208V634.977H78.2049V627.852H88.5231V624.841H78.2049V617.75H89.2845V614.727H74.6936V638ZM100.805 638C107.896 638 111.998 633.602 111.998 626.33C111.998 619.091 107.896 614.727 101.044 614.727H93.2708V638H100.805ZM96.7822 634.932V617.795H100.828C105.919 617.795 108.544 620.841 108.544 626.33C108.544 631.841 105.919 634.932 100.612 634.932H96.7822ZM119.172 614.727H115.661V638H119.172V614.727ZM142.911 622.295C142.116 617.318 138.218 614.409 133.297 614.409C127.275 614.409 122.832 618.92 122.832 626.364C122.832 633.807 127.252 638.318 133.297 638.318C138.411 638.318 142.15 635.114 142.911 630.511L139.366 630.5C138.763 633.477 136.263 635.114 133.32 635.114C129.332 635.114 126.32 632.057 126.32 626.364C126.32 620.716 129.32 617.614 133.332 617.614C136.297 617.614 138.786 619.284 139.366 622.295H142.911ZM161.375 614.727V629.75C161.375 632.909 159.193 635.182 155.647 635.182C152.113 635.182 149.92 632.909 149.92 629.75V614.727H146.409V630.034C146.409 634.92 150.068 638.386 155.647 638.386C161.227 638.386 164.897 634.92 164.897 630.034V614.727H161.375ZM169.299 638H172.81V629.193H177.583C177.662 629.193 177.73 629.193 177.81 629.193L182.537 638H186.537L181.378 628.58C184.23 627.523 185.651 625.148 185.651 622.023C185.651 617.739 182.992 614.727 177.594 614.727H169.299V638ZM172.81 626.17V617.739H177.219C180.685 617.739 182.117 619.386 182.117 622.023C182.117 624.648 180.685 626.17 177.264 626.17H172.81ZM189.22 638H203.947V634.977H192.731V627.852H203.049V624.841H192.731V617.75H203.81V614.727H189.22V638ZM207.797 638H221.854V634.977H211.308V614.727H207.797V638ZM237.349 638H222.564V640.886H237.349V638ZM242.681 614.727H239.17V638H242.681V614.727ZM254.625 638C261.716 638 265.818 633.602 265.818 626.33C265.818 619.091 261.716 614.727 254.864 614.727H247.091V638H254.625ZM250.602 634.932V617.795H254.648C259.739 617.795 262.364 620.841 262.364 626.33C262.364 631.841 259.739 634.932 254.432 634.932H250.602Z" fill="#333333"/>
<rect y="847" width="320" height="112" rx="44.8" fill="#FFD233"/>
<path d="M57.5143 891.727V915H60.8552V898.148H61.0711L67.9348 914.966H70.7075L77.5711 898.159H77.787V915H81.128V891.727H76.8666L69.4575 909.818H69.1848L61.7757 891.727H57.5143ZM87.495 915L89.6313 908.841H98.7222L100.847 915H104.575L96.1995 891.727H92.1427L83.7677 915H87.495ZM90.6541 905.886L94.0859 895.955H94.2677L97.6995 905.886H90.6541ZM126.015 891.727H122.538V908.818H122.322L110.481 891.727H107.231V915H110.743V897.932H110.959L122.788 915H126.015V891.727ZM133.945 891.727H130.434V915H133.945V891.727ZM157.684 899.295C156.889 894.318 152.991 891.409 148.07 891.409C142.048 891.409 137.605 895.92 137.605 903.364C137.605 910.807 142.025 915.318 148.07 915.318C153.184 915.318 156.923 912.114 157.684 907.511L154.139 907.5C153.536 910.477 151.036 912.114 148.093 912.114C144.105 912.114 141.093 909.057 141.093 903.364C141.093 897.716 144.093 894.614 148.105 894.614C151.07 894.614 153.559 896.284 154.139 899.295H157.684ZM176.148 891.727V906.75C176.148 909.909 173.966 912.182 170.42 912.182C166.886 912.182 164.693 909.909 164.693 906.75V891.727H161.182V907.034C161.182 911.92 164.841 915.386 170.42 915.386C176 915.386 179.67 911.92 179.67 907.034V891.727H176.148ZM184.072 915H187.583V906.193H192.356C192.435 906.193 192.503 906.193 192.583 906.193L197.31 915H201.31L196.151 905.58C199.003 904.523 200.424 902.148 200.424 899.023C200.424 894.739 197.765 891.727 192.367 891.727H184.072V915ZM187.583 903.17V894.739H191.992C195.458 894.739 196.89 896.386 196.89 899.023C196.89 901.648 195.458 903.17 192.037 903.17H187.583ZM203.993 915H218.72V911.977H207.504V904.852H217.822V901.841H207.504V894.75H218.583V891.727H203.993V915ZM234.763 915H219.979V917.886H234.763V915ZM240.096 891.727H236.585V915H240.096V891.727ZM252.04 915C259.131 915 263.233 910.602 263.233 903.33C263.233 896.091 259.131 891.727 252.278 891.727H244.506V915H252.04ZM248.017 911.932V894.795H252.062C257.153 894.795 259.778 897.841 259.778 903.33C259.778 908.841 257.153 911.932 251.846 911.932H248.017Z" fill="#333333"/>
<rect y="1135" width="320" height="112" rx="44.8" fill="#FFD233"/>
<path d="M71.7248 1203H75.2362V1192.85H86.8385V1203H90.3612V1179.73H86.8385V1189.84H75.2362V1179.73H71.7248V1203ZM96.7367 1203L98.8731 1196.84H107.964L110.089 1203H113.816L105.441 1179.73H101.384L93.0095 1203H96.7367ZM99.8958 1193.89L103.328 1183.95H103.509L106.941 1193.89H99.8958ZM119.984 1179.73H116.473V1203H119.984V1179.73ZM124.394 1203H127.905V1194.19H132.678C132.758 1194.19 132.826 1194.19 132.905 1194.19L137.633 1203H141.633L136.474 1193.58C139.326 1192.52 140.746 1190.15 140.746 1187.02C140.746 1182.74 138.087 1179.73 132.69 1179.73H124.394V1203ZM127.905 1191.17V1182.74H132.315C135.78 1182.74 137.212 1184.39 137.212 1187.02C137.212 1189.65 135.78 1191.17 132.36 1191.17H127.905ZM163.645 1187.3C162.849 1182.32 158.951 1179.41 154.031 1179.41C148.008 1179.41 143.565 1183.92 143.565 1191.36C143.565 1198.81 147.986 1203.32 154.031 1203.32C159.145 1203.32 162.883 1200.11 163.645 1195.51L160.099 1195.5C159.497 1198.48 156.997 1200.11 154.054 1200.11C150.065 1200.11 147.054 1197.06 147.054 1191.36C147.054 1185.72 150.054 1182.61 154.065 1182.61C157.031 1182.61 159.52 1184.28 160.099 1187.3H163.645ZM182.108 1179.73V1194.75C182.108 1197.91 179.926 1200.18 176.381 1200.18C172.847 1200.18 170.654 1197.91 170.654 1194.75V1179.73H167.142V1195.03C167.142 1199.92 170.801 1203.39 176.381 1203.39C181.961 1203.39 185.631 1199.92 185.631 1195.03V1179.73H182.108ZM188.884 1182.75H196.134V1203H199.634V1182.75H206.896V1179.73H188.884V1182.75ZM220.553 1203H205.768V1205.89H220.553V1203ZM225.885 1179.73H222.374V1203H225.885V1179.73ZM237.829 1203C244.92 1203 249.022 1198.6 249.022 1191.33C249.022 1184.09 244.92 1179.73 238.068 1179.73H230.295V1203H237.829ZM233.806 1199.93V1182.8H237.852C242.943 1182.8 245.568 1185.84 245.568 1191.33C245.568 1196.84 242.943 1199.93 237.636 1199.93H233.806Z" fill="#333333"/>
<rect y="1423" width="320" height="112" rx="44.8" fill="#FFD233"/>
<path d="M101.48 1473.84H104.866C104.764 1470.11 101.468 1467.41 96.741 1467.41C92.0705 1467.41 88.491 1470.08 88.491 1474.09C88.491 1477.33 90.8092 1479.23 94.5478 1480.24L97.2978 1480.99C99.7864 1481.65 101.707 1482.47 101.707 1484.53C101.707 1486.81 99.5364 1488.31 96.5478 1488.31C93.8433 1488.31 91.5933 1487.1 91.3887 1484.57H87.866C88.0933 1488.78 91.3546 1491.39 96.5705 1491.39C102.036 1491.39 105.184 1488.51 105.184 1484.57C105.184 1480.38 101.446 1478.75 98.491 1478.02L96.2183 1477.43C94.4001 1476.97 91.9796 1476.11 91.991 1473.89C91.991 1471.91 93.7978 1470.44 96.6614 1470.44C99.3319 1470.44 101.23 1471.69 101.48 1473.84ZM108.676 1491H112.188V1480.85H123.79V1491H127.313V1467.73H123.79V1477.84H112.188V1467.73H108.676V1491ZM133.688 1491L135.824 1484.84H144.915L147.04 1491H150.768L142.393 1467.73H138.336L129.961 1491H133.688ZM136.847 1481.89L140.279 1471.95H140.461L143.893 1481.89H136.847ZM153.052 1467.73H149.257L157.632 1491H161.689L170.064 1467.73H166.268L159.791 1486.68H159.53L153.052 1467.73ZM172.72 1491H187.448V1487.98H176.232V1480.85H186.55V1477.84H176.232V1470.75H187.311V1467.73H172.72V1491ZM203.491 1491H188.707V1493.89H203.491V1491ZM208.824 1467.73H205.312V1491H208.824V1467.73ZM220.768 1491C227.858 1491 231.961 1486.6 231.961 1479.33C231.961 1472.09 227.858 1467.73 221.006 1467.73H213.233V1491H220.768ZM216.745 1487.93V1470.8H220.79C225.881 1470.8 228.506 1473.84 228.506 1479.33C228.506 1484.84 225.881 1487.93 220.574 1487.93H216.745Z" fill="#333333"/>
<rect y="127" width="320" height="112" rx="44.8" fill="#FFD233"/>
<path d="M110.846 177.841H114.233C114.13 174.114 110.835 171.409 106.108 171.409C101.437 171.409 97.8577 174.08 97.8577 178.091C97.8577 181.33 100.176 183.227 103.915 184.239L106.665 184.989C109.153 185.648 111.074 186.466 111.074 188.534C111.074 190.807 108.903 192.307 105.915 192.307C103.21 192.307 100.96 191.102 100.755 188.568H97.2327C97.46 192.784 100.721 195.386 105.937 195.386C111.403 195.386 114.551 192.511 114.551 188.568C114.551 184.375 110.812 182.75 107.858 182.023L105.585 181.432C103.767 180.966 101.346 180.114 101.358 177.886C101.358 175.909 103.165 174.443 106.028 174.443C108.699 174.443 110.596 175.693 110.846 177.841ZM118.043 195H121.554V186.818H126.327C131.725 186.818 134.395 183.557 134.395 179.261C134.395 174.977 131.747 171.727 126.338 171.727H118.043V195ZM121.554 183.841V174.739H125.963C129.441 174.739 130.861 176.625 130.861 179.261C130.861 181.898 129.441 183.841 126.009 183.841H121.554ZM137.305 195L139.441 188.841H148.532L150.657 195H154.384L146.009 171.727H141.953L133.578 195H137.305ZM140.464 185.886L143.896 175.955H144.078L147.509 185.886H140.464ZM169.234 195H154.45V197.886H169.234V195ZM171.056 195H174.567V184.852H184.454V181.841H174.567V174.75H185.488V171.727H171.056V195ZM189.102 195H203.829V191.977H192.613V184.852H202.931V181.841H192.613V174.75H203.693V171.727H189.102V195ZM207.679 195H222.406V191.977H211.191V184.852H221.509V181.841H211.191V174.75H222.27V171.727H207.679V195Z" fill="#333333"/>
<rect y="412" width="320" height="112" rx="44.8" fill="#FFD233"/>
<path d="M74.8186 480H78.3299V469.852H88.2163V466.841H78.3299V459.75H89.2504V456.727H74.8186V480ZM91.9242 480L94.0606 473.841H103.151L105.276 480H109.004L100.629 456.727H96.572L88.197 480H91.9242ZM95.0833 470.886L98.5151 460.955H98.697L102.129 470.886H95.0833ZM129.896 464.295C129.101 459.318 125.203 456.409 120.283 456.409C114.26 456.409 109.817 460.92 109.817 468.364C109.817 475.807 114.237 480.318 120.283 480.318C125.396 480.318 129.135 477.114 129.896 472.511L126.351 472.5C125.749 475.477 123.249 477.114 120.305 477.114C116.317 477.114 113.305 474.057 113.305 468.364C113.305 462.716 116.305 459.614 120.317 459.614C123.283 459.614 125.771 461.284 126.351 464.295H129.896ZM136.905 456.727H133.394V480H136.905V456.727ZM143.281 480L145.417 473.841H154.508L156.633 480H160.361L151.986 456.727H147.929L139.554 480H143.281ZM146.44 470.886L149.872 460.955H150.054L153.486 470.886H146.44ZM163.017 480H177.074V476.977H166.529V456.727H163.017V480ZM192.569 480H177.785V482.886H192.569V480ZM194.391 480H197.902V469.852H207.788V466.841H197.902V459.75H208.822V456.727H194.391V480ZM212.437 480H227.164V476.977H215.948V469.852H226.266V466.841H215.948V459.75H227.027V456.727H212.437V480ZM231.014 480H245.741V476.977H234.525V469.852H244.843V466.841H234.525V459.75H245.605V456.727H231.014V480Z" fill="#333333"/>
<rect y="697" width="320" height="112" rx="44.8" fill="#FFD233"/>
<path d="M51.1632 765H54.6746V756.818H59.4473C64.845 756.818 67.5155 753.557 67.5155 749.261C67.5155 744.977 64.8677 741.727 59.4586 741.727H51.1632V765ZM54.6746 753.841V744.739H59.0836C62.5609 744.739 63.9814 746.625 63.9814 749.261C63.9814 751.898 62.5609 753.841 59.1291 753.841H54.6746ZM70.9279 765H85.6552V761.977H74.4393V754.852H84.7575V751.841H74.4393V744.75H85.5189V741.727H70.9279V765ZM97.0393 765C104.13 765 108.232 760.602 108.232 753.33C108.232 746.091 104.13 741.727 97.2779 741.727H89.5052V765H97.0393ZM93.0166 761.932V744.795H97.062C102.153 744.795 104.778 747.841 104.778 753.33C104.778 758.841 102.153 761.932 96.8461 761.932H93.0166ZM115.406 741.727H111.895V765H115.406V741.727ZM139.145 749.295C138.35 744.318 134.452 741.409 129.532 741.409C123.509 741.409 119.066 745.92 119.066 753.364C119.066 760.807 123.486 765.318 129.532 765.318C134.645 765.318 138.384 762.114 139.145 757.511L135.6 757.5C134.998 760.477 132.498 762.114 129.555 762.114C125.566 762.114 122.555 759.057 122.555 753.364C122.555 747.716 125.555 744.614 129.566 744.614C132.532 744.614 135.02 746.284 135.6 749.295H139.145ZM157.609 741.727V756.75C157.609 759.909 155.427 762.182 151.882 762.182C148.348 762.182 146.155 759.909 146.155 756.75V741.727H142.643V757.034C142.643 761.92 146.302 765.386 151.882 765.386C157.461 765.386 161.132 761.92 161.132 757.034V741.727H157.609ZM165.533 765H169.044V756.193H173.817C173.897 756.193 173.965 756.193 174.044 756.193L178.772 765H182.772L177.612 755.58C180.465 754.523 181.885 752.148 181.885 749.023C181.885 744.739 179.226 741.727 173.828 741.727H165.533V765ZM169.044 753.17V744.739H173.453C176.919 744.739 178.351 746.386 178.351 749.023C178.351 751.648 176.919 753.17 173.499 753.17H169.044ZM185.454 765H200.181V761.977H188.965V754.852H199.283V751.841H188.965V744.75H200.045V741.727H185.454V765ZM216.224 765H201.44V767.886H216.224V765ZM218.046 765H221.557V754.852H231.444V751.841H221.557V744.75H232.478V741.727H218.046V765ZM236.092 765H250.819V761.977H239.603V754.852H249.921V751.841H239.603V744.75H250.683V741.727H236.092V765ZM254.669 765H269.396V761.977H258.181V754.852H268.499V751.841H258.181V744.75H269.26V741.727H254.669V765Z" fill="#333333"/>
<rect y="975" width="320" height="112" rx="44.8" fill="#FFD233"/>
<path d="M45.0694 1019.73V1043H48.4104V1026.15H48.6263L55.4899 1042.97H58.2626L65.1263 1026.16H65.3422V1043H68.6831V1019.73H64.4217L57.0126 1037.82H56.7399L49.3308 1019.73H45.0694ZM75.0501 1043L77.1865 1036.84H86.2774L88.4024 1043H92.1296L83.7546 1019.73H79.6978L71.3228 1043H75.0501ZM78.2092 1033.89L81.641 1023.95H81.8228L85.2546 1033.89H78.2092ZM113.571 1019.73H110.093V1036.82H109.877L98.0364 1019.73H94.7864V1043H98.2978V1025.93H98.5137L110.343 1043H113.571V1019.73ZM121.5 1019.73H117.989V1043H121.5V1019.73ZM145.239 1027.3C144.444 1022.32 140.546 1019.41 135.626 1019.41C129.603 1019.41 125.16 1023.92 125.16 1031.36C125.16 1038.81 129.58 1043.32 135.626 1043.32C140.739 1043.32 144.478 1040.11 145.239 1035.51L141.694 1035.5C141.092 1038.48 138.592 1040.11 135.648 1040.11C131.66 1040.11 128.648 1037.06 128.648 1031.36C128.648 1025.72 131.648 1022.61 135.66 1022.61C138.626 1022.61 141.114 1024.28 141.694 1027.3H145.239ZM163.703 1019.73V1034.75C163.703 1037.91 161.521 1040.18 157.976 1040.18C154.441 1040.18 152.248 1037.91 152.248 1034.75V1019.73H148.737V1035.03C148.737 1039.92 152.396 1043.39 157.976 1043.39C163.555 1043.39 167.226 1039.92 167.226 1035.03V1019.73H163.703ZM171.627 1043H175.138V1034.19H179.911C179.99 1034.19 180.059 1034.19 180.138 1034.19L184.865 1043H188.865L183.706 1033.58C186.559 1032.52 187.979 1030.15 187.979 1027.02C187.979 1022.74 185.32 1019.73 179.922 1019.73H171.627V1043ZM175.138 1031.17V1022.74H179.547C183.013 1022.74 184.445 1024.39 184.445 1027.02C184.445 1029.65 183.013 1031.17 179.593 1031.17H175.138ZM191.548 1043H206.275V1039.98H195.059V1032.85H205.377V1029.84H195.059V1022.75H206.139V1019.73H191.548V1043ZM222.318 1043H207.534V1045.89H222.318V1043ZM224.14 1043H227.651V1032.85H237.537V1029.84H227.651V1022.75H238.572V1019.73H224.14V1043ZM242.186 1043H256.913V1039.98H245.697V1032.85H256.015V1029.84H245.697V1022.75H256.777V1019.73H242.186V1043ZM260.763 1043H275.49V1039.98H264.274V1032.85H274.592V1029.84H264.274V1022.75H275.354V1019.73H260.763V1043Z" fill="#333333"/>
<rect y="1263" width="320" height="112" rx="44.8" fill="#FFD233"/>
<path d="M59.2799 1331H62.7913V1320.85H74.3936V1331H77.9163V1307.73H74.3936V1317.84H62.7913V1307.73H59.2799V1331ZM84.2918 1331L86.4282 1324.84H95.5191L97.6441 1331H101.371L92.9964 1307.73H88.9396L80.5646 1331H84.2918ZM87.4509 1321.89L90.8828 1311.95H91.0646L94.4964 1321.89H87.4509ZM107.54 1307.73H104.028V1331H107.54V1307.73ZM111.949 1331H115.461V1322.19H120.233C120.313 1322.19 120.381 1322.19 120.461 1322.19L125.188 1331H129.188L124.029 1321.58C126.881 1320.52 128.301 1318.15 128.301 1315.02C128.301 1310.74 125.642 1307.73 120.245 1307.73H111.949V1331ZM115.461 1319.17V1310.74H119.87C123.336 1310.74 124.767 1312.39 124.767 1315.02C124.767 1317.65 123.336 1319.17 119.915 1319.17H115.461ZM151.2 1315.3C150.404 1310.32 146.507 1307.41 141.586 1307.41C135.563 1307.41 131.12 1311.92 131.12 1319.36C131.12 1326.81 135.541 1331.32 141.586 1331.32C146.7 1331.32 150.438 1328.11 151.2 1323.51L147.654 1323.5C147.052 1326.48 144.552 1328.11 141.609 1328.11C137.62 1328.11 134.609 1325.06 134.609 1319.36C134.609 1313.72 137.609 1310.61 141.62 1310.61C144.586 1310.61 147.075 1312.28 147.654 1315.3H151.2ZM169.663 1307.73V1322.75C169.663 1325.91 167.482 1328.18 163.936 1328.18C160.402 1328.18 158.209 1325.91 158.209 1322.75V1307.73H154.697V1323.03C154.697 1327.92 158.357 1331.39 163.936 1331.39C169.516 1331.39 173.186 1327.92 173.186 1323.03V1307.73H169.663ZM176.439 1310.75H183.689V1331H187.189V1310.75H194.451V1307.73H176.439V1310.75ZM208.108 1331H193.324V1333.89H208.108V1331ZM209.929 1331H213.441V1320.85H223.327V1317.84H213.441V1310.75H224.361V1307.73H209.929V1331ZM227.975 1331H242.702V1327.98H231.487V1320.85H241.805V1317.84H231.487V1310.75H242.566V1307.73H227.975V1331ZM246.552 1331H261.28V1327.98H250.064V1320.85H260.382V1317.84H250.064V1310.75H261.143V1307.73H246.552V1331Z" fill="#333333"/>
<rect y="1551" width="320" height="112" rx="44.8" fill="#FFD233"/>
<path d="M89.0348 1601.84H92.4211C92.3188 1598.11 89.0234 1595.41 84.2961 1595.41C79.6257 1595.41 76.0461 1598.08 76.0461 1602.09C76.0461 1605.33 78.3643 1607.23 82.1029 1608.24L84.8529 1608.99C87.3416 1609.65 89.262 1610.47 89.262 1612.53C89.262 1614.81 87.0916 1616.31 84.1029 1616.31C81.3984 1616.31 79.1484 1615.1 78.9438 1612.57H75.4211C75.6484 1616.78 78.9098 1619.39 84.1257 1619.39C89.5916 1619.39 92.7393 1616.51 92.7393 1612.57C92.7393 1608.38 89.0007 1606.75 86.0461 1606.02L83.7734 1605.43C81.9552 1604.97 79.5348 1604.11 79.5461 1601.89C79.5461 1599.91 81.3529 1598.44 84.2166 1598.44C86.887 1598.44 88.7848 1599.69 89.0348 1601.84ZM96.2313 1619H99.7427V1608.85H111.345V1619H114.868V1595.73H111.345V1605.84H99.7427V1595.73H96.2313V1619ZM121.243 1619L123.38 1612.84H132.471L134.596 1619H138.323L129.948 1595.73H125.891L117.516 1619H121.243ZM124.402 1609.89L127.834 1599.95H128.016L131.448 1609.89H124.402ZM140.607 1595.73H136.812L145.187 1619H149.244L157.619 1595.73H153.823L147.346 1614.68H147.085L140.607 1595.73ZM160.276 1619H175.003V1615.98H163.787V1608.85H174.105V1605.84H163.787V1598.75H174.866V1595.73H160.276V1619ZM191.046 1619H176.262V1621.89H191.046V1619ZM192.868 1619H196.379V1608.85H206.265V1605.84H196.379V1598.75H207.299V1595.73H192.868V1619ZM210.914 1619H225.641V1615.98H214.425V1608.85H224.743V1605.84H214.425V1598.75H225.504V1595.73H210.914V1619ZM229.491 1619H244.218V1615.98H233.002V1608.85H243.32V1605.84H233.002V1598.75H244.082V1595.73H229.491V1619Z" fill="#333333"/>
<rect x="2839" y="1132" width="320" height="112" rx="44.8" fill="#FFD233"/>
<path d="M2957.01 1184.3C2956.21 1179.32 2952.31 1176.41 2947.39 1176.41C2941.37 1176.41 2936.93 1180.92 2936.93 1188.36C2936.93 1195.81 2941.35 1200.32 2947.39 1200.32C2952.51 1200.32 2956.24 1197.11 2957.01 1192.51L2953.46 1192.5C2952.86 1195.48 2950.36 1197.11 2947.41 1197.11C2943.43 1197.11 2940.41 1194.06 2940.41 1188.36C2940.41 1182.72 2943.41 1179.61 2947.43 1179.61C2950.39 1179.61 2952.88 1181.28 2953.46 1184.3H2957.01ZM2971.42 1200H2956.63V1202.89H2971.42V1200ZM2992.02 1176.73H2988.54V1193.82H2988.33L2976.49 1176.73H2973.24V1200H2976.75V1182.93H2976.96L2988.79 1200H2992.02V1176.73ZM2998.41 1200L3000.54 1193.84H3009.63L3011.76 1200H3015.48L3007.11 1176.73H3003.05L2994.68 1200H2998.41ZM3001.56 1190.89L3005 1180.95H3005.18L3008.61 1190.89H3001.56ZM3018.14 1176.73V1200H3021.48V1183.15H3021.7L3028.56 1199.97H3031.33L3038.2 1183.16H3038.41V1200H3041.76V1176.73H3037.49L3030.08 1194.82H3029.81L3022.4 1176.73H3018.14ZM3046.16 1200H3060.88V1196.98H3049.67V1189.85H3059.99V1186.84H3049.67V1179.75H3060.75V1176.73H3046.16V1200Z" fill="#333333"/>
<rect x="911" y="588" width="320" height="112" rx="44.8" fill="#FFD233"/>
<path d="M1053.79 638.841H1057.18C1057.07 635.114 1053.78 632.409 1049.05 632.409C1044.38 632.409 1040.8 635.08 1040.8 639.091C1040.8 642.33 1043.12 644.227 1046.86 645.239L1049.61 645.989C1052.1 646.648 1054.02 647.466 1054.02 649.534C1054.02 651.807 1051.85 653.307 1048.86 653.307C1046.15 653.307 1043.9 652.102 1043.7 649.568H1040.18C1040.4 653.784 1043.67 656.386 1048.88 656.386C1054.35 656.386 1057.49 653.511 1057.49 649.568C1057.49 645.375 1053.76 643.75 1050.8 643.023L1048.53 642.432C1046.71 641.966 1044.29 641.114 1044.3 638.886C1044.3 636.909 1046.11 635.443 1048.97 635.443C1051.64 635.443 1053.54 636.693 1053.79 638.841ZM1073.18 656H1058.4V658.886H1073.18V656ZM1078.51 632.727H1075V656H1078.51V632.727ZM1090.46 656C1097.55 656 1101.65 651.602 1101.65 644.33C1101.65 637.091 1097.55 632.727 1090.7 632.727H1082.92V656H1090.46ZM1086.43 652.932V635.795H1090.48C1095.57 635.795 1098.2 638.841 1098.2 644.33C1098.2 649.841 1095.57 652.932 1090.26 652.932H1086.43Z" fill="#333333"/>
<rect x="424" y="63" width="320" height="112" rx="3.36" fill="#FFD233"/>
<path d="M569.454 113.841H572.84C572.738 110.114 569.443 107.409 564.715 107.409C560.045 107.409 556.465 110.08 556.465 114.091C556.465 117.33 558.784 119.227 562.522 120.239L565.272 120.989C567.761 121.648 569.681 122.466 569.681 124.534C569.681 126.807 567.511 128.307 564.522 128.307C561.818 128.307 559.568 127.102 559.363 124.568H555.84C556.068 128.784 559.329 131.386 564.545 131.386C570.011 131.386 573.159 128.511 573.159 124.568C573.159 120.375 569.42 118.75 566.465 118.023L564.193 117.432C562.374 116.966 559.954 116.114 559.965 113.886C559.965 111.909 561.772 110.443 564.636 110.443C567.306 110.443 569.204 111.693 569.454 113.841ZM576.651 131H580.162V122.818H584.935C590.332 122.818 593.003 119.557 593.003 115.261C593.003 110.977 590.355 107.727 584.946 107.727H576.651V131ZM580.162 119.841V110.739H584.571C588.048 110.739 589.469 112.625 589.469 115.261C589.469 117.898 588.048 119.841 584.616 119.841H580.162ZM595.912 131L598.049 124.841H607.14L609.265 131H612.992L604.617 107.727H600.56L592.185 131H595.912ZM599.072 121.886L602.503 111.955H602.685L606.117 121.886H599.072Z" fill="#333333"/>
<rect x="1244" y="588" width="320" height="112" rx="44.8" fill="#FFD233"/>
<path d="M1356.2 638.841H1359.58C1359.48 635.114 1356.19 632.409 1351.46 632.409C1346.79 632.409 1343.21 635.08 1343.21 639.091C1343.21 642.33 1345.53 644.227 1349.27 645.239L1352.02 645.989C1354.5 646.648 1356.42 647.466 1356.42 649.534C1356.42 651.807 1354.25 653.307 1351.27 653.307C1348.56 653.307 1346.31 652.102 1346.11 649.568H1342.58C1342.81 653.784 1346.07 656.386 1351.29 656.386C1356.75 656.386 1359.9 653.511 1359.9 649.568C1359.9 645.375 1356.16 643.75 1353.21 643.023L1350.94 642.432C1349.12 641.966 1346.7 641.114 1346.71 638.886C1346.71 636.909 1348.52 635.443 1351.38 635.443C1354.05 635.443 1355.95 636.693 1356.2 638.841ZM1375.59 656H1360.8V658.886H1375.59V656ZM1396.19 632.727H1392.72V649.818H1392.5L1380.66 632.727H1377.41V656H1380.92V638.932H1381.14L1392.97 656H1396.19V632.727ZM1402.58 656L1404.71 649.841H1413.8L1415.93 656H1419.66L1411.28 632.727H1407.22L1398.85 656H1402.58ZM1405.74 646.886L1409.17 636.955H1409.35L1412.78 646.886H1405.74ZM1422.31 632.727V656H1425.65V639.148H1425.87L1432.73 655.966H1435.51L1442.37 639.159H1442.59V656H1445.93V632.727H1441.67L1434.26 650.818H1433.98L1426.57 632.727H1422.31ZM1450.33 656H1465.06V652.977H1453.84V645.852H1464.16V642.841H1453.84V635.75H1464.92V632.727H1450.33V656Z" fill="#333333"/>
<rect x="424" y="348" width="320" height="112" rx="3.36" fill="#FFD233"/>
<path d="M533.426 416H536.938V405.852H546.824V402.841H536.938V395.75H547.858V392.727H533.426V416ZM550.532 416L552.668 409.841H561.759L563.884 416H567.611L559.236 392.727H555.18L546.805 416H550.532ZM553.691 406.886L557.123 396.955H557.305L560.736 406.886H553.691ZM588.504 400.295C587.709 395.318 583.811 392.409 578.89 392.409C572.868 392.409 568.424 396.92 568.424 404.364C568.424 411.807 572.845 416.318 578.89 416.318C584.004 416.318 587.743 413.114 588.504 408.511L584.959 408.5C584.356 411.477 581.856 413.114 578.913 413.114C574.924 413.114 571.913 410.057 571.913 404.364C571.913 398.716 574.913 395.614 578.924 395.614C581.89 395.614 584.379 397.284 584.959 400.295H588.504ZM595.513 392.727H592.002V416H595.513V392.727ZM601.889 416L604.025 409.841H613.116L615.241 416H618.968L610.593 392.727H606.536L598.161 416H601.889ZM605.048 406.886L608.48 396.955H608.661L612.093 406.886H605.048ZM621.625 416H635.682V412.977H625.136V392.727H621.625V416Z" fill="#333333"/>
<rect x="1577" y="588" width="320" height="112" rx="44.8" fill="#FFD233"/>
<path d="M1701.7 638.841H1705.09C1704.99 635.114 1701.69 632.409 1696.97 632.409C1692.3 632.409 1688.72 635.08 1688.72 639.091C1688.72 642.33 1691.03 644.227 1694.77 645.239L1697.52 645.989C1700.01 646.648 1701.93 647.466 1701.93 649.534C1701.93 651.807 1699.76 653.307 1696.77 653.307C1694.07 653.307 1691.82 652.102 1691.61 649.568H1688.09C1688.32 653.784 1691.58 656.386 1696.8 656.386C1702.26 656.386 1705.41 653.511 1705.41 649.568C1705.41 645.375 1701.67 643.75 1698.72 643.023L1696.44 642.432C1694.63 641.966 1692.2 641.114 1692.22 638.886C1692.22 636.909 1694.02 635.443 1696.89 635.443C1699.56 635.443 1701.45 636.693 1701.7 638.841ZM1721.09 656H1706.31V658.886H1721.09V656ZM1724.88 656L1727.02 649.841H1736.11L1738.23 656H1741.96L1733.59 632.727H1729.53L1721.15 656H1724.88ZM1728.04 646.886L1731.47 636.955H1731.65L1735.09 646.886H1728.04ZM1752.15 656C1759.24 656 1763.35 651.602 1763.35 644.33C1763.35 637.091 1759.24 632.727 1752.39 632.727H1744.62V656H1752.15ZM1748.13 652.932V635.795H1752.18C1757.27 635.795 1759.89 638.841 1759.89 644.33C1759.89 649.841 1757.27 652.932 1751.96 652.932H1748.13ZM1774.54 656C1781.63 656 1785.74 651.602 1785.74 644.33C1785.74 637.091 1781.63 632.727 1774.78 632.727H1767.01V656H1774.54ZM1770.52 652.932V635.795H1774.57C1779.66 635.795 1782.28 638.841 1782.28 644.33C1782.28 649.841 1779.66 652.932 1774.35 652.932H1770.52Z" fill="#333333"/>
<rect x="424" y="633" width="320" height="112" rx="3.36" fill="#FFD233"/>
<path d="M509.771 701H513.282V692.818H518.055C523.453 692.818 526.123 689.557 526.123 685.261C526.123 680.977 523.475 677.727 518.066 677.727H509.771V701ZM513.282 689.841V680.739H517.691C521.169 680.739 522.589 682.625 522.589 685.261C522.589 687.898 521.169 689.841 517.737 689.841H513.282ZM529.536 701H544.263V697.977H533.047V690.852H543.365V687.841H533.047V680.75H544.126V677.727H529.536V701ZM555.647 701C562.738 701 566.84 696.602 566.84 689.33C566.84 682.091 562.738 677.727 555.886 677.727H548.113V701H555.647ZM551.624 697.932V680.795H555.67C560.761 680.795 563.386 683.841 563.386 689.33C563.386 694.841 560.761 697.932 555.454 697.932H551.624ZM574.014 677.727H570.503V701H574.014V677.727ZM597.753 685.295C596.958 680.318 593.06 677.409 588.139 677.409C582.117 677.409 577.674 681.92 577.674 689.364C577.674 696.807 582.094 701.318 588.139 701.318C593.253 701.318 596.992 698.114 597.753 693.511L594.208 693.5C593.605 696.477 591.105 698.114 588.162 698.114C584.174 698.114 581.162 695.057 581.162 689.364C581.162 683.716 584.162 680.614 588.174 680.614C591.139 680.614 593.628 682.284 594.208 685.295H597.753ZM616.217 677.727V692.75C616.217 695.909 614.035 698.182 610.489 698.182C606.955 698.182 604.762 695.909 604.762 692.75V677.727H601.251V693.034C601.251 697.92 604.91 701.386 610.489 701.386C616.069 701.386 619.739 697.92 619.739 693.034V677.727H616.217ZM624.141 701H627.652V692.193H632.425C632.504 692.193 632.572 692.193 632.652 692.193L637.379 701H641.379L636.22 691.58C639.072 690.523 640.493 688.148 640.493 685.023C640.493 680.739 637.834 677.727 632.436 677.727H624.141V701ZM627.652 689.17V680.739H632.061C635.527 680.739 636.959 682.386 636.959 685.023C636.959 687.648 635.527 689.17 632.106 689.17H627.652ZM644.062 701H658.789V697.977H647.573V690.852H657.891V687.841H647.573V680.75H658.652V677.727H644.062V701Z" fill="#333333"/>
<rect x="1910" y="588" width="320" height="112" rx="44.8" fill="#FFD233"/>
<path d="M2037.41 638.841H2040.79C2040.69 635.114 2037.4 632.409 2032.67 632.409C2028 632.409 2024.42 635.08 2024.42 639.091C2024.42 642.33 2026.74 644.227 2030.48 645.239L2033.23 645.989C2035.71 646.648 2037.64 647.466 2037.64 649.534C2037.64 651.807 2035.46 653.307 2032.48 653.307C2029.77 653.307 2027.52 652.102 2027.32 649.568H2023.79C2024.02 653.784 2027.28 656.386 2032.5 656.386C2037.96 656.386 2041.11 653.511 2041.11 649.568C2041.11 645.375 2037.37 643.75 2034.42 643.023L2032.15 642.432C2030.33 641.966 2027.91 641.114 2027.92 638.886C2027.92 636.909 2029.73 635.443 2032.59 635.443C2035.26 635.443 2037.16 636.693 2037.41 638.841ZM2056.8 656H2042.01V658.886H2056.8V656ZM2067.66 632.727V649.227C2067.65 651.909 2066.4 653.341 2064.18 653.341C2062.12 653.341 2060.69 652.114 2060.68 650.182H2057.19C2057.19 654.114 2060.14 656.318 2064.09 656.318C2068.36 656.318 2071.15 653.705 2071.16 649.227V632.727H2067.66ZM2095.79 644.364C2095.79 636.92 2091.33 632.409 2085.31 632.409C2079.26 632.409 2074.82 636.92 2074.82 644.364C2074.82 651.795 2079.26 656.318 2085.31 656.318C2091.33 656.318 2095.79 651.807 2095.79 644.364ZM2092.31 644.364C2092.31 650.034 2089.31 653.114 2085.31 653.114C2081.3 653.114 2078.31 650.034 2078.31 644.364C2078.31 638.693 2081.3 635.614 2085.31 635.614C2089.31 635.614 2092.31 638.693 2092.31 644.364ZM2099.46 656H2108.38C2113.79 656 2116.23 653.307 2116.23 649.739C2116.23 646.136 2113.71 644.102 2111.4 643.977V643.75C2113.54 643.205 2115.32 641.75 2115.32 638.841C2115.32 635.398 2112.94 632.727 2107.98 632.727H2099.46V656ZM2102.97 652.989V645.534H2108.17C2110.98 645.534 2112.75 647.352 2112.75 649.568C2112.75 651.523 2111.42 652.989 2108.04 652.989H2102.97ZM2102.97 642.795V635.716H2107.77C2110.55 635.716 2111.88 637.182 2111.88 639.114C2111.88 641.364 2110.04 642.795 2107.68 642.795H2102.97Z" fill="#333333"/>
<rect x="424" y="918" width="320" height="112" rx="3.36" fill="#FFD233"/>
<path d="M503.677 962.727V986H507.018V969.148H507.234L514.098 985.966H516.87L523.734 969.159H523.95V986H527.291V962.727H523.029L515.62 980.818H515.348L507.938 962.727H503.677ZM533.658 986L535.794 979.841H544.885L547.01 986H550.737L542.362 962.727H538.305L529.93 986H533.658ZM536.817 976.886L540.249 966.955H540.43L543.862 976.886H536.817ZM572.178 962.727H568.701V979.818H568.485L556.644 962.727H553.394V986H556.905V968.932H557.121L568.951 986H572.178V962.727ZM580.108 962.727H576.596V986H580.108V962.727ZM603.847 970.295C603.051 965.318 599.154 962.409 594.233 962.409C588.21 962.409 583.767 966.92 583.767 974.364C583.767 981.807 588.188 986.318 594.233 986.318C599.347 986.318 603.085 983.114 603.847 978.511L600.301 978.5C599.699 981.477 597.199 983.114 594.256 983.114C590.267 983.114 587.256 980.057 587.256 974.364C587.256 968.716 590.256 965.614 594.267 965.614C597.233 965.614 599.722 967.284 600.301 970.295H603.847ZM622.31 962.727V977.75C622.31 980.909 620.129 983.182 616.583 983.182C613.049 983.182 610.856 980.909 610.856 977.75V962.727H607.345V978.034C607.345 982.92 611.004 986.386 616.583 986.386C622.163 986.386 625.833 982.92 625.833 978.034V962.727H622.31ZM630.234 986H633.746V977.193H638.518C638.598 977.193 638.666 977.193 638.746 977.193L643.473 986H647.473L642.314 976.58C645.166 975.523 646.587 973.148 646.587 970.023C646.587 965.739 643.927 962.727 638.53 962.727H630.234V986ZM633.746 974.17V965.739H638.155C641.621 965.739 643.052 967.386 643.052 970.023C643.052 972.648 641.621 974.17 638.2 974.17H633.746ZM650.155 986H664.883V982.977H653.667V975.852H663.985V972.841H653.667V965.75H664.746V962.727H650.155V986Z" fill="#333333"/>
<rect x="2243" y="588" width="320" height="112" rx="44.8" fill="#FFD233"/>
<path d="M2346.71 638.841H2350.09C2349.99 635.114 2346.69 632.409 2341.97 632.409C2337.3 632.409 2333.72 635.08 2333.72 639.091C2333.72 642.33 2336.04 644.227 2339.77 645.239L2342.52 645.989C2345.01 646.648 2346.93 647.466 2346.93 649.534C2346.93 651.807 2344.76 653.307 2341.77 653.307C2339.07 653.307 2336.82 652.102 2336.61 649.568H2333.09C2333.32 653.784 2336.58 656.386 2341.8 656.386C2347.26 656.386 2350.41 653.511 2350.41 649.568C2350.41 645.375 2346.67 643.75 2343.72 643.023L2341.44 642.432C2339.63 641.966 2337.21 641.114 2337.22 638.886C2337.22 636.909 2339.02 635.443 2341.89 635.443C2344.56 635.443 2346.46 636.693 2346.71 638.841ZM2366.1 656H2351.31V658.886H2366.1V656ZM2367.92 656H2371.43V647.818H2376.2C2381.6 647.818 2384.27 644.557 2384.27 640.261C2384.27 635.977 2381.62 632.727 2376.21 632.727H2367.92V656ZM2371.43 644.841V635.739H2375.84C2379.31 635.739 2380.74 637.625 2380.74 640.261C2380.74 642.898 2379.31 644.841 2375.88 644.841H2371.43ZM2387.68 656H2391.19V645.852H2402.8V656H2406.32V632.727H2402.8V642.841H2391.19V632.727H2387.68V656ZM2430.94 644.364C2430.94 636.92 2426.49 632.409 2420.47 632.409C2414.42 632.409 2409.98 636.92 2409.98 644.364C2409.98 651.795 2414.42 656.318 2420.47 656.318C2426.49 656.318 2430.94 651.807 2430.94 644.364ZM2427.47 644.364C2427.47 650.034 2424.47 653.114 2420.47 653.114C2416.46 653.114 2413.47 650.034 2413.47 644.364C2413.47 638.693 2416.46 635.614 2420.47 635.614C2424.47 635.614 2427.47 638.693 2427.47 644.364ZM2453.4 632.727H2449.92V649.818H2449.71L2437.87 632.727H2434.62V656H2438.13V638.932H2438.34L2450.17 656H2453.4V632.727ZM2457.82 656H2472.55V652.977H2461.33V645.852H2471.65V642.841H2461.33V635.75H2472.41V632.727H2457.82V656Z" fill="#333333"/>
<rect x="424" y="1203" width="320" height="112" rx="3.36" fill="#FFD233"/>
<path d="M516.981 1271H520.493V1260.85H532.095V1271H535.618V1247.73H532.095V1257.84H520.493V1247.73H516.981V1271ZM541.993 1271L544.13 1264.84H553.22L555.345 1271H559.073L550.698 1247.73H546.641L538.266 1271H541.993ZM545.152 1261.89L548.584 1251.95H548.766L552.198 1261.89H545.152ZM565.241 1247.73H561.73V1271H565.241V1247.73ZM569.651 1271H573.162V1262.19H577.935C578.014 1262.19 578.082 1262.19 578.162 1262.19L582.889 1271H586.889L581.73 1261.58C584.582 1260.52 586.003 1258.15 586.003 1255.02C586.003 1250.74 583.344 1247.73 577.946 1247.73H569.651V1271ZM573.162 1259.17V1250.74H577.571C581.037 1250.74 582.469 1252.39 582.469 1255.02C582.469 1257.65 581.037 1259.17 577.616 1259.17H573.162ZM608.901 1255.3C608.106 1250.32 604.208 1247.41 599.287 1247.41C593.265 1247.41 588.822 1251.92 588.822 1259.36C588.822 1266.81 593.242 1271.32 599.287 1271.32C604.401 1271.32 608.14 1268.11 608.901 1263.51L605.356 1263.5C604.753 1266.48 602.253 1268.11 599.31 1268.11C595.322 1268.11 592.31 1265.06 592.31 1259.36C592.31 1253.72 595.31 1250.61 599.322 1250.61C602.287 1250.61 604.776 1252.28 605.356 1255.3H608.901ZM627.365 1247.73V1262.75C627.365 1265.91 625.183 1268.18 621.637 1268.18C618.103 1268.18 615.91 1265.91 615.91 1262.75V1247.73H612.399V1263.03C612.399 1267.92 616.058 1271.39 621.637 1271.39C627.217 1271.39 630.887 1267.92 630.887 1263.03V1247.73H627.365ZM634.141 1250.75H641.391V1271H644.891V1250.75H652.152V1247.73H634.141V1250.75Z" fill="#333333"/>
<rect x="2576" y="588" width="320" height="112" rx="44.8" fill="#FFD233"/>
<path d="M2673 638.841H2676.38C2676.28 635.114 2672.98 632.409 2668.26 632.409C2663.59 632.409 2660.01 635.08 2660.01 639.091C2660.01 642.33 2662.32 644.227 2666.06 645.239L2668.81 645.989C2671.3 646.648 2673.22 647.466 2673.22 649.534C2673.22 651.807 2671.05 653.307 2668.06 653.307C2665.36 653.307 2663.11 652.102 2662.9 649.568H2659.38C2659.61 653.784 2662.87 656.386 2668.09 656.386C2673.55 656.386 2676.7 653.511 2676.7 649.568C2676.7 645.375 2672.96 643.75 2670.01 643.023L2667.73 642.432C2665.92 641.966 2663.5 641.114 2663.51 638.886C2663.51 636.909 2665.31 635.443 2668.18 635.443C2670.85 635.443 2672.75 636.693 2673 638.841ZM2692.38 656H2677.6V658.886H2692.38V656ZM2706.9 638.841H2710.29C2710.18 635.114 2706.89 632.409 2702.16 632.409C2697.49 632.409 2693.91 635.08 2693.91 639.091C2693.91 642.33 2696.23 644.227 2699.97 645.239L2702.72 645.989C2705.21 646.648 2707.13 647.466 2707.13 649.534C2707.13 651.807 2704.96 653.307 2701.97 653.307C2699.26 653.307 2697.01 652.102 2696.81 649.568H2693.29C2693.51 653.784 2696.77 656.386 2701.99 656.386C2707.46 656.386 2710.6 653.511 2710.6 649.568C2710.6 645.375 2706.87 643.75 2703.91 643.023L2701.64 642.432C2699.82 641.966 2697.4 641.114 2697.41 638.886C2697.41 636.909 2699.22 635.443 2702.08 635.443C2704.75 635.443 2706.65 636.693 2706.9 638.841ZM2715.87 656L2718.01 649.841H2727.1L2729.23 656H2732.95L2724.58 632.727H2720.52L2712.15 656H2715.87ZM2719.03 646.886L2722.47 636.955H2722.65L2726.08 646.886H2719.03ZM2735.61 656H2749.67V652.977H2739.12V632.727H2735.61V656ZM2756.09 656L2758.23 649.841H2767.32L2769.44 656H2773.17L2764.8 632.727H2760.74L2752.36 656H2756.09ZM2759.25 646.886L2762.68 636.955H2762.86L2766.3 646.886H2759.25ZM2775.83 656H2779.34V647.193H2784.11C2784.19 647.193 2784.26 647.193 2784.34 647.193L2789.07 656H2793.07L2787.91 646.58C2790.76 645.523 2792.18 643.148 2792.18 640.023C2792.18 635.739 2789.52 632.727 2784.12 632.727H2775.83V656ZM2779.34 644.17V635.739H2783.75C2787.21 635.739 2788.65 637.386 2788.65 640.023C2788.65 642.648 2787.21 644.17 2783.79 644.17H2779.34ZM2793.11 632.727L2801.55 646.864V656H2805.05V646.864L2813.5 632.727H2809.51L2803.43 643.307H2803.18L2797.1 632.727H2793.11Z" fill="#333333"/>
<rect x="424" y="1488" width="320" height="112" rx="3.36" fill="#FFD233"/>
<path d="M547.642 1538.84H551.029C550.926 1535.11 547.631 1532.41 542.904 1532.41C538.233 1532.41 534.654 1535.08 534.654 1539.09C534.654 1542.33 536.972 1544.23 540.711 1545.24L543.461 1545.99C545.949 1546.65 547.87 1547.47 547.87 1549.53C547.87 1551.81 545.699 1553.31 542.711 1553.31C540.006 1553.31 537.756 1552.1 537.551 1549.57H534.029C534.256 1553.78 537.517 1556.39 542.733 1556.39C548.199 1556.39 551.347 1553.51 551.347 1549.57C551.347 1545.38 547.608 1543.75 544.654 1543.02L542.381 1542.43C540.563 1541.97 538.142 1541.11 538.154 1538.89C538.154 1536.91 539.961 1535.44 542.824 1535.44C545.495 1535.44 547.392 1536.69 547.642 1538.84ZM554.839 1556H558.35V1545.85H569.953V1556H573.475V1532.73H569.953V1542.84H558.35V1532.73H554.839V1556ZM579.851 1556L581.987 1549.84H591.078L593.203 1556H596.93L588.555 1532.73H584.499L576.124 1556H579.851ZM583.01 1546.89L586.442 1536.95H586.624L590.055 1546.89H583.01ZM599.215 1532.73H595.42L603.795 1556H607.851L616.226 1532.73H612.431L605.954 1551.68H605.692L599.215 1532.73ZM618.883 1556H633.61V1552.98H622.395V1545.85H632.713V1542.84H622.395V1535.75H633.474V1532.73H618.883V1556Z" fill="#333333"/>
<rect x="895" y="2319" width="320" height="112" rx="44.8" fill="#FFD233"/>
<path d="M1024.93 2387H1033.85C1039.25 2387 1041.7 2384.31 1041.7 2380.74C1041.7 2377.14 1039.18 2375.1 1036.87 2374.98V2374.75C1039 2374.2 1040.79 2372.75 1040.79 2369.84C1040.79 2366.4 1038.4 2363.73 1033.45 2363.73H1024.93V2387ZM1028.44 2383.99V2376.53H1033.63C1036.45 2376.53 1038.21 2378.35 1038.21 2380.57C1038.21 2382.52 1036.88 2383.99 1033.5 2383.99H1028.44ZM1028.44 2373.8V2366.72H1033.23C1036.02 2366.72 1037.35 2368.18 1037.35 2370.11C1037.35 2372.36 1035.5 2373.8 1033.14 2373.8H1028.44ZM1057.35 2387H1042.57V2389.89H1057.35V2387ZM1062.68 2363.73H1059.17V2387H1062.68V2363.73ZM1074.63 2387C1081.72 2387 1085.82 2382.6 1085.82 2375.33C1085.82 2368.09 1081.72 2363.73 1074.87 2363.73H1067.09V2387H1074.63ZM1070.61 2383.93V2366.8H1074.65C1079.74 2366.8 1082.37 2369.84 1082.37 2375.33C1082.37 2380.84 1079.74 2383.93 1074.44 2383.93H1070.61Z" fill="#333333"/>
<rect x="1231" y="2319" width="320" height="112" rx="44.8" fill="#FFD233"/>
<path d="M1379.6 2371.3C1378.8 2366.32 1374.91 2363.41 1369.98 2363.41C1363.96 2363.41 1359.52 2367.92 1359.52 2375.36C1359.52 2382.81 1363.94 2387.32 1369.98 2387.32C1375.1 2387.32 1378.84 2384.11 1379.6 2379.51L1376.05 2379.5C1375.45 2382.48 1372.95 2384.11 1370.01 2384.11C1366.02 2384.11 1363.01 2381.06 1363.01 2375.36C1363.01 2369.72 1366.01 2366.61 1370.02 2366.61C1372.98 2366.61 1375.47 2368.28 1376.05 2371.3H1379.6ZM1394.01 2387H1379.22V2389.89H1394.01V2387ZM1399.34 2363.73H1395.83V2387H1399.34V2363.73ZM1411.28 2387C1418.38 2387 1422.48 2382.6 1422.48 2375.33C1422.48 2368.09 1418.38 2363.73 1411.52 2363.73H1403.75V2387H1411.28ZM1407.26 2383.93V2366.8H1411.31C1416.4 2366.8 1419.02 2369.84 1419.02 2375.33C1419.02 2380.84 1416.4 2383.93 1411.09 2383.93H1407.26Z" fill="#333333"/>
<rect x="1567" y="2319" width="320" height="112" rx="44.8" fill="#FFD233"/>
<path d="M1676.51 2371.3C1675.72 2366.32 1671.82 2363.41 1666.9 2363.41C1660.88 2363.41 1656.43 2367.92 1656.43 2375.36C1656.43 2382.81 1660.85 2387.32 1666.9 2387.32C1672.01 2387.32 1675.75 2384.11 1676.51 2379.51L1672.97 2379.5C1672.37 2382.48 1669.87 2384.11 1666.92 2384.11C1662.93 2384.11 1659.92 2381.06 1659.92 2375.36C1659.92 2369.72 1662.92 2366.61 1666.93 2366.61C1669.9 2366.61 1672.39 2368.28 1672.97 2371.3H1676.51ZM1690.92 2387H1676.14V2389.89H1690.92V2387ZM1692.75 2387H1696.26V2378.82H1701.03C1706.43 2378.82 1709.1 2375.56 1709.1 2371.26C1709.1 2366.98 1706.45 2363.73 1701.04 2363.73H1692.75V2387ZM1696.26 2375.84V2366.74H1700.67C1704.14 2366.74 1705.56 2368.62 1705.56 2371.26C1705.56 2373.9 1704.14 2375.84 1700.71 2375.84H1696.26ZM1712.51 2387H1716.02V2376.85H1727.62V2387H1731.15V2363.73H1727.62V2373.84H1716.02V2363.73H1712.51V2387ZM1755.77 2375.36C1755.77 2367.92 1751.32 2363.41 1745.29 2363.41C1739.25 2363.41 1734.81 2367.92 1734.81 2375.36C1734.81 2382.8 1739.25 2387.32 1745.29 2387.32C1751.32 2387.32 1755.77 2382.81 1755.77 2375.36ZM1752.29 2375.36C1752.29 2381.03 1749.29 2384.11 1745.29 2384.11C1741.28 2384.11 1738.29 2381.03 1738.29 2375.36C1738.29 2369.69 1741.28 2366.61 1745.29 2366.61C1749.29 2366.61 1752.29 2369.69 1752.29 2375.36ZM1778.23 2363.73H1774.75V2380.82H1774.54L1762.7 2363.73H1759.45V2387H1762.96V2369.93H1763.17L1775 2387H1778.23V2363.73ZM1782.65 2387H1797.38V2383.98H1786.16V2376.85H1796.48V2373.84H1786.16V2366.75H1797.24V2363.73H1782.65V2387Z" fill="#333333"/>
<rect x="1903" y="2319" width="320" height="112" rx="44.8" fill="#FFD233"/>
<path d="M2026.54 2369.84H2029.93C2029.83 2366.11 2026.53 2363.41 2021.8 2363.41C2017.13 2363.41 2013.55 2366.08 2013.55 2370.09C2013.55 2373.33 2015.87 2375.23 2019.61 2376.24L2022.36 2376.99C2024.85 2377.65 2026.77 2378.47 2026.77 2380.53C2026.77 2382.81 2024.6 2384.31 2021.61 2384.31C2018.9 2384.31 2016.65 2383.1 2016.45 2380.57H2012.93C2013.15 2384.78 2016.42 2387.39 2021.63 2387.39C2027.1 2387.39 2030.25 2384.51 2030.25 2380.57C2030.25 2376.38 2026.51 2374.75 2023.55 2374.02L2021.28 2373.43C2019.46 2372.97 2017.04 2372.11 2017.05 2369.89C2017.05 2367.91 2018.86 2366.44 2021.72 2366.44C2024.39 2366.44 2026.29 2367.69 2026.54 2369.84ZM2033.74 2387H2048.47V2383.98H2037.25V2376.85H2047.57V2373.84H2037.25V2366.75H2048.33V2363.73H2033.74V2387ZM2052.32 2387H2055.83V2378.19H2060.6C2060.68 2378.19 2060.75 2378.19 2060.83 2378.19L2065.55 2387H2069.55L2064.39 2377.58C2067.25 2376.52 2068.67 2374.15 2068.67 2371.02C2068.67 2366.74 2066.01 2363.73 2060.61 2363.73H2052.32V2387ZM2055.83 2375.17V2366.74H2060.24C2063.7 2366.74 2065.13 2368.39 2065.13 2371.02C2065.13 2373.65 2063.7 2375.17 2060.28 2375.17H2055.83ZM2084.43 2387H2069.65V2389.89H2084.43V2387ZM2089.76 2363.73H2086.25V2387H2089.76V2363.73ZM2101.71 2387C2108.8 2387 2112.9 2382.6 2112.9 2375.33C2112.9 2368.09 2108.8 2363.73 2101.94 2363.73H2094.17V2387H2101.71ZM2097.68 2383.93V2366.8H2101.73C2106.82 2366.8 2109.44 2369.84 2109.44 2375.33C2109.44 2380.84 2106.82 2383.93 2101.51 2383.93H2097.68Z" fill="#333333"/>
<rect x="2239" y="2319" width="320" height="112" rx="44.8" fill="#FFD233"/>
<path d="M2347.66 2387H2356.58C2361.99 2387 2364.43 2384.31 2364.43 2380.74C2364.43 2377.14 2361.91 2375.1 2359.6 2374.98V2374.75C2361.74 2374.2 2363.52 2372.75 2363.52 2369.84C2363.52 2366.4 2361.14 2363.73 2356.18 2363.73H2347.66V2387ZM2351.17 2383.99V2376.53H2356.37C2359.18 2376.53 2360.94 2378.35 2360.94 2380.57C2360.94 2382.52 2359.62 2383.99 2356.24 2383.99H2351.17ZM2351.17 2373.8V2366.72H2355.97C2358.75 2366.72 2360.08 2368.18 2360.08 2370.11C2360.08 2372.36 2358.24 2373.8 2355.88 2373.8H2351.17ZM2380.09 2387H2365.3V2389.89H2380.09V2387ZM2378.95 2366.75H2386.2V2387H2389.7V2366.75H2396.96V2363.73H2378.95V2366.75ZM2403.75 2363.73H2400.24V2387H2403.75V2363.73ZM2408.16 2363.73V2387H2411.5V2370.15H2411.71L2418.58 2386.97H2421.35L2428.21 2370.16H2428.43V2387H2431.77V2363.73H2427.51L2420.1 2381.82H2419.83L2412.42 2363.73H2408.16ZM2436.17 2387H2450.9V2383.98H2439.68V2376.85H2450V2373.84H2439.68V2366.75H2450.76V2363.73H2436.17V2387Z" fill="#333333"/>
<rect x="2575" y="2319" width="320" height="112" rx="44.8" fill="#FFD233"/>
<path d="M2687.74 2387C2694.83 2387 2698.93 2382.6 2698.93 2375.33C2698.93 2368.09 2694.83 2363.73 2687.98 2363.73H2680.21V2387H2687.74ZM2683.72 2383.93V2366.8H2687.76C2692.86 2366.8 2695.48 2369.84 2695.48 2375.33C2695.48 2380.84 2692.86 2383.93 2687.55 2383.93H2683.72ZM2713.51 2387H2698.73V2389.89H2713.51V2387ZM2722.86 2387C2729.96 2387 2734.06 2382.6 2734.06 2375.33C2734.06 2368.09 2729.96 2363.73 2723.1 2363.73H2715.33V2387H2722.86ZM2718.84 2383.93V2366.8H2722.89C2727.98 2366.8 2730.6 2369.84 2730.6 2375.33C2730.6 2380.84 2727.98 2383.93 2722.67 2383.93H2718.84ZM2738.53 2387L2740.67 2380.84H2749.76L2751.88 2387H2755.61L2747.23 2363.73H2743.18L2734.8 2387H2738.53ZM2741.69 2377.89L2745.12 2367.95H2745.3L2748.73 2377.89H2741.69ZM2754.34 2366.75H2761.59V2387H2765.09V2366.75H2772.35V2363.73H2754.34V2366.75ZM2775.62 2387H2790.35V2383.98H2779.14V2376.85H2789.45V2373.84H2779.14V2366.75H2790.22V2363.73H2775.62V2387Z" fill="#333333"/>
<rect x="2839" y="1273" width="320" height="112" rx="44.8" fill="#FFD233"/>
<path d="M2969.51 1325.3C2968.72 1320.32 2964.82 1317.41 2959.9 1317.41C2953.88 1317.41 2949.43 1321.92 2949.43 1329.36C2949.43 1336.81 2953.85 1341.32 2959.9 1341.32C2965.01 1341.32 2968.75 1338.11 2969.51 1333.51L2965.97 1333.5C2965.37 1336.48 2962.87 1338.11 2959.92 1338.11C2955.93 1338.11 2952.92 1335.06 2952.92 1329.36C2952.92 1323.72 2955.92 1320.61 2959.93 1320.61C2962.9 1320.61 2965.39 1322.28 2965.97 1325.3H2969.51ZM2983.92 1341H2969.14V1343.89H2983.92V1341ZM2987.71 1341L2989.85 1334.84H2998.94L3001.06 1341H3004.79L2996.41 1317.73H2992.36L2983.98 1341H2987.71ZM2990.87 1331.89L2994.3 1321.95H2994.48L2997.91 1331.89H2990.87ZM3014.98 1341C3022.07 1341 3026.17 1336.6 3026.17 1329.33C3026.17 1322.09 3022.07 1317.73 3015.22 1317.73H3007.45V1341H3014.98ZM3010.96 1337.93V1320.8H3015C3020.09 1320.8 3022.72 1323.84 3022.72 1329.33C3022.72 1334.84 3020.09 1337.93 3014.79 1337.93H3010.96ZM3037.37 1341C3044.46 1341 3048.56 1336.6 3048.56 1329.33C3048.56 1322.09 3044.46 1317.73 3037.61 1317.73H3029.84V1341H3037.37ZM3033.35 1337.93V1320.8H3037.39C3042.48 1320.8 3045.11 1323.84 3045.11 1329.33C3045.11 1334.84 3042.48 1337.93 3037.18 1337.93H3033.35Z" fill="#333333"/>
<rect x="2839" y="1414" width="320" height="112" rx="44.8" fill="#FFD233"/>
<path d="M2948.51 1466.3C2947.72 1461.32 2943.82 1458.41 2938.9 1458.41C2932.88 1458.41 2928.43 1462.92 2928.43 1470.36C2928.43 1477.81 2932.85 1482.32 2938.9 1482.32C2944.01 1482.32 2947.75 1479.11 2948.51 1474.51L2944.97 1474.5C2944.37 1477.48 2941.87 1479.11 2938.92 1479.11C2934.93 1479.11 2931.92 1476.06 2931.92 1470.36C2931.92 1464.72 2934.92 1461.61 2938.93 1461.61C2941.9 1461.61 2944.39 1463.28 2944.97 1466.3H2948.51ZM2962.92 1482H2948.14V1484.89H2962.92V1482ZM2964.75 1482H2968.26V1473.82H2973.03C2978.43 1473.82 2981.1 1470.56 2981.1 1466.26C2981.1 1461.98 2978.45 1458.73 2973.04 1458.73H2964.75V1482ZM2968.26 1470.84V1461.74H2972.67C2976.14 1461.74 2977.56 1463.62 2977.56 1466.26C2977.56 1468.9 2976.14 1470.84 2972.71 1470.84H2968.26ZM2984.51 1482H2988.02V1471.85H2999.62V1482H3003.15V1458.73H2999.62V1468.84H2988.02V1458.73H2984.51V1482ZM3027.77 1470.36C3027.77 1462.92 3023.32 1458.41 3017.29 1458.41C3011.25 1458.41 3006.81 1462.92 3006.81 1470.36C3006.81 1477.8 3011.25 1482.32 3017.29 1482.32C3023.32 1482.32 3027.77 1477.81 3027.77 1470.36ZM3024.29 1470.36C3024.29 1476.03 3021.29 1479.11 3017.29 1479.11C3013.28 1479.11 3010.29 1476.03 3010.29 1470.36C3010.29 1464.69 3013.28 1461.61 3017.29 1461.61C3021.29 1461.61 3024.29 1464.69 3024.29 1470.36ZM3050.23 1458.73H3046.75V1475.82H3046.54L3034.7 1458.73H3031.45V1482H3034.96V1464.93H3035.17L3047 1482H3050.23V1458.73ZM3054.65 1482H3069.38V1478.98H3058.16V1471.85H3068.48V1468.84H3058.16V1461.75H3069.24V1458.73H3054.65V1482Z" fill="#333333"/>
<path d="M1366 1259.95C1365.17 1259.95 1364.5 1260.63 1364.5 1261.45C1364.5 1262.28 1365.17 1262.95 1366 1262.95L1366 1259.95ZM1651 1262.5C1651.83 1262.5 1652.5 1261.82 1652.5 1260.99C1652.5 1260.17 1651.83 1259.5 1651 1259.5L1651 1262.5ZM1366 1262.95L1651 1262.5L1651 1259.5L1366 1259.95L1366 1262.95Z" fill="#C4C4C4"/>
<path d="M1152.5 1059C1152.5 1059.83 1153.17 1060.5 1154 1060.5C1154.83 1060.5 1155.5 1059.83 1155.5 1059H1152.5ZM1155.5 979C1155.5 978.172 1154.83 977.5 1154 977.5C1153.17 977.5 1152.5 978.172 1152.5 979H1155.5ZM1155.5 1059V979H1152.5V1059H1155.5Z" fill="#C4C4C4"/>
<path d="M942 1262.96C942.828 1262.96 943.5 1262.29 943.5 1261.46C943.5 1260.63 942.828 1259.96 942 1259.96V1262.96ZM748 1542.5C747.172 1542.5 746.5 1543.17 746.5 1544C746.5 1544.83 747.172 1545.5 748 1545.5V1542.5ZM942 1259.96H869V1262.96H942V1259.96ZM843.5 1285.46V1520H846.5V1285.46H843.5ZM821 1542.5H748V1545.5H821V1542.5ZM843.5 1520C843.5 1532.43 833.426 1542.5 821 1542.5V1545.5C835.083 1545.5 846.5 1534.08 846.5 1520H843.5ZM869 1259.96C854.917 1259.96 843.5 1271.38 843.5 1285.46H846.5C846.5 1273.03 856.574 1262.96 869 1262.96V1259.96Z" fill="#C4C4C4"/>
<path d="M942 1262.96C942.828 1262.96 943.5 1262.29 943.5 1261.46C943.5 1260.63 942.828 1259.96 942 1259.96V1262.96ZM748 1257.5C747.172 1257.5 746.5 1258.17 746.5 1259C746.5 1259.83 747.172 1260.5 748 1260.5V1257.5ZM942 1259.96H846.229V1262.96H942V1259.96ZM843.771 1257.5H748V1260.5H843.771V1257.5ZM846.5 1260.23C846.5 1258.72 845.278 1257.5 843.771 1257.5V1260.5C843.621 1260.5 843.5 1260.38 843.5 1260.23H846.5ZM846.229 1259.96C846.379 1259.96 846.5 1260.08 846.5 1260.23H843.5C843.5 1261.74 844.722 1262.96 846.229 1262.96V1259.96Z" fill="#C4C4C4"/>
<path d="M942 1262.96C942.828 1262.96 943.5 1262.29 943.5 1261.46C943.5 1260.63 942.828 1259.96 942 1259.96V1262.96ZM748 972.5C747.172 972.5 746.5 973.172 746.5 974C746.5 974.828 747.172 975.5 748 975.5V972.5ZM942 1259.96H869V1262.96H942V1259.96ZM846.5 1237.46V998H843.5V1237.46H846.5ZM821 972.5H748V975.5H821V972.5ZM846.5 998C846.5 983.917 835.083 972.5 821 972.5V975.5C833.426 975.5 843.5 985.574 843.5 998H846.5ZM869 1259.96C856.574 1259.96 846.5 1249.88 846.5 1237.46H843.5C843.5 1251.54 854.917 1262.96 869 1262.96V1259.96Z" fill="#C4C4C4"/>
<path d="M942 1262.96C942.828 1262.96 943.5 1262.29 943.5 1261.46C943.5 1260.63 942.828 1259.96 942 1259.96V1262.96ZM748 687.5C747.172 687.5 746.5 688.172 746.5 689C746.5 689.828 747.172 690.5 748 690.5V687.5ZM942 1259.96H869V1262.96H942V1259.96ZM846.5 1237.46V713H843.5V1237.46H846.5ZM821 687.5H748V690.5H821V687.5ZM846.5 713C846.5 698.917 835.083 687.5 821 687.5V690.5C833.426 690.5 843.5 700.574 843.5 713H846.5ZM869 1259.96C856.574 1259.96 846.5 1249.88 846.5 1237.46H843.5C843.5 1251.54 854.917 1262.96 869 1262.96V1259.96Z" fill="#C4C4C4"/>
<path d="M942 1262.96C942.828 1262.96 943.5 1262.29 943.5 1261.46C943.5 1260.63 942.828 1259.96 942 1259.96V1262.96ZM748 402.5C747.172 402.5 746.5 403.172 746.5 404C746.5 404.828 747.172 405.5 748 405.5V402.5ZM942 1259.96H869V1262.96H942V1259.96ZM846.5 1237.46V428H843.5V1237.46H846.5ZM821 402.5H748V405.5H821V402.5ZM846.5 428C846.5 413.917 835.083 402.5 821 402.5V405.5C833.426 405.5 843.5 415.574 843.5 428H846.5ZM869 1259.96C856.574 1259.96 846.5 1249.88 846.5 1237.46H843.5C843.5 1251.54 854.917 1262.96 869 1262.96V1259.96Z" fill="#C4C4C4"/>
<path d="M942 1262.96C942.828 1262.96 943.5 1262.29 943.5 1261.46C943.5 1260.63 942.828 1259.96 942 1259.96V1262.96ZM748 117.5C747.172 117.5 746.5 118.172 746.5 119C746.5 119.828 747.172 120.5 748 120.5V117.5ZM942 1259.96H869V1262.96H942V1259.96ZM846.5 1237.46V143H843.5V1237.46H846.5ZM821 117.5H748V120.5H821V117.5ZM846.5 143C846.5 128.917 835.083 117.5 821 117.5V120.5C833.426 120.5 843.5 130.574 843.5 143H846.5ZM869 1259.96C856.574 1259.96 846.5 1249.88 846.5 1237.46H843.5C843.5 1251.54 854.917 1262.96 869 1262.96V1259.96Z" fill="#C4C4C4"/>
<path d="M420 120.5C420.828 120.5 421.5 119.828 421.5 119C421.5 118.172 420.828 117.5 420 117.5V120.5ZM322.939 54.9393C322.354 55.5251 322.354 56.4749 322.939 57.0607L332.485 66.6066C333.071 67.1924 334.021 67.1924 334.607 66.6066C335.192 66.0208 335.192 65.0711 334.607 64.4853L326.121 56L334.607 47.5147C335.192 46.9289 335.192 45.9792 334.607 45.3934C334.021 44.8076 333.071 44.8076 332.485 45.3934L322.939 54.9393ZM420 117.5H396V120.5H420V117.5ZM373.5 95V80H370.5V95H373.5ZM348 54.5H324V57.5H348V54.5ZM373.5 80C373.5 65.9167 362.083 54.5 348 54.5V57.5C360.426 57.5 370.5 67.5736 370.5 80H373.5ZM396 117.5C383.574 117.5 373.5 107.426 373.5 95H370.5C370.5 109.083 381.917 120.5 396 120.5V117.5Z" fill="#C4C4C4"/>
<path d="M420 120.5C420.828 120.5 421.5 119.828 421.5 119C421.5 118.172 420.828 117.5 420 117.5V120.5ZM322.939 181.939C322.354 182.525 322.354 183.475 322.939 184.061L332.485 193.607C333.071 194.192 334.021 194.192 334.607 193.607C335.192 193.021 335.192 192.071 334.607 191.485L326.121 183L334.607 174.515C335.192 173.929 335.192 172.979 334.607 172.393C334.021 171.808 333.071 171.808 332.485 172.393L322.939 181.939ZM420 117.5H396V120.5H420V117.5ZM370.5 143V159H373.5V143H370.5ZM348 181.5H324V184.5H348V181.5ZM370.5 159C370.5 171.426 360.426 181.5 348 181.5V184.5C362.083 184.5 373.5 173.083 373.5 159H370.5ZM396 117.5C381.917 117.5 370.5 128.917 370.5 143H373.5C373.5 130.574 383.574 120.5 396 120.5V117.5Z" fill="#C4C4C4"/>
<path d="M420 405.5C420.828 405.5 421.5 404.828 421.5 404C421.5 403.172 420.828 402.5 420 402.5V405.5ZM322.939 339.939C322.354 340.525 322.354 341.475 322.939 342.061L332.485 351.607C333.071 352.192 334.021 352.192 334.607 351.607C335.192 351.021 335.192 350.071 334.607 349.485L326.121 341L334.607 332.515C335.192 331.929 335.192 330.979 334.607 330.393C334.021 329.808 333.071 329.808 332.485 330.393L322.939 339.939ZM420 402.5H396V405.5H420V402.5ZM373.5 380V365H370.5V380H373.5ZM348 339.5H324V342.5H348V339.5ZM373.5 365C373.5 350.917 362.083 339.5 348 339.5V342.5C360.426 342.5 370.5 352.574 370.5 365H373.5ZM396 402.5C383.574 402.5 373.5 392.426 373.5 380H370.5C370.5 394.083 381.917 405.5 396 405.5V402.5Z" fill="#C4C4C4"/>
<path d="M420 405.5C420.828 405.5 421.5 404.828 421.5 404C421.5 403.172 420.828 402.5 420 402.5V405.5ZM322.939 466.939C322.354 467.525 322.354 468.475 322.939 469.061L332.485 478.607C333.071 479.192 334.021 479.192 334.607 478.607C335.192 478.021 335.192 477.071 334.607 476.485L326.121 468L334.607 459.515C335.192 458.929 335.192 457.979 334.607 457.393C334.021 456.808 333.071 456.808 332.485 457.393L322.939 466.939ZM420 402.5H396V405.5H420V402.5ZM370.5 428V444H373.5V428H370.5ZM348 466.5H324V469.5H348V466.5ZM370.5 444C370.5 456.426 360.426 466.5 348 466.5V469.5C362.083 469.5 373.5 458.083 373.5 444H370.5ZM396 402.5C381.917 402.5 370.5 413.917 370.5 428H373.5C373.5 415.574 383.574 405.5 396 405.5V402.5Z" fill="#C4C4C4"/>
<path d="M420 690.5C420.828 690.5 421.5 689.828 421.5 689C421.5 688.172 420.828 687.5 420 687.5V690.5ZM322.939 624.939C322.354 625.525 322.354 626.475 322.939 627.061L332.485 636.607C333.071 637.192 334.021 637.192 334.607 636.607C335.192 636.021 335.192 635.071 334.607 634.485L326.121 626L334.607 617.515C335.192 616.929 335.192 615.979 334.607 615.393C334.021 614.808 333.071 614.808 332.485 615.393L322.939 624.939ZM420 687.5H396V690.5H420V687.5ZM373.5 665V650H370.5V665H373.5ZM348 624.5H324V627.5H348V624.5ZM373.5 650C373.5 635.917 362.083 624.5 348 624.5V627.5C360.426 627.5 370.5 637.574 370.5 650H373.5ZM396 687.5C383.574 687.5 373.5 677.426 373.5 665H370.5C370.5 679.083 381.917 690.5 396 690.5V687.5Z" fill="#C4C4C4"/>
<path d="M420 690.5C420.828 690.5 421.5 689.828 421.5 689C421.5 688.172 420.828 687.5 420 687.5V690.5ZM322.939 751.939C322.354 752.525 322.354 753.475 322.939 754.061L332.485 763.607C333.071 764.192 334.021 764.192 334.607 763.607C335.192 763.021 335.192 762.071 334.607 761.485L326.121 753L334.607 744.515C335.192 743.929 335.192 742.979 334.607 742.393C334.021 741.808 333.071 741.808 332.485 742.393L322.939 751.939ZM420 687.5H396V690.5H420V687.5ZM370.5 713V729H373.5V713H370.5ZM348 751.5H324V754.5H348V751.5ZM370.5 729C370.5 741.426 360.426 751.5 348 751.5V754.5C362.083 754.5 373.5 743.083 373.5 729H370.5ZM396 687.5C381.917 687.5 370.5 698.917 370.5 713H373.5C373.5 700.574 383.574 690.5 396 690.5V687.5Z" fill="#C4C4C4"/>
<path d="M420 975.5C420.828 975.5 421.5 974.828 421.5 974C421.5 973.172 420.828 972.5 420 972.5V975.5ZM322.939 901.939C322.354 902.525 322.354 903.475 322.939 904.061L332.485 913.607C333.071 914.192 334.021 914.192 334.607 913.607C335.192 913.021 335.192 912.071 334.607 911.485L326.121 903L334.607 894.515C335.192 893.929 335.192 892.979 334.607 892.393C334.021 891.808 333.071 891.808 332.485 892.393L322.939 901.939ZM420 972.5H396V975.5H420V972.5ZM373.5 950V927H370.5V950H373.5ZM348 901.5H324V904.5H348V901.5ZM373.5 927C373.5 912.917 362.083 901.5 348 901.5V904.5C360.426 904.5 370.5 914.574 370.5 927H373.5ZM396 972.5C383.574 972.5 373.5 962.426 373.5 950H370.5C370.5 964.083 381.917 975.5 396 975.5V972.5Z" fill="#C4C4C4"/>
<path d="M420 975.5C420.828 975.5 421.5 974.828 421.5 974C421.5 973.172 420.828 972.5 420 972.5V975.5ZM322.939 1029.94C322.354 1030.53 322.354 1031.47 322.939 1032.06L332.485 1041.61C333.071 1042.19 334.021 1042.19 334.607 1041.61C335.192 1041.02 335.192 1040.07 334.607 1039.49L326.121 1031L334.607 1022.51C335.192 1021.93 335.192 1020.98 334.607 1020.39C334.021 1019.81 333.071 1019.81 332.485 1020.39L322.939 1029.94ZM420 972.5H396V975.5H420V972.5ZM370.5 998V1007H373.5V998H370.5ZM348 1029.5H324V1032.5H348V1029.5ZM370.5 1007C370.5 1019.43 360.426 1029.5 348 1029.5V1032.5C362.083 1032.5 373.5 1021.08 373.5 1007H370.5ZM396 972.5C381.917 972.5 370.5 983.917 370.5 998H373.5C373.5 985.574 383.574 975.5 396 975.5V972.5Z" fill="#C4C4C4"/>
<path d="M420 1260.5C420.828 1260.5 421.5 1259.83 421.5 1259C421.5 1258.17 420.828 1257.5 420 1257.5V1260.5ZM322.939 1189.94C322.354 1190.53 322.354 1191.47 322.939 1192.06L332.485 1201.61C333.071 1202.19 334.021 1202.19 334.607 1201.61C335.192 1201.02 335.192 1200.07 334.607 1199.49L326.121 1191L334.607 1182.51C335.192 1181.93 335.192 1180.98 334.607 1180.39C334.021 1179.81 333.071 1179.81 332.485 1180.39L322.939 1189.94ZM420 1257.5H396V1260.5H420V1257.5ZM373.5 1235V1215H370.5V1235H373.5ZM348 1189.5H324V1192.5H348V1189.5ZM373.5 1215C373.5 1200.92 362.083 1189.5 348 1189.5V1192.5C360.426 1192.5 370.5 1202.57 370.5 1215H373.5ZM396 1257.5C383.574 1257.5 373.5 1247.43 373.5 1235H370.5C370.5 1249.08 381.917 1260.5 396 1260.5V1257.5Z" fill="#C4C4C4"/>
<path d="M420 1260.5C420.828 1260.5 421.5 1259.83 421.5 1259C421.5 1258.17 420.828 1257.5 420 1257.5V1260.5ZM322.939 1317.94C322.354 1318.53 322.354 1319.47 322.939 1320.06L332.485 1329.61C333.071 1330.19 334.021 1330.19 334.607 1329.61C335.192 1329.02 335.192 1328.07 334.607 1327.49L326.121 1319L334.607 1310.51C335.192 1309.93 335.192 1308.98 334.607 1308.39C334.021 1307.81 333.071 1307.81 332.485 1308.39L322.939 1317.94ZM420 1257.5H396V1260.5H420V1257.5ZM370.5 1283V1295H373.5V1283H370.5ZM348 1317.5H324V1320.5H348V1317.5ZM370.5 1295C370.5 1307.43 360.426 1317.5 348 1317.5V1320.5C362.083 1320.5 373.5 1309.08 373.5 1295H370.5ZM396 1257.5C381.917 1257.5 370.5 1268.92 370.5 1283H373.5C373.5 1270.57 383.574 1260.5 396 1260.5V1257.5Z" fill="#C4C4C4"/>
<path d="M420 1545.5C420.828 1545.5 421.5 1544.83 421.5 1544C421.5 1543.17 420.828 1542.5 420 1542.5V1545.5ZM322.939 1477.94C322.354 1478.53 322.354 1479.47 322.939 1480.06L332.485 1489.61C333.071 1490.19 334.021 1490.19 334.607 1489.61C335.192 1489.02 335.192 1488.07 334.607 1487.49L326.121 1479L334.607 1470.51C335.192 1469.93 335.192 1468.98 334.607 1468.39C334.021 1467.81 333.071 1467.81 332.485 1468.39L322.939 1477.94ZM420 1542.5H396V1545.5H420V1542.5ZM373.5 1520V1503H370.5V1520H373.5ZM348 1477.5H324V1480.5H348V1477.5ZM373.5 1503C373.5 1488.92 362.083 1477.5 348 1477.5V1480.5C360.426 1480.5 370.5 1490.57 370.5 1503H373.5ZM396 1542.5C383.574 1542.5 373.5 1532.43 373.5 1520H370.5C370.5 1534.08 381.917 1545.5 396 1545.5V1542.5Z" fill="#C4C4C4"/>
<path d="M420 1545.5C420.828 1545.5 421.5 1544.83 421.5 1544C421.5 1543.17 420.828 1542.5 420 1542.5V1545.5ZM322.939 1605.94C322.354 1606.53 322.354 1607.47 322.939 1608.06L332.485 1617.61C333.071 1618.19 334.021 1618.19 334.607 1617.61C335.192 1617.02 335.192 1616.07 334.607 1615.49L326.121 1607L334.607 1598.51C335.192 1597.93 335.192 1596.98 334.607 1596.39C334.021 1595.81 333.071 1595.81 332.485 1596.39L322.939 1605.94ZM420 1542.5H396V1545.5H420V1542.5ZM370.5 1568V1583H373.5V1568H370.5ZM348 1605.5H324V1608.5H348V1605.5ZM370.5 1583C370.5 1595.43 360.426 1605.5 348 1605.5V1608.5C362.083 1608.5 373.5 1597.08 373.5 1583H370.5ZM396 1542.5C381.917 1542.5 370.5 1553.92 370.5 1568H373.5C373.5 1555.57 383.574 1545.5 396 1545.5V1542.5Z" fill="#C4C4C4"/>
<path d="M1893.5 802C1893.5 802.828 1894.17 803.5 1895 803.5C1895.83 803.5 1896.5 802.828 1896.5 802H1893.5ZM1072.06 702.939C1071.47 702.354 1070.53 702.354 1069.94 702.939L1060.39 712.485C1059.81 713.071 1059.81 714.021 1060.39 714.607C1060.98 715.192 1061.93 715.192 1062.51 714.607L1071 706.121L1079.49 714.607C1080.07 715.192 1081.02 715.192 1081.61 714.607C1082.19 714.021 1082.19 713.071 1081.61 712.485L1072.06 702.939ZM1896.5 802V777H1893.5V802H1896.5ZM1871 751.5H1095V754.5H1871V751.5ZM1072.5 729V704H1069.5V729H1072.5ZM1095 751.5C1082.57 751.5 1072.5 741.426 1072.5 729H1069.5C1069.5 743.083 1080.92 754.5 1095 754.5V751.5ZM1896.5 777C1896.5 762.917 1885.08 751.5 1871 751.5V754.5C1883.43 754.5 1893.5 764.574 1893.5 777H1896.5Z" fill="#C4C4C4"/>
<path d="M1893.5 802C1893.5 802.828 1894.17 803.5 1895 803.5C1895.83 803.5 1896.5 802.828 1896.5 802H1893.5ZM1405.06 702.939C1404.47 702.354 1403.53 702.354 1402.94 702.939L1393.39 712.485C1392.81 713.071 1392.81 714.021 1393.39 714.607C1393.98 715.192 1394.93 715.192 1395.51 714.607L1404 706.121L1412.49 714.607C1413.07 715.192 1414.02 715.192 1414.61 714.607C1415.19 714.021 1415.19 713.071 1414.61 712.485L1405.06 702.939ZM1896.5 802V777H1893.5V802H1896.5ZM1871 751.5H1428V754.5H1871V751.5ZM1405.5 729V704H1402.5V729H1405.5ZM1428 751.5C1415.57 751.5 1405.5 741.426 1405.5 729H1402.5C1402.5 743.083 1413.92 754.5 1428 754.5V751.5ZM1896.5 777C1896.5 762.917 1885.08 751.5 1871 751.5V754.5C1883.43 754.5 1893.5 764.574 1893.5 777H1896.5Z" fill="#C4C4C4"/>
<path d="M1893.5 802C1893.5 802.828 1894.17 803.5 1895 803.5C1895.83 803.5 1896.5 802.828 1896.5 802H1893.5ZM1738.06 702.939C1737.47 702.354 1736.53 702.354 1735.94 702.939L1726.39 712.485C1725.81 713.071 1725.81 714.021 1726.39 714.607C1726.98 715.192 1727.93 715.192 1728.51 714.607L1737 706.121L1745.49 714.607C1746.07 715.192 1747.02 715.192 1747.61 714.607C1748.19 714.021 1748.19 713.071 1747.61 712.485L1738.06 702.939ZM1896.5 802V777H1893.5V802H1896.5ZM1871 751.5H1761V754.5H1871V751.5ZM1738.5 729V704H1735.5V729H1738.5ZM1761 751.5C1748.57 751.5 1738.5 741.426 1738.5 729H1735.5C1735.5 743.083 1746.92 754.5 1761 754.5V751.5ZM1896.5 777C1896.5 762.917 1885.08 751.5 1871 751.5V754.5C1883.43 754.5 1893.5 764.574 1893.5 777H1896.5Z" fill="#C4C4C4"/>
<path d="M1893.5 802C1893.5 802.828 1894.17 803.5 1895 803.5C1895.83 803.5 1896.5 802.828 1896.5 802H1893.5ZM2071.06 702.939C2070.47 702.354 2069.53 702.354 2068.94 702.939L2059.39 712.485C2058.81 713.071 2058.81 714.021 2059.39 714.607C2059.98 715.192 2060.93 715.192 2061.51 714.607L2070 706.121L2078.49 714.607C2079.07 715.192 2080.02 715.192 2080.61 714.607C2081.19 714.021 2081.19 713.071 2080.61 712.485L2071.06 702.939ZM1896.5 802V777H1893.5V802H1896.5ZM1919 754.5H2046V751.5H1919V754.5ZM2071.5 729V704H2068.5V729H2071.5ZM2046 754.5C2060.08 754.5 2071.5 743.083 2071.5 729H2068.5C2068.5 741.426 2058.43 751.5 2046 751.5V754.5ZM1896.5 777C1896.5 764.574 1906.57 754.5 1919 754.5V751.5C1904.92 751.5 1893.5 762.917 1893.5 777H1896.5Z" fill="#C4C4C4"/>
<path d="M1893.5 802C1893.5 802.828 1894.17 803.5 1895 803.5C1895.83 803.5 1896.5 802.828 1896.5 802H1893.5ZM2404.06 702.939C2403.47 702.354 2402.53 702.354 2401.94 702.939L2392.39 712.485C2391.81 713.071 2391.81 714.021 2392.39 714.607C2392.98 715.192 2393.93 715.192 2394.51 714.607L2403 706.121L2411.49 714.607C2412.07 715.192 2413.02 715.192 2413.61 714.607C2414.19 714.021 2414.19 713.071 2413.61 712.485L2404.06 702.939ZM1896.5 802V777H1893.5V802H1896.5ZM1919 754.5H2379V751.5H1919V754.5ZM2404.5 729V704H2401.5V729H2404.5ZM2379 754.5C2393.08 754.5 2404.5 743.083 2404.5 729H2401.5C2401.5 741.426 2391.43 751.5 2379 751.5V754.5ZM1896.5 777C1896.5 764.574 1906.57 754.5 1919 754.5V751.5C1904.92 751.5 1893.5 762.917 1893.5 777H1896.5Z" fill="#C4C4C4"/>
<path d="M1893.5 802C1893.5 802.828 1894.17 803.5 1895 803.5C1895.83 803.5 1896.5 802.828 1896.5 802H1893.5ZM2737.06 702.939C2736.47 702.354 2735.53 702.354 2734.94 702.939L2725.39 712.485C2724.81 713.071 2724.81 714.021 2725.39 714.607C2725.98 715.192 2726.93 715.192 2727.51 714.607L2736 706.121L2744.49 714.607C2745.07 715.192 2746.02 715.192 2746.61 714.607C2747.19 714.021 2747.19 713.071 2746.61 712.485L2737.06 702.939ZM1896.5 802V777H1893.5V802H1896.5ZM1919 754.5H2712V751.5H1919V754.5ZM2737.5 729V704H2734.5V729H2737.5ZM2712 754.5C2726.08 754.5 2737.5 743.083 2737.5 729H2734.5C2734.5 741.426 2724.43 751.5 2712 751.5V754.5ZM1896.5 777C1896.5 764.574 1906.57 754.5 1919 754.5V751.5C1904.92 751.5 1893.5 762.917 1893.5 777H1896.5Z" fill="#C4C4C4"/>
<path d="M2733 1256.5C2732.17 1256.5 2731.5 1257.17 2731.5 1258C2731.5 1258.83 2732.17 1259.5 2733 1259.5V1256.5ZM2836.06 1048.06C2836.65 1047.47 2836.65 1046.53 2836.06 1045.94L2826.51 1036.39C2825.93 1035.81 2824.98 1035.81 2824.39 1036.39C2823.81 1036.98 2823.81 1037.93 2824.39 1038.51L2832.88 1047L2824.39 1055.49C2823.81 1056.07 2823.81 1057.02 2824.39 1057.61C2824.98 1058.19 2825.93 1058.19 2826.51 1057.61L2836.06 1048.06ZM2733 1259.5H2760V1256.5H2733V1259.5ZM2785.5 1234V1071H2782.5V1234H2785.5ZM2808 1048.5H2835V1045.5H2808V1048.5ZM2785.5 1071C2785.5 1058.57 2795.57 1048.5 2808 1048.5V1045.5C2793.92 1045.5 2782.5 1056.92 2782.5 1071H2785.5ZM2760 1259.5C2774.08 1259.5 2785.5 1248.08 2785.5 1234H2782.5C2782.5 1246.43 2772.43 1256.5 2760 1256.5V1259.5Z" fill="#C4C4C4"/>
<path d="M2733 1256.5C2732.17 1256.5 2731.5 1257.17 2731.5 1258C2731.5 1258.83 2732.17 1259.5 2733 1259.5V1256.5ZM2836.06 1189.06C2836.65 1188.47 2836.65 1187.53 2836.06 1186.94L2826.51 1177.39C2825.93 1176.81 2824.98 1176.81 2824.39 1177.39C2823.81 1177.98 2823.81 1178.93 2824.39 1179.51L2832.88 1188L2824.39 1196.49C2823.81 1197.07 2823.81 1198.02 2824.39 1198.61C2824.98 1199.19 2825.93 1199.19 2826.51 1198.61L2836.06 1189.06ZM2733 1259.5H2760V1256.5H2733V1259.5ZM2785.5 1234V1212H2782.5V1234H2785.5ZM2808 1189.5H2835V1186.5H2808V1189.5ZM2785.5 1212C2785.5 1199.57 2795.57 1189.5 2808 1189.5V1186.5C2793.92 1186.5 2782.5 1197.92 2782.5 1212H2785.5ZM2760 1259.5C2774.08 1259.5 2785.5 1248.08 2785.5 1234H2782.5C2782.5 1246.43 2772.43 1256.5 2760 1256.5V1259.5Z" fill="#C4C4C4"/>
<path d="M2733 1256.5C2732.17 1256.5 2731.5 1257.17 2731.5 1258C2731.5 1258.83 2732.17 1259.5 2733 1259.5V1256.5ZM2836.06 1330.06C2836.65 1329.47 2836.65 1328.53 2836.06 1327.94L2826.51 1318.39C2825.93 1317.81 2824.98 1317.81 2824.39 1318.39C2823.81 1318.98 2823.81 1319.93 2824.39 1320.51L2832.88 1329L2824.39 1337.49C2823.81 1338.07 2823.81 1339.02 2824.39 1339.61C2824.98 1340.19 2825.93 1340.19 2826.51 1339.61L2836.06 1330.06ZM2733 1259.5H2760V1256.5H2733V1259.5ZM2782.5 1282V1305H2785.5V1282H2782.5ZM2808 1330.5H2835V1327.5H2808V1330.5ZM2782.5 1305C2782.5 1319.08 2793.92 1330.5 2808 1330.5V1327.5C2795.57 1327.5 2785.5 1317.43 2785.5 1305H2782.5ZM2760 1259.5C2772.43 1259.5 2782.5 1269.57 2782.5 1282H2785.5C2785.5 1267.92 2774.08 1256.5 2760 1256.5V1259.5Z" fill="#C4C4C4"/>
<path d="M2733 1256.5C2732.17 1256.5 2731.5 1257.17 2731.5 1258C2731.5 1258.83 2732.17 1259.5 2733 1259.5V1256.5ZM2836.06 1471.06C2836.65 1470.47 2836.65 1469.53 2836.06 1468.94L2826.51 1459.39C2825.93 1458.81 2824.98 1458.81 2824.39 1459.39C2823.81 1459.98 2823.81 1460.93 2824.39 1461.51L2832.88 1470L2824.39 1478.49C2823.81 1479.07 2823.81 1480.02 2824.39 1480.61C2824.98 1481.19 2825.93 1481.19 2826.51 1480.61L2836.06 1471.06ZM2733 1259.5H2760V1256.5H2733V1259.5ZM2782.5 1282V1446H2785.5V1282H2782.5ZM2808 1471.5H2835V1468.5H2808V1471.5ZM2782.5 1446C2782.5 1460.08 2793.92 1471.5 2808 1471.5V1468.5C2795.57 1468.5 2785.5 1458.43 2785.5 1446H2782.5ZM2760 1259.5C2772.43 1259.5 2782.5 1269.57 2782.5 1282H2785.5C2785.5 1267.92 2774.08 1256.5 2760 1256.5V1259.5Z" fill="#C4C4C4"/>
<path d="M1155.5 1463.92C1155.5 1463.09 1154.83 1462.42 1154 1462.42C1153.17 1462.42 1152.5 1463.09 1152.5 1463.92H1155.5ZM1683 1785.96C1683.83 1785.96 1684.5 1785.29 1684.5 1784.46C1684.5 1783.63 1683.83 1782.96 1683 1782.96V1785.96ZM1152.5 1463.92V1760.46H1155.5V1463.92H1152.5ZM1178 1785.96H1683V1782.96H1178V1785.96ZM1152.5 1760.46C1152.5 1774.54 1163.92 1785.96 1178 1785.96V1782.96C1165.57 1782.96 1155.5 1772.88 1155.5 1760.46H1152.5Z" fill="#C4C4C4"/>
<path d="M2107 1782.96C2106.17 1782.96 2105.5 1783.63 2105.5 1784.46C2105.5 1785.29 2106.17 1785.96 2107 1785.96V1782.96ZM2522.5 1318C2522.5 1317.17 2521.83 1316.5 2521 1316.5C2520.17 1316.5 2519.5 1317.17 2519.5 1318H2522.5ZM2107 1785.96H2497V1782.96H2107V1785.96ZM2522.5 1760.46V1318H2519.5V1760.46H2522.5ZM2497 1785.96C2511.08 1785.96 2522.5 1774.54 2522.5 1760.46H2519.5C2519.5 1772.88 2509.43 1782.96 2497 1782.96V1785.96Z" fill="#C4C4C4"/>
<path d="M1893.5 1582C1893.5 1582.83 1894.17 1583.5 1895 1583.5C1895.83 1583.5 1896.5 1582.83 1896.5 1582H1893.5ZM1896.5 1493.98C1896.5 1493.15 1895.83 1492.48 1895 1492.48C1894.17 1492.48 1893.5 1493.15 1893.5 1493.98H1896.5ZM1896.5 1582V1493.98H1893.5V1582H1896.5Z" fill="#C4C4C4"/>
<path d="M2138.97 1259.42C2138.15 1259.44 2137.49 1260.12 2137.5 1260.95C2137.51 1261.78 2138.2 1262.44 2139.02 1262.42L2138.97 1259.42ZM2309.03 1259.57C2309.85 1259.55 2310.51 1258.87 2310.5 1258.04C2310.49 1257.21 2309.8 1256.55 2308.98 1256.57L2309.03 1259.57ZM2139.02 1262.42L2309.03 1259.57L2308.98 1256.57L2138.97 1259.42L2139.02 1262.42Z" fill="#C4C4C4"/>
<path d="M1893.5 1028C1893.5 1028.83 1894.17 1029.5 1895 1029.5C1895.83 1029.5 1896.5 1028.83 1896.5 1028H1893.5ZM1896.5 922C1896.5 921.172 1895.83 920.5 1895 920.5C1894.17 920.5 1893.5 921.172 1893.5 922H1896.5ZM1896.5 1028V922H1893.5V1028H1896.5Z" fill="#C4C4C4"/>
<path d="M1896.5 2174C1896.5 2173.17 1895.83 2172.5 1895 2172.5C1894.17 2172.5 1893.5 2173.17 1893.5 2174H1896.5ZM1053.94 2316.06C1054.53 2316.65 1055.47 2316.65 1056.06 2316.06L1065.61 2306.51C1066.19 2305.93 1066.19 2304.98 1065.61 2304.39C1065.02 2303.81 1064.07 2303.81 1063.49 2304.39L1055 2312.88L1046.51 2304.39C1045.93 2303.81 1044.98 2303.81 1044.39 2304.39C1043.81 2304.98 1043.81 2305.93 1044.39 2306.51L1053.94 2316.06ZM1893.5 2174V2220.5H1896.5V2174H1893.5ZM1871 2243H1079V2246H1871V2243ZM1053.5 2268.5V2315H1056.5V2268.5H1053.5ZM1079 2243C1064.92 2243 1053.5 2254.42 1053.5 2268.5H1056.5C1056.5 2256.07 1066.57 2246 1079 2246V2243ZM1893.5 2220.5C1893.5 2232.93 1883.43 2243 1871 2243V2246C1885.08 2246 1896.5 2234.58 1896.5 2220.5H1893.5Z" fill="#C4C4C4"/>
<path d="M1896.5 2174C1896.5 2173.17 1895.83 2172.5 1895 2172.5C1894.17 2172.5 1893.5 2173.17 1893.5 2174H1896.5ZM1389.94 2316.06C1390.53 2316.65 1391.47 2316.65 1392.06 2316.06L1401.61 2306.51C1402.19 2305.93 1402.19 2304.98 1401.61 2304.39C1401.02 2303.81 1400.07 2303.81 1399.49 2304.39L1391 2312.88L1382.51 2304.39C1381.93 2303.81 1380.98 2303.81 1380.39 2304.39C1379.81 2304.98 1379.81 2305.93 1380.39 2306.51L1389.94 2316.06ZM1893.5 2174V2220.5H1896.5V2174H1893.5ZM1871 2243H1415V2246H1871V2243ZM1389.5 2268.5V2315H1392.5V2268.5H1389.5ZM1415 2243C1400.92 2243 1389.5 2254.42 1389.5 2268.5H1392.5C1392.5 2256.07 1402.57 2246 1415 2246V2243ZM1893.5 2220.5C1893.5 2232.93 1883.43 2243 1871 2243V2246C1885.08 2246 1896.5 2234.58 1896.5 2220.5H1893.5Z" fill="#C4C4C4"/>
<path d="M1896.5 2174C1896.5 2173.17 1895.83 2172.5 1895 2172.5C1894.17 2172.5 1893.5 2173.17 1893.5 2174H1896.5ZM1725.94 2316.06C1726.53 2316.65 1727.47 2316.65 1728.06 2316.06L1737.61 2306.51C1738.19 2305.93 1738.19 2304.98 1737.61 2304.39C1737.02 2303.81 1736.07 2303.81 1735.49 2304.39L1727 2312.88L1718.51 2304.39C1717.93 2303.81 1716.98 2303.81 1716.39 2304.39C1715.81 2304.98 1715.81 2305.93 1716.39 2306.51L1725.94 2316.06ZM1893.5 2174V2220.5H1896.5V2174H1893.5ZM1871 2243H1751V2246H1871V2243ZM1725.5 2268.5V2315H1728.5V2268.5H1725.5ZM1751 2243C1736.92 2243 1725.5 2254.42 1725.5 2268.5H1728.5C1728.5 2256.07 1738.57 2246 1751 2246V2243ZM1893.5 2220.5C1893.5 2232.93 1883.43 2243 1871 2243V2246C1885.08 2246 1896.5 2234.58 1896.5 2220.5H1893.5Z" fill="#C4C4C4"/>
<path d="M1896.5 2174C1896.5 2173.17 1895.83 2172.5 1895 2172.5C1894.17 2172.5 1893.5 2173.17 1893.5 2174H1896.5ZM2061.94 2316.06C2062.53 2316.65 2063.47 2316.65 2064.06 2316.06L2073.61 2306.51C2074.19 2305.93 2074.19 2304.98 2073.61 2304.39C2073.02 2303.81 2072.07 2303.81 2071.49 2304.39L2063 2312.88L2054.51 2304.39C2053.93 2303.81 2052.98 2303.81 2052.39 2304.39C2051.81 2304.98 2051.81 2305.93 2052.39 2306.51L2061.94 2316.06ZM1893.5 2174V2220.5H1896.5V2174H1893.5ZM1919 2246H2039V2243H1919V2246ZM2061.5 2268.5V2315H2064.5V2268.5H2061.5ZM2039 2246C2051.43 2246 2061.5 2256.07 2061.5 2268.5H2064.5C2064.5 2254.42 2053.08 2243 2039 2243V2246ZM1893.5 2220.5C1893.5 2234.58 1904.92 2246 1919 2246V2243C1906.57 2243 1896.5 2232.93 1896.5 2220.5H1893.5Z" fill="#C4C4C4"/>
<path d="M1896.5 2174C1896.5 2173.17 1895.83 2172.5 1895 2172.5C1894.17 2172.5 1893.5 2173.17 1893.5 2174H1896.5ZM2397.94 2316.06C2398.53 2316.65 2399.47 2316.65 2400.06 2316.06L2409.61 2306.51C2410.19 2305.93 2410.19 2304.98 2409.61 2304.39C2409.02 2303.81 2408.07 2303.81 2407.49 2304.39L2399 2312.88L2390.51 2304.39C2389.93 2303.81 2388.98 2303.81 2388.39 2304.39C2387.81 2304.98 2387.81 2305.93 2388.39 2306.51L2397.94 2316.06ZM1893.5 2174V2220.5H1896.5V2174H1893.5ZM1919 2246H2375V2243H1919V2246ZM2397.5 2268.5V2315H2400.5V2268.5H2397.5ZM2375 2246C2387.43 2246 2397.5 2256.07 2397.5 2268.5H2400.5C2400.5 2254.42 2389.08 2243 2375 2243V2246ZM1893.5 2220.5C1893.5 2234.58 1904.92 2246 1919 2246V2243C1906.57 2243 1896.5 2232.93 1896.5 2220.5H1893.5Z" fill="#C4C4C4"/>
<path d="M1896.5 2174C1896.5 2173.17 1895.83 2172.5 1895 2172.5C1894.17 2172.5 1893.5 2173.17 1893.5 2174H1896.5ZM2733.94 2316.06C2734.53 2316.65 2735.47 2316.65 2736.06 2316.06L2745.61 2306.51C2746.19 2305.93 2746.19 2304.98 2745.61 2304.39C2745.02 2303.81 2744.07 2303.81 2743.49 2304.39L2735 2312.88L2726.51 2304.39C2725.93 2303.81 2724.98 2303.81 2724.39 2304.39C2723.81 2304.98 2723.81 2305.93 2724.39 2306.51L2733.94 2316.06ZM1893.5 2174V2220.5H1896.5V2174H1893.5ZM1919 2246H2711V2243H1919V2246ZM2733.5 2268.5V2315H2736.5V2268.5H2733.5ZM2711 2246C2723.43 2246 2733.5 2256.07 2733.5 2268.5H2736.5C2736.5 2254.42 2725.08 2243 2711 2243V2246ZM1893.5 2220.5C1893.5 2234.58 1904.92 2246 1919 2246V2243C1906.57 2243 1896.5 2232.93 1896.5 2220.5H1893.5Z" fill="#C4C4C4"/>
<path d="M1896.5 1986.92C1896.5 1986.09 1895.83 1985.42 1895 1985.42C1894.17 1985.42 1893.5 1986.09 1893.5 1986.92H1896.5ZM1893.5 2054C1893.5 2054.83 1894.17 2055.5 1895 2055.5C1895.83 2055.5 1896.5 2054.83 1896.5 2054H1893.5ZM1893.5 1986.92V2054H1896.5V1986.92H1893.5Z" fill="#C4C4C4"/>
</svg>
