<!-- 
        SHARE LINK : https://tahsin000.github.io/DATABASE_MANAGEMENT_SYSTEM/ERD/MAINUDDIN_HASAN_C193070.svg
 -->
<?xml version="1.0" encoding="utf-8"?>
<!-- Generator: Adobe Illustrator 22.0.0, SVG Export Plug-In . SVG Version: 6.00 Build 0)  -->
<svg version="1.1" id="Layer_1" xmlns="http://www.w3.org/2000/svg" xmlns:xlink="http://www.w3.org/1999/xlink" x="0px" y="0px"
	 viewBox="0 0 1312 1583.8" style="enable-background:new 0 0 1312 1583.8;" xml:space="preserve">
<style type="text/css">
	.st0{fill:#85B6FF;}
	.st1{fill:#333333;}
	.st2{fill:#FF9790;}
	.st3{fill:#FFD233;}
	.st4{fill:#C4C4C4;}
	.st5{fill:#4ECB71;}
</style>
<path class="st0" d="M775,1184.2c0-1.3,1.1-2.4,2.4-2.4h123.2c1.3,0,2.4,1.1,2.4,2.4v76.3c0,1.3-1.1,2.4-2.4,2.4H777.4
	c-1.3,0-2.4-1.1-2.4-2.4V1184.2z"/>
<path class="st1" d="M867.8,1220.5h2.4c0-2.1-1.7-3.5-4.3-3.5c-2.6,0-4.4,1.4-4.4,3.5c0,1.7,1.2,2.7,3.2,3.2l1.3,0.3
	c1.3,0.3,2,0.7,2,1.5c0,0.9-0.8,1.4-2.1,1.4c-1.3,0-2.2-0.6-2.3-1.8h-2.4c0.1,2.5,1.9,3.8,4.7,3.8c2.8,0,4.5-1.4,4.5-3.5
	c0-1.9-1.5-3-3.5-3.4l-1-0.3c-1-0.2-1.9-0.6-1.8-1.4c0-0.8,0.7-1.3,1.9-1.3C867,1219.1,867.7,1219.6,867.8,1220.5z M853.6,1222.7
	v-3.5h1.7c1.4,0,2.1,0.6,2.1,1.8c0,1.2-0.7,1.7-2.1,1.7H853.6z M851.1,1228.8h2.5v-4.1h1.8l2.2,4.1h2.7l-2.5-4.5
	c1.3-0.6,2.1-1.7,2.1-3.3c0-2.3-1.5-3.8-4.2-3.8h-4.6V1228.8z M841.5,1228.8h7.9v-2H844v-2.8h5v-2h-5v-2.8h5.4v-2h-7.8V1228.8z
	 M829.4,1217.2l4.2,7.5v4.1h2.4v-4.1l4.2-7.5h-2.8l-2.7,5h-0.1l-2.7-5H829.4z M825.8,1217.2v7.3c0,1.3-0.9,2.3-2.4,2.3
	c-1.4,0-2.4-1-2.4-2.3v-7.3h-2.5v7.6c0,2.5,1.9,4.2,4.8,4.2c2.9,0,4.8-1.7,4.8-4.2v-7.6H825.8z M810.7,1222v-2.9h1.9
	c1.1,0,1.7,0.6,1.7,1.4c0,0.9-0.8,1.5-1.8,1.5H810.7z M810.7,1226.8v-3.1h2.1c1.2,0,1.9,0.7,1.9,1.6c0,0.9-0.6,1.4-2,1.4H810.7z
	 M808.2,1228.8h5c2.6,0,4-1.4,4-3.2c0-1.7-1.2-2.8-2.6-2.8v-0.1c1.2-0.3,2.1-1.1,2.1-2.5c0-1.7-1.3-3-3.9-3h-4.7V1228.8z"/>
<path class="st0" d="M416,1201.2c0-1.3,1.1-2.4,2.4-2.4h123.2c1.3,0,2.4,1.1,2.4,2.4v76.3c0,1.3-1.1,2.4-2.4,2.4H418.4
	c-1.3,0-2.4-1.1-2.4-2.4V1201.2z"/>
<path class="st1" d="M506.8,1249.1c1.8,0,2.8-0.9,3.3-2.3l3.4-9.7l-2.6,0l-1.8,6.4H509l-1.8-6.4h-2.5l3.1,9l-0.1,0.4
	c-0.3,0.8-0.9,0.9-1.8,0.6l-0.5,1.8C505.6,1249,506.2,1249.1,506.8,1249.1z M503.9,1237.1h-1.6v-2.1h-2.4v2.1h-1.2v1.8h1.2v4.5
	c0,1.7,1.2,2.6,2.9,2.5c0.6,0,1.1-0.1,1.3-0.2l-0.4-1.8c-0.1,0-0.4,0.1-0.6,0.1c-0.5,0-0.8-0.2-0.8-0.9v-4.2h1.6V1237.1z
	 M492.5,1245.8h2.4v-4.9c0-1.1,0.8-1.8,1.9-1.8c0.3,0,0.8,0.1,1,0.1v-2.1c-0.2-0.1-0.5-0.1-0.8-0.1c-1,0-1.8,0.6-2.1,1.6h-0.1v-1.5
	h-2.3V1245.8z M485.1,1240.6c0.1-1,0.8-1.8,1.9-1.8c1.1,0,1.8,0.8,1.8,1.8H485.1z M487.1,1246c2.2,0,3.6-1.1,4-2.7l-2.2-0.1
	c-0.2,0.7-0.9,1-1.7,1c-1.2,0-2-0.8-2-2.1v0h5.9v-0.7c0-3-1.8-4.4-4.1-4.4c-2.6,0-4.2,1.8-4.2,4.5
	C482.7,1244.2,484.4,1246,487.1,1246z M475.5,1241.4c0-1.6,0.7-2.6,1.8-2.6c1.2,0,1.8,1,1.8,2.6c0,1.5-0.6,2.6-1.8,2.6
	C476.2,1244,475.5,1243,475.5,1241.4z M473.1,1249.1h2.4v-4.7h0.1c0.3,0.7,1.1,1.5,2.5,1.5c2,0,3.5-1.6,3.5-4.5c0-3-1.6-4.5-3.5-4.5
	c-1.5,0-2.2,0.9-2.5,1.6h-0.1v-1.5h-2.4V1249.1z M467.4,1244.1c-1.2,0-1.8-1.1-1.8-2.6s0.6-2.6,1.8-2.6c1.2,0,1.8,1.1,1.8,2.6
	S468.6,1244.1,467.4,1244.1z M467.4,1246c2.6,0,4.3-1.8,4.3-4.5c0-2.7-1.6-4.5-4.3-4.5c-2.6,0-4.3,1.8-4.3,4.5
	C463.1,1244.2,464.8,1246,467.4,1246z M457.5,1245.8h2.4v-4.9c0-1.1,0.8-1.8,1.9-1.8c0.3,0,0.8,0.1,1,0.1v-2.1
	c-0.2-0.1-0.5-0.1-0.8-0.1c-1,0-1.8,0.6-2.1,1.6h-0.1v-1.5h-2.3V1245.8z M449.9,1240.1v-3.9h1.7c1.4,0,2.1,0.8,2.1,1.9
	c0,1.2-0.7,1.9-2.1,1.9H449.9z M447.4,1245.8h2.5v-3.8h2.1c2.7,0,4.2-1.6,4.2-3.9c0-2.3-1.5-3.9-4.2-3.9h-4.6V1245.8z"/>
<path class="st2" d="M999,1022.3c0-17.9,14.5-32.5,32.5-32.5h120.1c17.9,0,32.5,14.5,32.5,32.5v16.2c0,17.9-14.5,32.5-32.5,32.5
	h-120.1c-17.9,0-32.5-14.5-32.5-32.5V1022.3z"/>
<path class="st1" d="M1110,1035.3v-8.6h2c2.5,0,3.9,1.5,3.9,4.3c0,2.8-1.3,4.3-4,4.3H1110z M1112,1036.8c3.5,0,5.6-2.2,5.6-5.8
	c0-3.6-2.1-5.8-5.5-5.8h-3.9v11.6H1112z M1105.9,1025.2h-1.8v11.6h1.8V1025.2z M1103,1036.8h-7.4v1.4h7.4V1036.8z M1088.6,1030.9
	v-4.2h2.2c1.7,0,2.4,0.8,2.4,2.1c0,1.3-0.7,2.1-2.4,2.1H1088.6z M1086.8,1036.8h1.8v-4.4h2.4c0,0,0.1,0,0.1,0l2.4,4.4h2l-2.6-4.7
	c1.4-0.5,2.1-1.7,2.1-3.3c0-2.1-1.3-3.6-4-3.6h-4.1V1036.8z M1075.1,1025.2l4.2,7.1v4.6h1.8v-4.6l4.2-7.1h-2l-3,5.3h-0.1l-3-5.3
	H1075.1z M1067.5,1030.2v-3.5h2.4c1.4,0,2.1,0.7,2.1,1.7c0,1.1-0.9,1.8-2.1,1.8H1067.5z M1067.5,1035.3v-3.7h2.6
	c1.4,0,2.3,0.9,2.3,2c0,1-0.7,1.7-2.4,1.7H1067.5z M1065.7,1036.8h4.5c2.7,0,3.9-1.3,3.9-3.1c0-1.8-1.3-2.8-2.4-2.9v-0.1
	c1.1-0.3,2-1,2-2.5c0-1.7-1.2-3.1-3.7-3.1h-4.3V1036.8z"/>
<path class="st2" d="M128,1086.3c0-17.9,14.5-32.5,32.5-32.5h127.1c17.9,0,32.5,14.5,32.5,32.5v16.2c0,17.9-14.5,32.5-32.5,32.5
	H160.5c-17.9,0-32.5-14.5-32.5-32.5V1086.3z"/>
<path class="st1" d="M242.8,1099.3v-8.6h2c2.5,0,3.9,1.5,3.9,4.3c0,2.8-1.3,4.3-4,4.3H242.8z M244.8,1100.8c3.5,0,5.6-2.2,5.6-5.8
	c0-3.6-2.1-5.8-5.5-5.8H241v11.6H244.8z M238.6,1089.2h-1.8v11.6h1.8V1089.2z M235.8,1100.8h-7.4v1.4h7.4V1100.8z M226.6,1095
	c0,2.8-1.5,4.4-3.5,4.4c-2,0-3.5-1.5-3.5-4.4c0-2.8,1.5-4.4,3.5-4.4C225.1,1090.6,226.6,1092.1,226.6,1095z M228.3,1095
	c0-3.7-2.2-6-5.2-6c-3,0-5.2,2.3-5.2,6c0,3.7,2.2,6,5.2,6C226.1,1101,228.3,1098.7,228.3,1095z M209.8,1094.9v-4.2h2.2
	c1.7,0,2.4,0.8,2.4,2.1c0,1.3-0.7,2.1-2.4,2.1H209.8z M208.1,1100.8h1.8v-4.4h2.4c0,0,0.1,0,0.1,0l2.4,4.4h2l-2.6-4.7
	c1.4-0.5,2.1-1.7,2.1-3.3c0-2.1-1.3-3.6-4-3.6h-4.1V1100.8z M199.8,1095.2v-4.6h2.2c1.7,0,2.4,0.9,2.4,2.3c0,1.3-0.7,2.3-2.4,2.3
	H199.8z M198,1100.8h1.8v-4.1h2.4c2.7,0,4-1.6,4-3.8c0-2.1-1.3-3.8-4-3.8H198V1100.8z"/>
<path class="st2" d="M999,718.3c0-17.9,14.5-32.5,32.5-32.5h120.1c17.9,0,32.5,14.5,32.5,32.5v16.2c0,17.9-14.5,32.5-32.5,32.5
	h-120.1c-17.9,0-32.5-14.5-32.5-32.5V718.3z"/>
<path class="st1" d="M1113.1,731.3v-8.6h2c2.5,0,3.9,1.5,3.9,4.3c0,2.8-1.3,4.3-4,4.3H1113.1z M1115.1,732.8c3.5,0,5.6-2.2,5.6-5.8
	c0-3.6-2.1-5.8-5.5-5.8h-3.9v11.6H1115.1z M1108.9,721.2h-1.8v11.6h1.8V721.2z M1106.1,732.8h-7.4v1.4h7.4V732.8z M1091.1,732.8h7
	v-1.5h-5.3v-10.1h-1.8V732.8z M1082.3,732.8h7v-1.5h-5.3v-10.1h-1.8V732.8z M1072.8,732.8h7.4v-1.5h-5.6v-3.6h5.2v-1.5h-5.2v-3.5
	h5.5v-1.5h-7.3V732.8z M1069,724.2h1.7c-0.1-1.9-1.7-3.2-4.1-3.2c-2.3,0-4.1,1.3-4.1,3.3c0,1.6,1.2,2.6,3,3.1l1.4,0.4
	c1.2,0.3,2.2,0.7,2.2,1.8c0,1.1-1.1,1.9-2.6,1.9c-1.4,0-2.5-0.6-2.6-1.9h-1.8c0.1,2.1,1.7,3.4,4.4,3.4c2.7,0,4.3-1.4,4.3-3.4
	c0-2.1-1.9-2.9-3.3-3.3l-1.1-0.3c-0.9-0.2-2.1-0.7-2.1-1.8c0-1,0.9-1.7,2.3-1.7C1068,722.5,1068.9,723.1,1069,724.2z"/>
<path class="st2" d="M128,669.3c0-17.9,14.5-32.5,32.5-32.5h127.1c17.9,0,32.5,14.5,32.5,32.5v16.2c0,17.9-14.5,32.5-32.5,32.5
	H160.5c-17.9,0-32.5-14.5-32.5-32.5V669.3z"/>
<path class="st1" d="M247.6,682.3v-8.6h2c2.5,0,3.9,1.5,3.9,4.3c0,2.8-1.3,4.3-4,4.3H247.6z M249.6,683.8c3.5,0,5.6-2.2,5.6-5.8
	c0-3.6-2.1-5.8-5.5-5.8h-3.9v11.6H249.6z M243.5,672.2h-1.8v11.6h1.8V672.2z M240.6,683.8h-7.4v1.4h7.4V683.8z M226.1,677.9v-4.2
	h2.2c1.7,0,2.4,0.8,2.4,2.1c0,1.3-0.7,2.1-2.4,2.1H226.1z M224.4,683.8h1.8v-4.4h2.4c0,0,0.1,0,0.1,0l2.4,4.4h2l-2.6-4.7
	c1.4-0.5,2.1-1.7,2.1-3.3c0-2.1-1.3-3.6-4-3.6h-4.1V683.8z M214.9,683.8h7.4v-1.5h-5.6v-3.6h5.2v-1.5h-5.2v-3.5h5.5v-1.5h-7.3V683.8
	z M211.1,675.2h1.7c-0.1-1.9-1.7-3.2-4.1-3.2c-2.3,0-4.1,1.3-4.1,3.3c0,1.6,1.2,2.6,3,3.1l1.4,0.4c1.2,0.3,2.2,0.7,2.2,1.8
	c0,1.1-1.1,1.9-2.6,1.9c-1.4,0-2.5-0.6-2.6-1.9h-1.8c0.1,2.1,1.7,3.4,4.4,3.4c2.7,0,4.3-1.4,4.3-3.4c0-2.1-1.9-2.9-3.3-3.3l-1.1-0.3
	c-0.9-0.2-2.1-0.7-2.1-1.8c0-1,0.9-1.7,2.3-1.7C210.1,673.5,211,674.1,211.1,675.2z M200.7,672.2v7.5c0,1.6-1.1,2.7-2.9,2.7
	c-1.8,0-2.9-1.1-2.9-2.7v-7.5h-1.8v7.7c0,2.4,1.8,4.2,4.6,4.2c2.8,0,4.6-1.7,4.6-4.2v-7.7H200.7z"/>
<path class="st2" d="M128,252.3c0-17.9,14.5-32.5,32.5-32.5h127.1c17.9,0,32.5,14.5,32.5,32.5v16.2c0,17.9-14.5,32.5-32.5,32.5
	H160.5c-17.9,0-32.5-14.5-32.5-32.5V252.3z"/>
<path class="st1" d="M242.6,265.3v-8.6h2c2.5,0,3.9,1.5,3.9,4.3c0,2.8-1.3,4.3-4,4.3H242.6z M244.6,266.8c3.5,0,5.6-2.2,5.6-5.8
	c0-3.6-2.1-5.8-5.5-5.8h-3.9v11.6H244.6z M238.5,255.2h-1.8v11.6h1.8V255.2z M235.6,266.8h-7.4v1.4h7.4V266.8z M225.6,258.8h1.8
	c-0.4-2.3-2.3-3.8-4.8-3.8c-3,0-5.2,2.3-5.2,6c0,3.7,2.1,6,5.3,6c2.8,0,4.8-1.9,4.8-4.8v-1.3h-4.6v1.4h2.9c0,1.9-1.3,3.1-3.1,3.1
	c-2.1,0-3.5-1.6-3.5-4.4c0-2.8,1.5-4.4,3.5-4.4C224.1,256.6,225.2,257.5,225.6,258.8z M208.3,266.8h7.4v-1.5H210v-3.6h5.2v-1.5H210
	v-3.5h5.5v-1.5h-7.3V266.8z M199.9,260.9v-4.2h2.2c1.7,0,2.4,0.8,2.4,2.1c0,1.3-0.7,2.1-2.4,2.1H199.9z M198.1,266.8h1.8v-4.4h2.4
	c0,0,0.1,0,0.1,0l2.4,4.4h2l-2.6-4.7c1.4-0.5,2.1-1.7,2.1-3.3c0-2.1-1.3-3.6-4-3.6h-4.1V266.8z"/>
<path class="st2" d="M983,505.3c0-17.9,14.5-32.5,32.5-32.5h136.1c17.9,0,32.5,14.5,32.5,32.5v16.2c0,17.9-14.5,32.5-32.5,32.5
	h-136.1c-17.9,0-32.5-14.5-32.5-32.5V505.3z"/>
<path class="st1" d="M1107.1,518.3v-8.6h2c2.5,0,3.9,1.5,3.9,4.3c0,2.8-1.3,4.3-4,4.3H1107.1z M1109.1,519.8c3.5,0,5.6-2.2,5.6-5.8
	c0-3.6-2.1-5.8-5.5-5.8h-3.9v11.6H1109.1z M1103,508.2h-1.8v11.6h1.8V508.2z M1100.1,519.8h-7.4v1.4h7.4V519.8z M1085.6,513.9v-4.2
	h2.2c1.7,0,2.4,0.8,2.4,2.1c0,1.3-0.7,2.1-2.4,2.1H1085.6z M1083.9,519.8h1.8v-4.4h2.4c0,0,0.1,0,0.1,0l2.4,4.4h2l-2.6-4.7
	c1.4-0.5,2.1-1.7,2.1-3.3c0-2.1-1.3-3.6-4-3.6h-4.1V519.8z M1074.4,519.8h7.4v-1.5h-5.6v-3.6h5.2v-1.5h-5.2v-3.5h5.5v-1.5h-7.3
	V519.8z M1070.6,511.2h1.7c-0.1-1.9-1.7-3.2-4.1-3.2c-2.3,0-4.1,1.3-4.1,3.3c0,1.6,1.2,2.6,3,3.1l1.4,0.4c1.2,0.3,2.2,0.7,2.2,1.8
	c0,1.1-1.1,1.9-2.6,1.9c-1.4,0-2.5-0.6-2.6-1.9h-1.8c0.1,2.1,1.7,3.4,4.4,3.4c2.7,0,4.3-1.4,4.3-3.4c0-2.1-1.9-2.9-3.3-3.3l-1.1-0.3
	c-0.9-0.2-2.1-0.7-2.1-1.8c0-1,0.9-1.7,2.3-1.7C1069.6,509.5,1070.5,510.1,1070.6,511.2z M1060.2,508.2v7.5c0,1.6-1.1,2.7-2.9,2.7
	c-1.8,0-2.9-1.1-2.9-2.7v-7.5h-1.8v7.7c0,2.4,1.8,4.2,4.6,4.2s4.6-1.7,4.6-4.2v-7.7H1060.2z"/>
<path class="st3" d="M999,814.6c0-18.1,14.7-32.8,32.8-32.8h119.4c18.1,0,32.8,14.7,32.8,32.8V831c0,18.1-14.7,32.8-32.8,32.8
	h-119.4c-18.1,0-32.8-14.7-32.8-32.8V814.6z"/>
<path class="st1" d="M1128.7,828.8h7.4v-1.5h-5.6v-3.6h5.2v-1.5h-5.2v-3.5h5.5v-1.5h-7.3V828.8z M1114.5,817.2v11.6h1.7v-8.4h0.1
	l3.4,8.4h1.4l3.4-8.4h0.1v8.4h1.7v-11.6h-2.1l-3.7,9h-0.1l-3.7-9H1114.5z M1106,824.2l1.7-5h0.1l1.7,5H1106z M1104.5,828.8l1.1-3.1
	h4.5l1.1,3.1h1.9l-4.2-11.6h-2l-4.2,11.6H1104.5z M1101.1,817.2h-1.7v8.5h-0.1l-5.9-8.5h-1.6v11.6h1.8v-8.5h0.1l5.9,8.5h1.6V817.2z
	 M1090.6,828.8h-7.4v1.4h7.4V828.8z M1075.7,828.8h7v-1.5h-5.3v-10.1h-1.8V828.8z M1066.8,828.8h7v-1.5h-5.3v-10.1h-1.8V828.8z
	 M1057.3,828.8h7.4v-1.5h-5.6v-3.6h5.2v-1.5h-5.2v-3.5h5.5v-1.5h-7.3V828.8z M1053.6,820.2h1.7c-0.1-1.9-1.7-3.2-4.1-3.2
	c-2.3,0-4.1,1.3-4.1,3.3c0,1.6,1.2,2.6,3,3.1l1.4,0.4c1.2,0.3,2.2,0.7,2.2,1.8c0,1.1-1.1,1.9-2.6,1.9c-1.4,0-2.5-0.6-2.6-1.9h-1.8
	c0.1,2.1,1.7,3.4,4.4,3.4c2.7,0,4.3-1.4,4.3-3.4c0-2.1-1.9-2.9-3.3-3.3l-1.1-0.3c-0.9-0.2-2.1-0.7-2.1-1.8c0-1,0.9-1.7,2.3-1.7
	C1052.5,818.5,1053.4,819.1,1053.6,820.2z"/>
<path class="st3" d="M128,765.7c0-18.1,14.7-32.8,32.8-32.8h126.4c18.1,0,32.8,14.7,32.8,32.8v16.4c0,18.1-14.7,32.8-32.8,32.8
	H160.8c-18.1,0-32.8-14.7-32.8-32.8V765.7z"/>
<path class="st1" d="M263.2,779.9h7.4v-1.5H265v-3.6h5.2v-1.5H265v-3.5h5.5v-1.5h-7.3V779.9z M249,768.3v11.6h1.7v-8.4h0.1l3.4,8.4
	h1.4l3.4-8.4h0.1v8.4h1.7v-11.6h-2.1l-3.7,9h-0.1l-3.7-9H249z M240.6,775.4l1.7-5h0.1l1.7,5H240.6z M239,779.9l1.1-3.1h4.5l1.1,3.1
	h1.9l-4.2-11.6h-2l-4.2,11.6H239z M235.6,768.3h-1.7v8.5h-0.1l-5.9-8.5h-1.6v11.6h1.8v-8.5h0.1l5.9,8.5h1.6V768.3z M225.1,779.9
	h-7.4v1.4h7.4V779.9z M210.7,774v-4.2h2.2c1.7,0,2.4,0.8,2.4,2.1c0,1.3-0.7,2.1-2.4,2.1H210.7z M208.9,779.9h1.8v-4.4h2.4
	c0,0,0.1,0,0.1,0l2.4,4.4h2l-2.6-4.7c1.4-0.5,2.1-1.7,2.1-3.3c0-2.1-1.3-3.6-4-3.6h-4.1V779.9z M199.4,779.9h7.4v-1.5h-5.6v-3.6h5.2
	v-1.5h-5.2v-3.5h5.5v-1.5h-7.3V779.9z M195.7,771.4h1.7c-0.1-1.9-1.7-3.2-4.1-3.2c-2.3,0-4.1,1.3-4.1,3.3c0,1.6,1.2,2.6,3,3.1
	l1.4,0.4c1.2,0.3,2.2,0.7,2.2,1.8c0,1.1-1.1,1.9-2.6,1.9c-1.4,0-2.5-0.6-2.6-1.9h-1.8c0.1,2.1,1.7,3.4,4.4,3.4
	c2.7,0,4.3-1.4,4.3-3.4c0-2.1-1.9-2.9-3.3-3.3l-1.1-0.3c-0.9-0.2-2.1-0.7-2.1-1.8c0-1,0.9-1.7,2.3-1.7
	C194.6,769.7,195.5,770.3,195.7,771.4z M185.2,768.3v7.5c0,1.6-1.1,2.7-2.9,2.7c-1.8,0-2.9-1.1-2.9-2.7v-7.5h-1.8v7.7
	c0,2.4,1.8,4.2,4.6,4.2c2.8,0,4.6-1.7,4.6-4.2v-7.7H185.2z"/>
<path class="st3" d="M128,348.6c0-18.1,14.7-32.8,32.8-32.8h126.4c18.1,0,32.8,14.7,32.8,32.8V365c0,18.1-14.7,32.8-32.8,32.8H160.8
	c-18.1,0-32.8-14.7-32.8-32.8V348.6z"/>
<path class="st1" d="M249.1,351.2v11.6h1.7v-8.4h0.1l3.4,8.4h1.4l3.4-8.4h0.1v8.4h1.7v-11.6h-2.1l-3.7,9h-0.1l-3.7-9H249.1z
	 M245,351.2v7.5c0,1.6-1.1,2.7-2.9,2.7c-1.8,0-2.9-1.1-2.9-2.7v-7.5h-1.8v7.7c0,2.4,1.8,4.2,4.6,4.2c2.8,0,4.6-1.7,4.6-4.2v-7.7H245
	z M235.1,351.2h-1.7v8.5h-0.1l-5.9-8.5h-1.6v11.6h1.8v-8.5h0.1l5.9,8.5h1.6V351.2z M224.6,362.8h-7.4v1.4h7.4V362.8z M214.6,354.8
	h1.8c-0.4-2.3-2.3-3.8-4.8-3.8c-3,0-5.2,2.3-5.2,6c0,3.7,2.1,6,5.3,6c2.8,0,4.8-1.9,4.8-4.8v-1.3h-4.6v1.4h2.9
	c0,1.9-1.3,3.1-3.1,3.1c-2.1,0-3.5-1.6-3.5-4.4c0-2.8,1.5-4.4,3.5-4.4C213.1,352.6,214.1,353.5,214.6,354.8z M197.2,362.8h7.4v-1.5
	H199v-3.6h5.2v-1.5H199v-3.5h5.5v-1.5h-7.3V362.8z M188.9,356.9v-4.2h2.2c1.7,0,2.4,0.8,2.4,2.1c0,1.3-0.7,2.1-2.4,2.1H188.9z
	 M187.1,362.8h1.8v-4.4h2.4c0,0,0.1,0,0.1,0l2.4,4.4h2l-2.6-4.7c1.4-0.5,2.1-1.7,2.1-3.3c0-2.1-1.3-3.6-4-3.6h-4.1V362.8z"/>
<path class="st3" d="M983,601.7c0-18.1,14.7-32.8,32.8-32.8h135.4c18.1,0,32.8,14.7,32.8,32.8v16.4c0,18.1-14.7,32.8-32.8,32.8
	h-135.4c-18.1,0-32.8-14.7-32.8-32.8V601.7z"/>
<path class="st1" d="M1119.3,614.4v-8.6h2c2.5,0,3.9,1.5,3.9,4.3c0,2.8-1.3,4.3-4,4.3H1119.3z M1121.3,615.9c3.5,0,5.6-2.2,5.6-5.8
	c0-3.6-2.1-5.8-5.5-5.8h-3.9v11.6H1121.3z M1109.2,610v-4.2h2.2c1.7,0,2.4,0.8,2.4,2.1c0,1.3-0.7,2.1-2.4,2.1H1109.2z M1107.4,615.9
	h1.8v-4.4h2.4c0,0,0.1,0,0.1,0l2.4,4.4h2l-2.6-4.7c1.4-0.5,2.1-1.7,2.1-3.3c0-2.1-1.3-3.6-4-3.6h-4.1V615.9z M1103.7,610.1
	c0,2.8-1.5,4.4-3.5,4.4c-2,0-3.5-1.5-3.5-4.4c0-2.8,1.5-4.4,3.5-4.4C1102.2,605.7,1103.7,607.3,1103.7,610.1z M1105.4,610.1
	c0-3.7-2.2-6-5.2-6c-3,0-5.2,2.3-5.2,6c0,3.7,2.2,6,5.2,6C1103.2,616.1,1105.4,613.8,1105.4,610.1z M1082.7,615.9h1.8l2.4-8.7h0.1
	l2.4,8.7h1.8l3.2-11.6h-1.9l-2.3,9h-0.1l-2.4-9h-1.8l-2.4,9h-0.1l-2.3-9h-1.8L1082.7,615.9z M1076.7,607.4h1.7
	c-0.1-1.9-1.7-3.2-4.1-3.2c-2.3,0-4.1,1.3-4.1,3.3c0,1.6,1.2,2.6,3,3.1l1.4,0.4c1.2,0.3,2.2,0.7,2.2,1.8c0,1.1-1.1,1.9-2.6,1.9
	c-1.4,0-2.5-0.6-2.6-1.9h-1.8c0.1,2.1,1.7,3.4,4.4,3.4c2.7,0,4.3-1.4,4.3-3.4c0-2.1-1.9-2.9-3.3-3.3l-1.1-0.3
	c-0.9-0.2-2.1-0.7-2.1-1.8c0-1,0.9-1.7,2.3-1.7C1075.6,605.7,1076.5,606.3,1076.7,607.4z M1066.5,607.4h1.7
	c-0.1-1.9-1.7-3.2-4.1-3.2c-2.3,0-4.1,1.3-4.1,3.3c0,1.6,1.2,2.6,3,3.1l1.4,0.4c1.2,0.3,2.2,0.7,2.2,1.8c0,1.1-1.1,1.9-2.6,1.9
	c-1.4,0-2.5-0.6-2.6-1.9h-1.8c0.1,2.1,1.7,3.4,4.4,3.4c2.7,0,4.3-1.4,4.3-3.4c0-2.1-1.9-2.9-3.3-3.3l-1.1-0.3
	c-0.9-0.2-2.1-0.7-2.1-1.8c0-1,0.9-1.7,2.3-1.7C1065.5,605.7,1066.4,606.3,1066.5,607.4z M1051.8,611.4l1.7-5h0.1l1.7,5H1051.8z
	 M1050.2,615.9l1.1-3.1h4.5l1.1,3.1h1.9l-4.2-11.6h-2l-4.2,11.6H1050.2z M1042.2,610.4v-4.6h2.2c1.7,0,2.4,0.9,2.4,2.3
	s-0.7,2.3-2.4,2.3H1042.2z M1040.4,615.9h1.8v-4.1h2.4c2.7,0,4-1.6,4-3.8c0-2.1-1.3-3.8-4-3.8h-4.1V615.9z"/>
<path class="st3" d="M999,911.6c0-18.1,14.7-32.8,32.8-32.8h119.4c18.1,0,32.8,14.7,32.8,32.8V928c0,18.1-14.7,32.8-32.8,32.8
	h-119.4c-18.1,0-32.8-14.7-32.8-32.8V911.6z"/>
<path class="st1" d="M1122.2,924.3v-8.6h2c2.5,0,3.9,1.5,3.9,4.3c0,2.8-1.3,4.3-4,4.3H1122.2z M1124.2,925.8c3.5,0,5.6-2.2,5.6-5.8
	c0-3.6-2.1-5.8-5.5-5.8h-3.9v11.6H1124.2z M1110.8,924.3v-8.6h2c2.5,0,3.9,1.5,3.9,4.3c0,2.8-1.3,4.3-4,4.3H1110.8z M1112.8,925.8
	c3.5,0,5.6-2.2,5.6-5.8c0-3.6-2.1-5.8-5.5-5.8h-3.9v11.6H1112.8z M1100.6,921.2l1.7-5h0.1l1.7,5H1100.6z M1099,925.8l1.1-3.1h4.5
	l1.1,3.1h1.9l-4.2-11.6h-2l-4.2,11.6H1099z M1097,925.8h-7.4v1.4h7.4V925.8z M1082,925.8h7v-1.5h-5.3v-10.1h-1.8V925.8z
	 M1073.2,925.8h7v-1.5h-5.3v-10.1h-1.8V925.8z M1063.7,925.8h7.4v-1.5h-5.6v-3.6h5.2v-1.5h-5.2v-3.5h5.5v-1.5h-7.3V925.8z
	 M1059.9,917.2h1.7c-0.1-1.9-1.7-3.2-4.1-3.2c-2.3,0-4.1,1.3-4.1,3.3c0,1.6,1.2,2.6,3,3.1l1.4,0.4c1.2,0.3,2.2,0.7,2.2,1.8
	c0,1.1-1.1,1.9-2.6,1.9c-1.4,0-2.5-0.6-2.6-1.9h-1.8c0.1,2.1,1.7,3.4,4.4,3.4c2.7,0,4.3-1.4,4.3-3.4c0-2.1-1.9-2.9-3.3-3.3l-1.1-0.3
	c-0.9-0.2-2.1-0.7-2.1-1.8c0-1,0.9-1.7,2.3-1.7C1058.8,915.5,1059.8,916.1,1059.9,917.2z"/>
<path class="st3" d="M128,862.7c0-18.1,14.7-32.8,32.8-32.8h126.4c18.1,0,32.8,14.7,32.8,32.8v16.4c0,18.1-14.7,32.8-32.8,32.8
	H160.8c-18.1,0-32.8-14.7-32.8-32.8V862.7z"/>
<path class="st1" d="M264.4,876.9h7v-1.5h-5.3v-10.1h-1.8V876.9z M262.1,865.3h-1.8v11.6h1.8V865.3z M251.8,872.4l1.7-5h0.1l1.7,5
	H251.8z M250.3,876.9l1.1-3.1h4.5l1.1,3.1h1.9l-4.2-11.6h-2l-4.2,11.6H250.3z M235.1,865.3v11.6h1.7v-8.4h0.1l3.4,8.4h1.4l3.4-8.4
	h0.1v8.4h1.7v-11.6h-2.1l-3.7,9h-0.1l-3.7-9H235.1z M225.6,876.9h7.4v-1.5h-5.6v-3.6h5.2v-1.5h-5.2v-3.5h5.5v-1.5h-7.3V876.9z
	 M224.5,876.9h-7.4v1.4h7.4V876.9z M210.1,871v-4.2h2.2c1.7,0,2.4,0.8,2.4,2.1c0,1.3-0.7,2.1-2.4,2.1H210.1z M208.3,876.9h1.8v-4.4
	h2.4c0,0,0.1,0,0.1,0l2.4,4.4h2l-2.6-4.7c1.4-0.5,2.1-1.7,2.1-3.3c0-2.1-1.3-3.6-4-3.6h-4.1V876.9z M198.8,876.9h7.4v-1.5h-5.6v-3.6
	h5.2v-1.5h-5.2v-3.5h5.5v-1.5h-7.3V876.9z M195.1,868.4h1.7c-0.1-1.9-1.7-3.2-4.1-3.2c-2.3,0-4.1,1.3-4.1,3.3c0,1.6,1.2,2.6,3,3.1
	l1.4,0.4c1.2,0.3,2.2,0.7,2.2,1.8c0,1.1-1.1,1.9-2.6,1.9c-1.4,0-2.5-0.6-2.6-1.9h-1.8c0.1,2.1,1.7,3.4,4.4,3.4
	c2.7,0,4.3-1.4,4.3-3.4c0-2.1-1.9-2.9-3.3-3.3l-1.1-0.3c-0.9-0.2-2.1-0.7-2.1-1.8c0-1,0.9-1.7,2.3-1.7
	C194,866.7,194.9,867.3,195.1,868.4z M184.6,865.3v7.5c0,1.6-1.1,2.7-2.9,2.7c-1.8,0-2.9-1.1-2.9-2.7v-7.5h-1.8v7.7
	c0,2.4,1.8,4.2,4.6,4.2c2.8,0,4.6-1.7,4.6-4.2v-7.7H184.6z"/>
<path class="st3" d="M128,445.6c0-18.1,14.7-32.8,32.8-32.8h126.4c18.1,0,32.8,14.7,32.8,32.8V462c0,18.1-14.7,32.8-32.8,32.8H160.8
	c-18.1,0-32.8-14.7-32.8-32.8V445.6z"/>
<path class="st1" d="M258.2,459.8h7.4v-1.5H260v-3.6h5.2v-1.5H260v-3.5h5.5v-1.5h-7.3V459.8z M244.1,448.2v11.6h1.7v-8.4h0.1
	l3.4,8.4h1.4l3.4-8.4h0.1v8.4h1.7v-11.6h-2.1l-3.7,9h-0.1l-3.7-9H244.1z M235.6,455.2l1.7-5h0.1l1.7,5H235.6z M234,459.8l1.1-3.1
	h4.5l1.1,3.1h1.9l-4.2-11.6h-2l-4.2,11.6H234z M230.7,448.2h-1.7v8.5h-0.1l-5.9-8.5h-1.6v11.6h1.8v-8.5h0.1l5.9,8.5h1.6V448.2z
	 M220.2,459.8h-7.4v1.4h7.4V459.8z M210.1,451.8h1.8c-0.4-2.3-2.3-3.8-4.8-3.8c-3,0-5.2,2.3-5.2,6c0,3.7,2.1,6,5.3,6
	c2.8,0,4.8-1.9,4.8-4.8v-1.3h-4.6v1.4h2.9c0,1.9-1.3,3.1-3.1,3.1c-2.1,0-3.5-1.6-3.5-4.4c0-2.8,1.5-4.4,3.5-4.4
	C208.7,449.6,209.7,450.5,210.1,451.8z M192.8,459.8h7.4v-1.5h-5.6v-3.6h5.2v-1.5h-5.2v-3.5h5.5v-1.5h-7.3V459.8z M184.4,453.9v-4.2
	h2.2c1.7,0,2.4,0.8,2.4,2.1c0,1.3-0.7,2.1-2.4,2.1H184.4z M182.7,459.8h1.8v-4.4h2.4c0,0,0.1,0,0.1,0l2.4,4.4h2l-2.6-4.7
	c1.4-0.5,2.1-1.7,2.1-3.3c0-2.1-1.3-3.6-4-3.6h-4.1V459.8z"/>
<path class="st3" d="M128,959.7c0-18.1,14.7-32.8,32.8-32.8h126.4c18.1,0,32.8,14.7,32.8,32.8v16.4c0,18.1-14.7,32.8-32.8,32.8
	H160.8c-18.1,0-32.8-14.7-32.8-32.8V959.7z"/>
<path class="st1" d="M282.5,965.4h1.7c-0.1-1.9-1.7-3.2-4.1-3.2c-2.3,0-4.1,1.3-4.1,3.3c0,1.6,1.2,2.6,3,3.1l1.4,0.4
	c1.2,0.3,2.2,0.7,2.2,1.8c0,1.1-1.1,1.9-2.6,1.9c-1.4,0-2.5-0.6-2.6-1.9h-1.8c0.1,2.1,1.7,3.4,4.4,3.4c2.7,0,4.3-1.4,4.3-3.4
	c0-2.1-1.9-2.9-3.3-3.3l-1.1-0.3c-0.9-0.2-2.1-0.7-2.1-1.8c0-1,0.9-1.7,2.3-1.7C281.4,963.7,282.4,964.3,282.5,965.4z M272.4,965.4
	h1.7c-0.1-1.9-1.7-3.2-4.1-3.2c-2.3,0-4.1,1.3-4.1,3.3c0,1.6,1.2,2.6,3,3.1l1.4,0.4c1.2,0.3,2.2,0.7,2.2,1.8c0,1.1-1.1,1.9-2.6,1.9
	c-1.4,0-2.5-0.6-2.6-1.9h-1.8c0.1,2.1,1.7,3.4,4.4,3.4c2.7,0,4.3-1.4,4.3-3.4c0-2.1-1.9-2.9-3.3-3.3l-1.1-0.3
	c-0.9-0.2-2.1-0.7-2.1-1.8c0-1,0.9-1.7,2.3-1.7C271.3,963.7,272.2,964.3,272.4,965.4z M256.6,973.9h7.4v-1.5h-5.6v-3.6h5.2v-1.5
	h-5.2v-3.5h5.5v-1.5h-7.3V973.9z M248.2,968v-4.2h2.2c1.7,0,2.4,0.8,2.4,2.1c0,1.3-0.7,2.1-2.4,2.1H248.2z M246.4,973.9h1.8v-4.4
	h2.4c0,0,0.1,0,0.1,0l2.4,4.4h2l-2.6-4.7c1.4-0.5,2.1-1.7,2.1-3.3c0-2.1-1.3-3.6-4-3.6h-4.1V973.9z M236.8,972.4v-8.6h2
	c2.5,0,3.9,1.5,3.9,4.3c0,2.8-1.3,4.3-4,4.3H236.8z M238.8,973.9c3.5,0,5.6-2.2,5.6-5.8c0-3.6-2.1-5.8-5.5-5.8H235v11.6H238.8z
	 M225.4,972.4v-8.6h2c2.5,0,3.9,1.5,3.9,4.3c0,2.8-1.3,4.3-4,4.3H225.4z M227.4,973.9c3.5,0,5.6-2.2,5.6-5.8c0-3.6-2.1-5.8-5.5-5.8
	h-3.9v11.6H227.4z M215.2,969.4l1.7-5h0.1l1.7,5H215.2z M213.6,973.9l1.1-3.1h4.5l1.1,3.1h1.9l-4.2-11.6h-2l-4.2,11.6H213.6z
	 M211.6,973.9h-7.4v1.4h7.4V973.9z M197.1,968v-4.2h2.2c1.7,0,2.4,0.8,2.4,2.1c0,1.3-0.7,2.1-2.4,2.1H197.1z M195.3,973.9h1.8v-4.4
	h2.4c0,0,0.1,0,0.1,0l2.4,4.4h2l-2.6-4.7c1.4-0.5,2.1-1.7,2.1-3.3c0-2.1-1.3-3.6-4-3.6h-4.1V973.9z M185.9,973.9h7.4v-1.5h-5.6v-3.6
	h5.2v-1.5h-5.2v-3.5h5.5v-1.5h-7.3V973.9z M182.1,965.4h1.7c-0.1-1.9-1.7-3.2-4.1-3.2c-2.3,0-4.1,1.3-4.1,3.3c0,1.6,1.2,2.6,3,3.1
	l1.4,0.4c1.2,0.3,2.2,0.7,2.2,1.8c0,1.1-1.1,1.9-2.6,1.9c-1.4,0-2.5-0.6-2.6-1.9h-1.8c0.1,2.1,1.7,3.4,4.4,3.4
	c2.7,0,4.3-1.4,4.3-3.4c0-2.1-1.9-2.9-3.3-3.3l-1.1-0.3c-0.9-0.2-2.1-0.7-2.1-1.8c0-1,0.9-1.7,2.3-1.7
	C181,963.7,182,964.3,182.1,965.4z M171.6,962.3v7.5c0,1.6-1.1,2.7-2.9,2.7c-1.8,0-2.9-1.1-2.9-2.7v-7.5h-1.8v7.7
	c0,2.4,1.8,4.2,4.6,4.2c2.8,0,4.6-1.7,4.6-4.2v-7.7H171.6z"/>
<path class="st3" d="M128,542.6c0-18.1,14.7-32.8,32.8-32.8h126.4c18.1,0,32.8,14.7,32.8,32.8V559c0,18.1-14.7,32.8-32.8,32.8H160.8
	c-18.1,0-32.8-14.7-32.8-32.8V542.6z"/>
<path class="st1" d="M254.8,556.8h7.4v-1.5h-5.6v-3.6h5.2v-1.5h-5.2v-3.5h5.5v-1.5h-7.3V556.8z M246.5,551.2v-4.6h2.2
	c1.7,0,2.4,0.9,2.4,2.3c0,1.3-0.7,2.3-2.4,2.3H246.5z M244.8,556.8h1.8v-4.1h2.4c2.7,0,4-1.6,4-3.8c0-2.1-1.3-3.8-4-3.8h-4.1V556.8z
	 M233.1,545.2l4.2,7.1v4.6h1.8v-4.6l4.2-7.1h-2l-3,5.3h-0.1l-3-5.3H233.1z M223.2,546.7h3.6v10.1h1.8v-10.1h3.6v-1.5h-9V546.7z
	 M223.6,556.8h-7.4v1.4h7.4V556.8z M213.6,548.8h1.8c-0.4-2.3-2.3-3.8-4.8-3.8c-3,0-5.2,2.3-5.2,6c0,3.7,2.1,6,5.3,6
	c2.8,0,4.8-1.9,4.8-4.8v-1.3h-4.6v1.4h2.9c0,1.9-1.3,3.1-3.1,3.1c-2.1,0-3.5-1.6-3.5-4.4c0-2.8,1.5-4.4,3.5-4.4
	C212.1,546.6,213.1,547.5,213.6,548.8z M196.2,556.8h7.4v-1.5H198v-3.6h5.2v-1.5H198v-3.5h5.5v-1.5h-7.3V556.8z M187.8,550.9v-4.2
	h2.2c1.7,0,2.4,0.8,2.4,2.1c0,1.3-0.7,2.1-2.4,2.1H187.8z M186.1,556.8h1.8v-4.4h2.4c0,0,0.1,0,0.1,0l2.4,4.4h2l-2.6-4.7
	c1.4-0.5,2.1-1.7,2.1-3.3c0-2.1-1.3-3.6-4-3.6h-4.1V556.8z"/>
<path class="st3" d="M128,1182.6c0-18.1,14.7-32.8,32.8-32.8h126.4c18.1,0,32.8,14.7,32.8,32.8v16.4c0,18.1-14.7,32.8-32.8,32.8
	H160.8c-18.1,0-32.8-14.7-32.8-32.8V1182.6z"/>
<path class="st1" d="M258.4,1196.8h7.4v-1.5h-5.6v-3.6h5.2v-1.5h-5.2v-3.5h5.5v-1.5h-7.3V1196.8z M244.2,1185.2v11.6h1.7v-8.4h0.1
	l3.4,8.4h1.4l3.4-8.4h0.1v8.4h1.7v-11.6h-2.1l-3.7,9H250l-3.7-9H244.2z M235.7,1192.2l1.7-5h0.1l1.7,5H235.7z M234.2,1196.8l1.1-3.1
	h4.5l1.1,3.1h1.9l-4.2-11.6h-2l-4.2,11.6H234.2z M230.8,1185.2H229v8.5h-0.1l-5.9-8.5h-1.6v11.6h1.8v-8.5h0.1l5.9,8.5h1.6V1185.2z
	 M220.3,1196.8h-7.4v1.4h7.4V1196.8z M211.1,1191c0,2.8-1.5,4.4-3.5,4.4c-2,0-3.5-1.5-3.5-4.4c0-2.8,1.5-4.4,3.5-4.4
	C209.6,1186.6,211.1,1188.1,211.1,1191z M212.8,1191c0-3.7-2.2-6-5.2-6c-3,0-5.2,2.3-5.2,6c0,3.7,2.2,6,5.2,6
	C210.6,1197,212.8,1194.7,212.8,1191z M194.3,1190.9v-4.2h2.2c1.7,0,2.4,0.8,2.4,2.1c0,1.3-0.7,2.1-2.4,2.1H194.3z M192.6,1196.8
	h1.8v-4.4h2.4c0,0,0.1,0,0.1,0l2.4,4.4h2l-2.6-4.7c1.4-0.5,2.1-1.7,2.1-3.3c0-2.1-1.3-3.6-4-3.6h-4.1V1196.8z M184.3,1191.2v-4.6
	h2.2c1.7,0,2.4,0.9,2.4,2.3c0,1.3-0.7,2.3-2.4,2.3H184.3z M182.5,1196.8h1.8v-4.1h2.4c2.7,0,4-1.6,4-3.8c0-2.1-1.3-3.8-4-3.8h-4.1
	V1196.8z"/>
<path class="st3" d="M128,1279.6c0-18.1,14.7-32.8,32.8-32.8h126.4c18.1,0,32.8,14.7,32.8,32.8v16.4c0,18.1-14.7,32.8-32.8,32.8
	H160.8c-18.1,0-32.8-14.7-32.8-32.8V1279.6z"/>
<path class="st1" d="M258.4,1293.8h7.4v-1.5h-5.6v-3.6h5.2v-1.5h-5.2v-3.5h5.5v-1.5h-7.3V1293.8z M244.2,1282.2v11.6h1.7v-8.4h0.1
	l3.4,8.4h1.4l3.4-8.4h0.1v8.4h1.7v-11.6h-2.1l-3.7,9H250l-3.7-9H244.2z M235.7,1289.2l1.7-5h0.1l1.7,5H235.7z M234.2,1293.8l1.1-3.1
	h4.5l1.1,3.1h1.9l-4.2-11.6h-2l-4.2,11.6H234.2z M230.8,1282.2H229v8.5h-0.1l-5.9-8.5h-1.6v11.6h1.8v-8.5h0.1l5.9,8.5h1.6V1282.2z
	 M220.3,1293.8h-7.4v1.4h7.4V1293.8z M211.1,1288c0,2.8-1.5,4.4-3.5,4.4c-2,0-3.5-1.5-3.5-4.4c0-2.8,1.5-4.4,3.5-4.4
	C209.6,1283.6,211.1,1285.1,211.1,1288z M212.8,1288c0-3.7-2.2-6-5.2-6c-3,0-5.2,2.3-5.2,6c0,3.7,2.2,6,5.2,6
	C210.6,1294,212.8,1291.7,212.8,1288z M194.3,1287.9v-4.2h2.2c1.7,0,2.4,0.8,2.4,2.1c0,1.3-0.7,2.1-2.4,2.1H194.3z M192.6,1293.8
	h1.8v-4.4h2.4c0,0,0.1,0,0.1,0l2.4,4.4h2l-2.6-4.7c1.4-0.5,2.1-1.7,2.1-3.3c0-2.1-1.3-3.6-4-3.6h-4.1V1293.8z M184.3,1288.2v-4.6
	h2.2c1.7,0,2.4,0.9,2.4,2.3c0,1.3-0.7,2.3-2.4,2.3H184.3z M182.5,1293.8h1.8v-4.1h2.4c2.7,0,4-1.6,4-3.8c0-2.1-1.3-3.8-4-3.8h-4.1
	V1293.8z"/>
<path class="st3" d="M128,1376.6c0-18.1,14.7-32.8,32.8-32.8h126.4c18.1,0,32.8,14.7,32.8,32.8v16.4c0,18.1-14.7,32.8-32.8,32.8
	H160.8c-18.1,0-32.8-14.7-32.8-32.8V1376.6z"/>
<path class="st1" d="M255,1390.8h7.4v-1.5h-5.6v-3.6h5.2v-1.5h-5.2v-3.5h5.5v-1.5H255V1390.8z M246.7,1385.2v-4.6h2.2
	c1.7,0,2.4,0.9,2.4,2.3c0,1.3-0.7,2.3-2.4,2.3H246.7z M244.9,1390.8h1.8v-4.1h2.4c2.7,0,4-1.6,4-3.8c0-2.1-1.3-3.8-4-3.8h-4.1
	V1390.8z M233.2,1379.2l4.2,7.1v4.6h1.8v-4.6l4.2-7.1h-2l-3,5.3h-0.1l-3-5.3H233.2z M223.3,1380.7h3.6v10.1h1.8v-10.1h3.6v-1.5h-9
	V1380.7z M223.7,1390.8h-7.4v1.4h7.4V1390.8z M214.5,1385c0,2.8-1.5,4.4-3.5,4.4c-2,0-3.5-1.5-3.5-4.4c0-2.8,1.5-4.4,3.5-4.4
	C213,1380.6,214.5,1382.1,214.5,1385z M216.2,1385c0-3.7-2.2-6-5.2-6c-3,0-5.2,2.3-5.2,6c0,3.7,2.2,6,5.2,6
	C214,1391,216.2,1388.7,216.2,1385z M197.8,1384.9v-4.2h2.2c1.7,0,2.4,0.8,2.4,2.1c0,1.3-0.7,2.1-2.4,2.1H197.8z M196,1390.8h1.8
	v-4.4h2.4c0,0,0.1,0,0.1,0l2.4,4.4h2l-2.6-4.7c1.4-0.5,2.1-1.7,2.1-3.3c0-2.1-1.3-3.6-4-3.6H196V1390.8z M187.7,1385.2v-4.6h2.2
	c1.7,0,2.4,0.9,2.4,2.3c0,1.3-0.7,2.3-2.4,2.3H187.7z M185.9,1390.8h1.8v-4.1h2.4c2.7,0,4-1.6,4-3.8c0-2.1-1.3-3.8-4-3.8h-4.1
	V1390.8z"/>
<path class="st3" d="M999,1118.6c0-18.1,14.7-32.8,32.8-32.8h119.4c18.1,0,32.8,14.7,32.8,32.8v16.4c0,18.1-14.7,32.8-32.8,32.8
	h-119.4c-18.1,0-32.8-14.7-32.8-32.8V1118.6z"/>
<path class="st1" d="M1125.6,1132.8h7.4v-1.5h-5.6v-3.6h5.2v-1.5h-5.2v-3.5h5.5v-1.5h-7.3V1132.8z M1111.5,1121.2v11.6h1.7v-8.4h0.1
	l3.4,8.4h1.4l3.4-8.4h0.1v8.4h1.7v-11.6h-2.1l-3.7,9h-0.1l-3.7-9H1111.5z M1103,1128.2l1.7-5h0.1l1.7,5H1103z M1101.4,1132.8
	l1.1-3.1h4.5l1.1,3.1h1.9l-4.2-11.6h-2l-4.2,11.6H1101.4z M1098.1,1121.2h-1.7v8.5h-0.1l-5.9-8.5h-1.6v11.6h1.8v-8.5h0.1l5.9,8.5
	h1.6V1121.2z M1087.6,1132.8h-7.4v1.4h7.4V1132.8z M1073.1,1126.9v-4.2h2.2c1.7,0,2.4,0.8,2.4,2.1c0,1.3-0.7,2.1-2.4,2.1H1073.1z
	 M1071.3,1132.8h1.8v-4.4h2.4c0,0,0.1,0,0.1,0l2.4,4.4h2l-2.6-4.7c1.4-0.5,2.1-1.7,2.1-3.3c0-2.1-1.3-3.6-4-3.6h-4.1V1132.8z
	 M1059.7,1121.2l4.2,7.1v4.6h1.8v-4.6l4.2-7.1h-2l-3,5.3h-0.1l-3-5.3H1059.7z M1052,1126.2v-3.5h2.4c1.4,0,2.1,0.7,2.1,1.7
	c0,1.1-0.9,1.8-2.1,1.8H1052z M1052,1131.3v-3.7h2.6c1.4,0,2.3,0.9,2.3,2c0,1-0.7,1.7-2.4,1.7H1052z M1050.3,1132.8h4.5
	c2.7,0,3.9-1.3,3.9-3.1c0-1.8-1.3-2.8-2.4-2.9v-0.1c1.1-0.3,2-1,2-2.5c0-1.7-1.2-3.1-3.7-3.1h-4.3V1132.8z"/>
<path class="st3" d="M999,1214.6c0-18.1,14.7-32.8,32.8-32.8h119.4c18.1,0,32.8,14.7,32.8,32.8v16.4c0,18.1-14.7,32.8-32.8,32.8
	h-119.4c-18.1,0-32.8-14.7-32.8-32.8V1214.6z"/>
<path class="st1" d="M1131.9,1228.8h7.4v-1.5h-5.6v-3.6h5.2v-1.5h-5.2v-3.5h5.5v-1.5h-7.3V1228.8z M1123.1,1228.8h7v-1.5h-5.3v-10.1
	h-1.8V1228.8z M1120.7,1217.2h-1.8v11.6h1.8V1217.2z M1110.4,1222.2v-3.5h2.4c1.4,0,2.1,0.7,2.1,1.7c0,1.1-0.9,1.8-2.1,1.8H1110.4z
	 M1110.4,1227.3v-3.7h2.6c1.4,0,2.3,0.9,2.3,2c0,1-0.7,1.7-2.4,1.7H1110.4z M1108.7,1228.8h4.5c2.7,0,3.9-1.3,3.9-3.1
	c0-1.8-1.3-2.8-2.4-2.9v-0.1c1.1-0.3,2-1,2-2.5c0-1.7-1.2-3.1-3.7-3.1h-4.3V1228.8z M1104.9,1223c0,2.8-1.5,4.4-3.5,4.4
	c-2,0-3.5-1.5-3.5-4.4c0-2.8,1.5-4.4,3.5-4.4C1103.4,1218.6,1104.9,1220.1,1104.9,1223z M1106.6,1223c0-3.7-2.2-6-5.2-6
	c-3,0-5.2,2.3-5.2,6c0,3.7,2.2,6,5.2,6C1104.4,1229,1106.6,1226.7,1106.6,1223z M1082.4,1217.2v11.6h1.7v-8.4h0.1l3.4,8.4h1.4
	l3.4-8.4h0.1v8.4h1.7v-11.6h-2.1l-3.7,9h-0.1l-3.7-9H1082.4z M1081.3,1228.8h-7.4v1.4h7.4V1228.8z M1066.8,1222.9v-4.2h2.2
	c1.7,0,2.4,0.8,2.4,2.1c0,1.3-0.7,2.1-2.4,2.1H1066.8z M1065,1228.8h1.8v-4.4h2.4c0,0,0.1,0,0.1,0l2.4,4.4h2l-2.6-4.7
	c1.4-0.5,2.1-1.7,2.1-3.3c0-2.1-1.3-3.6-4-3.6h-4.1V1228.8z M1053.4,1217.2l4.2,7.1v4.6h1.8v-4.6l4.2-7.1h-2l-3,5.3h-0.1l-3-5.3
	H1053.4z M1045.7,1222.2v-3.5h2.4c1.4,0,2.1,0.7,2.1,1.7c0,1.1-0.9,1.8-2.1,1.8H1045.7z M1045.7,1227.3v-3.7h2.6
	c1.4,0,2.3,0.9,2.3,2c0,1-0.7,1.7-2.4,1.7H1045.7z M1044,1228.8h4.5c2.7,0,3.9-1.3,3.9-3.1c0-1.8-1.3-2.8-2.4-2.9v-0.1
	c1.1-0.3,2-1,2-2.5c0-1.7-1.2-3.1-3.7-3.1h-4.3V1228.8z"/>
<path class="st3" d="M999,1310.6c0-18.1,14.7-32.8,32.8-32.8h119.4c18.1,0,32.8,14.7,32.8,32.8v16.4c0,18.1-14.7,32.8-32.8,32.8
	h-119.4c-18.1,0-32.8-14.7-32.8-32.8V1310.6z"/>
<path class="st1" d="M1119.2,1323.3v-8.6h2c2.5,0,3.9,1.5,3.9,4.3c0,2.8-1.3,4.3-4,4.3H1119.2z M1121.2,1324.8
	c3.5,0,5.6-2.2,5.6-5.8c0-3.6-2.1-5.8-5.5-5.8h-3.9v11.6H1121.2z M1107.8,1323.3v-8.6h2c2.5,0,3.9,1.5,3.9,4.3c0,2.8-1.3,4.3-4,4.3
	H1107.8z M1109.8,1324.8c3.5,0,5.6-2.2,5.6-5.8c0-3.6-2.1-5.8-5.5-5.8h-3.9v11.6H1109.8z M1097.6,1320.2l1.7-5h0.1l1.7,5H1097.6z
	 M1096,1324.8l1.1-3.1h4.5l1.1,3.1h1.9l-4.2-11.6h-2l-4.2,11.6H1096z M1093.9,1324.8h-7.4v1.4h7.4V1324.8z M1079.4,1318.9v-4.2h2.2
	c1.7,0,2.4,0.8,2.4,2.1c0,1.3-0.7,2.1-2.4,2.1H1079.4z M1077.7,1324.8h1.8v-4.4h2.4c0,0,0.1,0,0.1,0l2.4,4.4h2l-2.6-4.7
	c1.4-0.5,2.1-1.7,2.1-3.3c0-2.1-1.3-3.6-4-3.6h-4.1V1324.8z M1066,1313.2l4.2,7.1v4.6h1.8v-4.6l4.2-7.1h-2l-3,5.3h-0.1l-3-5.3H1066z
	 M1058.4,1318.2v-3.5h2.4c1.4,0,2.1,0.7,2.1,1.7c0,1.1-0.9,1.8-2.1,1.8H1058.4z M1058.4,1323.3v-3.7h2.6c1.4,0,2.3,0.9,2.3,2
	c0,1-0.7,1.7-2.4,1.7H1058.4z M1056.6,1324.8h4.5c2.7,0,3.9-1.3,3.9-3.1c0-1.8-1.3-2.8-2.4-2.9v-0.1c1.1-0.3,2-1,2-2.5
	c0-1.7-1.2-3.1-3.7-3.1h-4.3V1324.8z"/>
<path class="st3" d="M999,1406.6c0-18.1,14.7-32.8,32.8-32.8h119.4c18.1,0,32.8,14.7,32.8,32.8v16.4c0,18.1-14.7,32.8-32.8,32.8
	h-119.4c-18.1,0-32.8-14.7-32.8-32.8V1406.6z"/>
<path class="st1" d="M1128.1,1412.2h1.7c-0.1-1.9-1.7-3.2-4.1-3.2c-2.3,0-4.1,1.3-4.1,3.3c0,1.6,1.2,2.6,3,3.1l1.4,0.4
	c1.2,0.3,2.2,0.7,2.2,1.8c0,1.1-1.1,1.9-2.6,1.9c-1.4,0-2.5-0.6-2.6-1.9h-1.8c0.1,2.1,1.7,3.4,4.4,3.4c2.7,0,4.3-1.4,4.3-3.4
	c0-2.1-1.9-2.9-3.3-3.3l-1.1-0.3c-0.9-0.2-2.1-0.7-2.1-1.8c0-1,0.9-1.7,2.3-1.7C1127,1410.5,1128,1411.1,1128.1,1412.2z
	 M1118,1412.2h1.7c-0.1-1.9-1.7-3.2-4.1-3.2c-2.3,0-4.1,1.3-4.1,3.3c0,1.6,1.2,2.6,3,3.1l1.4,0.4c1.2,0.3,2.2,0.7,2.2,1.8
	c0,1.1-1.1,1.9-2.6,1.9c-1.4,0-2.5-0.6-2.6-1.9h-1.8c0.1,2.1,1.7,3.4,4.4,3.4c2.7,0,4.3-1.4,4.3-3.4c0-2.1-1.9-2.9-3.3-3.3l-1.1-0.3
	c-0.9-0.2-2.1-0.7-2.1-1.8c0-1,0.9-1.7,2.3-1.7C1116.9,1410.5,1117.9,1411.1,1118,1412.2z M1103.3,1416.2l1.7-5h0.1l1.7,5H1103.3z
	 M1101.7,1420.8l1.1-3.1h4.5l1.1,3.1h1.9l-4.2-11.6h-2l-4.2,11.6H1101.7z M1093.6,1415.2v-4.6h2.2c1.7,0,2.4,0.9,2.4,2.3
	c0,1.3-0.7,2.3-2.4,2.3H1093.6z M1091.9,1420.8h1.8v-4.1h2.4c2.7,0,4-1.6,4-3.8c0-2.1-1.3-3.8-4-3.8h-4.1V1420.8z M1090.8,1420.8
	h-7.4v1.4h7.4V1420.8z M1076.3,1414.9v-4.2h2.2c1.7,0,2.4,0.8,2.4,2.1c0,1.3-0.7,2.1-2.4,2.1H1076.3z M1074.6,1420.8h1.8v-4.4h2.4
	c0,0,0.1,0,0.1,0l2.4,4.4h2l-2.6-4.7c1.4-0.5,2.1-1.7,2.1-3.3c0-2.1-1.3-3.6-4-3.6h-4.1V1420.8z M1062.9,1409.2l4.2,7.1v4.6h1.8
	v-4.6l4.2-7.1h-2l-3,5.3h-0.1l-3-5.3H1062.9z M1055.3,1414.2v-3.5h2.4c1.4,0,2.1,0.7,2.1,1.7c0,1.1-0.9,1.8-2.1,1.8H1055.3z
	 M1055.3,1419.3v-3.7h2.6c1.4,0,2.3,0.9,2.3,2c0,1-0.7,1.7-2.4,1.7H1055.3z M1053.5,1420.8h4.5c2.7,0,3.9-1.3,3.9-3.1
	c0-1.8-1.3-2.8-2.4-2.9v-0.1c1.1-0.3,2-1,2-2.5c0-1.7-1.2-3.1-3.7-3.1h-4.3V1420.8z"/>
<path class="st4" d="M927.1,1223.9c14.1,0,25.5-11.4,25.5-25.5h-3c0,12.4-10.1,22.5-22.5,22.5V1223.9z M952.6,1054.4
	c0-12.4,10.1-22.5,22.5-22.5v-3c-14.1,0-25.5,11.4-25.5,25.5H952.6z M975.1,1031.9H995v-3h-19.9V1031.9z M952.6,1198.4v-144h-3v144
	H952.6z M907.1,1223.9h19.9v-3h-19.9V1223.9z M996.1,1031.4c0.6-0.6,0.6-1.5,0-2.1l-9.5-9.5c-0.6-0.6-1.5-0.6-2.1,0
	c-0.6,0.6-0.6,1.5,0,2.1l8.5,8.5l-8.5,8.5c-0.6,0.6-0.6,1.5,0,2.1s1.5,0.6,2.1,0L996.1,1031.4z M907.1,1220.9
	c-0.8,0-1.5,0.7-1.5,1.5c0,0.8,0.7,1.5,1.5,1.5V1220.9z"/>
<path class="st4" d="M927.1,1223.9c14.1,0,25.5-11.4,25.5-25.5h-3c0,12.4-10.1,22.5-22.5,22.5V1223.9z M952.6,1150.8
	c0-12.4,10.1-22.5,22.5-22.5v-3c-14.1,0-25.5,11.4-25.5,25.5H952.6z M975.1,1128.3H995v-3h-19.9V1128.3z M952.6,1198.4v-47.6h-3
	v47.6H952.6z M907.1,1223.9h19.9v-3h-19.9V1223.9z M996.1,1127.9c0.6-0.6,0.6-1.5,0-2.1l-9.5-9.5c-0.6-0.6-1.5-0.6-2.1,0
	c-0.6,0.6-0.6,1.5,0,2.1l8.5,8.5l-8.5,8.5c-0.6,0.6-0.6,1.5,0,2.1c0.6,0.6,1.5,0.6,2.1,0L996.1,1127.9z M907.1,1220.9
	c-0.8,0-1.5,0.7-1.5,1.5s0.7,1.5,1.5,1.5V1220.9z"/>
<path class="st4" d="M950.8,1223.9c-0.7,0-1.3-0.6-1.3-1.3h3c0-0.9-0.8-1.7-1.7-1.7V1223.9z M949.6,1222.6c0,0.9,0.8,1.7,1.7,1.7v-3
	c0.7,0,1.3,0.6,1.3,1.3H949.6z M951.3,1224.3H995v-3h-43.7V1224.3z M907.1,1223.9h43.7v-3h-43.7V1223.9z M996.1,1223.9
	c0.6-0.6,0.6-1.5,0-2.1l-9.5-9.5c-0.6-0.6-1.5-0.6-2.1,0s-0.6,1.5,0,2.1l8.5,8.5l-8.5,8.5c-0.6,0.6-0.6,1.5,0,2.1s1.5,0.6,2.1,0
	L996.1,1223.9z M907.1,1220.9c-0.8,0-1.5,0.7-1.5,1.5c0,0.8,0.7,1.5,1.5,1.5V1220.9z"/>
<path class="st4" d="M927.1,1223.9c12.4,0,22.5,10.1,22.5,22.5h3c0-14.1-11.4-25.5-25.5-25.5V1223.9z M949.6,1294.8
	c0,14.1,11.4,25.5,25.5,25.5v-3c-12.4,0-22.5-10.1-22.5-22.5H949.6z M975.1,1320.3H995v-3h-19.9V1320.3z M949.6,1246.4v48.4h3v-48.4
	H949.6z M907.1,1223.9h19.9v-3h-19.9V1223.9z M996.1,1319.9c0.6-0.6,0.6-1.5,0-2.1l-9.5-9.5c-0.6-0.6-1.5-0.6-2.1,0
	c-0.6,0.6-0.6,1.5,0,2.1l8.5,8.5l-8.5,8.5c-0.6,0.6-0.6,1.5,0,2.1s1.5,0.6,2.1,0L996.1,1319.9z M907.1,1220.9
	c-0.8,0-1.5,0.7-1.5,1.5c0,0.8,0.7,1.5,1.5,1.5V1220.9z"/>
<path class="st4" d="M927.1,1223.9c12.4,0,22.5,10.1,22.5,22.5h3c0-14.1-11.4-25.5-25.5-25.5V1223.9z M949.6,1390.8
	c0,14.1,11.4,25.5,25.5,25.5v-3c-12.4,0-22.5-10.1-22.5-22.5H949.6z M975.1,1416.3H995v-3h-19.9V1416.3z M949.6,1246.4v144.4h3
	v-144.4H949.6z M907.1,1223.9h19.9v-3h-19.9V1223.9z M996.1,1415.9c0.6-0.6,0.6-1.5,0-2.1l-9.5-9.5c-0.6-0.6-1.5-0.6-2.1,0
	s-0.6,1.5,0,2.1l8.5,8.5l-8.5,8.5c-0.6,0.6-0.6,1.5,0,2.1c0.6,0.6,1.5,0.6,2.1,0L996.1,1415.9z M907.1,1220.9
	c-0.8,0-1.5,0.7-1.5,1.5c0,0.8,0.7,1.5,1.5,1.5V1220.9z"/>
<path class="st0" d="M775,784.2c0-1.3,1.1-2.4,2.4-2.4h123.2c1.3,0,2.4,1.1,2.4,2.4v76.3c0,1.3-1.1,2.4-2.4,2.4H777.4
	c-1.3,0-2.4-1.1-2.4-2.4V784.2z"/>
<path class="st1" d="M864.7,822.6c-0.2-1.6-1.5-2.6-3.7-2.6c-2.2,0-3.7,1-3.7,2.7c0,1.3,0.8,2.2,2.5,2.5l1.5,0.3
	c0.8,0.2,1.1,0.4,1.1,0.9c0,0.5-0.6,0.9-1.4,0.9c-0.9,0-1.4-0.4-1.6-1.1l-2.4,0.1c0.2,1.7,1.6,2.7,4,2.7c2.3,0,3.9-1.2,3.9-2.9
	c0-1.3-0.8-2-2.5-2.4l-1.6-0.3c-0.8-0.2-1.1-0.5-1.1-0.9c0-0.5,0.6-0.9,1.3-0.9c0.8,0,1.3,0.5,1.5,1L864.7,822.6z M851.1,828.8h2.4
	v-4.9c0-1.1,0.8-1.8,1.9-1.8c0.3,0,0.8,0.1,1,0.1V820c-0.2-0.1-0.5-0.1-0.8-0.1c-1,0-1.8,0.6-2.1,1.6h-0.1v-1.5h-2.3V828.8z
	 M843.7,823.6c0.1-1,0.8-1.8,1.9-1.8c1.1,0,1.8,0.8,1.8,1.8H843.7z M845.7,829c2.2,0,3.6-1.1,4-2.7l-2.2-0.1c-0.2,0.7-0.9,1-1.7,1
	c-1.2,0-2-0.8-2-2.1v0h5.9v-0.7c0-3-1.8-4.4-4.1-4.4c-2.6,0-4.2,1.8-4.2,4.5C841.3,827.2,843,829,845.7,829z M839.9,817.2h-2.4v11.6
	h2.4V817.2z M835.7,817.2h-2.4v11.6h2.4V817.2z M826,823.6c0.1-1,0.8-1.8,1.9-1.8c1.1,0,1.8,0.8,1.8,1.8H826z M827.9,829
	c2.2,0,3.6-1.1,4-2.7l-2.2-0.1c-0.2,0.7-0.9,1-1.7,1c-1.2,0-2-0.8-2-2.1v0h5.9v-0.7c0-3-1.8-4.4-4.1-4.4c-2.6,0-4.2,1.8-4.2,4.5
	C823.6,827.2,825.2,829,827.9,829z M820,820.5h2.4c0-2.1-1.7-3.5-4.3-3.5c-2.6,0-4.4,1.4-4.4,3.5c0,1.7,1.2,2.7,3.2,3.2l1.3,0.3
	c1.3,0.3,2,0.7,2,1.5c0,0.9-0.8,1.4-2.1,1.4c-1.3,0-2.2-0.6-2.3-1.8h-2.4c0.1,2.5,1.9,3.8,4.7,3.8c2.8,0,4.5-1.4,4.5-3.5
	c0-1.9-1.5-3-3.5-3.4l-1-0.3c-1-0.2-1.9-0.6-1.8-1.4c0-0.8,0.7-1.3,1.9-1.3C819.2,819.1,819.9,819.6,820,820.5z"/>
<path class="st0" d="M400,784.2c0-1.3,1.1-2.4,2.4-2.4h155.1c1.3,0,2.4,1.1,2.4,2.4v76.3c0,1.3-1.1,2.4-2.4,2.4H402.4
	c-1.3,0-2.4-1.1-2.4-2.4V784.2z"/>
<path class="st1" d="M492.5,828.8h2.4v-4.9c0-1.1,0.8-1.8,1.9-1.8c0.3,0,0.8,0.1,1,0.1V820c-0.2-0.1-0.5-0.1-0.8-0.1
	c-1,0-1.8,0.6-2.1,1.6h-0.1v-1.5h-2.3V828.8z M485.2,823.6c0.1-1,0.8-1.8,1.9-1.8c1.1,0,1.8,0.8,1.8,1.8H485.2z M487.1,829
	c2.2,0,3.6-1.1,4-2.7l-2.2-0.1c-0.2,0.7-0.9,1-1.7,1c-1.2,0-2-0.8-2-2.1v0h5.9v-0.7c0-3-1.8-4.4-4.1-4.4c-2.6,0-4.2,1.8-4.2,4.5
	C482.8,827.2,484.4,829,487.1,829z M481.6,822.6c-0.2-1.6-1.5-2.6-3.7-2.6c-2.2,0-3.7,1-3.7,2.7c0,1.3,0.8,2.2,2.5,2.5l1.5,0.3
	c0.8,0.2,1.1,0.4,1.1,0.9c0,0.5-0.6,0.9-1.4,0.9c-0.9,0-1.4-0.4-1.6-1.1l-2.4,0.1c0.2,1.7,1.6,2.7,4,2.7c2.3,0,3.9-1.2,3.9-2.9
	c0-1.3-0.8-2-2.5-2.4l-1.6-0.3c-0.8-0.2-1.1-0.5-1.1-0.9c0-0.5,0.6-0.9,1.3-0.9c0.8,0,1.3,0.5,1.5,1L481.6,822.6z M470.1,817.2v7.3
	c0,1.3-0.9,2.3-2.4,2.3c-1.4,0-2.4-1-2.4-2.3v-7.3h-2.5v7.6c0,2.5,1.9,4.2,4.8,4.2c2.9,0,4.8-1.7,4.8-4.2v-7.6H470.1z"/>
<path class="st0" d="M775,523.2c0-1.3,1.1-2.4,2.4-2.4h123.2c1.3,0,2.4,1.1,2.4,2.4v76.3c0,1.3-1.1,2.4-2.4,2.4H777.4
	c-1.3,0-2.4-1.1-2.4-2.4V523.2z"/>
<path class="st1" d="M853.8,562.8c0-1.1,0.7-1.8,1.7-1.8c1,0,1.6,0.6,1.6,1.7v5.1h2.4v-5.6c0-2-1.2-3.3-3-3.3
	c-1.3,0-2.2,0.6-2.6,1.7h-0.1v-1.5h-2.3v8.7h2.4V562.8z M848.4,557.9c0.7,0,1.3-0.6,1.3-1.2c0-0.7-0.6-1.2-1.3-1.2
	c-0.7,0-1.3,0.6-1.3,1.2C847.1,557.4,847.7,557.9,848.4,557.9z M847.2,567.8h2.4v-8.7h-2.4V567.8z M841.2,565.9
	c-1.2,0-1.8-0.9-1.8-2.4c0-1.5,0.6-2.5,1.8-2.5c1.2,0,1.8,1,1.8,2.5C843.1,564.9,842.4,565.9,841.2,565.9z M841.2,571.3
	c2.5,0,4.3-1.1,4.3-3.4v-8.8H843v1.5h-0.1c-0.3-0.7-1-1.6-2.5-1.6c-1.9,0-3.5,1.5-3.5,4.5c0,2.9,1.6,4.3,3.5,4.3
	c1.4,0,2.2-0.7,2.5-1.4h0.1v1.6c0,1.2-0.8,1.7-1.8,1.7c-1.1,0-1.6-0.5-1.8-1l-2.2,0.3C837.5,570.2,838.8,571.3,841.2,571.3z
	 M831.6,566.1c-1.2,0-1.8-1.1-1.8-2.6s0.6-2.6,1.8-2.6c1.2,0,1.8,1.1,1.8,2.6S832.8,566.1,831.6,566.1z M831.6,568
	c2.6,0,4.3-1.8,4.3-4.5c0-2.7-1.6-4.5-4.3-4.5c-2.6,0-4.3,1.8-4.3,4.5C827.3,566.2,828.9,568,831.6,568z M818.8,567.8h7.4v-2h-5
	v-9.6h-2.5V567.8z"/>
<path class="st4" d="M927.1,823.9c14.1,0,25.5-11.4,25.5-25.5h-3c0,12.4-10.1,22.5-22.5,22.5V823.9z M952.6,750.4
	c0-12.4,10.1-22.5,22.5-22.5v-3c-14.1,0-25.5,11.4-25.5,25.5H952.6z M975.1,727.9H995v-3h-19.9V727.9z M952.6,798.4v-48h-3v48H952.6
	z M907.1,823.9h19.9v-3h-19.9V823.9z M996.1,727.4c0.6-0.6,0.6-1.5,0-2.1l-9.5-9.5c-0.6-0.6-1.5-0.6-2.1,0c-0.6,0.6-0.6,1.5,0,2.1
	l8.5,8.5l-8.5,8.5c-0.6,0.6-0.6,1.5,0,2.1s1.5,0.6,2.1,0L996.1,727.4z M907.1,820.9c-0.8,0-1.5,0.7-1.5,1.5s0.7,1.5,1.5,1.5V820.9z"
	/>
<path class="st4" d="M950.8,823.9c-0.7,0-1.3-0.6-1.3-1.3h3c0-0.9-0.8-1.7-1.7-1.7V823.9z M949.6,822.6c0,0.9,0.8,1.7,1.7,1.7v-3
	c0.7,0,1.3,0.6,1.3,1.3H949.6z M951.3,824.3H995v-3h-43.7V824.3z M907.1,823.9h43.7v-3h-43.7V823.9z M996.1,823.9
	c0.6-0.6,0.6-1.5,0-2.1l-9.5-9.5c-0.6-0.6-1.5-0.6-2.1,0c-0.6,0.6-0.6,1.5,0,2.1l8.5,8.5l-8.5,8.5c-0.6,0.6-0.6,1.5,0,2.1
	c0.6,0.6,1.5,0.6,2.1,0L996.1,823.9z M907.1,820.9c-0.8,0-1.5,0.7-1.5,1.5s0.7,1.5,1.5,1.5V820.9z"/>
<path class="st4" d="M927.1,823.9c12.4,0,22.5,10.1,22.5,22.5h3c0-14.1-11.4-25.5-25.5-25.5V823.9z M949.6,895.8
	c0,14.1,11.4,25.5,25.5,25.5v-3c-12.4,0-22.5-10.1-22.5-22.5H949.6z M975.1,921.3H995v-3h-19.9V921.3z M949.6,846.4v49.4h3v-49.4
	H949.6z M907.1,823.9h19.9v-3h-19.9V823.9z M996.1,920.9c0.6-0.6,0.6-1.5,0-2.1l-9.5-9.5c-0.6-0.6-1.5-0.6-2.1,0
	c-0.6,0.6-0.6,1.5,0,2.1l8.5,8.5l-8.5,8.5c-0.6,0.6-0.6,1.5,0,2.1c0.6,0.6,1.5,0.6,2.1,0L996.1,920.9z M907.1,820.9
	c-0.8,0-1.5,0.7-1.5,1.5s0.7,1.5,1.5,1.5V820.9z"/>
<path class="st5" d="M656.1,899.1c2.1-1.7,5-1.7,7.1,0l110.1,88.4c2.8,2.3,2.8,6.5,0,8.8l-110.1,88.4c-2.1,1.7-5,1.7-7.1,0
	l-110.1-88.4c-2.8-2.3-2.8-6.5,0-8.8L656.1,899.1z"/>
<path class="st1" d="M700.8,991.4c-0.3-2.4-2.3-3.9-5.6-3.9c-3.3,0-5.6,1.6-5.5,4.1c0,2,1.2,3.2,3.8,3.7l2.3,0.5
	c1.1,0.2,1.7,0.6,1.7,1.3c0,0.8-0.9,1.3-2.1,1.3c-1.3,0-2.2-0.6-2.4-1.6l-3.6,0.2c0.3,2.5,2.5,4,5.9,4c3.4,0,5.8-1.7,5.8-4.3
	c0-1.9-1.2-3-3.8-3.5l-2.4-0.5c-1.2-0.3-1.7-0.7-1.7-1.3c0-0.8,0.9-1.3,2-1.3c1.3,0,2,0.7,2.2,1.5L700.8,991.4z M687.8,991.4
	c-0.3-2.4-2.3-3.9-5.6-3.9c-3.3,0-5.6,1.6-5.5,4.1c0,2,1.2,3.2,3.8,3.7l2.3,0.5c1.1,0.2,1.7,0.6,1.7,1.3c0,0.8-0.9,1.3-2.1,1.3
	c-1.3,0-2.2-0.6-2.4-1.6l-3.6,0.2c0.3,2.5,2.5,4,5.9,4c3.4,0,5.8-1.7,5.8-4.3c0-1.9-1.2-3-3.8-3.5l-2.4-0.5
	c-1.2-0.3-1.7-0.7-1.7-1.3c0-0.8,0.9-1.3,2-1.3c1.3,0,2,0.7,2.2,1.5L687.8,991.4z M666.1,992.9c0.1-1.5,1.2-2.7,2.8-2.7
	c1.6,0,2.7,1.1,2.7,2.7H666.1z M669,1001.1c3.2,0,5.4-1.6,5.9-4l-3.4-0.2c-0.4,1-1.3,1.5-2.5,1.5c-1.8,0-3-1.2-3-3.2v0h8.9v-1
	c0-4.4-2.7-6.6-6.2-6.6c-3.9,0-6.3,2.7-6.3,6.8C662.5,998.5,665,1001.1,669,1001.1z M655.3,1001.1c3.5,0,5.7-2,5.8-5.1h-3.4
	c-0.2,1.4-1.1,2.2-2.4,2.2c-1.7,0-2.8-1.4-2.8-3.9c0-2.5,1.1-3.9,2.8-3.9c1.3,0,2.2,0.9,2.4,2.2h3.4c-0.2-3-2.4-5-5.9-5
	c-4,0-6.4,2.8-6.4,6.8C648.9,998.3,651.3,1001.1,655.3,1001.1z M641.7,1001.1c3.5,0,5.7-2,5.8-5.1h-3.4c-0.2,1.4-1.1,2.2-2.4,2.2
	c-1.7,0-2.8-1.4-2.8-3.9c0-2.5,1.1-3.9,2.8-3.9c1.3,0,2.2,0.9,2.4,2.2h3.4c-0.2-3-2.4-5-5.9-5c-4,0-6.4,2.8-6.4,6.8
	C635.2,998.3,637.6,1001.1,641.7,1001.1z M624.2,993.9l2.1-6.6h0.1l2.1,6.6H624.2z M622,1000.8l1.3-4h6.3l1.3,4h4l-6-17.5H624
	l-6,17.5H622z"/>
<path class="st4" d="M658.2,1198.4c0,14.1,11.4,25.5,25.5,25.5v-3c-12.4,0-22.5-10.1-22.5-22.5H658.2z M683.7,1223.9H771v-3h-87.3
	V1223.9z M658.2,1089.8v108.6h3v-108.6H658.2z M772.1,1223.4c0.6-0.6,0.6-1.5,0-2.1l-9.5-9.5c-0.6-0.6-1.5-0.6-2.1,0
	c-0.6,0.6-0.6,1.5,0,2.1l8.5,8.5l-8.5,8.5c-0.6,0.6-0.6,1.5,0,2.1c0.6,0.6,1.5,0.6,2.1,0L772.1,1223.4z M661.2,1089.8
	c0-0.8-0.7-1.5-1.5-1.5c-0.8,0-1.5,0.7-1.5,1.5H661.2z"/>
<path class="st4" d="M815.1,993.3c14.1,0,25.5-11.4,25.5-25.5h-3c0,12.4-10.1,22.5-22.5,22.5V993.3z M840.6,967.8V866.9h-3v100.9
	H840.6z M779.4,993.3h35.7v-3h-35.7V993.3z M840.1,865.9c-0.6-0.6-1.5-0.6-2.1,0l-9.5,9.5c-0.6,0.6-0.6,1.5,0,2.1
	c0.6,0.6,1.5,0.6,2.1,0l8.5-8.5l8.5,8.5c0.6,0.6,1.5,0.6,2.1,0c0.6-0.6,0.6-1.5,0-2.1L840.1,865.9z M779.4,990.3
	c-0.8,0-1.5,0.7-1.5,1.5s0.7,1.5,1.5,1.5V990.3z"/>
<path class="st4" d="M392,1237.9c-12.4,0-22.5-10.1-22.5-22.5h-3c0,14.1,11.4,25.5,25.5,25.5V1237.9z M369.5,1118.4
	c0-14.1-11.4-25.5-25.5-25.5v3c12.4,0,22.5,10.1,22.5,22.5H369.5z M344,1092.9h-20v3h20V1092.9z M369.5,1215.4v-97h-3v97H369.5z
	 M412,1237.9h-20v3h20V1237.9z M322.9,1093.3c-0.6,0.6-0.6,1.5,0,2.1l9.5,9.5c0.6,0.6,1.5,0.6,2.1,0s0.6-1.5,0-2.1l-8.5-8.5l8.5-8.5
	c0.6-0.6,0.6-1.5,0-2.1c-0.6-0.6-1.5-0.6-2.1,0L322.9,1093.3z M412,1240.9c0.8,0,1.5-0.7,1.5-1.5c0-0.8-0.7-1.5-1.5-1.5V1240.9z"/>
<path class="st4" d="M392,1237.9c-12.4,0-22.5-10.1-22.5-22.5h-3c0,14.1,11.4,25.5,25.5,25.5V1237.9z M369.5,1214.8
	c0-14.1-11.4-25.5-25.5-25.5v3c12.4,0,22.5,10.1,22.5,22.5H369.5z M344,1189.3h-20v3h20V1189.3z M369.5,1215.4v-0.6h-3v0.6H369.5z
	 M412,1237.9h-20v3h20V1237.9z M322.9,1189.7c-0.6,0.6-0.6,1.5,0,2.1l9.5,9.5c0.6,0.6,1.5,0.6,2.1,0c0.6-0.6,0.6-1.5,0-2.1l-8.5-8.5
	l8.5-8.5c0.6-0.6,0.6-1.5,0-2.1s-1.5-0.6-2.1,0L322.9,1189.7z M412,1240.9c0.8,0,1.5-0.7,1.5-1.5c0-0.8-0.7-1.5-1.5-1.5V1240.9z"/>
<path class="st4" d="M392,1237.9c-14.1,0-25.5,11.7-25.5,25.7h3c0-12.4,10.1-22.7,22.5-22.7V1237.9z M366.5,1263.6
	c0,12.4-10.1,22.7-22.5,22.7v3c14.1,0,25.5-11.7,25.5-25.7H366.5z M344,1286.3h-20v3h20V1286.3z M412,1237.9h-20v3h20V1237.9z
	 M322.9,1286.7c-0.6,0.6-0.6,1.5,0,2.1l9.5,9.5c0.6,0.6,1.5,0.6,2.1,0s0.6-1.5,0-2.1l-8.5-8.5l8.5-8.5c0.6-0.6,0.6-1.5,0-2.1
	c-0.6-0.6-1.5-0.6-2.1,0L322.9,1286.7z M412,1240.9c0.8,0,1.5-0.7,1.5-1.5c0-0.8-0.7-1.5-1.5-1.5V1240.9z"/>
<path class="st4" d="M392,1237.9c-14.1,0-25.5,11.4-25.5,25.5h3c0-12.4,10.1-22.5,22.5-22.5V1237.9z M366.5,1360.8
	c0,12.4-10.1,22.5-22.5,22.5v3c14.1,0,25.5-11.4,25.5-25.5H366.5z M344,1383.3h-20v3h20V1383.3z M366.5,1263.4v97.4h3v-97.4H366.5z
	 M412,1237.9h-20v3h20V1237.9z M322.9,1383.7c-0.6,0.6-0.6,1.5,0,2.1l9.5,9.5c0.6,0.6,1.5,0.6,2.1,0c0.6-0.6,0.6-1.5,0-2.1l-8.5-8.5
	l8.5-8.5c0.6-0.6,0.6-1.5,0-2.1s-1.5-0.6-2.1,0L322.9,1383.7z M412,1240.9c0.8,0,1.5-0.7,1.5-1.5c0-0.8-0.7-1.5-1.5-1.5V1240.9z"/>
<path class="st4" d="M504.1,990.3c-14.1,0-25.5,11.4-25.5,25.5h3c0-12.4,10.1-22.5,22.5-22.5V990.3z M478.6,1015.8v179h3v-179H478.6
	z M540,990.3h-35.9v3H540V990.3z M479,1195.9c0.6,0.6,1.5,0.6,2.1,0l9.5-9.5c0.6-0.6,0.6-1.5,0-2.1c-0.6-0.6-1.5-0.6-2.1,0l-8.5,8.5
	l-8.5-8.5c-0.6-0.6-1.5-0.6-2.1,0c-0.6,0.6-0.6,1.5,0,2.1L479,1195.9z M540,993.3c0.8,0,1.5-0.7,1.5-1.5s-0.7-1.5-1.5-1.5V993.3z"/>
<path class="st4" d="M384,820.9c-12.4,0-22.5-10.1-22.5-22.5h-3c0,14.1,11.4,25.5,25.5,25.5V820.9z M361.5,701.4
	c0-14.1-11.4-25.5-25.5-25.5v3c12.4,0,22.5,10.1,22.5,22.5H361.5z M336,675.9h-12v3h12V675.9z M361.5,798.4v-97h-3v97H361.5z
	 M396,820.9h-12v3h12V820.9z M322.9,676.3c-0.6,0.6-0.6,1.5,0,2.1l9.5,9.5c0.6,0.6,1.5,0.6,2.1,0c0.6-0.6,0.6-1.5,0-2.1l-8.5-8.5
	l8.5-8.5c0.6-0.6,0.6-1.5,0-2.1c-0.6-0.6-1.5-0.6-2.1,0L322.9,676.3z M396,823.9c0.8,0,1.5-0.7,1.5-1.5s-0.7-1.5-1.5-1.5V823.9z"/>
<path class="st4" d="M384,820.9c-12.4,0-22.5-10.3-22.5-22.7h-3c0,14.1,11.4,25.7,25.5,25.7V820.9z M361.5,798.2
	c0-14.1-11.4-25.7-25.5-25.7v3c12.4,0,22.5,10.3,22.5,22.7H361.5z M336,772.4h-12v3h12V772.4z M396,820.9h-12v3h12V820.9z
	 M322.9,772.9c-0.6,0.6-0.6,1.5,0,2.1l9.5,9.5c0.6,0.6,1.5,0.6,2.1,0s0.6-1.5,0-2.1l-8.5-8.5l8.5-8.5c0.6-0.6,0.6-1.5,0-2.1
	c-0.6-0.6-1.5-0.6-2.1,0L322.9,772.9z M396,823.9c0.8,0,1.5-0.7,1.5-1.5s-0.7-1.5-1.5-1.5V823.9z"/>
<path class="st4" d="M384,820.9c-14.1,0-25.5,11.4-25.5,25.5h3c0-12.4,10.1-22.5,22.5-22.5V820.9z M358.5,846.9
	c0,12.4-10.1,22.5-22.5,22.5v3c14.1,0,25.5-11.4,25.5-25.5H358.5z M336,869.4h-12v3h12V869.4z M358.5,846.4v0.6h3v-0.6H358.5z
	 M396,820.9h-12v3h12V820.9z M322.9,869.9c-0.6,0.6-0.6,1.5,0,2.1l9.5,9.5c0.6,0.6,1.5,0.6,2.1,0c0.6-0.6,0.6-1.5,0-2.1l-8.5-8.5
	l8.5-8.5c0.6-0.6,0.6-1.5,0-2.1c-0.6-0.6-1.5-0.6-2.1,0L322.9,869.9z M396,823.9c0.8,0,1.5-0.7,1.5-1.5c0-0.8-0.7-1.5-1.5-1.5V823.9
	z"/>
<path class="st4" d="M384,820.9c-14.1,0-25.5,11.4-25.5,25.5h3c0-12.4,10.1-22.5,22.5-22.5V820.9z M358.5,943.9
	c0,12.4-10.1,22.5-22.5,22.5v3c14.1,0,25.5-11.4,25.5-25.5H358.5z M336,966.4h-12v3h12V966.4z M358.5,846.4v97.6h3v-97.6H358.5z
	 M396,820.9h-12v3h12V820.9z M322.9,966.9c-0.6,0.6-0.6,1.5,0,2.1l9.5,9.5c0.6,0.6,1.5,0.6,2.1,0c0.6-0.6,0.6-1.5,0-2.1l-8.5-8.5
	l8.5-8.5c0.6-0.6,0.6-1.5,0-2.1c-0.6-0.6-1.5-0.6-2.1,0L322.9,966.9z M396,823.9c0.8,0,1.5-0.7,1.5-1.5s-0.7-1.5-1.5-1.5V823.9z"/>
<path class="st4" d="M661.2,846.4c0-14.1-11.4-25.5-25.5-25.5v3c12.4,0,22.5,10.1,22.5,22.5H661.2z M635.7,820.9H564v3h71.7V820.9z
	 M661.2,893.8v-47.4h-3v47.4H661.2z M562.9,821.3c-0.6,0.6-0.6,1.5,0,2.1l9.5,9.5c0.6,0.6,1.5,0.6,2.1,0c0.6-0.6,0.6-1.5,0-2.1
	l-8.5-8.5l8.5-8.5c0.6-0.6,0.6-1.5,0-2.1c-0.6-0.6-1.5-0.6-2.1,0L562.9,821.3z M658.2,893.8c0,0.8,0.7,1.5,1.5,1.5s1.5-0.7,1.5-1.5
	H658.2z"/>
<path class="st0" d="M400,368.2c0-1.3,1.1-2.4,2.4-2.4h155.2c1.3,0,2.4,1.1,2.4,2.4v76.3c0,1.3-1.1,2.4-2.4,2.4H402.4
	c-1.3,0-2.4-1.1-2.4-2.4V368.2z"/>
<path class="st1" d="M525.7,406.6c-0.2-1.6-1.5-2.6-3.7-2.6c-2.2,0-3.7,1-3.7,2.7c0,1.3,0.8,2.2,2.5,2.5l1.5,0.3
	c0.8,0.2,1.1,0.4,1.1,0.9c0,0.5-0.6,0.9-1.4,0.9c-0.9,0-1.4-0.4-1.6-1.1l-2.4,0.1c0.2,1.7,1.6,2.7,4,2.7c2.3,0,3.9-1.2,3.9-2.9
	c0-1.3-0.8-2-2.5-2.4l-1.6-0.3c-0.8-0.2-1.1-0.5-1.1-0.9c0-0.5,0.6-0.9,1.3-0.9c0.8,0,1.3,0.5,1.5,1L525.7,406.6z M511.1,407.8
	c0-1.1,0.7-1.8,1.7-1.8c1,0,1.6,0.6,1.6,1.7v5.1h2.4v-5.6c0-2-1.2-3.3-3-3.3c-1.3,0-2.2,0.6-2.6,1.7h-0.1v-1.5h-2.3v8.7h2.4V407.8z
	 M505.7,402.9c0.7,0,1.3-0.6,1.3-1.2c0-0.7-0.6-1.2-1.3-1.2c-0.7,0-1.3,0.6-1.3,1.2C504.4,402.4,505,402.9,505.7,402.9z
	 M504.5,412.8h2.4v-8.7h-2.4V412.8z M503.1,404.1h-1.6V402H499v2.1h-1.2v1.8h1.2v4.5c0,1.7,1.2,2.6,2.9,2.5c0.6,0,1.1-0.1,1.3-0.2
	l-0.4-1.8c-0.1,0-0.4,0.1-0.6,0.1c-0.5,0-0.8-0.2-0.8-0.9v-4.2h1.6V404.1z M492.5,411.3c-0.7,0-1.3-0.3-1.3-1c0-0.7,0.6-1,1.4-1.1
	c0.5-0.1,1.4-0.2,1.7-0.4v0.9C494.3,410.6,493.6,411.3,492.5,411.3z M491.8,413c1.3,0,2.1-0.6,2.6-1.4h0.1v1.2h2.3v-5.9
	c0-2.1-1.8-3-3.7-3c-2.1,0-3.5,1-3.8,2.6l2.2,0.2c0.2-0.6,0.7-1,1.6-1c0.8,0,1.3,0.4,1.3,1.1v0c0,0.6-0.6,0.6-2.1,0.8
	c-1.7,0.2-3.3,0.7-3.3,2.7C488.9,412.1,490.1,413,491.8,413z M483.2,412.8h2.4v-4.9c0-1.1,0.8-1.8,1.9-1.8c0.3,0,0.8,0.1,1,0.1V404
	c-0.2-0.1-0.5-0.1-0.8-0.1c-1,0-1.8,0.6-2.1,1.6h-0.1v-1.5h-2.3V412.8z M481.8,404.1h-1.6V402h-2.4v2.1h-1.2v1.8h1.2v4.5
	c0,1.7,1.2,2.6,2.9,2.5c0.6,0,1.1-0.1,1.3-0.2l-0.4-1.8c-0.1,0-0.4,0.1-0.6,0.1c-0.5,0-0.8-0.2-0.8-0.9v-4.2h1.6V404.1z
	 M475.6,406.6c-0.2-1.6-1.5-2.6-3.7-2.6c-2.2,0-3.7,1-3.7,2.7c0,1.3,0.8,2.2,2.5,2.5l1.5,0.3c0.8,0.2,1.1,0.4,1.1,0.9
	c0,0.5-0.6,0.9-1.4,0.9c-0.9,0-1.4-0.4-1.6-1.1l-2.4,0.1c0.2,1.7,1.6,2.7,4,2.7c2.3,0,3.9-1.2,3.9-2.9c0-1.3-0.8-2-2.5-2.4l-1.6-0.3
	c-0.8-0.2-1.1-0.5-1.1-0.9c0-0.5,0.6-0.9,1.3-0.9c0.8,0,1.3,0.5,1.5,1L475.6,406.6z M465.4,402.9c0.7,0,1.3-0.6,1.3-1.2
	c0-0.7-0.6-1.2-1.3-1.2c-0.7,0-1.3,0.6-1.3,1.2C464.1,402.4,464.7,402.9,465.4,402.9z M464.2,412.8h2.4v-8.7h-2.4V412.8z
	 M458.2,410.9c-1.2,0-1.8-0.9-1.8-2.4c0-1.5,0.6-2.5,1.8-2.5c1.2,0,1.8,1,1.8,2.5C460,409.9,459.4,410.9,458.2,410.9z M458.1,416.3
	c2.5,0,4.3-1.1,4.3-3.4v-8.8H460v1.5h-0.1c-0.3-0.7-1-1.6-2.5-1.6c-1.9,0-3.5,1.5-3.5,4.5c0,2.9,1.6,4.3,3.5,4.3
	c1.4,0,2.2-0.7,2.5-1.4h0.1v1.6c0,1.2-0.8,1.7-1.8,1.7c-1.1,0-1.6-0.5-1.8-1l-2.2,0.3C454.4,415.2,455.8,416.3,458.1,416.3z
	 M446.9,407.6c0.1-1,0.8-1.8,1.9-1.8c1.1,0,1.8,0.8,1.8,1.8H446.9z M448.8,413c2.2,0,3.6-1.1,4-2.7l-2.2-0.1c-0.2,0.7-0.9,1-1.7,1
	c-1.2,0-2-0.8-2-2.1v0h5.9v-0.7c0-3-1.8-4.4-4.1-4.4c-2.6,0-4.2,1.8-4.2,4.5C444.5,411.2,446.1,413,448.8,413z M437.1,406.7v-3.5
	h1.7c1.4,0,2.1,0.6,2.1,1.8c0,1.2-0.7,1.7-2.1,1.7H437.1z M434.7,412.8h2.5v-4.1h1.8l2.2,4.1h2.7l-2.5-4.5c1.3-0.6,2.1-1.7,2.1-3.3
	c0-2.3-1.5-3.8-4.2-3.8h-4.6V412.8z"/>
<path class="st4" d="M384,404.9c-12.4,0-22.5-10.1-22.5-22.5h-3c0,14.1,11.4,25.5,25.5,25.5V404.9z M361.5,284.4
	c0-14.1-11.4-25.5-25.5-25.5v3c12.4,0,22.5,10.1,22.5,22.5H361.5z M336,258.9h-12v3h12V258.9z M361.5,382.4v-98h-3v98H361.5z
	 M396,404.9h-12v3h12V404.9z M322.9,259.3c-0.6,0.6-0.6,1.5,0,2.1l9.5,9.5c0.6,0.6,1.5,0.6,2.1,0s0.6-1.5,0-2.1l-8.5-8.5l8.5-8.5
	c0.6-0.6,0.6-1.5,0-2.1c-0.6-0.6-1.5-0.6-2.1,0L322.9,259.3z M396,407.9c0.8,0,1.5-0.7,1.5-1.5c0-0.8-0.7-1.5-1.5-1.5V407.9z"/>
<path class="st4" d="M384,404.9c-12.4,0-22.5-10.1-22.5-22.5h-3c0,14.1,11.4,25.5,25.5,25.5V404.9z M361.5,380.8
	c0-14.1-11.4-25.5-25.5-25.5v3c12.4,0,22.5,10.1,22.5,22.5H361.5z M336,355.3h-12v3h12V355.3z M361.5,382.4v-1.6h-3v1.6H361.5z
	 M396,404.9h-12v3h12V404.9z M322.9,355.7c-0.6,0.6-0.6,1.5,0,2.1l9.5,9.5c0.6,0.6,1.5,0.6,2.1,0s0.6-1.5,0-2.1l-8.5-8.5l8.5-8.5
	c0.6-0.6,0.6-1.5,0-2.1s-1.5-0.6-2.1,0L322.9,355.7z M396,407.9c0.8,0,1.5-0.7,1.5-1.5c0-0.8-0.7-1.5-1.5-1.5V407.9z"/>
<path class="st4" d="M383.7,404.9c-13.9,0-25.2,11.3-25.2,25.2h3c0-12.3,9.9-22.2,22.2-22.2V404.9z M358.5,430.1
	c0,12.3-9.9,22.2-22.2,22.2v3c13.9,0,25.2-11.3,25.2-25.2H358.5z M336.3,452.3H324v3h12.3V452.3z M396,404.9h-12.3v3H396V404.9z
	 M322.9,452.7c-0.6,0.6-0.6,1.5,0,2.1l9.5,9.5c0.6,0.6,1.5,0.6,2.1,0c0.6-0.6,0.6-1.5,0-2.1l-8.5-8.5l8.5-8.5c0.6-0.6,0.6-1.5,0-2.1
	s-1.5-0.6-2.1,0L322.9,452.7z M396,407.9c0.8,0,1.5-0.7,1.5-1.5c0-0.8-0.7-1.5-1.5-1.5V407.9z"/>
<path class="st4" d="M384,404.9c-14.1,0-25.5,11.4-25.5,25.5h3c0-12.4,10.1-22.5,22.5-22.5V404.9z M358.5,526.8
	c0,12.4-10.1,22.5-22.5,22.5v3c14.1,0,25.5-11.4,25.5-25.5H358.5z M336,549.3h-12v3h12V549.3z M358.5,430.4v96.4h3v-96.4H358.5z
	 M396,404.9h-12v3h12V404.9z M322.9,549.7c-0.6,0.6-0.6,1.5,0,2.1l9.5,9.5c0.6,0.6,1.5,0.6,2.1,0c0.6-0.6,0.6-1.5,0-2.1l-8.5-8.5
	l8.5-8.5c0.6-0.6,0.6-1.5,0-2.1s-1.5-0.6-2.1,0L322.9,549.7z M396,407.9c0.8,0,1.5-0.7,1.5-1.5c0-0.8-0.7-1.5-1.5-1.5V407.9z"/>
<path class="st4" d="M478.6,614.3c0-0.8,0.7-1.5,1.5-1.5v3c0.8,0,1.5-0.7,1.5-1.5H478.6z M480,612.9c-0.8,0-1.5,0.7-1.5,1.5h3
	c0,0.8-0.7,1.5-1.5,1.5V612.9z M478.5,614.4v163.4h3V614.4H478.5z M478.6,450.9v163.4h3V450.9H478.6z M478.9,778.9
	c0.6,0.6,1.5,0.6,2.1,0l9.5-9.5c0.6-0.6,0.6-1.5,0-2.1c-0.6-0.6-1.5-0.6-2.1,0l-8.5,8.5l-8.5-8.5c-0.6-0.6-1.5-0.6-2.1,0
	c-0.6,0.6-0.6,1.5,0,2.1L478.9,778.9z M481.6,450.9c0-0.8-0.7-1.5-1.5-1.5c-0.8,0-1.5,0.7-1.5,1.5H481.6z"/>
<path class="st4" d="M919.1,562.9c14.1,0,25.5-11.4,25.5-25.5h-3c0,12.4-10.1,22.5-22.5,22.5V562.9z M944.6,537.4
	c0-12.4,10.1-22.5,22.5-22.5v-3c-14.1,0-25.5,11.4-25.5,25.5H944.6z M967.1,514.9H979v-3h-11.9V514.9z M907.1,562.9h11.9v-3h-11.9
	V562.9z M980.1,514.4c0.6-0.6,0.6-1.5,0-2.1l-9.5-9.5c-0.6-0.6-1.5-0.6-2.1,0c-0.6,0.6-0.6,1.5,0,2.1l8.5,8.5l-8.5,8.5
	c-0.6,0.6-0.6,1.5,0,2.1c0.6,0.6,1.5,0.6,2.1,0L980.1,514.4z M907.1,559.9c-0.8,0-1.5,0.7-1.5,1.5c0,0.8,0.7,1.5,1.5,1.5V559.9z"/>
<path class="st4" d="M919.1,562.9c12.4,0,22.5,10.1,22.5,22.5h3c0-14.1-11.4-25.5-25.5-25.5V562.9z M941.6,585.9
	c0,14.1,11.4,25.5,25.5,25.5v-3c-12.4,0-22.5-10.1-22.5-22.5H941.6z M967.1,611.4H979v-3h-11.9V611.4z M941.6,585.4v0.6h3v-0.6
	H941.6z M907.1,562.9h11.9v-3h-11.9V562.9z M980.1,611c0.6-0.6,0.6-1.5,0-2.1l-9.5-9.5c-0.6-0.6-1.5-0.6-2.1,0
	c-0.6,0.6-0.6,1.5,0,2.1l8.5,8.5l-8.5,8.5c-0.6,0.6-0.6,1.5,0,2.1c0.6,0.6,1.5,0.6,2.1,0L980.1,611z M907.1,559.9
	c-0.8,0-1.5,0.7-1.5,1.5c0,0.8,0.7,1.5,1.5,1.5V559.9z"/>
<path class="st4" d="M643.6,407.9c12.4,0,22.5,10.1,22.5,22.5h3c0-14.1-11.4-25.5-25.5-25.5V407.9z M666.1,537.4
	c0,14.1,11.4,25.5,25.5,25.5v-3c-12.4,0-22.5-10.1-22.5-22.5H666.1z M691.6,562.9H771v-3h-79.4V562.9z M666.1,430.4v107h3v-107
	H666.1z M564.1,407.9h79.4v-3h-79.4V407.9z M772.1,562.4c0.6-0.6,0.6-1.5,0-2.1l-9.5-9.5c-0.6-0.6-1.5-0.6-2.1,0
	c-0.6,0.6-0.6,1.5,0,2.1l8.5,8.5l-8.5,8.5c-0.6,0.6-0.6,1.5,0,2.1c0.6,0.6,1.5,0.6,2.1,0L772.1,562.4z M564.1,404.9
	c-0.8,0-1.5,0.7-1.5,1.5c0,0.8,0.7,1.5,1.5,1.5V404.9z"/>
<path class="st1" d="M1040.1,158.3h4.2v-13.5c0-2.9,2.1-5,4.5-5c2.4,0,4,1.6,4,3.9v14.5h4.2v-13.9c0-2.6,1.6-4.5,4.4-4.5
	c2.2,0,4.1,1.3,4.1,4.2v14.2h4.2v-14.6c0-5-2.8-7.5-6.7-7.5c-3.1,0-5.5,1.5-6.5,3.8h-0.2c-1-2.4-3-3.8-5.9-3.8c-2.9,0-5,1.4-5.9,3.8
	h-0.3v-3.6h-4.1V158.3z M1020.8,145.4c0.2-3.1,2.4-5.8,5.9-5.8c3.3,0,5.5,2.4,5.5,5.8H1020.8z M1026.9,158.7c4.8,0,8.1-2.3,9.1-5.9
	l-4-0.7c-0.8,2.1-2.6,3.1-5,3.1c-3.6,0-6.1-2.4-6.2-6.6h15.5v-1.5c0-7.9-4.7-11-9.7-11c-6.1,0-10.1,4.6-10.1,11.3
	C1016.5,154.3,1020.5,158.7,1026.9,158.7z M1013.9,136.4h-4.5v-5.2h-4.2v5.2h-3.2v3.4h3.2v12.9c0,4,3,5.9,6.4,5.8
	c1.3,0,2.3-0.3,2.8-0.5l-0.8-3.5c-0.3,0.1-0.8,0.2-1.5,0.2c-1.4,0-2.6-0.5-2.6-2.9v-12h4.5V136.4z M999.5,141.8
	c-0.9-3.4-3.5-5.6-8.3-5.6c-4.9,0-8.4,2.6-8.4,6.5c0,3.1,1.9,5.2,6,6.1l3.7,0.8c2.1,0.5,3.1,1.4,3.1,2.8c0,1.7-1.8,3-4.6,3
	c-2.5,0-4.2-1.1-4.7-3.2l-4.1,0.6c0.7,3.9,3.9,6,8.8,6c5.3,0,8.9-2.8,8.9-6.7c0-3.1-2-5-6-5.9l-3.5-0.8c-2.4-0.6-3.4-1.4-3.4-2.9
	c0-1.7,1.8-2.9,4.2-2.9c2.6,0,3.9,1.5,4.4,2.9L999.5,141.8z M964.1,166.4c3.5,0,5.7-1.8,7-5.3l9-24.7l-4.6,0l-5.5,16.9h-0.2
	l-5.5-16.9h-4.5l8,22.1l-0.5,1.4c-1.1,2.9-2.6,3.1-4.9,2.5l-1,3.5C961.7,166.2,962.8,166.4,964.1,166.4z M952.7,136.8h4.2
	c-0.1-4.7-4.2-8-10.2-8c-5.8,0-10.3,3.3-10.3,8.4c0,4,2.9,6.4,7.6,7.7l3.4,0.9c3.1,0.8,5.5,1.8,5.5,4.4c0,2.8-2.7,4.7-6.4,4.7
	c-3.4,0-6.2-1.5-6.4-4.7h-4.4c0.3,5.3,4.4,8.5,10.9,8.5c6.8,0,10.8-3.6,10.8-8.5c0-5.2-4.7-7.3-8.4-8.2l-2.8-0.7
	c-2.3-0.6-5.3-1.6-5.3-4.4c0-2.5,2.3-4.3,5.8-4.3C950,132.6,952.4,134.1,952.7,136.8z M923,136.4h-4.5v-5.2h-4.2v5.2h-3.2v3.4h3.2
	v12.9c0,4,3,5.9,6.4,5.8c1.3,0,2.3-0.3,2.8-0.5l-0.8-3.5c-0.3,0.1-0.8,0.2-1.5,0.2c-1.4,0-2.6-0.5-2.6-2.9v-12h4.5V136.4z
	 M894,145.3c0-3.5,2.1-5.5,5.1-5.5c2.9,0,4.6,1.9,4.6,5.1v13.4h4.2v-13.9c0-5.4-3-8.2-7.4-8.2c-3.3,0-5.4,1.5-6.4,3.8h-0.3v-3.6
	h-4.1v21.8h4.2V145.3z M870.5,145.4c0.2-3.1,2.4-5.8,5.9-5.8c3.3,0,5.5,2.4,5.5,5.8H870.5z M876.6,158.7c4.8,0,8.1-2.3,9.1-5.9
	l-4-0.7c-0.8,2.1-2.6,3.1-5,3.1c-3.6,0-6.1-2.4-6.2-6.6H886v-1.5c0-7.9-4.7-11-9.7-11c-6.1,0-10.1,4.6-10.1,11.3
	C866.2,154.3,870.2,158.7,876.6,158.7z M832.7,158.3h4.2v-13.5c0-2.9,2.1-5,4.5-5c2.4,0,4,1.6,4,3.9v14.5h4.2v-13.9
	c0-2.6,1.6-4.5,4.4-4.5c2.2,0,4.1,1.3,4.1,4.2v14.2h4.2v-14.6c0-5-2.8-7.5-6.7-7.5c-3.1,0-5.5,1.5-6.5,3.8h-0.2
	c-1-2.4-3-3.8-5.9-3.8c-2.9,0-5,1.4-5.9,3.8h-0.3v-3.6h-4.1V158.3z M813.4,145.4c0.2-3.1,2.4-5.8,5.9-5.8c3.3,0,5.5,2.4,5.5,5.8
	H813.4z M819.5,158.7c4.8,0,8.1-2.3,9.1-5.9l-4-0.7c-0.8,2.1-2.6,3.1-5,3.1c-3.6,0-6.1-2.4-6.2-6.6h15.5v-1.5c0-7.9-4.7-11-9.7-11
	c-6.1,0-10.1,4.6-10.1,11.3C809.1,154.3,813.1,158.7,819.5,158.7z M795.4,154.4c-3.8,0-5.8-2.9-5.8-7.2c0-4.2,1.9-7.4,5.8-7.4
	c3.7,0,5.7,3,5.7,7.4C801.1,151.7,799.1,154.4,795.4,154.4z M795.5,166.9c5.6,0,9.8-2.5,9.8-8.2v-22.3h-4.2v3.5h-0.3
	c-0.8-1.3-2.3-3.8-6.3-3.8c-5.3,0-9.1,4.2-9.1,11.1c0,7,4,10.7,9.1,10.7c4,0,5.6-2.3,6.3-3.7h0.3v4.3c0,3.4-2.3,4.9-5.6,4.9
	c-3.5,0-4.9-1.8-5.7-3l-3.7,1.5C787.3,164.6,790.2,166.9,795.5,166.9z M771.7,155.3c-2.4,0-4.1-1.1-4.1-3.2c0-2.3,2-3.1,4.5-3.4
	c1.4-0.2,4.6-0.6,5.3-1.2v2.8C777.3,153,775.2,155.3,771.7,155.3z M770.8,158.7c3.6,0,5.6-1.8,6.4-3.5h0.2v3h4.1v-14.5
	c0-6.3-5-7.6-8.5-7.6c-3.9,0-7.6,1.6-9,5.6l4,0.9c0.6-1.5,2.2-3,5.1-3c2.7,0,4.1,1.4,4.1,3.9v0.1c0,1.5-1.6,1.5-5.5,2
	c-4.1,0.5-8.4,1.6-8.4,6.5C763.4,156.4,766.6,158.7,770.8,158.7z M745.6,145.3c0-3.5,2.1-5.5,5.1-5.5c2.9,0,4.6,1.9,4.6,5.1v13.4
	h4.2v-13.9c0-5.4-3-8.2-7.4-8.2c-3.3,0-5.4,1.5-6.4,3.8h-0.3v-3.6h-4.1v21.8h4.2V145.3z M726.8,155.3c-2.4,0-4.1-1.1-4.1-3.2
	c0-2.3,2-3.1,4.5-3.4c1.4-0.2,4.6-0.6,5.3-1.2v2.8C732.4,153,730.3,155.3,726.8,155.3z M725.8,158.7c3.6,0,5.6-1.8,6.4-3.5h0.2v3
	h4.1v-14.5c0-6.3-5-7.6-8.5-7.6c-3.9,0-7.6,1.6-9,5.6l4,0.9c0.6-1.5,2.2-3,5.1-3c2.7,0,4.1,1.4,4.1,3.9v0.1c0,1.5-1.6,1.5-5.5,2
	c-4.1,0.5-8.4,1.6-8.4,6.5C718.5,156.4,721.7,158.7,725.8,158.7z M684.8,129.2v29.1h4.2v-21.1h0.3l8.6,21h3.5l8.6-21h0.3v21.1h4.2
	v-29.1H709l-9.3,22.6h-0.3l-9.3-22.6H684.8z M655.6,166.4c3.5,0,5.7-1.8,7-5.3l9-24.7l-4.6,0l-5.5,16.9h-0.2l-5.5-16.9h-4.5l8,22.1
	l-0.5,1.4c-1.1,2.9-2.6,3.1-4.9,2.5l-1,3.5C653.3,166.2,654.4,166.4,655.6,166.4z M649.1,136.4h-4.5v-5.2h-4.2v5.2h-3.2v3.4h3.2
	v12.9c0,4,3,5.9,6.4,5.8c1.3,0,2.3-0.3,2.8-0.5l-0.8-3.5c-0.3,0.1-0.8,0.2-1.5,0.2c-1.4,0-2.6-0.5-2.6-2.9v-12h4.5V136.4z
	 M623.2,158.3h4.2v-13.3c0-2.9,2.2-4.9,5.2-4.9c0.9,0,1.9,0.2,2.2,0.3v-4.1c-0.4-0.1-1.3-0.1-1.8-0.1c-2.6,0-4.7,1.4-5.5,3.8h-0.2
	v-3.5h-4.1V158.3z M603.9,145.4c0.2-3.1,2.4-5.8,5.9-5.8c3.3,0,5.5,2.4,5.5,5.8H603.9z M610,158.7c4.8,0,8.1-2.3,9.1-5.9l-4-0.7
	c-0.8,2.1-2.6,3.1-5,3.1c-3.6,0-6.1-2.4-6.2-6.6h15.5v-1.5c0-7.9-4.7-11-9.7-11c-6.1,0-10.1,4.6-10.1,11.3
	C599.6,154.3,603.6,158.7,610,158.7z M581,147.3c0-4.6,2-7.6,5.7-7.6c3.8,0,5.8,3.3,5.8,7.6c0,4.4-2,7.7-5.8,7.7
	C583,155.1,581,151.9,581,147.3z M576.8,166.4h4.2v-11.6h0.3c0.8,1.4,2.3,3.8,6.3,3.8c5.3,0,9.1-4.2,9.1-11.3
	c0-7.1-3.9-11.2-9.2-11.2c-4,0-5.5,2.5-6.3,3.8h-0.4v-3.5h-4.1V166.4z M562.8,155.1c-4,0-5.9-3.5-5.9-7.7c0-4.2,1.9-7.7,5.9-7.7
	c4,0,5.9,3.6,5.9,7.7C568.6,151.6,566.8,155.1,562.8,155.1z M562.8,158.7c6.2,0,10.2-4.5,10.2-11.3c0-6.8-4-11.3-10.2-11.3
	s-10.2,4.5-10.2,11.3C552.6,154.2,556.6,158.7,562.8,158.7z M539.9,158.3h4.2v-13.3c0-2.9,2.2-4.9,5.2-4.9c0.9,0,1.9,0.2,2.2,0.3
	v-4.1c-0.4-0.1-1.3-0.1-1.8-0.1c-2.6,0-4.7,1.4-5.5,3.8H544v-3.5h-4.1V158.3z M519.9,144.3v-11.4h5.5c4.3,0,6.1,2.4,6.1,5.7
	c0,3.3-1.8,5.7-6.1,5.7H519.9z M515.5,158.3h4.4V148h6c6.7,0,10.1-4.1,10.1-9.4c0-5.4-3.3-9.4-10.1-9.4h-10.4V158.3z M497.8,158.5
	c1.5,0,2.8-1.3,2.8-2.8c0-1.5-1.3-2.8-2.8-2.8c-1.6,0-2.8,1.3-2.8,2.8C495,157.3,496.3,158.5,497.8,158.5z M497.8,142.6
	c1.5,0,2.8-1.3,2.8-2.8c0-1.5-1.3-2.8-2.8-2.8c-1.6,0-2.8,1.3-2.8,2.8C495,141.4,496.3,142.6,497.8,142.6z M481.5,136.4H477v-5.2
	h-4.2v5.2h-3.2v3.4h3.2v12.9c0,4,3,5.9,6.4,5.8c1.3,0,2.3-0.3,2.8-0.5l-0.8-3.5c-0.3,0.1-0.8,0.2-1.5,0.2c-1.4,0-2.6-0.5-2.6-2.9
	v-12h4.5V136.4z M458.7,158.7c5.2,0,8.5-3.1,9-7.3h-4.1c-0.5,2.4-2.4,3.8-4.8,3.8c-3.6,0-5.9-3-5.9-7.8c0-4.7,2.4-7.6,5.9-7.6
	c2.7,0,4.3,1.7,4.8,3.8h4.1c-0.5-4.4-4-7.3-9-7.3c-6.2,0-10.1,4.6-10.1,11.3C448.5,154,452.4,158.7,458.7,158.7z M430.2,145.4
	c0.2-3.1,2.4-5.8,5.9-5.8c3.3,0,5.5,2.4,5.5,5.8H430.2z M436.3,158.7c4.8,0,8.1-2.3,9.1-5.9l-4-0.7c-0.8,2.1-2.6,3.1-5,3.1
	c-3.6,0-6.1-2.4-6.2-6.6h15.5v-1.5c0-7.9-4.7-11-9.7-11c-6.1,0-10.1,4.6-10.1,11.3C425.9,154.3,429.9,158.7,436.3,158.7z
	 M419.9,133.1c1.5,0,2.7-1.1,2.7-2.5s-1.2-2.5-2.7-2.5c-1.5,0-2.7,1.2-2.7,2.5S418.4,133.1,419.9,133.1z M417.8,136.4v23.2
	c0,2-0.8,3.1-2.9,3.1h-0.7v3.7c0.3,0,0.6,0,0.9,0c4.5,0,6.9-2.4,6.9-6.8v-23.2H417.8z M403.8,155.1c-4,0-5.9-3.5-5.9-7.7
	c0-4.2,1.9-7.7,5.9-7.7c4,0,5.9,3.6,5.9,7.7C409.7,151.6,407.8,155.1,403.8,155.1z M403.8,158.7c6.2,0,10.2-4.5,10.2-11.3
	c0-6.8-4-11.3-10.2-11.3s-10.2,4.5-10.2,11.3C393.6,154.2,397.6,158.7,403.8,158.7z M380.9,158.3h4.2v-13.3c0-2.9,2.2-4.9,5.2-4.9
	c0.9,0,1.9,0.2,2.2,0.3v-4.1c-0.4-0.1-1.3-0.1-1.8-0.1c-2.6,0-4.7,1.4-5.5,3.8H385v-3.5h-4.1V158.3z M360.9,144.3v-11.4h5.5
	c4.3,0,6.1,2.4,6.1,5.7c0,3.3-1.8,5.7-6.1,5.7H360.9z M356.5,158.3h4.4V148h6c6.7,0,10.1-4.1,10.1-9.4c0-5.4-3.3-9.4-10.1-9.4h-10.4
	V158.3z M341.7,129.2h-4.2v29.1h4.2V129.2z M322.8,155.3c-2.4,0-4.1-1.1-4.1-3.2c0-2.3,2-3.1,4.5-3.4c1.4-0.2,4.6-0.6,5.3-1.2v2.8
	C328.4,153,326.3,155.3,322.8,155.3z M321.9,158.7c3.6,0,5.6-1.8,6.4-3.5h0.2v3h4.1v-14.5c0-6.3-5-7.6-8.5-7.6c-3.9,0-7.6,1.6-9,5.6
	l4,0.9c0.6-1.5,2.2-3,5.1-3c2.7,0,4.1,1.4,4.1,3.9v0.1c0,1.5-1.6,1.5-5.5,2c-4.1,0.5-8.4,1.6-8.4,6.5
	C314.5,156.4,317.7,158.7,321.9,158.7z M296.7,145.3c0-3.5,2.1-5.5,5.1-5.5c2.9,0,4.6,1.9,4.6,5.1v13.4h4.2v-13.9
	c0-5.4-3-8.2-7.4-8.2c-3.3,0-5.4,1.5-6.4,3.8h-0.3v-3.6h-4.1v21.8h4.2V145.3z M285.6,133.1c1.5,0,2.7-1.1,2.7-2.5s-1.2-2.5-2.7-2.5
	c-1.5,0-2.7,1.2-2.7,2.5S284.1,133.1,285.6,133.1z M283.4,158.3h4.2v-21.8h-4.2V158.3z M261.2,158.3h4.4v-12.7h12.4v-3.8h-12.4v-8.9
	h13.7v-3.8h-18V158.3z"/>
<circle class="st2" cx="1046.5" cy="235.3" r="15.5"/>
<circle class="st0" cx="1046.5" cy="307.3" r="15.5"/>
<circle class="st3" cx="1046.5" cy="371.3" r="15.5"/>
<path class="st1" d="M1173.4,226.3l4.2,7.1v4.6h1.8v-4.6l4.2-7.1h-2l-3,5.3h-0.1l-3-5.3H1173.4z M1164.8,238h7.4v-1.5h-5.6v-3.6h5.2
	v-1.5h-5.2v-3.5h5.5v-1.5h-7.3V238z M1154.4,238h1.8v-3.6l1.4-1.6l3.8,5.2h2.1l-4.7-6.4l4.7-5.2h-2.2l-4.9,5.6h-0.1v-5.6h-1.8V238z
	 M1138.6,226.3l4.2,7.1v4.6h1.8v-4.6l4.2-7.1h-2l-3,5.3h-0.1l-3-5.3H1138.6z M1131.6,232.1v-4.2h2.2c1.7,0,2.4,0.8,2.4,2.1
	c0,1.3-0.7,2.1-2.4,2.1H1131.6z M1129.8,238h1.8v-4.4h2.4c0,0,0.1,0,0.1,0l2.4,4.4h2l-2.6-4.7c1.4-0.5,2.1-1.7,2.1-3.3
	c0-2.1-1.3-3.6-4-3.6h-4.1V238z M1121.4,233.4l1.7-5h0.1l1.7,5H1121.4z M1119.8,238l1.1-3.1h4.5l1.1,3.1h1.9l-4.2-11.6h-2l-4.2,11.6
	H1119.8z M1104.6,226.3V238h1.7v-8.4h0.1l3.4,8.4h1.4l3.4-8.4h0.1v8.4h1.7v-11.6h-2.1l-3.7,9h-0.1l-3.7-9H1104.6z M1102.2,226.3
	h-1.8V238h1.8V226.3z M1092.1,232.1v-4.2h2.2c1.7,0,2.4,0.8,2.4,2.1c0,1.3-0.7,2.1-2.4,2.1H1092.1z M1090.3,238h1.8v-4.4h2.4
	c0,0,0.1,0,0.1,0l2.4,4.4h2l-2.6-4.7c1.4-0.5,2.1-1.7,2.1-3.3c0-2.1-1.3-3.6-4-3.6h-4.1V238z M1082,232.4v-4.6h2.2
	c1.7,0,2.4,0.9,2.4,2.3s-0.7,2.3-2.4,2.3H1082z M1080.3,238h1.8v-4.1h2.4c2.7,0,4-1.6,4-3.8c0-2.1-1.3-3.8-4-3.8h-4.1V238z"/>
<path class="st1" d="M1172.7,301.4h1.7c-0.1-1.9-1.7-3.2-4.1-3.2c-2.3,0-4.1,1.3-4.1,3.3c0,1.6,1.2,2.6,3,3.1l1.4,0.4
	c1.2,0.3,2.2,0.7,2.2,1.8c0,1.1-1.1,1.9-2.6,1.9c-1.4,0-2.5-0.6-2.6-1.9h-1.8c0.1,2.1,1.7,3.4,4.4,3.4c2.7,0,4.3-1.4,4.3-3.4
	c0-2.1-1.9-2.9-3.3-3.3l-1.1-0.3c-0.9-0.2-2.1-0.7-2.1-1.8c0-1,0.9-1.7,2.3-1.7C1171.6,299.7,1172.5,300.3,1172.7,301.4z
	 M1156.8,310h7.4v-1.5h-5.6v-3.6h5.2v-1.5h-5.2v-3.5h5.5v-1.5h-7.3V310z M1146,299.9h3.6V310h1.8v-10.1h3.6v-1.5h-9V299.9z
	 M1142.5,298.3v7.5c0,1.6-1.1,2.7-2.9,2.7c-1.8,0-2.9-1.1-2.9-2.7v-7.5h-1.8v7.7c0,2.4,1.8,4.2,4.6,4.2s4.6-1.7,4.6-4.2v-7.7H1142.5
	z M1126.4,303.4v-3.5h2.4c1.4,0,2.1,0.7,2.1,1.7c0,1.1-0.9,1.8-2.1,1.8H1126.4z M1126.4,308.5v-3.7h2.6c1.4,0,2.3,0.9,2.3,2
	c0,1-0.7,1.7-2.4,1.7H1126.4z M1124.7,310h4.5c2.7,0,3.9-1.3,3.9-3.1c0-1.8-1.3-2.8-2.4-2.9v-0.1c1.1-0.3,2-1,2-2.5
	c0-1.7-1.2-3.1-3.7-3.1h-4.3V310z M1122.3,298.3h-1.8V310h1.8V298.3z M1112.2,304.1v-4.2h2.2c1.7,0,2.4,0.8,2.4,2.1
	c0,1.3-0.7,2.1-2.4,2.1H1112.2z M1110.4,310h1.8v-4.4h2.4c0,0,0.1,0,0.1,0l2.4,4.4h2l-2.6-4.7c1.4-0.5,2.1-1.7,2.1-3.3
	c0-2.1-1.3-3.6-4-3.6h-4.1V310z M1099.6,299.9h3.6V310h1.8v-10.1h3.6v-1.5h-9V299.9z M1089.3,299.9h3.6V310h1.8v-10.1h3.6v-1.5h-9
	V299.9z M1082.8,305.4l1.7-5h0.1l1.7,5H1082.8z M1081.3,310l1.1-3.1h4.5l1.1,3.1h1.9l-4.2-11.6h-2l-4.2,11.6H1081.3z"/>
<path class="st1" d="M1125.3,362.3l4.2,7.1v4.6h1.8v-4.6l4.2-7.1h-2l-3,5.3h-0.1l-3-5.3H1125.3z M1115.3,363.9h3.6V374h1.8v-10.1
	h3.6v-1.5h-9V363.9z M1113.5,362.3h-1.8V374h1.8V362.3z M1100.9,363.9h3.6V374h1.8v-10.1h3.6v-1.5h-9V363.9z M1099.1,362.3h-1.7v8.5
	h-0.1l-5.9-8.5h-1.6V374h1.8v-8.5h0.1l5.9,8.5h1.6V362.3z M1080.3,374h7.4v-1.5h-5.6v-3.6h5.2v-1.5h-5.2v-3.5h5.5v-1.5h-7.3V374z"/>
</svg>
