<!-- 
        SHARE LINK : https://tahsin000.github.io/DATABASE_MANAGEMENT_SYSTEM/ERD/MAINUDDIN_HASAN_C193070.svg
 -->
<svg width="1312" height="1584" viewBox="0 0 1312 1584" fill="none" xmlns="http://www.w3.org/2000/svg">
<path d="M775 1184.2C775 1182.9 776.1 1181.8 777.4 1181.8H900.6C901.9 1181.8 903 1182.9 903 1184.2V1260.5C903 1261.8 901.9 1262.9 900.6 1262.9H777.4C776.1 1262.9 775 1261.8 775 1260.5V1184.2Z" fill="#85B6FF"/>
<path d="M867.8 1220.5H870.2C870.2 1218.4 868.5 1217 865.9 1217C863.3 1217 861.5 1218.4 861.5 1220.5C861.5 1222.2 862.7 1223.2 864.7 1223.7L866 1224C867.3 1224.3 868 1224.7 868 1225.5C868 1226.4 867.2 1226.9 865.9 1226.9C864.6 1226.9 863.7 1226.3 863.6 1225.1H861.2C861.3 1227.6 863.1 1228.9 865.9 1228.9C868.7 1228.9 870.4 1227.5 870.4 1225.4C870.4 1223.5 868.9 1222.4 866.9 1222L865.9 1221.7C864.9 1221.5 864 1221.1 864.1 1220.3C864.1 1219.5 864.8 1219 866 1219C867 1219.1 867.7 1219.6 867.8 1220.5ZM853.6 1222.7V1219.2H855.3C856.7 1219.2 857.4 1219.8 857.4 1221C857.4 1222.2 856.7 1222.7 855.3 1222.7H853.6ZM851.1 1228.8H853.6V1224.7H855.4L857.6 1228.8H860.3L857.8 1224.3C859.1 1223.7 859.9 1222.6 859.9 1221C859.9 1218.7 858.4 1217.2 855.7 1217.2H851.1V1228.8ZM841.5 1228.8H849.4V1226.8H844V1224H849V1222H844V1219.2H849.4V1217.2H841.6V1228.8H841.5ZM829.4 1217.2L833.6 1224.7V1228.8H836V1224.7L840.2 1217.2H837.4L834.7 1222.2H834.6L831.9 1217.2H829.4ZM825.8 1217.2V1224.5C825.8 1225.8 824.9 1226.8 823.4 1226.8C822 1226.8 821 1225.8 821 1224.5V1217.2H818.5V1224.8C818.5 1227.3 820.4 1229 823.3 1229C826.2 1229 828.1 1227.3 828.1 1224.8V1217.2H825.8ZM810.7 1222V1219.1H812.6C813.7 1219.1 814.3 1219.7 814.3 1220.5C814.3 1221.4 813.5 1222 812.5 1222H810.7ZM810.7 1226.8V1223.7H812.8C814 1223.7 814.7 1224.4 814.7 1225.3C814.7 1226.2 814.1 1226.7 812.7 1226.7H810.7V1226.8ZM808.2 1228.8H813.2C815.8 1228.8 817.2 1227.4 817.2 1225.6C817.2 1223.9 816 1222.8 814.6 1222.8V1222.7C815.8 1222.4 816.7 1221.6 816.7 1220.2C816.7 1218.5 815.4 1217.2 812.8 1217.2H808.1V1228.8H808.2Z" fill="#333333"/>
<path d="M416 1201.2C416 1199.9 417.1 1198.8 418.4 1198.8H541.6C542.9 1198.8 544 1199.9 544 1201.2V1277.5C544 1278.8 542.9 1279.9 541.6 1279.9H418.4C417.1 1279.9 416 1278.8 416 1277.5V1201.2Z" fill="#85B6FF"/>
<path d="M506.8 1249.1C508.6 1249.1 509.6 1248.2 510.1 1246.8L513.5 1237.1H510.9L509.1 1243.5H509L507.2 1237.1H504.7L507.8 1246.1L507.7 1246.5C507.4 1247.3 506.8 1247.4 505.9 1247.1L505.4 1248.9C505.6 1249 506.2 1249.1 506.8 1249.1ZM503.9 1237.1H502.3V1235H499.9V1237.1H498.7V1238.9H499.9V1243.4C499.9 1245.1 501.1 1246 502.8 1245.9C503.4 1245.9 503.9 1245.8 504.1 1245.7L503.7 1243.9C503.6 1243.9 503.3 1244 503.1 1244C502.6 1244 502.3 1243.8 502.3 1243.1V1238.9H503.9V1237.1ZM492.5 1245.8H494.9V1240.9C494.9 1239.8 495.7 1239.1 496.8 1239.1C497.1 1239.1 497.6 1239.2 497.8 1239.2V1237.1C497.6 1237 497.3 1237 497 1237C496 1237 495.2 1237.6 494.9 1238.6H494.8V1237.1H492.5V1245.8V1245.8ZM485.1 1240.6C485.2 1239.6 485.9 1238.8 487 1238.8C488.1 1238.8 488.8 1239.6 488.8 1240.6H485.1ZM487.1 1246C489.3 1246 490.7 1244.9 491.1 1243.3L488.9 1243.2C488.7 1243.9 488 1244.2 487.2 1244.2C486 1244.2 485.2 1243.4 485.2 1242.1H491.1V1241.4C491.1 1238.4 489.3 1237 487 1237C484.4 1237 482.8 1238.8 482.8 1241.5C482.7 1244.2 484.4 1246 487.1 1246ZM475.5 1241.4C475.5 1239.8 476.2 1238.8 477.3 1238.8C478.5 1238.8 479.1 1239.8 479.1 1241.4C479.1 1242.9 478.5 1244 477.3 1244C476.2 1244 475.5 1243 475.5 1241.4ZM473.1 1249.1H475.5V1244.4H475.6C475.9 1245.1 476.7 1245.9 478.1 1245.9C480.1 1245.9 481.6 1244.3 481.6 1241.4C481.6 1238.4 480 1236.9 478.1 1236.9C476.6 1236.9 475.9 1237.8 475.6 1238.5H475.5V1237H473.1V1249.1ZM467.4 1244.1C466.2 1244.1 465.6 1243 465.6 1241.5C465.6 1240 466.2 1238.9 467.4 1238.9C468.6 1238.9 469.2 1240 469.2 1241.5C469.2 1243 468.6 1244.1 467.4 1244.1ZM467.4 1246C470 1246 471.7 1244.2 471.7 1241.5C471.7 1238.8 470.1 1237 467.4 1237C464.8 1237 463.1 1238.8 463.1 1241.5C463.1 1244.2 464.8 1246 467.4 1246ZM457.5 1245.8H459.9V1240.9C459.9 1239.8 460.7 1239.1 461.8 1239.1C462.1 1239.1 462.6 1239.2 462.8 1239.2V1237.1C462.6 1237 462.3 1237 462 1237C461 1237 460.2 1237.6 459.9 1238.6H459.8V1237.1H457.5V1245.8V1245.8ZM449.9 1240.1V1236.2H451.6C453 1236.2 453.7 1237 453.7 1238.1C453.7 1239.3 453 1240 451.6 1240H449.9V1240.1ZM447.4 1245.8H449.9V1242H452C454.7 1242 456.2 1240.4 456.2 1238.1C456.2 1235.8 454.7 1234.2 452 1234.2H447.4V1245.8Z" fill="#333333"/>
<path d="M999 1022.3C999 1004.4 1013.5 989.8 1031.5 989.8H1151.6C1169.5 989.8 1184.1 1004.3 1184.1 1022.3V1038.5C1184.1 1056.4 1169.6 1071 1151.6 1071H1031.5C1013.6 1071 999 1056.5 999 1038.5V1022.3Z" fill="#FF9790"/>
<path d="M1110 1035.3V1026.7H1112C1114.5 1026.7 1115.9 1028.2 1115.9 1031C1115.9 1033.8 1114.6 1035.3 1111.9 1035.3H1110ZM1112 1036.8C1115.5 1036.8 1117.6 1034.6 1117.6 1031C1117.6 1027.4 1115.5 1025.2 1112.1 1025.2H1108.2V1036.8H1112ZM1105.9 1025.2H1104.1V1036.8H1105.9V1025.2ZM1103 1036.8H1095.6V1038.2H1103V1036.8ZM1088.6 1030.9V1026.7H1090.8C1092.5 1026.7 1093.2 1027.5 1093.2 1028.8C1093.2 1030.1 1092.5 1030.9 1090.8 1030.9H1088.6V1030.9ZM1086.8 1036.8H1088.6V1032.4H1091H1091.1L1093.5 1036.8H1095.5L1092.9 1032.1C1094.3 1031.6 1095 1030.4 1095 1028.8C1095 1026.7 1093.7 1025.2 1091 1025.2H1086.9V1036.8H1086.8ZM1075.1 1025.2L1079.3 1032.3V1036.9H1081.1V1032.3L1085.3 1025.2H1083.3L1080.3 1030.5H1080.2L1077.2 1025.2H1075.1ZM1067.5 1030.2V1026.7H1069.9C1071.3 1026.7 1072 1027.4 1072 1028.4C1072 1029.5 1071.1 1030.2 1069.9 1030.2H1067.5ZM1067.5 1035.3V1031.6H1070.1C1071.5 1031.6 1072.4 1032.5 1072.4 1033.6C1072.4 1034.6 1071.7 1035.3 1070 1035.3H1067.5ZM1065.7 1036.8H1070.2C1072.9 1036.8 1074.1 1035.5 1074.1 1033.7C1074.1 1031.9 1072.8 1030.9 1071.7 1030.8V1030.7C1072.8 1030.4 1073.7 1029.7 1073.7 1028.2C1073.7 1026.5 1072.5 1025.1 1070 1025.1H1065.7V1036.8Z" fill="#333333"/>
<path d="M128 1086.3C128 1068.4 142.5 1053.8 160.5 1053.8H287.6C305.5 1053.8 320.1 1068.3 320.1 1086.3V1102.5C320.1 1120.4 305.6 1135 287.6 1135H160.5C142.6 1135 128 1120.5 128 1102.5V1086.3Z" fill="#FF9790"/>
<path d="M242.8 1099.3V1090.7H244.8C247.3 1090.7 248.7 1092.2 248.7 1095C248.7 1097.8 247.4 1099.3 244.7 1099.3H242.8ZM244.8 1100.8C248.3 1100.8 250.4 1098.6 250.4 1095C250.4 1091.4 248.3 1089.2 244.9 1089.2H241V1100.8H244.8ZM238.6 1089.2H236.8V1100.8H238.6V1089.2ZM235.8 1100.8H228.4V1102.2H235.8V1100.8ZM226.6 1095C226.6 1097.8 225.1 1099.4 223.1 1099.4C221.1 1099.4 219.6 1097.9 219.6 1095C219.6 1092.2 221.1 1090.6 223.1 1090.6C225.1 1090.6 226.6 1092.1 226.6 1095ZM228.3 1095C228.3 1091.3 226.1 1089 223.1 1089C220.1 1089 217.9 1091.3 217.9 1095C217.9 1098.7 220.1 1101 223.1 1101C226.1 1101 228.3 1098.7 228.3 1095ZM209.8 1094.9V1090.7H212C213.7 1090.7 214.4 1091.5 214.4 1092.8C214.4 1094.1 213.7 1094.9 212 1094.9H209.8V1094.9ZM208.1 1100.8H209.9V1096.4H212.3H212.4L214.8 1100.8H216.8L214.2 1096.1C215.6 1095.6 216.3 1094.4 216.3 1092.8C216.3 1090.7 215 1089.2 212.3 1089.2H208.2V1100.8H208.1ZM199.8 1095.2V1090.6H202C203.7 1090.6 204.4 1091.5 204.4 1092.9C204.4 1094.2 203.7 1095.2 202 1095.2H199.8ZM198 1100.8H199.8V1096.7H202.2C204.9 1096.7 206.2 1095.1 206.2 1092.9C206.2 1090.8 204.9 1089.1 202.2 1089.1H198V1100.8Z" fill="#333333"/>
<path d="M999 718.3C999 700.4 1013.5 685.8 1031.5 685.8H1151.6C1169.5 685.8 1184.1 700.3 1184.1 718.3V734.5C1184.1 752.4 1169.6 767 1151.6 767H1031.5C1013.6 767 999 752.5 999 734.5V718.3Z" fill="#FF9790"/>
<path d="M1113.1 731.3V722.7H1115.1C1117.6 722.7 1119 724.2 1119 727C1119 729.8 1117.7 731.3 1115 731.3H1113.1V731.3ZM1115.1 732.8C1118.6 732.8 1120.7 730.6 1120.7 727C1120.7 723.4 1118.6 721.2 1115.2 721.2H1111.3V732.8H1115.1V732.8ZM1108.9 721.2H1107.1V732.8H1108.9V721.2ZM1106.1 732.8H1098.7V734.2H1106.1V732.8ZM1091.1 732.8H1098.1V731.3H1092.8V721.2H1091V732.8H1091.1ZM1082.3 732.8H1089.3V731.3H1084V721.2H1082.2V732.8H1082.3ZM1072.8 732.8H1080.2V731.3H1074.6V727.7H1079.8V726.2H1074.6V722.7H1080.1V721.2H1072.8V732.8V732.8ZM1069 724.2H1070.7C1070.6 722.3 1069 721 1066.6 721C1064.3 721 1062.5 722.3 1062.5 724.3C1062.5 725.9 1063.7 726.9 1065.5 727.4L1066.9 727.8C1068.1 728.1 1069.1 728.5 1069.1 729.6C1069.1 730.7 1068 731.5 1066.5 731.5C1065.1 731.5 1064 730.9 1063.9 729.6H1062.1C1062.2 731.7 1063.8 733 1066.5 733C1069.2 733 1070.8 731.6 1070.8 729.6C1070.8 727.5 1068.9 726.7 1067.5 726.3L1066.4 726C1065.5 725.8 1064.3 725.3 1064.3 724.2C1064.3 723.2 1065.2 722.5 1066.6 722.5C1068 722.5 1068.9 723.1 1069 724.2Z" fill="#333333"/>
<path d="M128 669.3C128 651.4 142.5 636.8 160.5 636.8H287.6C305.5 636.8 320.1 651.3 320.1 669.3V685.5C320.1 703.4 305.6 718 287.6 718H160.5C142.6 718 128 703.5 128 685.5V669.3Z" fill="#FF9790"/>
<path d="M247.6 682.3V673.7H249.6C252.1 673.7 253.5 675.2 253.5 678C253.5 680.8 252.2 682.3 249.5 682.3H247.6V682.3ZM249.6 683.8C253.1 683.8 255.2 681.6 255.2 678C255.2 674.4 253.1 672.2 249.7 672.2H245.8V683.8H249.6V683.8ZM243.5 672.2H241.7V683.8H243.5V672.2ZM240.6 683.8H233.2V685.2H240.6V683.8ZM226.1 677.9V673.7H228.3C230 673.7 230.7 674.5 230.7 675.8C230.7 677.1 230 677.9 228.3 677.9H226.1ZM224.4 683.8H226.2V679.4H228.6H228.7L231.1 683.8H233.1L230.5 679.1C231.9 678.6 232.6 677.4 232.6 675.8C232.6 673.7 231.3 672.2 228.6 672.2H224.5V683.8H224.4ZM214.9 683.8H222.3V682.3H216.7V678.7H221.9V677.2H216.7V673.7H222.2V672.2H214.9V683.8ZM211.1 675.2H212.8C212.7 673.3 211.1 672 208.7 672C206.4 672 204.6 673.3 204.6 675.3C204.6 676.9 205.8 677.9 207.6 678.4L209 678.8C210.2 679.1 211.2 679.5 211.2 680.6C211.2 681.7 210.1 682.5 208.6 682.5C207.2 682.5 206.1 681.9 206 680.6H204.2C204.3 682.7 205.9 684 208.6 684C211.3 684 212.9 682.6 212.9 680.6C212.9 678.5 211 677.7 209.6 677.3L208.5 677C207.6 676.8 206.4 676.3 206.4 675.2C206.4 674.2 207.3 673.5 208.7 673.5C210.1 673.5 211 674.1 211.1 675.2ZM200.7 672.2V679.7C200.7 681.3 199.6 682.4 197.8 682.4C196 682.4 194.9 681.3 194.9 679.7V672.2H193.1V679.9C193.1 682.3 194.9 684.1 197.7 684.1C200.5 684.1 202.3 682.4 202.3 679.9V672.2H200.7Z" fill="#333333"/>
<path d="M128 252.3C128 234.4 142.5 219.8 160.5 219.8H287.6C305.5 219.8 320.1 234.3 320.1 252.3V268.5C320.1 286.4 305.6 301 287.6 301H160.5C142.6 301 128 286.5 128 268.5V252.3Z" fill="#FF9790"/>
<path d="M242.6 265.3V256.7H244.6C247.1 256.7 248.5 258.2 248.5 261C248.5 263.8 247.2 265.3 244.5 265.3H242.6ZM244.6 266.8C248.1 266.8 250.2 264.6 250.2 261C250.2 257.4 248.1 255.2 244.7 255.2H240.8V266.8H244.6ZM238.5 255.2H236.7V266.8H238.5V255.2ZM235.6 266.8H228.2V268.2H235.6V266.8ZM225.6 258.8H227.4C227 256.5 225.1 255 222.6 255C219.6 255 217.4 257.3 217.4 261C217.4 264.7 219.5 267 222.7 267C225.5 267 227.5 265.1 227.5 262.2V260.9H222.9V262.3H225.8C225.8 264.2 224.5 265.4 222.7 265.4C220.6 265.4 219.2 263.8 219.2 261C219.2 258.2 220.7 256.6 222.7 256.6C224.1 256.6 225.2 257.5 225.6 258.8ZM208.3 266.8H215.7V265.3H210V261.7H215.2V260.2H210V256.7H215.5V255.2H208.2V266.8H208.3ZM199.9 260.9V256.7H202.1C203.8 256.7 204.5 257.5 204.5 258.8C204.5 260.1 203.8 260.9 202.1 260.9H199.9V260.9ZM198.1 266.8H199.9V262.4H202.3H202.4L204.8 266.8H206.8L204.2 262.1C205.6 261.6 206.3 260.4 206.3 258.8C206.3 256.7 205 255.2 202.3 255.2H198.2V266.8H198.1Z" fill="#333333"/>
<path d="M983 505.3C983 487.4 997.5 472.8 1015.5 472.8H1151.6C1169.5 472.8 1184.1 487.3 1184.1 505.3V521.5C1184.1 539.4 1169.6 554 1151.6 554H1015.5C997.6 554 983 539.5 983 521.5V505.3V505.3Z" fill="#FF9790"/>
<path d="M1107.1 518.3V509.7H1109.1C1111.6 509.7 1113 511.2 1113 514C1113 516.8 1111.7 518.3 1109 518.3H1107.1V518.3ZM1109.1 519.8C1112.6 519.8 1114.7 517.6 1114.7 514C1114.7 510.4 1112.6 508.2 1109.2 508.2H1105.3V519.8H1109.1ZM1103 508.2H1101.2V519.8H1103V508.2ZM1100.1 519.8H1092.7V521.2H1100.1V519.8ZM1085.6 513.9V509.7H1087.8C1089.5 509.7 1090.2 510.5 1090.2 511.8C1090.2 513.1 1089.5 513.9 1087.8 513.9H1085.6ZM1083.9 519.8H1085.7V515.4H1088.1H1088.2L1090.6 519.8H1092.6L1090 515.1C1091.4 514.6 1092.1 513.4 1092.1 511.8C1092.1 509.7 1090.8 508.2 1088.1 508.2H1084V519.8H1083.9ZM1074.4 519.8H1081.8V518.3H1076.2V514.7H1081.4V513.2H1076.2V509.7H1081.7V508.2H1074.4V519.8V519.8ZM1070.6 511.2H1072.3C1072.2 509.3 1070.6 508 1068.2 508C1065.9 508 1064.1 509.3 1064.1 511.3C1064.1 512.9 1065.3 513.9 1067.1 514.4L1068.5 514.8C1069.7 515.1 1070.7 515.5 1070.7 516.6C1070.7 517.7 1069.6 518.5 1068.1 518.5C1066.7 518.5 1065.6 517.9 1065.5 516.6H1063.7C1063.8 518.7 1065.4 520 1068.1 520C1070.8 520 1072.4 518.6 1072.4 516.6C1072.4 514.5 1070.5 513.7 1069.1 513.3L1068 513C1067.1 512.8 1065.9 512.3 1065.9 511.2C1065.9 510.2 1066.8 509.5 1068.2 509.5C1069.6 509.5 1070.5 510.1 1070.6 511.2ZM1060.2 508.2V515.7C1060.2 517.3 1059.1 518.4 1057.3 518.4C1055.5 518.4 1054.4 517.3 1054.4 515.7V508.2H1052.6V515.9C1052.6 518.3 1054.4 520.1 1057.2 520.1C1060 520.1 1061.8 518.4 1061.8 515.9V508.2H1060.2V508.2Z" fill="#333333"/>
<path d="M999 814.6C999 796.5 1013.7 781.8 1031.8 781.8H1151.2C1169.3 781.8 1184 796.5 1184 814.6V831C1184 849.1 1169.3 863.8 1151.2 863.8H1031.8C1013.7 863.8 999 849.1 999 831V814.6Z" fill="#FFD233"/>
<path d="M1128.7 828.8H1136.1V827.3H1130.5V823.7H1135.7V822.2H1130.5V818.7H1136V817.2H1128.7V828.8V828.8ZM1114.5 817.2V828.8H1116.2V820.4H1116.3L1119.7 828.8H1121.1L1124.5 820.4H1124.6V828.8H1126.3V817.2H1124.2L1120.5 826.2H1120.4L1116.7 817.2H1114.5ZM1106 824.2L1107.7 819.2H1107.8L1109.5 824.2H1106ZM1104.5 828.8L1105.6 825.7H1110.1L1111.2 828.8H1113.1L1108.9 817.2H1106.9L1102.7 828.8H1104.5ZM1101.1 817.2H1099.4V825.7H1099.3L1093.4 817.2H1091.8V828.8H1093.6V820.3H1093.7L1099.6 828.8H1101.2V817.2H1101.1ZM1090.6 828.8H1083.2V830.2H1090.6V828.8ZM1075.7 828.8H1082.7V827.3H1077.4V817.2H1075.6V828.8H1075.7ZM1066.8 828.8H1073.8V827.3H1068.5V817.2H1066.7V828.8H1066.8ZM1057.3 828.8H1064.7V827.3H1059.1V823.7H1064.3V822.2H1059.1V818.7H1064.6V817.2H1057.3V828.8V828.8ZM1053.6 820.2H1055.3C1055.2 818.3 1053.6 817 1051.2 817C1048.9 817 1047.1 818.3 1047.1 820.3C1047.1 821.9 1048.3 822.9 1050.1 823.4L1051.5 823.8C1052.7 824.1 1053.7 824.5 1053.7 825.6C1053.7 826.7 1052.6 827.5 1051.1 827.5C1049.7 827.5 1048.6 826.9 1048.5 825.6H1046.7C1046.8 827.7 1048.4 829 1051.1 829C1053.8 829 1055.4 827.6 1055.4 825.6C1055.4 823.5 1053.5 822.7 1052.1 822.3L1051 822C1050.1 821.8 1048.9 821.3 1048.9 820.2C1048.9 819.2 1049.8 818.5 1051.2 818.5C1052.5 818.5 1053.4 819.1 1053.6 820.2Z" fill="#333333"/>
<path d="M128 765.7C128 747.6 142.7 732.9 160.8 732.9H287.2C305.3 732.9 320 747.6 320 765.7V782.1C320 800.2 305.3 814.9 287.2 814.9H160.8C142.7 814.9 128 800.2 128 782.1V765.7Z" fill="#FFD233"/>
<path d="M263.2 779.9H270.6V778.4H265V774.8H270.2V773.3H265V769.8H270.5V768.3H263.2V779.9ZM249 768.3V779.9H250.7V771.5H250.8L254.2 779.9H255.6L259 771.5H259.1V779.9H260.8V768.3H258.7L255 777.3H254.9L251.2 768.3H249ZM240.6 775.4L242.3 770.4H242.4L244.1 775.4H240.6ZM239 779.9L240.1 776.8H244.6L245.7 779.9H247.6L243.4 768.3H241.4L237.2 779.9H239ZM235.6 768.3H233.9V776.8H233.8L227.9 768.3H226.3V779.9H228.1V771.4H228.2L234.1 779.9H235.7V768.3H235.6ZM225.1 779.9H217.7V781.3H225.1V779.9ZM210.7 774V769.8H212.9C214.6 769.8 215.3 770.6 215.3 771.9C215.3 773.2 214.6 774 212.9 774H210.7ZM208.9 779.9H210.7V775.5H213.1H213.2L215.6 779.9H217.6L215 775.2C216.4 774.7 217.1 773.5 217.1 771.9C217.1 769.8 215.8 768.3 213.1 768.3H209V779.9H208.9ZM199.4 779.9H206.8V778.4H201.2V774.8H206.4V773.3H201.2V769.8H206.7V768.3H199.4V779.9ZM195.7 771.4H197.4C197.3 769.5 195.7 768.2 193.3 768.2C191 768.2 189.2 769.5 189.2 771.5C189.2 773.1 190.4 774.1 192.2 774.6L193.6 775C194.8 775.3 195.8 775.7 195.8 776.8C195.8 777.9 194.7 778.7 193.2 778.7C191.8 778.7 190.7 778.1 190.6 776.8H188.8C188.9 778.9 190.5 780.2 193.2 780.2C195.9 780.2 197.5 778.8 197.5 776.8C197.5 774.7 195.6 773.9 194.2 773.5L193.1 773.2C192.2 773 191 772.5 191 771.4C191 770.4 191.9 769.7 193.3 769.7C194.6 769.7 195.5 770.3 195.7 771.4ZM185.2 768.3V775.8C185.2 777.4 184.1 778.5 182.3 778.5C180.5 778.5 179.4 777.4 179.4 775.8V768.3H177.6V776C177.6 778.4 179.4 780.2 182.2 780.2C185 780.2 186.8 778.5 186.8 776V768.3H185.2Z" fill="#333333"/>
<path d="M128 348.6C128 330.5 142.7 315.8 160.8 315.8H287.2C305.3 315.8 320 330.5 320 348.6V365C320 383.1 305.3 397.8 287.2 397.8H160.8C142.7 397.8 128 383.1 128 365V348.6Z" fill="#FFD233"/>
<path d="M249.1 351.2V362.8H250.8V354.4H250.9L254.3 362.8H255.7L259.1 354.4H259.2V362.8H260.9V351.2H258.8L255.1 360.2H255L251.3 351.2H249.1ZM245 351.2V358.7C245 360.3 243.9 361.4 242.1 361.4C240.3 361.4 239.2 360.3 239.2 358.7V351.2H237.4V358.9C237.4 361.3 239.2 363.1 242 363.1C244.8 363.1 246.6 361.4 246.6 358.9V351.2H245ZM235.1 351.2H233.4V359.7H233.3L227.4 351.2H225.8V362.8H227.6V354.3H227.7L233.6 362.8H235.2V351.2H235.1ZM224.6 362.8H217.2V364.2H224.6V362.8ZM214.6 354.8H216.4C216 352.5 214.1 351 211.6 351C208.6 351 206.4 353.3 206.4 357C206.4 360.7 208.5 363 211.7 363C214.5 363 216.5 361.1 216.5 358.2V356.9H211.9V358.3H214.8C214.8 360.2 213.5 361.4 211.7 361.4C209.6 361.4 208.2 359.8 208.2 357C208.2 354.2 209.7 352.6 211.7 352.6C213.1 352.6 214.1 353.5 214.6 354.8ZM197.2 362.8H204.6V361.3H199V357.7H204.2V356.2H199V352.7H204.5V351.2H197.2V362.8ZM188.9 356.9V352.7H191.1C192.8 352.7 193.5 353.5 193.5 354.8C193.5 356.1 192.8 356.9 191.1 356.9H188.9V356.9ZM187.1 362.8H188.9V358.4H191.3H191.4L193.8 362.8H195.8L193.2 358.1C194.6 357.6 195.3 356.4 195.3 354.8C195.3 352.7 194 351.2 191.3 351.2H187.2V362.8H187.1Z" fill="#333333"/>
<path d="M983 601.7C983 583.6 997.7 568.9 1015.8 568.9H1151.2C1169.3 568.9 1184 583.6 1184 601.7V618.1C1184 636.2 1169.3 650.9 1151.2 650.9H1015.8C997.7 650.9 983 636.2 983 618.1V601.7V601.7Z" fill="#FFD233"/>
<path d="M1119.3 614.4V605.8H1121.3C1123.8 605.8 1125.2 607.3 1125.2 610.1C1125.2 612.9 1123.9 614.4 1121.2 614.4H1119.3V614.4ZM1121.3 615.9C1124.8 615.9 1126.9 613.7 1126.9 610.1C1126.9 606.5 1124.8 604.3 1121.4 604.3H1117.5V615.9H1121.3V615.9ZM1109.2 610V605.8H1111.4C1113.1 605.8 1113.8 606.6 1113.8 607.9C1113.8 609.2 1113.1 610 1111.4 610H1109.2ZM1107.4 615.9H1109.2V611.5H1111.6H1111.7L1114.1 615.9H1116.1L1113.5 611.2C1114.9 610.7 1115.6 609.5 1115.6 607.9C1115.6 605.8 1114.3 604.3 1111.6 604.3H1107.5V615.9H1107.4ZM1103.7 610.1C1103.7 612.9 1102.2 614.5 1100.2 614.5C1098.2 614.5 1096.7 613 1096.7 610.1C1096.7 607.3 1098.2 605.7 1100.2 605.7C1102.2 605.7 1103.7 607.3 1103.7 610.1ZM1105.4 610.1C1105.4 606.4 1103.2 604.1 1100.2 604.1C1097.2 604.1 1095 606.4 1095 610.1C1095 613.8 1097.2 616.1 1100.2 616.1C1103.2 616.1 1105.4 613.8 1105.4 610.1ZM1082.7 615.9H1084.5L1086.9 607.2H1087L1089.4 615.9H1091.2L1094.4 604.3H1092.5L1090.2 613.3H1090.1L1087.7 604.3H1085.9L1083.5 613.3H1083.4L1081.1 604.3H1079.3L1082.7 615.9ZM1076.7 607.4H1078.4C1078.3 605.5 1076.7 604.2 1074.3 604.2C1072 604.2 1070.2 605.5 1070.2 607.5C1070.2 609.1 1071.4 610.1 1073.2 610.6L1074.6 611C1075.8 611.3 1076.8 611.7 1076.8 612.8C1076.8 613.9 1075.7 614.7 1074.2 614.7C1072.8 614.7 1071.7 614.1 1071.6 612.8H1069.8C1069.9 614.9 1071.5 616.2 1074.2 616.2C1076.9 616.2 1078.5 614.8 1078.5 612.8C1078.5 610.7 1076.6 609.9 1075.2 609.5L1074.1 609.2C1073.2 609 1072 608.5 1072 607.4C1072 606.4 1072.9 605.7 1074.3 605.7C1075.6 605.7 1076.5 606.3 1076.7 607.4ZM1066.5 607.4H1068.2C1068.1 605.5 1066.5 604.2 1064.1 604.2C1061.8 604.2 1060 605.5 1060 607.5C1060 609.1 1061.2 610.1 1063 610.6L1064.4 611C1065.6 611.3 1066.6 611.7 1066.6 612.8C1066.6 613.9 1065.5 614.7 1064 614.7C1062.6 614.7 1061.5 614.1 1061.4 612.8H1059.6C1059.7 614.9 1061.3 616.2 1064 616.2C1066.7 616.2 1068.3 614.8 1068.3 612.8C1068.3 610.7 1066.4 609.9 1065 609.5L1063.9 609.2C1063 609 1061.8 608.5 1061.8 607.4C1061.8 606.4 1062.7 605.7 1064.1 605.7C1065.5 605.7 1066.4 606.3 1066.5 607.4ZM1051.8 611.4L1053.5 606.4H1053.6L1055.3 611.4H1051.8ZM1050.2 615.9L1051.3 612.8H1055.8L1056.9 615.9H1058.8L1054.6 604.3H1052.6L1048.4 615.9H1050.2ZM1042.2 610.4V605.8H1044.4C1046.1 605.8 1046.8 606.7 1046.8 608.1C1046.8 609.5 1046.1 610.4 1044.4 610.4H1042.2V610.4ZM1040.4 615.9H1042.2V611.8H1044.6C1047.3 611.8 1048.6 610.2 1048.6 608C1048.6 605.9 1047.3 604.2 1044.6 604.2H1040.5V615.9H1040.4Z" fill="#333333"/>
<path d="M999 911.6C999 893.5 1013.7 878.8 1031.8 878.8H1151.2C1169.3 878.8 1184 893.5 1184 911.6V928C1184 946.1 1169.3 960.8 1151.2 960.8H1031.8C1013.7 960.8 999 946.1 999 928V911.6Z" fill="#FFD233"/>
<path d="M1122.2 924.3V915.7H1124.2C1126.7 915.7 1128.1 917.2 1128.1 920C1128.1 922.8 1126.8 924.3 1124.1 924.3H1122.2ZM1124.2 925.8C1127.7 925.8 1129.8 923.6 1129.8 920C1129.8 916.4 1127.7 914.2 1124.3 914.2H1120.4V925.8H1124.2ZM1110.8 924.3V915.7H1112.8C1115.3 915.7 1116.7 917.2 1116.7 920C1116.7 922.8 1115.4 924.3 1112.7 924.3H1110.8ZM1112.8 925.8C1116.3 925.8 1118.4 923.6 1118.4 920C1118.4 916.4 1116.3 914.2 1112.9 914.2H1109V925.8H1112.8ZM1100.6 921.2L1102.3 916.2H1102.4L1104.1 921.2H1100.6ZM1099 925.8L1100.1 922.7H1104.6L1105.7 925.8H1107.6L1103.4 914.2H1101.4L1097.2 925.8H1099ZM1097 925.8H1089.6V927.2H1097V925.8ZM1082 925.8H1089V924.3H1083.7V914.2H1081.9V925.8H1082ZM1073.2 925.8H1080.2V924.3H1074.9V914.2H1073.1V925.8H1073.2ZM1063.7 925.8H1071.1V924.3H1065.5V920.7H1070.7V919.2H1065.5V915.7H1071V914.2H1063.7V925.8ZM1059.9 917.2H1061.6C1061.5 915.3 1059.9 914 1057.5 914C1055.2 914 1053.4 915.3 1053.4 917.3C1053.4 918.9 1054.6 919.9 1056.4 920.4L1057.8 920.8C1059 921.1 1060 921.5 1060 922.6C1060 923.7 1058.9 924.5 1057.4 924.5C1056 924.5 1054.9 923.9 1054.8 922.6H1053C1053.1 924.7 1054.7 926 1057.4 926C1060.1 926 1061.7 924.6 1061.7 922.6C1061.7 920.5 1059.8 919.7 1058.4 919.3L1057.3 919C1056.4 918.8 1055.2 918.3 1055.2 917.2C1055.2 916.2 1056.1 915.5 1057.5 915.5C1058.8 915.5 1059.8 916.1 1059.9 917.2Z" fill="#333333"/>
<path d="M128 862.7C128 844.6 142.7 829.9 160.8 829.9H287.2C305.3 829.9 320 844.6 320 862.7V879.1C320 897.2 305.3 911.9 287.2 911.9H160.8C142.7 911.9 128 897.2 128 879.1V862.7Z" fill="#FFD233"/>
<path d="M264.4 876.9H271.4V875.4H266.1V865.3H264.3V876.9H264.4ZM262.1 865.3H260.3V876.9H262.1V865.3ZM251.8 872.4L253.5 867.4H253.6L255.3 872.4H251.8ZM250.3 876.9L251.4 873.8H255.9L257 876.9H258.9L254.7 865.3H252.7L248.5 876.9H250.3ZM235.1 865.3V876.9H236.8V868.5H236.9L240.3 876.9H241.7L245.1 868.5H245.2V876.9H246.9V865.3H244.8L241.1 874.3H241L237.3 865.3H235.1ZM225.6 876.9H233V875.4H227.4V871.8H232.6V870.3H227.4V866.8H232.9V865.3H225.6V876.9ZM224.5 876.9H217.1V878.3H224.5V876.9ZM210.1 871V866.8H212.3C214 866.8 214.7 867.6 214.7 868.9C214.7 870.2 214 871 212.3 871H210.1ZM208.3 876.9H210.1V872.5H212.5H212.6L215 876.9H217L214.4 872.2C215.8 871.7 216.5 870.5 216.5 868.9C216.5 866.8 215.2 865.3 212.5 865.3H208.4V876.9H208.3ZM198.8 876.9H206.2V875.4H200.6V871.8H205.8V870.3H200.6V866.8H206.1V865.3H198.8V876.9ZM195.1 868.4H196.8C196.7 866.5 195.1 865.2 192.7 865.2C190.4 865.2 188.6 866.5 188.6 868.5C188.6 870.1 189.8 871.1 191.6 871.6L193 872C194.2 872.3 195.2 872.7 195.2 873.8C195.2 874.9 194.1 875.7 192.6 875.7C191.2 875.7 190.1 875.1 190 873.8H188.2C188.3 875.9 189.9 877.2 192.6 877.2C195.3 877.2 196.9 875.8 196.9 873.8C196.9 871.7 195 870.9 193.6 870.5L192.5 870.2C191.6 870 190.4 869.5 190.4 868.4C190.4 867.4 191.3 866.7 192.7 866.7C194 866.7 194.9 867.3 195.1 868.4ZM184.6 865.3V872.8C184.6 874.4 183.5 875.5 181.7 875.5C179.9 875.5 178.8 874.4 178.8 872.8V865.3H177V873C177 875.4 178.8 877.2 181.6 877.2C184.4 877.2 186.2 875.5 186.2 873V865.3H184.6Z" fill="#333333"/>
<path d="M128 445.6C128 427.5 142.7 412.8 160.8 412.8H287.2C305.3 412.8 320 427.5 320 445.6V462C320 480.1 305.3 494.8 287.2 494.8H160.8C142.7 494.8 128 480.1 128 462V445.6Z" fill="#FFD233"/>
<path d="M258.2 459.8H265.6V458.3H260V454.7H265.2V453.2H260V449.7H265.5V448.2H258.2V459.8ZM244.1 448.2V459.8H245.8V451.4H245.9L249.3 459.8H250.7L254.1 451.4H254.2V459.8H255.9V448.2H253.8L250.1 457.2H250L246.3 448.2H244.1ZM235.6 455.2L237.3 450.2H237.4L239.1 455.2H235.6ZM234 459.8L235.1 456.7H239.6L240.7 459.8H242.6L238.4 448.2H236.4L232.2 459.8H234ZM230.7 448.2H229V456.7H228.9L223 448.2H221.4V459.8H223.2V451.3H223.3L229.2 459.8H230.8V448.2H230.7ZM220.2 459.8H212.8V461.2H220.2V459.8ZM210.1 451.8H211.9C211.5 449.5 209.6 448 207.1 448C204.1 448 201.9 450.3 201.9 454C201.9 457.7 204 460 207.2 460C210 460 212 458.1 212 455.2V453.9H207.4V455.3H210.3C210.3 457.2 209 458.4 207.2 458.4C205.1 458.4 203.7 456.8 203.7 454C203.7 451.2 205.2 449.6 207.2 449.6C208.7 449.6 209.7 450.5 210.1 451.8ZM192.8 459.8H200.2V458.3H194.6V454.7H199.8V453.2H194.6V449.7H200.1V448.2H192.8V459.8ZM184.4 453.9V449.7H186.6C188.3 449.7 189 450.5 189 451.8C189 453.1 188.3 453.9 186.6 453.9H184.4V453.9ZM182.7 459.8H184.5V455.4H186.9H187L189.4 459.8H191.4L188.8 455.1C190.2 454.6 190.9 453.4 190.9 451.8C190.9 449.7 189.6 448.2 186.9 448.2H182.8V459.8H182.7Z" fill="#333333"/>
<path d="M128 959.7C128 941.6 142.7 926.9 160.8 926.9H287.2C305.3 926.9 320 941.6 320 959.7V976.1C320 994.2 305.3 1008.9 287.2 1008.9H160.8C142.7 1008.9 128 994.2 128 976.1V959.7Z" fill="#FFD233"/>
<path d="M282.5 965.4H284.2C284.1 963.5 282.5 962.2 280.1 962.2C277.8 962.2 276 963.5 276 965.5C276 967.1 277.2 968.1 279 968.6L280.4 969C281.6 969.3 282.6 969.7 282.6 970.8C282.6 971.9 281.5 972.7 280 972.7C278.6 972.7 277.5 972.1 277.4 970.8H275.6C275.7 972.9 277.3 974.2 280 974.2C282.7 974.2 284.3 972.8 284.3 970.8C284.3 968.7 282.4 967.9 281 967.5L279.9 967.2C279 967 277.8 966.5 277.8 965.4C277.8 964.4 278.7 963.7 280.1 963.7C281.4 963.7 282.4 964.3 282.5 965.4ZM272.4 965.4H274.1C274 963.5 272.4 962.2 270 962.2C267.7 962.2 265.9 963.5 265.9 965.5C265.9 967.1 267.1 968.1 268.9 968.6L270.3 969C271.5 969.3 272.5 969.7 272.5 970.8C272.5 971.9 271.4 972.7 269.9 972.7C268.5 972.7 267.4 972.1 267.3 970.8H265.5C265.6 972.9 267.2 974.2 269.9 974.2C272.6 974.2 274.2 972.8 274.2 970.8C274.2 968.7 272.3 967.9 270.9 967.5L269.8 967.2C268.9 967 267.7 966.5 267.7 965.4C267.7 964.4 268.6 963.7 270 963.7C271.3 963.7 272.2 964.3 272.4 965.4ZM256.6 973.9H264V972.4H258.4V968.8H263.6V967.3H258.4V963.8H263.9V962.3H256.6V973.9V973.9ZM248.2 968V963.8H250.4C252.1 963.8 252.8 964.6 252.8 965.9C252.8 967.2 252.1 968 250.4 968H248.2ZM246.4 973.9H248.2V969.5H250.6H250.7L253.1 973.9H255.1L252.5 969.2C253.9 968.7 254.6 967.5 254.6 965.9C254.6 963.8 253.3 962.3 250.6 962.3H246.5V973.9H246.4ZM236.8 972.4V963.8H238.8C241.3 963.8 242.7 965.3 242.7 968.1C242.7 970.9 241.4 972.4 238.7 972.4H236.8V972.4ZM238.8 973.9C242.3 973.9 244.4 971.7 244.4 968.1C244.4 964.5 242.3 962.3 238.9 962.3H235V973.9H238.8V973.9ZM225.4 972.4V963.8H227.4C229.9 963.8 231.3 965.3 231.3 968.1C231.3 970.9 230 972.4 227.3 972.4H225.4V972.4ZM227.4 973.9C230.9 973.9 233 971.7 233 968.1C233 964.5 230.9 962.3 227.5 962.3H223.6V973.9H227.4V973.9ZM215.2 969.4L216.9 964.4H217L218.7 969.4H215.2ZM213.6 973.9L214.7 970.8H219.2L220.3 973.9H222.2L218 962.3H216L211.8 973.9H213.6ZM211.6 973.9H204.2V975.3H211.6V973.9ZM197.1 968V963.8H199.3C201 963.8 201.7 964.6 201.7 965.9C201.7 967.2 201 968 199.3 968H197.1ZM195.3 973.9H197.1V969.5H199.5H199.6L202 973.9H204L201.4 969.2C202.8 968.7 203.5 967.5 203.5 965.9C203.5 963.8 202.2 962.3 199.5 962.3H195.4V973.9H195.3ZM185.9 973.9H193.3V972.4H187.7V968.8H192.9V967.3H187.7V963.8H193.2V962.3H185.9V973.9ZM182.1 965.4H183.8C183.7 963.5 182.1 962.2 179.7 962.2C177.4 962.2 175.6 963.5 175.6 965.5C175.6 967.1 176.8 968.1 178.6 968.6L180 969C181.2 969.3 182.2 969.7 182.2 970.8C182.2 971.9 181.1 972.7 179.6 972.7C178.2 972.7 177.1 972.1 177 970.8H175.2C175.3 972.9 176.9 974.2 179.6 974.2C182.3 974.2 183.9 972.8 183.9 970.8C183.9 968.7 182 967.9 180.6 967.5L179.5 967.2C178.6 967 177.4 966.5 177.4 965.4C177.4 964.4 178.3 963.7 179.7 963.7C181 963.7 182 964.3 182.1 965.4ZM171.6 962.3V969.8C171.6 971.4 170.5 972.5 168.7 972.5C166.9 972.5 165.8 971.4 165.8 969.8V962.3H164V970C164 972.4 165.8 974.2 168.6 974.2C171.4 974.2 173.2 972.5 173.2 970V962.3H171.6Z" fill="#333333"/>
<path d="M128 542.6C128 524.5 142.7 509.8 160.8 509.8H287.2C305.3 509.8 320 524.5 320 542.6V559C320 577.1 305.3 591.8 287.2 591.8H160.8C142.7 591.8 128 577.1 128 559V542.6Z" fill="#FFD233"/>
<path d="M254.8 556.8H262.2V555.3H256.6V551.7H261.8V550.2H256.6V546.7H262.1V545.2H254.8V556.8V556.8ZM246.5 551.2V546.6H248.7C250.4 546.6 251.1 547.5 251.1 548.9C251.1 550.2 250.4 551.2 248.7 551.2H246.5V551.2ZM244.8 556.8H246.6V552.7H249C251.7 552.7 253 551.1 253 548.9C253 546.8 251.7 545.1 249 545.1H244.9V556.8H244.8ZM233.1 545.2L237.3 552.3V556.9H239.1V552.3L243.3 545.2H241.3L238.3 550.5H238.2L235.2 545.2H233.1ZM223.2 546.7H226.8V556.8H228.6V546.7H232.2V545.2H223.2V546.7ZM223.6 556.8H216.2V558.2H223.6V556.8ZM213.6 548.8H215.4C215 546.5 213.1 545 210.6 545C207.6 545 205.4 547.3 205.4 551C205.4 554.7 207.5 557 210.7 557C213.5 557 215.5 555.1 215.5 552.2V550.9H210.9V552.3H213.8C213.8 554.2 212.5 555.4 210.7 555.4C208.6 555.4 207.2 553.8 207.2 551C207.2 548.2 208.7 546.6 210.7 546.6C212.1 546.6 213.1 547.5 213.6 548.8ZM196.2 556.8H203.6V555.3H198V551.7H203.2V550.2H198V546.7H203.5V545.2H196.2V556.8ZM187.8 550.9V546.7H190C191.7 546.7 192.4 547.5 192.4 548.8C192.4 550.1 191.7 550.9 190 550.9H187.8ZM186.1 556.8H187.9V552.4H190.3H190.4L192.8 556.8H194.8L192.2 552.1C193.6 551.6 194.3 550.4 194.3 548.8C194.3 546.7 193 545.2 190.3 545.2H186.2V556.8H186.1Z" fill="#333333"/>
<path d="M128 1182.6C128 1164.5 142.7 1149.8 160.8 1149.8H287.2C305.3 1149.8 320 1164.5 320 1182.6V1199C320 1217.1 305.3 1231.8 287.2 1231.8H160.8C142.7 1231.8 128 1217.1 128 1199V1182.6Z" fill="#FFD233"/>
<path d="M258.4 1196.8H265.8V1195.3H260.2V1191.7H265.4V1190.2H260.2V1186.7H265.7V1185.2H258.4V1196.8V1196.8ZM244.2 1185.2V1196.8H245.9V1188.4H246L249.4 1196.8H250.8L254.2 1188.4H254.3V1196.8H256V1185.2H253.9L250.2 1194.2H250L246.3 1185.2H244.2ZM235.7 1192.2L237.4 1187.2H237.5L239.2 1192.2H235.7ZM234.2 1196.8L235.3 1193.7H239.8L240.9 1196.8H242.8L238.6 1185.2H236.6L232.4 1196.8H234.2ZM230.8 1185.2H229V1193.7H228.9L223 1185.2H221.4V1196.8H223.2V1188.3H223.3L229.2 1196.8H230.8V1185.2ZM220.3 1196.8H212.9V1198.2H220.3V1196.8ZM211.1 1191C211.1 1193.8 209.6 1195.4 207.6 1195.4C205.6 1195.4 204.1 1193.9 204.1 1191C204.1 1188.2 205.6 1186.6 207.6 1186.6C209.6 1186.6 211.1 1188.1 211.1 1191ZM212.8 1191C212.8 1187.3 210.6 1185 207.6 1185C204.6 1185 202.4 1187.3 202.4 1191C202.4 1194.7 204.6 1197 207.6 1197C210.6 1197 212.8 1194.7 212.8 1191ZM194.3 1190.9V1186.7H196.5C198.2 1186.7 198.9 1187.5 198.9 1188.8C198.9 1190.1 198.2 1190.9 196.5 1190.9H194.3V1190.9ZM192.6 1196.8H194.4V1192.4H196.8H196.9L199.3 1196.8H201.3L198.7 1192.1C200.1 1191.6 200.8 1190.4 200.8 1188.8C200.8 1186.7 199.5 1185.2 196.8 1185.2H192.7V1196.8H192.6ZM184.3 1191.2V1186.6H186.5C188.2 1186.6 188.9 1187.5 188.9 1188.9C188.9 1190.2 188.2 1191.2 186.5 1191.2H184.3ZM182.5 1196.8H184.3V1192.7H186.7C189.4 1192.7 190.7 1191.1 190.7 1188.9C190.7 1186.8 189.4 1185.1 186.7 1185.1H182.6V1196.8H182.5Z" fill="#333333"/>
<path d="M128 1279.6C128 1261.5 142.7 1246.8 160.8 1246.8H287.2C305.3 1246.8 320 1261.5 320 1279.6V1296C320 1314.1 305.3 1328.8 287.2 1328.8H160.8C142.7 1328.8 128 1314.1 128 1296V1279.6Z" fill="#FFD233"/>
<path d="M258.4 1293.8H265.8V1292.3H260.2V1288.7H265.4V1287.2H260.2V1283.7H265.7V1282.2H258.4V1293.8V1293.8ZM244.2 1282.2V1293.8H245.9V1285.4H246L249.4 1293.8H250.8L254.2 1285.4H254.3V1293.8H256V1282.2H253.9L250.2 1291.2H250L246.3 1282.2H244.2ZM235.7 1289.2L237.4 1284.2H237.5L239.2 1289.2H235.7ZM234.2 1293.8L235.3 1290.7H239.8L240.9 1293.8H242.8L238.6 1282.2H236.6L232.4 1293.8H234.2ZM230.8 1282.2H229V1290.7H228.9L223 1282.2H221.4V1293.8H223.2V1285.3H223.3L229.2 1293.8H230.8V1282.2ZM220.3 1293.8H212.9V1295.2H220.3V1293.8ZM211.1 1288C211.1 1290.8 209.6 1292.4 207.6 1292.4C205.6 1292.4 204.1 1290.9 204.1 1288C204.1 1285.2 205.6 1283.6 207.6 1283.6C209.6 1283.6 211.1 1285.1 211.1 1288ZM212.8 1288C212.8 1284.3 210.6 1282 207.6 1282C204.6 1282 202.4 1284.3 202.4 1288C202.4 1291.7 204.6 1294 207.6 1294C210.6 1294 212.8 1291.7 212.8 1288ZM194.3 1287.9V1283.7H196.5C198.2 1283.7 198.9 1284.5 198.9 1285.8C198.9 1287.1 198.2 1287.9 196.5 1287.9H194.3V1287.9ZM192.6 1293.8H194.4V1289.4H196.8H196.9L199.3 1293.8H201.3L198.7 1289.1C200.1 1288.6 200.8 1287.4 200.8 1285.8C200.8 1283.7 199.5 1282.2 196.8 1282.2H192.7V1293.8H192.6ZM184.3 1288.2V1283.6H186.5C188.2 1283.6 188.9 1284.5 188.9 1285.9C188.9 1287.2 188.2 1288.2 186.5 1288.2H184.3ZM182.5 1293.8H184.3V1289.7H186.7C189.4 1289.7 190.7 1288.1 190.7 1285.9C190.7 1283.8 189.4 1282.1 186.7 1282.1H182.6V1293.8H182.5Z" fill="#333333"/>
<path d="M128 1376.6C128 1358.5 142.7 1343.8 160.8 1343.8H287.2C305.3 1343.8 320 1358.5 320 1376.6V1393C320 1411.1 305.3 1425.8 287.2 1425.8H160.8C142.7 1425.8 128 1411.1 128 1393V1376.6Z" fill="#FFD233"/>
<path d="M255 1390.8H262.4V1389.3H256.8V1385.7H262V1384.2H256.8V1380.7H262.3V1379.2H255V1390.8ZM246.7 1385.2V1380.6H248.9C250.6 1380.6 251.3 1381.5 251.3 1382.9C251.3 1384.2 250.6 1385.2 248.9 1385.2H246.7ZM244.9 1390.8H246.7V1386.7H249.1C251.8 1386.7 253.1 1385.1 253.1 1382.9C253.1 1380.8 251.8 1379.1 249.1 1379.1H245V1390.8H244.9ZM233.2 1379.2L237.4 1386.3V1390.9H239.2V1386.3L243.4 1379.2H241.4L238.4 1384.5H238.3L235.3 1379.2H233.2ZM223.3 1380.7H226.9V1390.8H228.7V1380.7H232.3V1379.2H223.3V1380.7ZM223.7 1390.8H216.3V1392.2H223.7V1390.8ZM214.5 1385C214.5 1387.8 213 1389.4 211 1389.4C209 1389.4 207.5 1387.9 207.5 1385C207.5 1382.2 209 1380.6 211 1380.6C213 1380.6 214.5 1382.1 214.5 1385ZM216.2 1385C216.2 1381.3 214 1379 211 1379C208 1379 205.8 1381.3 205.8 1385C205.8 1388.7 208 1391 211 1391C214 1391 216.2 1388.7 216.2 1385ZM197.8 1384.9V1380.7H200C201.7 1380.7 202.4 1381.5 202.4 1382.8C202.4 1384.1 201.7 1384.9 200 1384.9H197.8V1384.9ZM196 1390.8H197.8V1386.4H200.2H200.3L202.7 1390.8H204.7L202.1 1386.1C203.5 1385.6 204.2 1384.4 204.2 1382.8C204.2 1380.7 202.9 1379.2 200.2 1379.2H196V1390.8ZM187.7 1385.2V1380.6H189.9C191.6 1380.6 192.3 1381.5 192.3 1382.9C192.3 1384.2 191.6 1385.2 189.9 1385.2H187.7ZM185.9 1390.8H187.7V1386.7H190.1C192.8 1386.7 194.1 1385.1 194.1 1382.9C194.1 1380.8 192.8 1379.1 190.1 1379.1H186V1390.8H185.9Z" fill="#333333"/>
<path d="M999 1118.6C999 1100.5 1013.7 1085.8 1031.8 1085.8H1151.2C1169.3 1085.8 1184 1100.5 1184 1118.6V1135C1184 1153.1 1169.3 1167.8 1151.2 1167.8H1031.8C1013.7 1167.8 999 1153.1 999 1135V1118.6Z" fill="#FFD233"/>
<path d="M1125.6 1132.8H1133V1131.3H1127.4V1127.7H1132.6V1126.2H1127.4V1122.7H1132.9V1121.2H1125.6V1132.8V1132.8ZM1111.5 1121.2V1132.8H1113.2V1124.4H1113.3L1116.7 1132.8H1118.1L1121.5 1124.4H1121.6V1132.8H1123.3V1121.2H1121.2L1117.5 1130.2H1117.4L1113.7 1121.2H1111.5ZM1103 1128.2L1104.7 1123.2H1104.8L1106.5 1128.2H1103ZM1101.4 1132.8L1102.5 1129.7H1107L1108.1 1132.8H1110L1105.8 1121.2H1103.8L1099.6 1132.8H1101.4ZM1098.1 1121.2H1096.4V1129.7H1096.3L1090.4 1121.2H1088.8V1132.8H1090.6V1124.3H1090.7L1096.6 1132.8H1098.2V1121.2H1098.1ZM1087.6 1132.8H1080.2V1134.2H1087.6V1132.8ZM1073.1 1126.9V1122.7H1075.3C1077 1122.7 1077.7 1123.5 1077.7 1124.8C1077.7 1126.1 1077 1126.9 1075.3 1126.9H1073.1V1126.9ZM1071.3 1132.8H1073.1V1128.4H1075.5H1075.6L1078 1132.8H1080L1077.4 1128.1C1078.8 1127.6 1079.5 1126.4 1079.5 1124.8C1079.5 1122.7 1078.2 1121.2 1075.5 1121.2H1071.4V1132.8H1071.3ZM1059.7 1121.2L1063.9 1128.3V1132.9H1065.7V1128.3L1069.9 1121.2H1067.9L1064.9 1126.5H1064.8L1061.8 1121.2H1059.7ZM1052 1126.2V1122.7H1054.4C1055.8 1122.7 1056.5 1123.4 1056.5 1124.4C1056.5 1125.5 1055.6 1126.2 1054.4 1126.2H1052ZM1052 1131.3V1127.6H1054.6C1056 1127.6 1056.9 1128.5 1056.9 1129.6C1056.9 1130.6 1056.2 1131.3 1054.5 1131.3H1052ZM1050.3 1132.8H1054.8C1057.5 1132.8 1058.7 1131.5 1058.7 1129.7C1058.7 1127.9 1057.4 1126.9 1056.3 1126.8V1126.7C1057.4 1126.4 1058.3 1125.7 1058.3 1124.2C1058.3 1122.5 1057.1 1121.1 1054.6 1121.1H1050.3V1132.8Z" fill="#333333"/>
<path d="M999 1214.6C999 1196.5 1013.7 1181.8 1031.8 1181.8H1151.2C1169.3 1181.8 1184 1196.5 1184 1214.6V1231C1184 1249.1 1169.3 1263.8 1151.2 1263.8H1031.8C1013.7 1263.8 999 1249.1 999 1231V1214.6Z" fill="#FFD233"/>
<path d="M1131.9 1228.8H1139.3V1227.3H1133.7V1223.7H1138.9V1222.2H1133.7V1218.7H1139.2V1217.2H1131.9V1228.8V1228.8ZM1123.1 1228.8H1130.1V1227.3H1124.8V1217.2H1123V1228.8H1123.1ZM1120.7 1217.2H1118.9V1228.8H1120.7V1217.2ZM1110.4 1222.2V1218.7H1112.8C1114.2 1218.7 1114.9 1219.4 1114.9 1220.4C1114.9 1221.5 1114 1222.2 1112.8 1222.2H1110.4ZM1110.4 1227.3V1223.6H1113C1114.4 1223.6 1115.3 1224.5 1115.3 1225.6C1115.3 1226.6 1114.6 1227.3 1112.9 1227.3H1110.4ZM1108.7 1228.8H1113.2C1115.9 1228.8 1117.1 1227.5 1117.1 1225.7C1117.1 1223.9 1115.8 1222.9 1114.7 1222.8V1222.7C1115.8 1222.4 1116.7 1221.7 1116.7 1220.2C1116.7 1218.5 1115.5 1217.1 1113 1217.1H1108.7V1228.8ZM1104.9 1223C1104.9 1225.8 1103.4 1227.4 1101.4 1227.4C1099.4 1227.4 1097.9 1225.9 1097.9 1223C1097.9 1220.2 1099.4 1218.6 1101.4 1218.6C1103.4 1218.6 1104.9 1220.1 1104.9 1223ZM1106.6 1223C1106.6 1219.3 1104.4 1217 1101.4 1217C1098.4 1217 1096.2 1219.3 1096.2 1223C1096.2 1226.7 1098.4 1229 1101.4 1229C1104.4 1229 1106.6 1226.7 1106.6 1223ZM1082.4 1217.2V1228.8H1084.1V1220.4H1084.2L1087.6 1228.8H1089L1092.4 1220.4H1092.5V1228.8H1094.2V1217.2H1092.1L1088.4 1226.2H1088.3L1084.6 1217.2H1082.4ZM1081.3 1228.8H1073.9V1230.2H1081.3V1228.8ZM1066.8 1222.9V1218.7H1069C1070.7 1218.7 1071.4 1219.5 1071.4 1220.8C1071.4 1222.1 1070.7 1222.9 1069 1222.9H1066.8V1222.9ZM1065 1228.8H1066.8V1224.4H1069.2H1069.3L1071.7 1228.8H1073.7L1071.1 1224.1C1072.5 1223.6 1073.2 1222.4 1073.2 1220.8C1073.2 1218.7 1071.9 1217.2 1069.2 1217.2H1065.1V1228.8H1065ZM1053.4 1217.2L1057.6 1224.3V1228.9H1059.4V1224.3L1063.6 1217.2H1061.6L1058.6 1222.5H1058.5L1055.5 1217.2H1053.4ZM1045.7 1222.2V1218.7H1048.1C1049.5 1218.7 1050.2 1219.4 1050.2 1220.4C1050.2 1221.5 1049.3 1222.2 1048.1 1222.2H1045.7ZM1045.7 1227.3V1223.6H1048.3C1049.7 1223.6 1050.6 1224.5 1050.6 1225.6C1050.6 1226.6 1049.9 1227.3 1048.2 1227.3H1045.7ZM1044 1228.8H1048.5C1051.2 1228.8 1052.4 1227.5 1052.4 1225.7C1052.4 1223.9 1051.1 1222.9 1050 1222.8V1222.7C1051.1 1222.4 1052 1221.7 1052 1220.2C1052 1218.5 1050.8 1217.1 1048.3 1217.1H1044V1228.8Z" fill="#333333"/>
<path d="M999 1310.6C999 1292.5 1013.7 1277.8 1031.8 1277.8H1151.2C1169.3 1277.8 1184 1292.5 1184 1310.6V1327C1184 1345.1 1169.3 1359.8 1151.2 1359.8H1031.8C1013.7 1359.8 999 1345.1 999 1327V1310.6Z" fill="#FFD233"/>
<path d="M1119.2 1323.3V1314.7H1121.2C1123.7 1314.7 1125.1 1316.2 1125.1 1319C1125.1 1321.8 1123.8 1323.3 1121.1 1323.3H1119.2ZM1121.2 1324.8C1124.7 1324.8 1126.8 1322.6 1126.8 1319C1126.8 1315.4 1124.7 1313.2 1121.3 1313.2H1117.4V1324.8H1121.2ZM1107.8 1323.3V1314.7H1109.8C1112.3 1314.7 1113.7 1316.2 1113.7 1319C1113.7 1321.8 1112.4 1323.3 1109.7 1323.3H1107.8ZM1109.8 1324.8C1113.3 1324.8 1115.4 1322.6 1115.4 1319C1115.4 1315.4 1113.3 1313.2 1109.9 1313.2H1106V1324.8H1109.8ZM1097.6 1320.2L1099.3 1315.2H1099.4L1101.1 1320.2H1097.6ZM1096 1324.8L1097.1 1321.7H1101.6L1102.7 1324.8H1104.6L1100.4 1313.2H1098.4L1094.2 1324.8H1096ZM1093.9 1324.8H1086.5V1326.2H1093.9V1324.8ZM1079.4 1318.9V1314.7H1081.6C1083.3 1314.7 1084 1315.5 1084 1316.8C1084 1318.1 1083.3 1318.9 1081.6 1318.9H1079.4V1318.9ZM1077.7 1324.8H1079.5V1320.4H1081.9H1082L1084.4 1324.8H1086.4L1083.8 1320.1C1085.2 1319.6 1085.9 1318.4 1085.9 1316.8C1085.9 1314.7 1084.6 1313.2 1081.9 1313.2H1077.8V1324.8H1077.7ZM1066 1313.2L1070.2 1320.3V1324.9H1072V1320.3L1076.2 1313.2H1074.2L1071.2 1318.5H1071.1L1068.1 1313.2H1066ZM1058.4 1318.2V1314.7H1060.8C1062.2 1314.7 1062.9 1315.4 1062.9 1316.4C1062.9 1317.5 1062 1318.2 1060.8 1318.2H1058.4ZM1058.4 1323.3V1319.6H1061C1062.4 1319.6 1063.3 1320.5 1063.3 1321.6C1063.3 1322.6 1062.6 1323.3 1060.9 1323.3H1058.4ZM1056.6 1324.8H1061.1C1063.8 1324.8 1065 1323.5 1065 1321.7C1065 1319.9 1063.7 1318.9 1062.6 1318.8V1318.7C1063.7 1318.4 1064.6 1317.7 1064.6 1316.2C1064.6 1314.5 1063.4 1313.1 1060.9 1313.1H1056.6V1324.8Z" fill="#333333"/>
<path d="M999 1406.6C999 1388.5 1013.7 1373.8 1031.8 1373.8H1151.2C1169.3 1373.8 1184 1388.5 1184 1406.6V1423C1184 1441.1 1169.3 1455.8 1151.2 1455.8H1031.8C1013.7 1455.8 999 1441.1 999 1423V1406.6Z" fill="#FFD233"/>
<path d="M1128.1 1412.2H1129.8C1129.7 1410.3 1128.1 1409 1125.7 1409C1123.4 1409 1121.6 1410.3 1121.6 1412.3C1121.6 1413.9 1122.8 1414.9 1124.6 1415.4L1126 1415.8C1127.2 1416.1 1128.2 1416.5 1128.2 1417.6C1128.2 1418.7 1127.1 1419.5 1125.6 1419.5C1124.2 1419.5 1123.1 1418.9 1123 1417.6H1121.2C1121.3 1419.7 1122.9 1421 1125.6 1421C1128.3 1421 1129.9 1419.6 1129.9 1417.6C1129.9 1415.5 1128 1414.7 1126.6 1414.3L1125.5 1414C1124.6 1413.8 1123.4 1413.3 1123.4 1412.2C1123.4 1411.2 1124.3 1410.5 1125.7 1410.5C1127 1410.5 1128 1411.1 1128.1 1412.2ZM1118 1412.2H1119.7C1119.6 1410.3 1118 1409 1115.6 1409C1113.3 1409 1111.5 1410.3 1111.5 1412.3C1111.5 1413.9 1112.7 1414.9 1114.5 1415.4L1115.9 1415.8C1117.1 1416.1 1118.1 1416.5 1118.1 1417.6C1118.1 1418.7 1117 1419.5 1115.5 1419.5C1114.1 1419.5 1113 1418.9 1112.9 1417.6H1111.1C1111.2 1419.7 1112.8 1421 1115.5 1421C1118.2 1421 1119.8 1419.6 1119.8 1417.6C1119.8 1415.5 1117.9 1414.7 1116.5 1414.3L1115.4 1414C1114.5 1413.8 1113.3 1413.3 1113.3 1412.2C1113.3 1411.2 1114.2 1410.5 1115.6 1410.5C1116.9 1410.5 1117.9 1411.1 1118 1412.2ZM1103.3 1416.2L1105 1411.2H1105.1L1106.8 1416.2H1103.3ZM1101.7 1420.8L1102.8 1417.7H1107.3L1108.4 1420.8H1110.3L1106.1 1409.2H1104.1L1099.9 1420.8H1101.7ZM1093.6 1415.2V1410.6H1095.8C1097.5 1410.6 1098.2 1411.5 1098.2 1412.9C1098.2 1414.2 1097.5 1415.2 1095.8 1415.2H1093.6ZM1091.9 1420.8H1093.7V1416.7H1096.1C1098.8 1416.7 1100.1 1415.1 1100.1 1412.9C1100.1 1410.8 1098.8 1409.1 1096.1 1409.1H1092V1420.8H1091.9ZM1090.8 1420.8H1083.4V1422.2H1090.8V1420.8ZM1076.3 1414.9V1410.7H1078.5C1080.2 1410.7 1080.9 1411.5 1080.9 1412.8C1080.9 1414.1 1080.2 1414.9 1078.5 1414.9H1076.3V1414.9ZM1074.6 1420.8H1076.4V1416.4H1078.8H1078.9L1081.3 1420.8H1083.3L1080.7 1416.1C1082.1 1415.6 1082.8 1414.4 1082.8 1412.8C1082.8 1410.7 1081.5 1409.2 1078.8 1409.2H1074.7V1420.8H1074.6ZM1062.9 1409.2L1067.1 1416.3V1420.9H1068.9V1416.3L1073.1 1409.2H1071.1L1068.1 1414.5H1068L1065 1409.2H1062.9ZM1055.3 1414.2V1410.7H1057.7C1059.1 1410.7 1059.8 1411.4 1059.8 1412.4C1059.8 1413.5 1058.9 1414.2 1057.7 1414.2H1055.3ZM1055.3 1419.3V1415.6H1057.9C1059.3 1415.6 1060.2 1416.5 1060.2 1417.6C1060.2 1418.6 1059.5 1419.3 1057.8 1419.3H1055.3ZM1053.5 1420.8H1058C1060.7 1420.8 1061.9 1419.5 1061.9 1417.7C1061.9 1415.9 1060.6 1414.9 1059.5 1414.8V1414.7C1060.6 1414.4 1061.5 1413.7 1061.5 1412.2C1061.5 1410.5 1060.3 1409.1 1057.8 1409.1H1053.5V1420.8Z" fill="#333333"/>
<path d="M927.1 1223.9C941.2 1223.9 952.6 1212.5 952.6 1198.4H949.6C949.6 1210.8 939.5 1220.9 927.1 1220.9V1223.9ZM952.6 1054.4C952.6 1042 962.7 1031.9 975.1 1031.9V1028.9C961 1028.9 949.6 1040.3 949.6 1054.4H952.6ZM975.1 1031.9H995V1028.9H975.1V1031.9ZM952.6 1198.4V1054.4H949.6V1198.4H952.6ZM907.1 1223.9H927V1220.9H907.1V1223.9ZM996.1 1031.4C996.7 1030.8 996.7 1029.9 996.1 1029.3L986.6 1019.8C986 1019.2 985.1 1019.2 984.5 1019.8C983.9 1020.4 983.9 1021.3 984.5 1021.9L993 1030.4L984.5 1038.9C983.9 1039.5 983.9 1040.4 984.5 1041C985.1 1041.6 986 1041.6 986.6 1041L996.1 1031.4ZM907.1 1220.9C906.3 1220.9 905.6 1221.6 905.6 1222.4C905.6 1223.2 906.3 1223.9 907.1 1223.9V1220.9Z" fill="#C4C4C4"/>
<path d="M927.1 1223.9C941.2 1223.9 952.6 1212.5 952.6 1198.4H949.6C949.6 1210.8 939.5 1220.9 927.1 1220.9V1223.9ZM952.6 1150.8C952.6 1138.4 962.7 1128.3 975.1 1128.3V1125.3C961 1125.3 949.6 1136.7 949.6 1150.8H952.6ZM975.1 1128.3H995V1125.3H975.1V1128.3ZM952.6 1198.4V1150.8H949.6V1198.4H952.6ZM907.1 1223.9H927V1220.9H907.1V1223.9ZM996.1 1127.9C996.7 1127.3 996.7 1126.4 996.1 1125.8L986.6 1116.3C986 1115.7 985.1 1115.7 984.5 1116.3C983.9 1116.9 983.9 1117.8 984.5 1118.4L993 1126.9L984.5 1135.4C983.9 1136 983.9 1136.9 984.5 1137.5C985.1 1138.1 986 1138.1 986.6 1137.5L996.1 1127.9ZM907.1 1220.9C906.3 1220.9 905.6 1221.6 905.6 1222.4C905.6 1223.2 906.3 1223.9 907.1 1223.9V1220.9Z" fill="#C4C4C4"/>
<path d="M950.8 1223.9C950.1 1223.9 949.5 1223.3 949.5 1222.6H952.5C952.5 1221.7 951.7 1220.9 950.8 1220.9V1223.9ZM949.6 1222.6C949.6 1223.5 950.4 1224.3 951.3 1224.3V1221.3C952 1221.3 952.6 1221.9 952.6 1222.6H949.6ZM951.3 1224.3H995V1221.3H951.3V1224.3ZM907.1 1223.9H950.8V1220.9H907.1V1223.9ZM996.1 1223.9C996.7 1223.3 996.7 1222.4 996.1 1221.8L986.6 1212.3C986 1211.7 985.1 1211.7 984.5 1212.3C983.9 1212.9 983.9 1213.8 984.5 1214.4L993 1222.9L984.5 1231.4C983.9 1232 983.9 1232.9 984.5 1233.5C985.1 1234.1 986 1234.1 986.6 1233.5L996.1 1223.9ZM907.1 1220.9C906.3 1220.9 905.6 1221.6 905.6 1222.4C905.6 1223.2 906.3 1223.9 907.1 1223.9V1220.9Z" fill="#C4C4C4"/>
<path d="M927.1 1223.9C939.5 1223.9 949.6 1234 949.6 1246.4H952.6C952.6 1232.3 941.2 1220.9 927.1 1220.9V1223.9ZM949.6 1294.8C949.6 1308.9 961 1320.3 975.1 1320.3V1317.3C962.7 1317.3 952.6 1307.2 952.6 1294.8H949.6ZM975.1 1320.3H995V1317.3H975.1V1320.3ZM949.6 1246.4V1294.8H952.6V1246.4H949.6ZM907.1 1223.9H927V1220.9H907.1V1223.9ZM996.1 1319.9C996.7 1319.3 996.7 1318.4 996.1 1317.8L986.6 1308.3C986 1307.7 985.1 1307.7 984.5 1308.3C983.9 1308.9 983.9 1309.8 984.5 1310.4L993 1318.9L984.5 1327.4C983.9 1328 983.9 1328.9 984.5 1329.5C985.1 1330.1 986 1330.1 986.6 1329.5L996.1 1319.9ZM907.1 1220.9C906.3 1220.9 905.6 1221.6 905.6 1222.4C905.6 1223.2 906.3 1223.9 907.1 1223.9V1220.9Z" fill="#C4C4C4"/>
<path d="M927.1 1223.9C939.5 1223.9 949.6 1234 949.6 1246.4H952.6C952.6 1232.3 941.2 1220.9 927.1 1220.9V1223.9ZM949.6 1390.8C949.6 1404.9 961 1416.3 975.1 1416.3V1413.3C962.7 1413.3 952.6 1403.2 952.6 1390.8H949.6ZM975.1 1416.3H995V1413.3H975.1V1416.3ZM949.6 1246.4V1390.8H952.6V1246.4H949.6ZM907.1 1223.9H927V1220.9H907.1V1223.9ZM996.1 1415.9C996.7 1415.3 996.7 1414.4 996.1 1413.8L986.6 1404.3C986 1403.7 985.1 1403.7 984.5 1404.3C983.9 1404.9 983.9 1405.8 984.5 1406.4L993 1414.9L984.5 1423.4C983.9 1424 983.9 1424.9 984.5 1425.5C985.1 1426.1 986 1426.1 986.6 1425.5L996.1 1415.9ZM907.1 1220.9C906.3 1220.9 905.6 1221.6 905.6 1222.4C905.6 1223.2 906.3 1223.9 907.1 1223.9V1220.9Z" fill="#C4C4C4"/>
<path d="M775 784.2C775 782.9 776.1 781.8 777.4 781.8H900.6C901.9 781.8 903 782.9 903 784.2V860.5C903 861.8 901.9 862.9 900.6 862.9H777.4C776.1 862.9 775 861.8 775 860.5V784.2Z" fill="#85B6FF"/>
<path d="M864.7 822.6C864.5 821 863.2 820 861 820C858.8 820 857.3 821 857.3 822.7C857.3 824 858.1 824.9 859.8 825.2L861.3 825.5C862.1 825.7 862.4 825.9 862.4 826.4C862.4 826.9 861.8 827.3 861 827.3C860.1 827.3 859.6 826.9 859.4 826.2L857 826.3C857.2 828 858.6 829 861 829C863.3 829 864.9 827.8 864.9 826.1C864.9 824.8 864.1 824.1 862.4 823.7L860.8 823.4C860 823.2 859.7 822.9 859.7 822.5C859.7 822 860.3 821.6 861 821.6C861.8 821.6 862.3 822.1 862.5 822.6H864.7ZM851.1 828.8H853.5V823.9C853.5 822.8 854.3 822.1 855.4 822.1C855.7 822.1 856.2 822.2 856.4 822.2V820C856.2 819.9 855.9 819.9 855.6 819.9C854.6 819.9 853.8 820.5 853.5 821.5H853.4V820H851.1V828.8ZM843.7 823.6C843.8 822.6 844.5 821.8 845.6 821.8C846.7 821.8 847.4 822.6 847.4 823.6H843.7ZM845.7 829C847.9 829 849.3 827.9 849.7 826.3L847.5 826.2C847.3 826.9 846.6 827.2 845.8 827.2C844.6 827.2 843.8 826.4 843.8 825.1H849.7V824.4C849.7 821.4 847.9 820 845.6 820C843 820 841.4 821.8 841.4 824.5C841.3 827.2 843 829 845.7 829ZM839.9 817.2H837.5V828.8H839.9V817.2ZM835.7 817.2H833.3V828.8H835.7V817.2ZM826 823.6C826.1 822.6 826.8 821.8 827.9 821.8C829 821.8 829.7 822.6 829.7 823.6H826ZM827.9 829C830.1 829 831.5 827.9 831.9 826.3L829.7 826.2C829.5 826.9 828.8 827.2 828 827.2C826.8 827.2 826 826.4 826 825.1H831.9V824.4C831.9 821.4 830.1 820 827.8 820C825.2 820 823.6 821.8 823.6 824.5C823.6 827.2 825.2 829 827.9 829ZM820 820.5H822.4C822.4 818.4 820.7 817 818.1 817C815.5 817 813.7 818.4 813.7 820.5C813.7 822.2 814.9 823.2 816.9 823.7L818.2 824C819.5 824.3 820.2 824.7 820.2 825.5C820.2 826.4 819.4 826.9 818.1 826.9C816.8 826.9 815.9 826.3 815.8 825.1H813.4C813.5 827.6 815.3 828.9 818.1 828.9C820.9 828.9 822.6 827.5 822.6 825.4C822.6 823.5 821.1 822.4 819.1 822L818.1 821.7C817.1 821.5 816.2 821.1 816.3 820.3C816.3 819.5 817 819 818.2 819C819.2 819.1 819.9 819.6 820 820.5Z" fill="#333333"/>
<path d="M400 784.2C400 782.9 401.1 781.8 402.4 781.8H557.5C558.8 781.8 559.9 782.9 559.9 784.2V860.5C559.9 861.8 558.8 862.9 557.5 862.9H402.4C401.1 862.9 400 861.8 400 860.5V784.2Z" fill="#85B6FF"/>
<path d="M492.5 828.8H494.9V823.9C494.9 822.8 495.7 822.1 496.8 822.1C497.1 822.1 497.6 822.2 497.8 822.2V820C497.6 819.9 497.3 819.9 497 819.9C496 819.9 495.2 820.5 494.9 821.5H494.8V820H492.5V828.8V828.8ZM485.2 823.6C485.3 822.6 486 821.8 487.1 821.8C488.2 821.8 488.9 822.6 488.9 823.6H485.2ZM487.1 829C489.3 829 490.7 827.9 491.1 826.3L488.9 826.2C488.7 826.9 488 827.2 487.2 827.2C486 827.2 485.2 826.4 485.2 825.1H491.1V824.4C491.1 821.4 489.3 820 487 820C484.4 820 482.8 821.8 482.8 824.5C482.8 827.2 484.4 829 487.1 829ZM481.6 822.6C481.4 821 480.1 820 477.9 820C475.7 820 474.2 821 474.2 822.7C474.2 824 475 824.9 476.7 825.2L478.2 825.5C479 825.7 479.3 825.9 479.3 826.4C479.3 826.9 478.7 827.3 477.9 827.3C477 827.3 476.5 826.9 476.3 826.2L473.9 826.3C474.1 828 475.5 829 477.9 829C480.2 829 481.8 827.8 481.8 826.1C481.8 824.8 481 824.1 479.3 823.7L477.7 823.4C476.9 823.2 476.6 822.9 476.6 822.5C476.6 822 477.2 821.6 477.9 821.6C478.7 821.6 479.2 822.1 479.4 822.6H481.6ZM470.1 817.2V824.5C470.1 825.8 469.2 826.8 467.7 826.8C466.3 826.8 465.3 825.8 465.3 824.5V817.2H462.8V824.8C462.8 827.3 464.7 829 467.6 829C470.5 829 472.4 827.3 472.4 824.8V817.2H470.1Z" fill="#333333"/>
<path d="M775 523.2C775 521.9 776.1 520.8 777.4 520.8H900.6C901.9 520.8 903 521.9 903 523.2V599.5C903 600.8 901.9 601.9 900.6 601.9H777.4C776.1 601.9 775 600.8 775 599.5V523.2Z" fill="#85B6FF"/>
<path d="M853.8 562.8C853.8 561.7 854.5 561 855.5 561C856.5 561 857.1 561.6 857.1 562.7V567.8H859.5V562.2C859.5 560.2 858.3 558.9 856.5 558.9C855.2 558.9 854.3 559.5 853.9 560.6H853.8V559.1H851.5V567.8H853.9V562.8H853.8ZM848.4 557.9C849.1 557.9 849.7 557.3 849.7 556.7C849.7 556 849.1 555.5 848.4 555.5C847.7 555.5 847.1 556.1 847.1 556.7C847.1 557.4 847.7 557.9 848.4 557.9ZM847.2 567.8H849.6V559.1H847.2V567.8ZM841.2 565.9C840 565.9 839.4 565 839.4 563.5C839.4 562 840 561 841.2 561C842.4 561 843 562 843 563.5C843.1 564.9 842.4 565.9 841.2 565.9ZM841.2 571.3C843.7 571.3 845.5 570.2 845.5 567.9V559.1H843V560.6H842.9C842.6 559.9 841.9 559 840.4 559C838.5 559 836.9 560.5 836.9 563.5C836.9 566.4 838.5 567.8 840.4 567.8C841.8 567.8 842.6 567.1 842.9 566.4H843V568C843 569.2 842.2 569.7 841.2 569.7C840.1 569.7 839.6 569.2 839.4 568.7L837.2 569C837.5 570.2 838.8 571.3 841.2 571.3ZM831.6 566.1C830.4 566.1 829.8 565 829.8 563.5C829.8 562 830.4 560.9 831.6 560.9C832.8 560.9 833.4 562 833.4 563.5C833.4 565 832.8 566.1 831.6 566.1ZM831.6 568C834.2 568 835.9 566.2 835.9 563.5C835.9 560.8 834.3 559 831.6 559C829 559 827.3 560.8 827.3 563.5C827.3 566.2 828.9 568 831.6 568ZM818.8 567.8H826.2V565.8H821.2V556.2H818.7V567.8H818.8Z" fill="#333333"/>
<path d="M927.1 823.9C941.2 823.9 952.6 812.5 952.6 798.4H949.6C949.6 810.8 939.5 820.9 927.1 820.9V823.9ZM952.6 750.4C952.6 738 962.7 727.9 975.1 727.9V724.9C961 724.9 949.6 736.3 949.6 750.4H952.6ZM975.1 727.9H995V724.9H975.1V727.9ZM952.6 798.4V750.4H949.6V798.4H952.6ZM907.1 823.9H927V820.9H907.1V823.9ZM996.1 727.4C996.7 726.8 996.7 725.9 996.1 725.3L986.6 715.8C986 715.2 985.1 715.2 984.5 715.8C983.9 716.4 983.9 717.3 984.5 717.9L993 726.4L984.5 734.9C983.9 735.5 983.9 736.4 984.5 737C985.1 737.6 986 737.6 986.6 737L996.1 727.4ZM907.1 820.9C906.3 820.9 905.6 821.6 905.6 822.4C905.6 823.2 906.3 823.9 907.1 823.9V820.9Z" fill="#C4C4C4"/>
<path d="M950.8 823.9C950.1 823.9 949.5 823.3 949.5 822.6H952.5C952.5 821.7 951.7 820.9 950.8 820.9V823.9ZM949.6 822.6C949.6 823.5 950.4 824.3 951.3 824.3V821.3C952 821.3 952.6 821.9 952.6 822.6H949.6ZM951.3 824.3H995V821.3H951.3V824.3ZM907.1 823.9H950.8V820.9H907.1V823.9ZM996.1 823.9C996.7 823.3 996.7 822.4 996.1 821.8L986.6 812.3C986 811.7 985.1 811.7 984.5 812.3C983.9 812.9 983.9 813.8 984.5 814.4L993 822.9L984.5 831.4C983.9 832 983.9 832.9 984.5 833.5C985.1 834.1 986 834.1 986.6 833.5L996.1 823.9ZM907.1 820.9C906.3 820.9 905.6 821.6 905.6 822.4C905.6 823.2 906.3 823.9 907.1 823.9V820.9Z" fill="#C4C4C4"/>
<path d="M927.1 823.9C939.5 823.9 949.6 834 949.6 846.4H952.6C952.6 832.3 941.2 820.9 927.1 820.9V823.9ZM949.6 895.8C949.6 909.9 961 921.3 975.1 921.3V918.3C962.7 918.3 952.6 908.2 952.6 895.8H949.6ZM975.1 921.3H995V918.3H975.1V921.3ZM949.6 846.4V895.8H952.6V846.4H949.6ZM907.1 823.9H927V820.9H907.1V823.9ZM996.1 920.9C996.7 920.3 996.7 919.4 996.1 918.8L986.6 909.3C986 908.7 985.1 908.7 984.5 909.3C983.9 909.9 983.9 910.8 984.5 911.4L993 919.9L984.5 928.4C983.9 929 983.9 929.9 984.5 930.5C985.1 931.1 986 931.1 986.6 930.5L996.1 920.9ZM907.1 820.9C906.3 820.9 905.6 821.6 905.6 822.4C905.6 823.2 906.3 823.9 907.1 823.9V820.9Z" fill="#C4C4C4"/>
<path d="M656.1 899.1C658.2 897.4 661.1 897.4 663.2 899.1L773.3 987.5C776.1 989.8 776.1 994 773.3 996.3L663.2 1084.7C661.1 1086.4 658.2 1086.4 656.1 1084.7L546 996.3C543.2 994 543.2 989.8 546 987.5L656.1 899.1Z" fill="#4ECB71"/>
<path d="M700.8 991.4C700.5 989 698.5 987.5 695.2 987.5C691.9 987.5 689.6 989.1 689.7 991.6C689.7 993.6 690.9 994.8 693.5 995.3L695.8 995.8C696.9 996 697.5 996.4 697.5 997.1C697.5 997.9 696.6 998.4 695.4 998.4C694.1 998.4 693.2 997.8 693 996.8L689.4 997C689.7 999.5 691.9 1001 695.3 1001C698.7 1001 701.1 999.3 701.1 996.7C701.1 994.8 699.9 993.7 697.3 993.2L694.9 992.7C693.7 992.4 693.2 992 693.2 991.4C693.2 990.6 694.1 990.1 695.2 990.1C696.5 990.1 697.2 990.8 697.4 991.6L700.8 991.4ZM687.8 991.4C687.5 989 685.5 987.5 682.2 987.5C678.9 987.5 676.6 989.1 676.7 991.6C676.7 993.6 677.9 994.8 680.5 995.3L682.8 995.8C683.9 996 684.5 996.4 684.5 997.1C684.5 997.9 683.6 998.4 682.4 998.4C681.1 998.4 680.2 997.8 680 996.8L676.4 997C676.7 999.5 678.9 1001 682.3 1001C685.7 1001 688.1 999.3 688.1 996.7C688.1 994.8 686.9 993.7 684.3 993.2L681.9 992.7C680.7 992.4 680.2 992 680.2 991.4C680.2 990.6 681.1 990.1 682.2 990.1C683.5 990.1 684.2 990.8 684.4 991.6L687.8 991.4ZM666.1 992.9C666.2 991.4 667.3 990.2 668.9 990.2C670.5 990.2 671.6 991.3 671.6 992.9H666.1ZM669 1001.1C672.2 1001.1 674.4 999.5 674.9 997.1L671.5 996.9C671.1 997.9 670.2 998.4 669 998.4C667.2 998.4 666 997.2 666 995.2H674.9V994.2C674.9 989.8 672.2 987.6 668.7 987.6C664.8 987.6 662.4 990.3 662.4 994.4C662.5 998.5 665 1001.1 669 1001.1ZM655.3 1001.1C658.8 1001.1 661 999.1 661.1 996H657.7C657.5 997.4 656.6 998.2 655.3 998.2C653.6 998.2 652.5 996.8 652.5 994.3C652.5 991.8 653.6 990.4 655.3 990.4C656.6 990.4 657.5 991.3 657.7 992.6H661.1C660.9 989.6 658.7 987.6 655.2 987.6C651.2 987.6 648.8 990.4 648.8 994.4C648.9 998.3 651.3 1001.1 655.3 1001.1ZM641.7 1001.1C645.2 1001.1 647.4 999.1 647.5 996H644.1C643.9 997.4 643 998.2 641.7 998.2C640 998.2 638.9 996.8 638.9 994.3C638.9 991.8 640 990.4 641.7 990.4C643 990.4 643.9 991.3 644.1 992.6H647.5C647.3 989.6 645.1 987.6 641.6 987.6C637.6 987.6 635.2 990.4 635.2 994.4C635.2 998.3 637.6 1001.1 641.7 1001.1ZM624.2 993.9L626.3 987.3H626.4L628.5 993.9H624.2ZM622 1000.8L623.3 996.8H629.6L630.9 1000.8H634.9L628.9 983.3H624L618 1000.8H622Z" fill="#333333"/>
<path d="M658.2 1198.4C658.2 1212.5 669.6 1223.9 683.7 1223.9V1220.9C671.3 1220.9 661.2 1210.8 661.2 1198.4H658.2ZM683.7 1223.9H771V1220.9H683.7V1223.9ZM658.2 1089.8V1198.4H661.2V1089.8H658.2ZM772.1 1223.4C772.7 1222.8 772.7 1221.9 772.1 1221.3L762.6 1211.8C762 1211.2 761.1 1211.2 760.5 1211.8C759.9 1212.4 759.9 1213.3 760.5 1213.9L769 1222.4L760.5 1230.9C759.9 1231.5 759.9 1232.4 760.5 1233C761.1 1233.6 762 1233.6 762.6 1233L772.1 1223.4ZM661.2 1089.8C661.2 1089 660.5 1088.3 659.7 1088.3C658.9 1088.3 658.2 1089 658.2 1089.8H661.2Z" fill="#C4C4C4"/>
<path d="M815.1 993.3C829.2 993.3 840.6 981.9 840.6 967.8H837.6C837.6 980.2 827.5 990.3 815.1 990.3V993.3ZM840.6 967.8V866.9H837.6V967.8H840.6ZM779.4 993.3H815.1V990.3H779.4V993.3ZM840.1 865.9C839.5 865.3 838.6 865.3 838 865.9L828.5 875.4C827.9 876 827.9 876.9 828.5 877.5C829.1 878.1 830 878.1 830.6 877.5L839.1 869L847.6 877.5C848.2 878.1 849.1 878.1 849.7 877.5C850.3 876.9 850.3 876 849.7 875.4L840.1 865.9ZM779.4 990.3C778.6 990.3 777.9 991 777.9 991.8C777.9 992.6 778.6 993.3 779.4 993.3V990.3Z" fill="#C4C4C4"/>
<path d="M392 1237.9C379.6 1237.9 369.5 1227.8 369.5 1215.4H366.5C366.5 1229.5 377.9 1240.9 392 1240.9V1237.9ZM369.5 1118.4C369.5 1104.3 358.1 1092.9 344 1092.9V1095.9C356.4 1095.9 366.5 1106 366.5 1118.4H369.5ZM344 1092.9H324V1095.9H344V1092.9ZM369.5 1215.4V1118.4H366.5V1215.4H369.5ZM412 1237.9H392V1240.9H412V1237.9ZM322.9 1093.3C322.3 1093.9 322.3 1094.8 322.9 1095.4L332.4 1104.9C333 1105.5 333.9 1105.5 334.5 1104.9C335.1 1104.3 335.1 1103.4 334.5 1102.8L326 1094.3L334.5 1085.8C335.1 1085.2 335.1 1084.3 334.5 1083.7C333.9 1083.1 333 1083.1 332.4 1083.7L322.9 1093.3ZM412 1240.9C412.8 1240.9 413.5 1240.2 413.5 1239.4C413.5 1238.6 412.8 1237.9 412 1237.9V1240.9Z" fill="#C4C4C4"/>
<path d="M392 1237.9C379.6 1237.9 369.5 1227.8 369.5 1215.4H366.5C366.5 1229.5 377.9 1240.9 392 1240.9V1237.9ZM369.5 1214.8C369.5 1200.7 358.1 1189.3 344 1189.3V1192.3C356.4 1192.3 366.5 1202.4 366.5 1214.8H369.5ZM344 1189.3H324V1192.3H344V1189.3ZM369.5 1215.4V1214.8H366.5V1215.4H369.5ZM412 1237.9H392V1240.9H412V1237.9ZM322.9 1189.7C322.3 1190.3 322.3 1191.2 322.9 1191.8L332.4 1201.3C333 1201.9 333.9 1201.9 334.5 1201.3C335.1 1200.7 335.1 1199.8 334.5 1199.2L326 1190.7L334.5 1182.2C335.1 1181.6 335.1 1180.7 334.5 1180.1C333.9 1179.5 333 1179.5 332.4 1180.1L322.9 1189.7ZM412 1240.9C412.8 1240.9 413.5 1240.2 413.5 1239.4C413.5 1238.6 412.8 1237.9 412 1237.9V1240.9Z" fill="#C4C4C4"/>
<path d="M392 1237.9C377.9 1237.9 366.5 1249.6 366.5 1263.6H369.5C369.5 1251.2 379.6 1240.9 392 1240.9V1237.9ZM366.5 1263.6C366.5 1276 356.4 1286.3 344 1286.3V1289.3C358.1 1289.3 369.5 1277.6 369.5 1263.6H366.5ZM344 1286.3H324V1289.3H344V1286.3ZM412 1237.9H392V1240.9H412V1237.9ZM322.9 1286.7C322.3 1287.3 322.3 1288.2 322.9 1288.8L332.4 1298.3C333 1298.9 333.9 1298.9 334.5 1298.3C335.1 1297.7 335.1 1296.8 334.5 1296.2L326 1287.7L334.5 1279.2C335.1 1278.6 335.1 1277.7 334.5 1277.1C333.9 1276.5 333 1276.5 332.4 1277.1L322.9 1286.7ZM412 1240.9C412.8 1240.9 413.5 1240.2 413.5 1239.4C413.5 1238.6 412.8 1237.9 412 1237.9V1240.9Z" fill="#C4C4C4"/>
<path d="M392 1237.9C377.9 1237.9 366.5 1249.3 366.5 1263.4H369.5C369.5 1251 379.6 1240.9 392 1240.9V1237.9ZM366.5 1360.8C366.5 1373.2 356.4 1383.3 344 1383.3V1386.3C358.1 1386.3 369.5 1374.9 369.5 1360.8H366.5ZM344 1383.3H324V1386.3H344V1383.3ZM366.5 1263.4V1360.8H369.5V1263.4H366.5ZM412 1237.9H392V1240.9H412V1237.9ZM322.9 1383.7C322.3 1384.3 322.3 1385.2 322.9 1385.8L332.4 1395.3C333 1395.9 333.9 1395.9 334.5 1395.3C335.1 1394.7 335.1 1393.8 334.5 1393.2L326 1384.7L334.5 1376.2C335.1 1375.6 335.1 1374.7 334.5 1374.1C333.9 1373.5 333 1373.5 332.4 1374.1L322.9 1383.7ZM412 1240.9C412.8 1240.9 413.5 1240.2 413.5 1239.4C413.5 1238.6 412.8 1237.9 412 1237.9V1240.9Z" fill="#C4C4C4"/>
<path d="M504.1 990.3C490 990.3 478.6 1001.7 478.6 1015.8H481.6C481.6 1003.4 491.7 993.3 504.1 993.3V990.3ZM478.6 1015.8V1194.8H481.6V1015.8H478.6ZM540 990.3H504.1V993.3H540V990.3ZM479 1195.9C479.6 1196.5 480.5 1196.5 481.1 1195.9L490.6 1186.4C491.2 1185.8 491.2 1184.9 490.6 1184.3C490 1183.7 489.1 1183.7 488.5 1184.3L480 1192.8L471.5 1184.3C470.9 1183.7 470 1183.7 469.4 1184.3C468.8 1184.9 468.8 1185.8 469.4 1186.4L479 1195.9ZM540 993.3C540.8 993.3 541.5 992.6 541.5 991.8C541.5 991 540.8 990.3 540 990.3V993.3Z" fill="#C4C4C4"/>
<path d="M384 820.9C371.6 820.9 361.5 810.8 361.5 798.4H358.5C358.5 812.5 369.9 823.9 384 823.9V820.9ZM361.5 701.4C361.5 687.3 350.1 675.9 336 675.9V678.9C348.4 678.9 358.5 689 358.5 701.4H361.5ZM336 675.9H324V678.9H336V675.9ZM361.5 798.4V701.4H358.5V798.4H361.5ZM396 820.9H384V823.9H396V820.9ZM322.9 676.3C322.3 676.9 322.3 677.8 322.9 678.4L332.4 687.9C333 688.5 333.9 688.5 334.5 687.9C335.1 687.3 335.1 686.4 334.5 685.8L326 677.3L334.5 668.8C335.1 668.2 335.1 667.3 334.5 666.7C333.9 666.1 333 666.1 332.4 666.7L322.9 676.3ZM396 823.9C396.8 823.9 397.5 823.2 397.5 822.4C397.5 821.6 396.8 820.9 396 820.9V823.9Z" fill="#C4C4C4"/>
<path d="M384 820.9C371.6 820.9 361.5 810.6 361.5 798.2H358.5C358.5 812.3 369.9 823.9 384 823.9V820.9ZM361.5 798.2C361.5 784.1 350.1 772.5 336 772.5V775.5C348.4 775.5 358.5 785.8 358.5 798.2H361.5ZM336 772.4H324V775.4H336V772.4ZM396 820.9H384V823.9H396V820.9ZM322.9 772.9C322.3 773.5 322.3 774.4 322.9 775L332.4 784.5C333 785.1 333.9 785.1 334.5 784.5C335.1 783.9 335.1 783 334.5 782.4L326 773.9L334.5 765.4C335.1 764.8 335.1 763.9 334.5 763.3C333.9 762.7 333 762.7 332.4 763.3L322.9 772.9ZM396 823.9C396.8 823.9 397.5 823.2 397.5 822.4C397.5 821.6 396.8 820.9 396 820.9V823.9Z" fill="#C4C4C4"/>
<path d="M384 820.9C369.9 820.9 358.5 832.3 358.5 846.4H361.5C361.5 834 371.6 823.9 384 823.9V820.9ZM358.5 846.9C358.5 859.3 348.4 869.4 336 869.4V872.4C350.1 872.4 361.5 861 361.5 846.9H358.5ZM336 869.4H324V872.4H336V869.4ZM358.5 846.4V847H361.5V846.4H358.5ZM396 820.9H384V823.9H396V820.9ZM322.9 869.9C322.3 870.5 322.3 871.4 322.9 872L332.4 881.5C333 882.1 333.9 882.1 334.5 881.5C335.1 880.9 335.1 880 334.5 879.4L326 870.9L334.5 862.4C335.1 861.8 335.1 860.9 334.5 860.3C333.9 859.7 333 859.7 332.4 860.3L322.9 869.9ZM396 823.9C396.8 823.9 397.5 823.2 397.5 822.4C397.5 821.6 396.8 820.9 396 820.9V823.9Z" fill="#C4C4C4"/>
<path d="M384 820.9C369.9 820.9 358.5 832.3 358.5 846.4H361.5C361.5 834 371.6 823.9 384 823.9V820.9ZM358.5 943.9C358.5 956.3 348.4 966.4 336 966.4V969.4C350.1 969.4 361.5 958 361.5 943.9H358.5ZM336 966.4H324V969.4H336V966.4ZM358.5 846.4V944H361.5V846.4H358.5ZM396 820.9H384V823.9H396V820.9ZM322.9 966.9C322.3 967.5 322.3 968.4 322.9 969L332.4 978.5C333 979.1 333.9 979.1 334.5 978.5C335.1 977.9 335.1 977 334.5 976.4L326 967.9L334.5 959.4C335.1 958.8 335.1 957.9 334.5 957.3C333.9 956.7 333 956.7 332.4 957.3L322.9 966.9ZM396 823.9C396.8 823.9 397.5 823.2 397.5 822.4C397.5 821.6 396.8 820.9 396 820.9V823.9Z" fill="#C4C4C4"/>
<path d="M661.2 846.4C661.2 832.3 649.8 820.9 635.7 820.9V823.9C648.1 823.9 658.2 834 658.2 846.4H661.2ZM635.7 820.9H564V823.9H635.7V820.9ZM661.2 893.8V846.4H658.2V893.8H661.2ZM562.9 821.3C562.3 821.9 562.3 822.8 562.9 823.4L572.4 832.9C573 833.5 573.9 833.5 574.5 832.9C575.1 832.3 575.1 831.4 574.5 830.8L566 822.3L574.5 813.8C575.1 813.2 575.1 812.3 574.5 811.7C573.9 811.1 573 811.1 572.4 811.7L562.9 821.3ZM658.2 893.8C658.2 894.6 658.9 895.3 659.7 895.3C660.5 895.3 661.2 894.6 661.2 893.8H658.2Z" fill="#C4C4C4"/>
<path d="M400 368.2C400 366.9 401.1 365.8 402.4 365.8H557.6C558.9 365.8 560 366.9 560 368.2V444.5C560 445.8 558.9 446.9 557.6 446.9H402.4C401.1 446.9 400 445.8 400 444.5V368.2Z" fill="#85B6FF"/>
<path d="M525.7 406.6C525.5 405 524.2 404 522 404C519.8 404 518.3 405 518.3 406.7C518.3 408 519.1 408.9 520.8 409.2L522.3 409.5C523.1 409.7 523.4 409.9 523.4 410.4C523.4 410.9 522.8 411.3 522 411.3C521.1 411.3 520.6 410.9 520.4 410.2L518 410.3C518.2 412 519.6 413 522 413C524.3 413 525.9 411.8 525.9 410.1C525.9 408.8 525.1 408.1 523.4 407.7L521.8 407.4C521 407.2 520.7 406.9 520.7 406.5C520.7 406 521.3 405.6 522 405.6C522.8 405.6 523.3 406.1 523.5 406.6H525.7ZM511.1 407.8C511.1 406.7 511.8 406 512.8 406C513.8 406 514.4 406.6 514.4 407.7V412.8H516.8V407.2C516.8 405.2 515.6 403.9 513.8 403.9C512.5 403.9 511.6 404.5 511.2 405.6H511.1V404.1H508.8V412.8H511.2V407.8H511.1ZM505.7 402.9C506.4 402.9 507 402.3 507 401.7C507 401 506.4 400.5 505.7 400.5C505 400.5 504.4 401.1 504.4 401.7C504.4 402.4 505 402.9 505.7 402.9ZM504.5 412.8H506.9V404.1H504.5V412.8ZM503.1 404.1H501.5V402H499V404.1H497.8V405.9H499V410.4C499 412.1 500.2 413 501.9 412.9C502.5 412.9 503 412.8 503.2 412.7L502.8 410.9C502.7 410.9 502.4 411 502.2 411C501.7 411 501.4 410.8 501.4 410.1V405.9H503V404.1H503.1ZM492.5 411.3C491.8 411.3 491.2 411 491.2 410.3C491.2 409.6 491.8 409.3 492.6 409.2C493.1 409.1 494 409 494.3 408.8V409.7C494.3 410.6 493.6 411.3 492.5 411.3ZM491.8 413C493.1 413 493.9 412.4 494.4 411.6H494.5V412.8H496.8V406.9C496.8 404.8 495 403.9 493.1 403.9C491 403.9 489.6 404.9 489.3 406.5L491.5 406.7C491.7 406.1 492.2 405.7 493.1 405.7C493.9 405.7 494.4 406.1 494.4 406.8C494.4 407.4 493.8 407.4 492.3 407.6C490.6 407.8 489 408.3 489 410.3C488.9 412.1 490.1 413 491.8 413ZM483.2 412.8H485.6V407.9C485.6 406.8 486.4 406.1 487.5 406.1C487.8 406.1 488.3 406.2 488.5 406.2V404C488.3 403.9 488 403.9 487.7 403.9C486.7 403.9 485.9 404.5 485.6 405.5H485.5V404H483.2V412.8V412.8ZM481.8 404.1H480.2V402H477.8V404.1H476.6V405.9H477.8V410.4C477.8 412.1 479 413 480.7 412.9C481.3 412.9 481.8 412.8 482 412.7L481.6 410.9C481.5 410.9 481.2 411 481 411C480.5 411 480.2 410.8 480.2 410.1V405.9H481.8V404.1ZM475.6 406.6C475.4 405 474.1 404 471.9 404C469.7 404 468.2 405 468.2 406.7C468.2 408 469 408.9 470.7 409.2L472.2 409.5C473 409.7 473.3 409.9 473.3 410.4C473.3 410.9 472.7 411.3 471.9 411.3C471 411.3 470.5 410.9 470.3 410.2L467.9 410.3C468.1 412 469.5 413 471.9 413C474.2 413 475.8 411.8 475.8 410.1C475.8 408.8 475 408.1 473.3 407.7L471.7 407.4C470.9 407.2 470.6 406.9 470.6 406.5C470.6 406 471.2 405.6 471.9 405.6C472.7 405.6 473.2 406.1 473.4 406.6H475.6ZM465.4 402.9C466.1 402.9 466.7 402.3 466.7 401.7C466.7 401 466.1 400.5 465.4 400.5C464.7 400.5 464.1 401.1 464.1 401.7C464.1 402.4 464.7 402.9 465.4 402.9ZM464.2 412.8H466.6V404.1H464.2V412.8ZM458.2 410.9C457 410.9 456.4 410 456.4 408.5C456.4 407 457 406 458.2 406C459.4 406 460 407 460 408.5C460 409.9 459.4 410.9 458.2 410.9ZM458.1 416.3C460.6 416.3 462.4 415.2 462.4 412.9V404.1H460V405.6H459.9C459.6 404.9 458.9 404 457.4 404C455.5 404 453.9 405.5 453.9 408.5C453.9 411.4 455.5 412.8 457.4 412.8C458.8 412.8 459.6 412.1 459.9 411.4H460V413C460 414.2 459.2 414.7 458.2 414.7C457.1 414.7 456.6 414.2 456.4 413.7L454.2 414C454.4 415.2 455.8 416.3 458.1 416.3ZM446.9 407.6C447 406.6 447.7 405.8 448.8 405.8C449.9 405.8 450.6 406.6 450.6 407.6H446.9ZM448.8 413C451 413 452.4 411.9 452.8 410.3L450.6 410.2C450.4 410.9 449.7 411.2 448.9 411.2C447.7 411.2 446.9 410.4 446.9 409.1H452.8V408.4C452.8 405.4 451 404 448.7 404C446.1 404 444.5 405.8 444.5 408.5C444.5 411.2 446.1 413 448.8 413ZM437.1 406.7V403.2H438.8C440.2 403.2 440.9 403.8 440.9 405C440.9 406.2 440.2 406.7 438.8 406.7H437.1ZM434.7 412.8H437.2V408.7H439L441.2 412.8H443.9L441.4 408.3C442.7 407.7 443.5 406.6 443.5 405C443.5 402.7 442 401.2 439.3 401.2H434.7V412.8Z" fill="#333333"/>
<path d="M384 404.9C371.6 404.9 361.5 394.8 361.5 382.4H358.5C358.5 396.5 369.9 407.9 384 407.9V404.9ZM361.5 284.4C361.5 270.3 350.1 258.9 336 258.9V261.9C348.4 261.9 358.5 272 358.5 284.4H361.5ZM336 258.9H324V261.9H336V258.9ZM361.5 382.4V284.4H358.5V382.4H361.5ZM396 404.9H384V407.9H396V404.9ZM322.9 259.3C322.3 259.9 322.3 260.8 322.9 261.4L332.4 270.9C333 271.5 333.9 271.5 334.5 270.9C335.1 270.3 335.1 269.4 334.5 268.8L326 260.3L334.5 251.8C335.1 251.2 335.1 250.3 334.5 249.7C333.9 249.1 333 249.1 332.4 249.7L322.9 259.3ZM396 407.9C396.8 407.9 397.5 407.2 397.5 406.4C397.5 405.6 396.8 404.9 396 404.9V407.9Z" fill="#C4C4C4"/>
<path d="M384 404.9C371.6 404.9 361.5 394.8 361.5 382.4H358.5C358.5 396.5 369.9 407.9 384 407.9V404.9ZM361.5 380.8C361.5 366.7 350.1 355.3 336 355.3V358.3C348.4 358.3 358.5 368.4 358.5 380.8H361.5ZM336 355.3H324V358.3H336V355.3ZM361.5 382.4V380.8H358.5V382.4H361.5ZM396 404.9H384V407.9H396V404.9ZM322.9 355.7C322.3 356.3 322.3 357.2 322.9 357.8L332.4 367.3C333 367.9 333.9 367.9 334.5 367.3C335.1 366.7 335.1 365.8 334.5 365.2L326 356.7L334.5 348.2C335.1 347.6 335.1 346.7 334.5 346.1C333.9 345.5 333 345.5 332.4 346.1L322.9 355.7ZM396 407.9C396.8 407.9 397.5 407.2 397.5 406.4C397.5 405.6 396.8 404.9 396 404.9V407.9Z" fill="#C4C4C4"/>
<path d="M383.7 404.9C369.8 404.9 358.5 416.2 358.5 430.1H361.5C361.5 417.8 371.4 407.9 383.7 407.9V404.9ZM358.5 430.1C358.5 442.4 348.6 452.3 336.3 452.3V455.3C350.2 455.3 361.5 444 361.5 430.1H358.5ZM336.3 452.3H324V455.3H336.3V452.3ZM396 404.9H383.7V407.9H396V404.9ZM322.9 452.7C322.3 453.3 322.3 454.2 322.9 454.8L332.4 464.3C333 464.9 333.9 464.9 334.5 464.3C335.1 463.7 335.1 462.8 334.5 462.2L326 453.7L334.5 445.2C335.1 444.6 335.1 443.7 334.5 443.1C333.9 442.5 333 442.5 332.4 443.1L322.9 452.7ZM396 407.9C396.8 407.9 397.5 407.2 397.5 406.4C397.5 405.6 396.8 404.9 396 404.9V407.9Z" fill="#C4C4C4"/>
<path d="M384 404.9C369.9 404.9 358.5 416.3 358.5 430.4H361.5C361.5 418 371.6 407.9 384 407.9V404.9ZM358.5 526.8C358.5 539.2 348.4 549.3 336 549.3V552.3C350.1 552.3 361.5 540.9 361.5 526.8H358.5ZM336 549.3H324V552.3H336V549.3ZM358.5 430.4V526.8H361.5V430.4H358.5ZM396 404.9H384V407.9H396V404.9ZM322.9 549.7C322.3 550.3 322.3 551.2 322.9 551.8L332.4 561.3C333 561.9 333.9 561.9 334.5 561.3C335.1 560.7 335.1 559.8 334.5 559.2L326 550.7L334.5 542.2C335.1 541.6 335.1 540.7 334.5 540.1C333.9 539.5 333 539.5 332.4 540.1L322.9 549.7ZM396 407.9C396.8 407.9 397.5 407.2 397.5 406.4C397.5 405.6 396.8 404.9 396 404.9V407.9Z" fill="#C4C4C4"/>
<path d="M478.6 614.3C478.6 613.5 479.3 612.8 480.1 612.8V615.8C480.9 615.8 481.6 615.1 481.6 614.3H478.6ZM480 612.9C479.2 612.9 478.5 613.6 478.5 614.4H481.5C481.5 615.2 480.8 615.9 480 615.9V612.9ZM478.5 614.4V777.8H481.5V614.4H478.5ZM478.6 450.9V614.3H481.6V450.9H478.6ZM478.9 778.9C479.5 779.5 480.4 779.5 481 778.9L490.5 769.4C491.1 768.8 491.1 767.9 490.5 767.3C489.9 766.7 489 766.7 488.4 767.3L479.9 775.8L471.4 767.3C470.8 766.7 469.9 766.7 469.3 767.3C468.7 767.9 468.7 768.8 469.3 769.4L478.9 778.9ZM481.6 450.9C481.6 450.1 480.9 449.4 480.1 449.4C479.3 449.4 478.6 450.1 478.6 450.9H481.6Z" fill="#C4C4C4"/>
<path d="M919.1 562.9C933.2 562.9 944.6 551.5 944.6 537.4H941.6C941.6 549.8 931.5 559.9 919.1 559.9V562.9ZM944.6 537.4C944.6 525 954.7 514.9 967.1 514.9V511.9C953 511.9 941.6 523.3 941.6 537.4H944.6ZM967.1 514.9H979V511.9H967.1V514.9ZM907.1 562.9H919V559.9H907.1V562.9ZM980.1 514.4C980.7 513.8 980.7 512.9 980.1 512.3L970.6 502.8C970 502.2 969.1 502.2 968.5 502.8C967.9 503.4 967.9 504.3 968.5 504.9L977 513.4L968.5 521.9C967.9 522.5 967.9 523.4 968.5 524C969.1 524.6 970 524.6 970.6 524L980.1 514.4ZM907.1 559.9C906.3 559.9 905.6 560.6 905.6 561.4C905.6 562.2 906.3 562.9 907.1 562.9V559.9Z" fill="#C4C4C4"/>
<path d="M919.1 562.9C931.5 562.9 941.6 573 941.6 585.4H944.6C944.6 571.3 933.2 559.9 919.1 559.9V562.9ZM941.6 585.9C941.6 600 953 611.4 967.1 611.4V608.4C954.7 608.4 944.6 598.3 944.6 585.9H941.6ZM967.1 611.4H979V608.4H967.1V611.4ZM941.6 585.4V586H944.6V585.4H941.6ZM907.1 562.9H919V559.9H907.1V562.9ZM980.1 611C980.7 610.4 980.7 609.5 980.1 608.9L970.6 599.4C970 598.8 969.1 598.8 968.5 599.4C967.9 600 967.9 600.9 968.5 601.5L977 610L968.5 618.5C967.9 619.1 967.9 620 968.5 620.6C969.1 621.2 970 621.2 970.6 620.6L980.1 611ZM907.1 559.9C906.3 559.9 905.6 560.6 905.6 561.4C905.6 562.2 906.3 562.9 907.1 562.9V559.9Z" fill="#C4C4C4"/>
<path d="M643.6 407.9C656 407.9 666.1 418 666.1 430.4H669.1C669.1 416.3 657.7 404.9 643.6 404.9V407.9ZM666.1 537.4C666.1 551.5 677.5 562.9 691.6 562.9V559.9C679.2 559.9 669.1 549.8 669.1 537.4H666.1ZM691.6 562.9H771V559.9H691.6V562.9ZM666.1 430.4V537.4H669.1V430.4H666.1ZM564.1 407.9H643.5V404.9H564.1V407.9ZM772.1 562.4C772.7 561.8 772.7 560.9 772.1 560.3L762.6 550.8C762 550.2 761.1 550.2 760.5 550.8C759.9 551.4 759.9 552.3 760.5 552.9L769 561.4L760.5 569.9C759.9 570.5 759.9 571.4 760.5 572C761.1 572.6 762 572.6 762.6 572L772.1 562.4ZM564.1 404.9C563.3 404.9 562.6 405.6 562.6 406.4C562.6 407.2 563.3 407.9 564.1 407.9V404.9Z" fill="#C4C4C4"/>
<path d="M1040.1 158.3H1044.3V144.8C1044.3 141.9 1046.4 139.8 1048.8 139.8C1051.2 139.8 1052.8 141.4 1052.8 143.7V158.2H1057V144.3C1057 141.7 1058.6 139.8 1061.4 139.8C1063.6 139.8 1065.5 141.1 1065.5 144V158.2H1069.7V143.6C1069.7 138.6 1066.9 136.1 1063 136.1C1059.9 136.1 1057.5 137.6 1056.5 139.9H1056.3C1055.3 137.5 1053.3 136.1 1050.4 136.1C1047.5 136.1 1045.4 137.5 1044.5 139.9H1044.2V136.3H1040.1V158.3ZM1020.8 145.4C1021 142.3 1023.2 139.6 1026.7 139.6C1030 139.6 1032.2 142 1032.2 145.4H1020.8ZM1026.9 158.7C1031.7 158.7 1035 156.4 1036 152.8L1032 152.1C1031.2 154.2 1029.4 155.2 1027 155.2C1023.4 155.2 1020.9 152.8 1020.8 148.6H1036.3V147.1C1036.3 139.2 1031.6 136.1 1026.6 136.1C1020.5 136.1 1016.5 140.7 1016.5 147.4C1016.5 154.3 1020.5 158.7 1026.9 158.7ZM1013.9 136.4H1009.4V131.2H1005.2V136.4H1002V139.8H1005.2V152.7C1005.2 156.7 1008.2 158.6 1011.6 158.5C1012.9 158.5 1013.9 158.2 1014.4 158L1013.6 154.5C1013.3 154.6 1012.8 154.7 1012.1 154.7C1010.7 154.7 1009.5 154.2 1009.5 151.8V139.8H1014V136.4H1013.9ZM999.5 141.8C998.6 138.4 996 136.2 991.2 136.2C986.3 136.2 982.8 138.8 982.8 142.7C982.8 145.8 984.7 147.9 988.8 148.8L992.5 149.6C994.6 150.1 995.6 151 995.6 152.4C995.6 154.1 993.8 155.4 991 155.4C988.5 155.4 986.8 154.3 986.3 152.2L982.2 152.8C982.9 156.7 986.1 158.8 991 158.8C996.3 158.8 999.9 156 999.9 152.1C999.9 149 997.9 147.1 993.9 146.2L990.4 145.4C988 144.8 987 144 987 142.5C987 140.8 988.8 139.6 991.2 139.6C993.8 139.6 995.1 141.1 995.6 142.5L999.5 141.8ZM964.1 166.4C967.6 166.4 969.8 164.6 971.1 161.1L980.1 136.4H975.5L970 153.3H969.8L964.3 136.4H959.8L967.8 158.5L967.3 159.9C966.2 162.8 964.7 163 962.4 162.4L961.4 165.9C961.7 166.2 962.8 166.4 964.1 166.4ZM952.7 136.8H956.9C956.8 132.1 952.7 128.8 946.7 128.8C940.9 128.8 936.4 132.1 936.4 137.2C936.4 141.2 939.3 143.6 944 144.9L947.4 145.8C950.5 146.6 952.9 147.6 952.9 150.2C952.9 153 950.2 154.9 946.5 154.9C943.1 154.9 940.3 153.4 940.1 150.2H935.7C936 155.5 940.1 158.7 946.6 158.7C953.4 158.7 957.4 155.1 957.4 150.2C957.4 145 952.7 142.9 949 142L946.2 141.3C943.9 140.7 940.9 139.7 940.9 136.9C940.9 134.4 943.2 132.6 946.7 132.6C950 132.6 952.4 134.1 952.7 136.8ZM923 136.4H918.5V131.2H914.3V136.4H911.1V139.8H914.3V152.7C914.3 156.7 917.3 158.6 920.7 158.5C922 158.5 923 158.2 923.5 158L922.7 154.5C922.4 154.6 921.9 154.7 921.2 154.7C919.8 154.7 918.6 154.2 918.6 151.8V139.8H923.1V136.4H923ZM894 145.3C894 141.8 896.1 139.8 899.1 139.8C902 139.8 903.7 141.7 903.7 144.9V158.3H907.9V144.4C907.9 139 904.9 136.2 900.5 136.2C897.2 136.2 895.1 137.7 894.1 140H893.8V136.4H889.7V158.2H893.9V145.3H894ZM870.5 145.4C870.7 142.3 872.9 139.6 876.4 139.6C879.7 139.6 881.9 142 881.9 145.4H870.5ZM876.6 158.7C881.4 158.7 884.7 156.4 885.7 152.8L881.7 152.1C880.9 154.2 879.1 155.2 876.7 155.2C873.1 155.2 870.6 152.8 870.5 148.6H886V147.1C886 139.2 881.3 136.1 876.3 136.1C870.2 136.1 866.2 140.7 866.2 147.4C866.2 154.3 870.2 158.7 876.6 158.7ZM832.7 158.3H836.9V144.8C836.9 141.9 839 139.8 841.4 139.8C843.8 139.8 845.4 141.4 845.4 143.7V158.2H849.6V144.3C849.6 141.7 851.2 139.8 854 139.8C856.2 139.8 858.1 141.1 858.1 144V158.2H862.3V143.6C862.3 138.6 859.5 136.1 855.6 136.1C852.5 136.1 850.1 137.6 849.1 139.9H848.9C847.9 137.5 845.9 136.1 843 136.1C840.1 136.1 838 137.5 837.1 139.9H836.8V136.3H832.7V158.3V158.3ZM813.4 145.4C813.6 142.3 815.8 139.6 819.3 139.6C822.6 139.6 824.8 142 824.8 145.4H813.4ZM819.5 158.7C824.3 158.7 827.6 156.4 828.6 152.8L824.6 152.1C823.8 154.2 822 155.2 819.6 155.2C816 155.2 813.5 152.8 813.4 148.6H828.9V147.1C828.9 139.2 824.2 136.1 819.2 136.1C813.1 136.1 809.1 140.7 809.1 147.4C809.1 154.3 813.1 158.7 819.5 158.7ZM795.4 154.4C791.6 154.4 789.6 151.5 789.6 147.2C789.6 143 791.5 139.8 795.4 139.8C799.1 139.8 801.1 142.8 801.1 147.2C801.1 151.7 799.1 154.4 795.4 154.4ZM795.5 166.9C801.1 166.9 805.3 164.4 805.3 158.7V136.4H801.1V139.9H800.8C800 138.6 798.5 136.1 794.5 136.1C789.2 136.1 785.4 140.3 785.4 147.2C785.4 154.2 789.4 157.9 794.5 157.9C798.5 157.9 800.1 155.6 800.8 154.2H801.1V158.5C801.1 161.9 798.8 163.4 795.5 163.4C792 163.4 790.6 161.6 789.8 160.4L786.1 161.9C787.3 164.6 790.2 166.9 795.5 166.9ZM771.7 155.3C769.3 155.3 767.6 154.2 767.6 152.1C767.6 149.8 769.6 149 772.1 148.7C773.5 148.5 776.7 148.1 777.4 147.5V150.3C777.3 153 775.2 155.3 771.7 155.3ZM770.8 158.7C774.4 158.7 776.4 156.9 777.2 155.2H777.4V158.2H781.5V143.7C781.5 137.4 776.5 136.1 773 136.1C769.1 136.1 765.4 137.7 764 141.7L768 142.6C768.6 141.1 770.2 139.6 773.1 139.6C775.8 139.6 777.2 141 777.2 143.5V143.6C777.2 145.1 775.6 145.1 771.7 145.6C767.6 146.1 763.3 147.2 763.3 152.1C763.4 156.4 766.6 158.7 770.8 158.7ZM745.6 145.3C745.6 141.8 747.7 139.8 750.7 139.8C753.6 139.8 755.3 141.7 755.3 144.9V158.3H759.5V144.4C759.5 139 756.5 136.2 752.1 136.2C748.8 136.2 746.7 137.7 745.7 140H745.4V136.4H741.3V158.2H745.5V145.3H745.6ZM726.8 155.3C724.4 155.3 722.7 154.2 722.7 152.1C722.7 149.8 724.7 149 727.2 148.7C728.6 148.5 731.8 148.1 732.5 147.5V150.3C732.4 153 730.3 155.3 726.8 155.3ZM725.8 158.7C729.4 158.7 731.4 156.9 732.2 155.2H732.4V158.2H736.5V143.7C736.5 137.4 731.5 136.1 728 136.1C724.1 136.1 720.4 137.7 719 141.7L723 142.6C723.6 141.1 725.2 139.6 728.1 139.6C730.8 139.6 732.2 141 732.2 143.5V143.6C732.2 145.1 730.6 145.1 726.7 145.6C722.6 146.1 718.3 147.2 718.3 152.1C718.5 156.4 721.7 158.7 725.8 158.7ZM684.8 129.2V158.3H689V137.2H689.3L697.9 158.2H701.4L710 137.2H710.3V158.3H714.5V129.2H709L699.7 151.8H699.4L690.1 129.2H684.8ZM655.6 166.4C659.1 166.4 661.3 164.6 662.6 161.1L671.6 136.4H667L661.5 153.3H661.3L655.8 136.4H651.3L659.3 158.5L658.8 159.9C657.7 162.8 656.2 163 653.9 162.4L652.9 165.9C653.3 166.2 654.4 166.4 655.6 166.4ZM649.1 136.4H644.6V131.2H640.4V136.4H637.2V139.8H640.4V152.7C640.4 156.7 643.4 158.6 646.8 158.5C648.1 158.5 649.1 158.2 649.6 158L648.8 154.5C648.5 154.6 648 154.7 647.3 154.7C645.9 154.7 644.7 154.2 644.7 151.8V139.8H649.2V136.4H649.1ZM623.2 158.3H627.4V145C627.4 142.1 629.6 140.1 632.6 140.1C633.5 140.1 634.5 140.3 634.8 140.4V136.3C634.4 136.2 633.5 136.2 633 136.2C630.4 136.2 628.3 137.6 627.5 140H627.3V136.5H623.2V158.3V158.3ZM603.9 145.4C604.1 142.3 606.3 139.6 609.8 139.6C613.1 139.6 615.3 142 615.3 145.4H603.9ZM610 158.7C614.8 158.7 618.1 156.4 619.1 152.8L615.1 152.1C614.3 154.2 612.5 155.2 610.1 155.2C606.5 155.2 604 152.8 603.9 148.6H619.4V147.1C619.4 139.2 614.7 136.1 609.7 136.1C603.6 136.1 599.6 140.7 599.6 147.4C599.6 154.3 603.6 158.7 610 158.7ZM581 147.3C581 142.7 583 139.7 586.7 139.7C590.5 139.7 592.5 143 592.5 147.3C592.5 151.7 590.5 155 586.7 155C583 155.1 581 151.9 581 147.3ZM576.8 166.4H581V154.8H581.3C582.1 156.2 583.6 158.6 587.6 158.6C592.9 158.6 596.7 154.4 596.7 147.3C596.7 140.2 592.8 136.1 587.5 136.1C583.5 136.1 582 138.6 581.2 139.9H580.8V136.4H576.7V166.4H576.8ZM562.8 155.1C558.8 155.1 556.9 151.6 556.9 147.4C556.9 143.2 558.8 139.7 562.8 139.7C566.8 139.7 568.7 143.3 568.7 147.4C568.6 151.6 566.8 155.1 562.8 155.1ZM562.8 158.7C569 158.7 573 154.2 573 147.4C573 140.6 569 136.1 562.8 136.1C556.6 136.1 552.6 140.6 552.6 147.4C552.6 154.2 556.6 158.7 562.8 158.7ZM539.9 158.3H544.1V145C544.1 142.1 546.3 140.1 549.3 140.1C550.2 140.1 551.2 140.3 551.5 140.4V136.3C551.1 136.2 550.2 136.2 549.7 136.2C547.1 136.2 545 137.6 544.2 140H544V136.5H539.9V158.3ZM519.9 144.3V132.9H525.4C529.7 132.9 531.5 135.3 531.5 138.6C531.5 141.9 529.7 144.3 525.4 144.3H519.9V144.3ZM515.5 158.3H519.9V148H525.9C532.6 148 536 143.9 536 138.6C536 133.2 532.7 129.2 525.9 129.2H515.5V158.3ZM497.8 158.5C499.3 158.5 500.6 157.2 500.6 155.7C500.6 154.2 499.3 152.9 497.8 152.9C496.2 152.9 495 154.2 495 155.7C495 157.3 496.3 158.5 497.8 158.5ZM497.8 142.6C499.3 142.6 500.6 141.3 500.6 139.8C500.6 138.3 499.3 137 497.8 137C496.2 137 495 138.3 495 139.8C495 141.4 496.3 142.6 497.8 142.6ZM481.5 136.4H477V131.2H472.8V136.4H469.6V139.8H472.8V152.7C472.8 156.7 475.8 158.6 479.2 158.5C480.5 158.5 481.5 158.2 482 158L481.2 154.5C480.9 154.6 480.4 154.7 479.7 154.7C478.3 154.7 477.1 154.2 477.1 151.8V139.8H481.6V136.4H481.5ZM458.7 158.7C463.9 158.7 467.2 155.6 467.7 151.4H463.6C463.1 153.8 461.2 155.2 458.8 155.2C455.2 155.2 452.9 152.2 452.9 147.4C452.9 142.7 455.3 139.8 458.8 139.8C461.5 139.8 463.1 141.5 463.6 143.6H467.7C467.2 139.2 463.7 136.3 458.7 136.3C452.5 136.3 448.6 140.9 448.6 147.6C448.5 154 452.4 158.7 458.7 158.7ZM430.2 145.4C430.4 142.3 432.6 139.6 436.1 139.6C439.4 139.6 441.6 142 441.6 145.4H430.2ZM436.3 158.7C441.1 158.7 444.4 156.4 445.4 152.8L441.4 152.1C440.6 154.2 438.8 155.2 436.4 155.2C432.8 155.2 430.3 152.8 430.2 148.6H445.7V147.1C445.7 139.2 441 136.1 436 136.1C429.9 136.1 425.9 140.7 425.9 147.4C425.9 154.3 429.9 158.7 436.3 158.7ZM419.9 133.1C421.4 133.1 422.6 132 422.6 130.6C422.6 129.2 421.4 128.1 419.9 128.1C418.4 128.1 417.2 129.3 417.2 130.6C417.2 131.9 418.4 133.1 419.9 133.1ZM417.8 136.4V159.6C417.8 161.6 417 162.7 414.9 162.7H414.2V166.4C414.5 166.4 414.8 166.4 415.1 166.4C419.6 166.4 422 164 422 159.6V136.4H417.8V136.4ZM403.8 155.1C399.8 155.1 397.9 151.6 397.9 147.4C397.9 143.2 399.8 139.7 403.8 139.7C407.8 139.7 409.7 143.3 409.7 147.4C409.7 151.6 407.8 155.1 403.8 155.1ZM403.8 158.7C410 158.7 414 154.2 414 147.4C414 140.6 410 136.1 403.8 136.1C397.6 136.1 393.6 140.6 393.6 147.4C393.6 154.2 397.6 158.7 403.8 158.7ZM380.9 158.3H385.1V145C385.1 142.1 387.3 140.1 390.3 140.1C391.2 140.1 392.2 140.3 392.5 140.4V136.3C392.1 136.2 391.2 136.2 390.7 136.2C388.1 136.2 386 137.6 385.2 140H385V136.5H380.9V158.3ZM360.9 144.3V132.9H366.4C370.7 132.9 372.5 135.3 372.5 138.6C372.5 141.9 370.7 144.3 366.4 144.3H360.9V144.3ZM356.5 158.3H360.9V148H366.9C373.6 148 377 143.9 377 138.6C377 133.2 373.7 129.2 366.9 129.2H356.5V158.3ZM341.7 129.2H337.5V158.3H341.7V129.2ZM322.8 155.3C320.4 155.3 318.7 154.2 318.7 152.1C318.7 149.8 320.7 149 323.2 148.7C324.6 148.5 327.8 148.1 328.5 147.5V150.3C328.4 153 326.3 155.3 322.8 155.3ZM321.9 158.7C325.5 158.7 327.5 156.9 328.3 155.2H328.5V158.2H332.6V143.7C332.6 137.4 327.6 136.1 324.1 136.1C320.2 136.1 316.5 137.7 315.1 141.7L319.1 142.6C319.7 141.1 321.3 139.6 324.2 139.6C326.9 139.6 328.3 141 328.3 143.5V143.6C328.3 145.1 326.7 145.1 322.8 145.6C318.7 146.1 314.4 147.2 314.4 152.1C314.5 156.4 317.7 158.7 321.9 158.7ZM296.7 145.3C296.7 141.8 298.8 139.8 301.8 139.8C304.7 139.8 306.4 141.7 306.4 144.9V158.3H310.6V144.4C310.6 139 307.6 136.2 303.2 136.2C299.9 136.2 297.8 137.7 296.8 140H296.5V136.4H292.4V158.2H296.6V145.3H296.7ZM285.6 133.1C287.1 133.1 288.3 132 288.3 130.6C288.3 129.2 287.1 128.1 285.6 128.1C284.1 128.1 282.9 129.3 282.9 130.6C282.9 131.9 284.1 133.1 285.6 133.1ZM283.4 158.3H287.6V136.5H283.4V158.3ZM261.2 158.3H265.6V145.6H278V141.8H265.6V132.9H279.3V129.1H261.3V158.3H261.2Z" fill="#333333"/>
<path d="M1046.5 250.8C1055.06 250.8 1062 243.86 1062 235.3C1062 226.74 1055.06 219.8 1046.5 219.8C1037.94 219.8 1031 226.74 1031 235.3C1031 243.86 1037.94 250.8 1046.5 250.8Z" fill="#FF9790"/>
<path d="M1046.5 322.8C1055.06 322.8 1062 315.86 1062 307.3C1062 298.74 1055.06 291.8 1046.5 291.8C1037.94 291.8 1031 298.74 1031 307.3C1031 315.86 1037.94 322.8 1046.5 322.8Z" fill="#85B6FF"/>
<path d="M1046.5 386.8C1055.06 386.8 1062 379.86 1062 371.3C1062 362.74 1055.06 355.8 1046.5 355.8C1037.94 355.8 1031 362.74 1031 371.3C1031 379.86 1037.94 386.8 1046.5 386.8Z" fill="#FFD233"/>
<path d="M1173.4 226.3L1177.6 233.4V238H1179.4V233.4L1183.6 226.3H1181.6L1178.6 231.6H1178.5L1175.5 226.3H1173.4ZM1164.8 238H1172.2V236.5H1166.6V232.9H1171.8V231.4H1166.6V227.9H1172.1V226.4H1164.8V238V238ZM1154.4 238H1156.2V234.4L1157.6 232.8L1161.4 238H1163.5L1158.8 231.6L1163.5 226.4H1161.3L1156.4 232H1156.3V226.4H1154.5V238H1154.4ZM1138.6 226.3L1142.8 233.4V238H1144.6V233.4L1148.8 226.3H1146.8L1143.8 231.6H1143.7L1140.7 226.3H1138.6ZM1131.6 232.1V227.9H1133.8C1135.5 227.9 1136.2 228.7 1136.2 230C1136.2 231.3 1135.5 232.1 1133.8 232.1H1131.6ZM1129.8 238H1131.6V233.6H1134H1134.1L1136.5 238H1138.5L1135.9 233.3C1137.3 232.8 1138 231.6 1138 230C1138 227.9 1136.7 226.4 1134 226.4H1129.9V238H1129.8ZM1121.4 233.4L1123.1 228.4H1123.2L1124.9 233.4H1121.4ZM1119.8 238L1120.9 234.9H1125.4L1126.5 238H1128.4L1124.2 226.4H1122.2L1118 238H1119.8ZM1104.6 226.3V238H1106.3V229.6H1106.4L1109.8 238H1111.2L1114.6 229.6H1114.7V238H1116.4V226.4H1114.3L1110.6 235.4H1110.5L1106.8 226.4H1104.6V226.3ZM1102.2 226.3H1100.4V238H1102.2V226.3ZM1092.1 232.1V227.9H1094.3C1096 227.9 1096.7 228.7 1096.7 230C1096.7 231.3 1096 232.1 1094.3 232.1H1092.1ZM1090.3 238H1092.1V233.6H1094.5H1094.6L1097 238H1099L1096.4 233.3C1097.8 232.8 1098.5 231.6 1098.5 230C1098.5 227.9 1097.2 226.4 1094.5 226.4H1090.4V238H1090.3ZM1082 232.4V227.8H1084.2C1085.9 227.8 1086.6 228.7 1086.6 230.1C1086.6 231.5 1085.9 232.4 1084.2 232.4H1082V232.4ZM1080.3 238H1082.1V233.9H1084.5C1087.2 233.9 1088.5 232.3 1088.5 230.1C1088.5 228 1087.2 226.3 1084.5 226.3H1080.4V238H1080.3Z" fill="#333333"/>
<path d="M1172.7 301.4H1174.4C1174.3 299.5 1172.7 298.2 1170.3 298.2C1168 298.2 1166.2 299.5 1166.2 301.5C1166.2 303.1 1167.4 304.1 1169.2 304.6L1170.6 305C1171.8 305.3 1172.8 305.7 1172.8 306.8C1172.8 307.9 1171.7 308.7 1170.2 308.7C1168.8 308.7 1167.7 308.1 1167.6 306.8H1165.8C1165.9 308.9 1167.5 310.2 1170.2 310.2C1172.9 310.2 1174.5 308.8 1174.5 306.8C1174.5 304.7 1172.6 303.9 1171.2 303.5L1170.1 303.2C1169.2 303 1168 302.5 1168 301.4C1168 300.4 1168.9 299.7 1170.3 299.7C1171.6 299.7 1172.5 300.3 1172.7 301.4ZM1156.8 310H1164.2V308.5H1158.6V304.9H1163.8V303.4H1158.6V299.9H1164.1V298.4H1156.8V310V310ZM1146 299.9H1149.6V310H1151.4V299.9H1155V298.4H1146V299.9V299.9ZM1142.5 298.3V305.8C1142.5 307.4 1141.4 308.5 1139.6 308.5C1137.8 308.5 1136.7 307.4 1136.7 305.8V298.3H1134.9V306C1134.9 308.4 1136.7 310.2 1139.5 310.2C1142.3 310.2 1144.1 308.5 1144.1 306V298.3H1142.5ZM1126.4 303.4V299.9H1128.8C1130.2 299.9 1130.9 300.6 1130.9 301.6C1130.9 302.7 1130 303.4 1128.8 303.4H1126.4ZM1126.4 308.5V304.8H1129C1130.4 304.8 1131.3 305.7 1131.3 306.8C1131.3 307.8 1130.6 308.5 1128.9 308.5H1126.4ZM1124.7 310H1129.2C1131.9 310 1133.1 308.7 1133.1 306.9C1133.1 305.1 1131.8 304.1 1130.7 304V303.9C1131.8 303.6 1132.7 302.9 1132.7 301.4C1132.7 299.7 1131.5 298.3 1129 298.3H1124.7V310ZM1122.3 298.3H1120.5V310H1122.3V298.3ZM1112.2 304.1V299.9H1114.4C1116.1 299.9 1116.8 300.7 1116.8 302C1116.8 303.3 1116.1 304.1 1114.4 304.1H1112.2V304.1ZM1110.4 310H1112.2V305.6H1114.6H1114.7L1117.1 310H1119.1L1116.5 305.3C1117.9 304.8 1118.6 303.6 1118.6 302C1118.6 299.9 1117.3 298.4 1114.6 298.4H1110.5V310H1110.4ZM1099.6 299.9H1103.2V310H1105V299.9H1108.6V298.4H1099.6V299.9V299.9ZM1089.3 299.9H1092.9V310H1094.7V299.9H1098.3V298.4H1089.3V299.9V299.9ZM1082.8 305.4L1084.5 300.4H1084.6L1086.3 305.4H1082.8ZM1081.3 310L1082.4 306.9H1086.9L1088 310H1089.9L1085.7 298.4H1083.7L1079.5 310H1081.3Z" fill="#333333"/>
<path d="M1125.3 362.3L1129.5 369.4V374H1131.3V369.4L1135.5 362.3H1133.5L1130.5 367.6H1130.4L1127.4 362.3H1125.3ZM1115.3 363.9H1118.9V374H1120.7V363.9H1124.3V362.4H1115.3V363.9V363.9ZM1113.5 362.3H1111.7V374H1113.5V362.3ZM1100.9 363.9H1104.5V374H1106.3V363.9H1109.9V362.4H1100.9V363.9V363.9ZM1099.1 362.3H1097.4V370.8H1097.3L1091.4 362.3H1089.8V374H1091.6V365.5H1091.7L1097.6 374H1099.2V362.3H1099.1ZM1080.3 374H1087.7V372.5H1082.1V368.9H1087.3V367.4H1082.1V363.9H1087.6V362.4H1080.3V374V374Z" fill="#333333"/>
</svg>
