<!-- 
        MAKE : TAHSIN ABRAR
        DATA : 02.12.2021
        SHARE LINK : https://tahsin000.github.io/DATABASE_MANAGEMENT_SYSTEM/ERD/NIMUR_RASHID_IMON_C193066.svg
 -->
<svg width="2744" height="1344" viewBox="0 0 2744 1344" fill="none" xmlns="http://www.w3.org/2000/svg">
<rect x="608" y="606" width="336" height="81.9982" rx="2.45994" fill="#FFD233"/>
<path d="M746.407 642.42H751.123C751.055 638.273 747.645 635.409 742.464 635.409C737.361 635.409 733.623 638.227 733.645 642.455C733.634 645.886 736.055 647.852 739.986 648.795L742.52 649.432C745.055 650.045 746.464 650.773 746.475 652.341C746.464 654.045 744.85 655.205 742.35 655.205C739.793 655.205 737.952 654.023 737.793 651.693H733.032C733.157 656.727 736.759 659.33 742.407 659.33C748.089 659.33 751.43 656.614 751.441 652.352C751.43 648.477 748.509 646.42 744.464 645.511L742.373 645.011C740.35 644.545 738.657 643.795 738.691 642.125C738.691 640.625 740.02 639.523 742.43 639.523C744.782 639.523 746.225 640.591 746.407 642.42ZM754.047 659H758.967V649.386H768.956V659H773.865V635.727H768.956V645.33H758.967V635.727H754.047V659ZM798.604 647.364C798.604 639.75 793.877 635.409 787.706 635.409C781.502 635.409 776.809 639.75 776.809 647.364C776.809 654.943 781.502 659.318 787.706 659.318C793.877 659.318 798.604 654.977 798.604 647.364ZM793.615 647.364C793.615 652.295 791.274 654.966 787.706 654.966C784.127 654.966 781.797 652.295 781.797 647.364C781.797 642.432 784.127 639.761 787.706 639.761C791.274 639.761 793.615 642.432 793.615 647.364ZM801.545 659H806.465V651.455H810.602C815.954 651.455 819.068 648.261 819.068 643.614C819.068 638.989 816.011 635.727 810.727 635.727H801.545V659ZM806.465 647.511V639.75H809.783C812.624 639.75 813.999 641.295 813.999 643.614C813.999 645.92 812.624 647.511 809.806 647.511H806.465Z" fill="#333333"/>
<rect x="1800" y="606" width="336" height="81.9982" rx="2.45994" fill="#FFD233"/>
<path d="M1943 635.727V650.42C1943 653.08 1941.14 655 1938.27 655C1935.42 655 1933.55 653.08 1933.55 650.42V635.727H1928.63V650.841C1928.63 655.932 1932.47 659.33 1938.27 659.33C1944.06 659.33 1947.92 655.932 1947.92 650.841V635.727H1943ZM1963.89 642.42H1968.61C1968.54 638.273 1965.13 635.409 1959.95 635.409C1954.84 635.409 1951.11 638.227 1951.13 642.455C1951.12 645.886 1953.54 647.852 1957.47 648.795L1960 649.432C1962.54 650.045 1963.95 650.773 1963.96 652.341C1963.95 654.045 1962.33 655.205 1959.83 655.205C1957.28 655.205 1955.44 654.023 1955.28 651.693H1950.52C1950.64 656.727 1954.24 659.33 1959.89 659.33C1965.57 659.33 1968.91 656.614 1968.92 652.352C1968.91 648.477 1965.99 646.42 1961.95 645.511L1959.86 645.011C1957.83 644.545 1956.14 643.795 1956.17 642.125C1956.17 640.625 1957.5 639.523 1959.91 639.523C1962.27 639.523 1963.71 640.591 1963.89 642.42ZM1971.53 659H1987.26V654.943H1976.45V649.386H1986.41V645.33H1976.45V639.784H1987.21V635.727H1971.53V659ZM1990.42 659H1995.34V650.75H1998.93L2003.34 659H2008.77L2003.83 649.955C2006.48 648.818 2007.94 646.511 2007.94 643.33C2007.94 638.705 2004.89 635.727 1999.6 635.727H1990.42V659ZM1995.34 646.795V639.75H1998.66C2001.5 639.75 2002.87 641.011 2002.87 643.33C2002.87 645.636 2001.5 646.795 1998.68 646.795H1995.34Z" fill="#333333"/>
<rect x="608" y="1080" width="336" height="81.9982" rx="2.45994" fill="#FFD233"/>
<path d="M744.39 1109.73H739.469V1133H744.39V1109.73ZM746.848 1113.78H753.973V1133H758.836V1113.78H765.961V1109.73H746.848V1113.78ZM768.405 1133H784.132V1128.94H773.326V1123.39H783.28V1119.33H773.326V1113.78H784.087V1109.73H768.405V1133ZM787.295 1109.73V1133H792.068V1117.8H792.261L798.283 1132.89H801.533L807.556 1117.85H807.749V1133H812.522V1109.73H806.454L800.045 1125.36H799.772L793.363 1109.73H787.295Z" fill="#333333"/>
<rect y="438" width="208" height="88" rx="35.2" fill="#FFD233"/>
<path d="M65.8641 478.131H68.4039C68.3272 475.335 65.8556 473.307 62.3101 473.307C58.8073 473.307 56.1226 475.31 56.1226 478.318C56.1226 480.747 57.8613 482.17 60.6652 482.929L62.7277 483.491C64.5942 483.986 66.0345 484.599 66.0345 486.151C66.0345 487.855 64.4067 488.98 62.1652 488.98C60.1368 488.98 58.4493 488.077 58.2959 486.176H55.6539C55.8243 489.338 58.2703 491.29 62.1823 491.29C66.2817 491.29 68.6425 489.134 68.6425 486.176C68.6425 483.031 65.8385 481.812 63.6226 481.267L61.9181 480.824C60.5544 480.474 58.7391 479.835 58.7476 478.165C58.7476 476.682 60.1027 475.582 62.2505 475.582C64.2533 475.582 65.6766 476.52 65.8641 478.131ZM71.3335 491H73.967V483.389H82.6687V491H85.3108V473.545H82.6687V481.131H73.967V473.545H71.3335V491ZM103.852 482.273C103.852 476.69 100.511 473.307 95.994 473.307C91.4599 473.307 88.1275 476.69 88.1275 482.273C88.1275 487.847 91.4599 491.239 95.994 491.239C100.511 491.239 103.852 487.855 103.852 482.273ZM101.244 482.273C101.244 486.526 98.994 488.835 95.994 488.835C92.9855 488.835 90.744 486.526 90.744 482.273C90.744 478.02 92.9855 475.71 95.994 475.71C98.994 475.71 101.244 478.02 101.244 482.273ZM106.679 491H109.313V484.864H112.892C116.941 484.864 118.944 482.418 118.944 479.196C118.944 475.983 116.958 473.545 112.901 473.545H106.679V491ZM109.313 482.631V475.804H112.62C115.228 475.804 116.293 477.219 116.293 479.196C116.293 481.173 115.228 482.631 112.654 482.631H109.313ZM130.72 491H119.632V493.165H130.72V491ZM134.791 473.545H132.158V491H134.791V473.545ZM143.821 491C149.139 491 152.216 487.702 152.216 482.247C152.216 476.818 149.139 473.545 144 473.545H138.171V491H143.821ZM140.804 488.699V475.847H143.838C147.657 475.847 149.625 478.131 149.625 482.247C149.625 486.381 147.657 488.699 143.676 488.699H140.804Z" fill="#333333"/>
<rect x="1640" y="438" width="208" height="88" rx="35.2" fill="#FFD233"/>
<path d="M1709.56 473.545V484.812C1709.56 487.182 1707.92 488.886 1705.27 488.886C1702.61 488.886 1700.97 487.182 1700.97 484.812V473.545H1698.34V485.026C1698.34 488.69 1701.08 491.29 1705.27 491.29C1709.45 491.29 1712.2 488.69 1712.2 485.026V473.545H1709.56ZM1725.1 478.131H1727.64C1727.56 475.335 1725.09 473.307 1721.54 473.307C1718.04 473.307 1715.35 475.31 1715.35 478.318C1715.35 480.747 1717.09 482.17 1719.9 482.929L1721.96 483.491C1723.83 483.986 1725.27 484.599 1725.27 486.151C1725.27 487.855 1723.64 488.98 1721.4 488.98C1719.37 488.98 1717.68 488.077 1717.53 486.176H1714.89C1715.06 489.338 1717.5 491.29 1721.41 491.29C1725.51 491.29 1727.87 489.134 1727.87 486.176C1727.87 483.031 1725.07 481.812 1722.85 481.267L1721.15 480.824C1719.79 480.474 1717.97 479.835 1717.98 478.165C1717.98 476.682 1719.33 475.582 1721.48 475.582C1723.48 475.582 1724.91 476.52 1725.1 478.131ZM1730.57 491H1741.61V488.733H1733.2V483.389H1740.94V481.131H1733.2V475.812H1741.51V473.545H1730.57V491ZM1744.57 491H1747.2V484.395H1750.78C1750.84 484.395 1750.89 484.395 1750.95 484.395L1754.5 491H1757.5L1753.63 483.935C1755.77 483.142 1756.83 481.361 1756.83 479.017C1756.83 475.804 1754.84 473.545 1750.79 473.545H1744.57V491ZM1747.2 482.128V475.804H1750.51C1753.11 475.804 1754.18 477.04 1754.18 479.017C1754.18 480.986 1753.11 482.128 1750.54 482.128H1747.2ZM1768.73 491H1757.64V493.165H1768.73V491ZM1772.8 473.545H1770.17V491H1772.8V473.545ZM1781.83 491C1787.15 491 1790.22 487.702 1790.22 482.247C1790.22 476.818 1787.15 473.545 1782.01 473.545H1776.18V491H1781.83ZM1778.81 488.699V475.847H1781.85C1785.66 475.847 1787.63 478.131 1787.63 482.247C1787.63 486.381 1785.66 488.699 1781.68 488.699H1778.81Z" fill="#333333"/>
<rect x="336" y="1256" width="208" height="88" rx="35.2" fill="#FFD233"/>
<path d="M399.044 1291.55H396.411V1309H399.044V1291.55ZM401.563 1293.81H407V1309H409.625V1293.81H415.071V1291.55H401.563V1293.81ZM417.6 1309H428.646V1306.73H420.234V1301.39H427.972V1299.13H420.234V1293.81H428.543V1291.55H417.6V1309ZM431.605 1291.55V1309H434.111V1296.36H434.273L439.42 1308.97H441.5L446.648 1296.37H446.81V1309H449.315V1291.55H446.119L440.562 1305.11H440.358L434.801 1291.55H431.605ZM462.653 1309H451.565V1311.16H462.653V1309ZM466.725 1291.55H464.092V1309H466.725V1291.55ZM475.755 1309C481.073 1309 484.15 1305.7 484.15 1300.25C484.15 1294.82 481.073 1291.55 475.934 1291.55H470.104V1309H475.755ZM472.738 1306.7V1293.85H475.772C479.59 1293.85 481.559 1296.13 481.559 1300.25C481.559 1304.38 479.59 1306.7 475.61 1306.7H472.738Z" fill="#333333"/>
<rect x="224" y="438" width="208" height="88" rx="35.2" fill="#FFD233"/>
<path d="M266.847 478.131H269.387C269.311 475.335 266.839 473.307 263.293 473.307C259.791 473.307 257.106 475.31 257.106 478.318C257.106 480.747 258.845 482.17 261.649 482.929L263.711 483.491C265.578 483.986 267.018 484.599 267.018 486.151C267.018 487.855 265.39 488.98 263.149 488.98C261.12 488.98 259.433 488.077 259.279 486.176H256.637C256.808 489.338 259.254 491.29 263.166 491.29C267.265 491.29 269.626 489.134 269.626 486.176C269.626 483.031 266.822 481.812 264.606 481.267L262.901 480.824C261.538 480.474 259.722 479.835 259.731 478.165C259.731 476.682 261.086 475.582 263.234 475.582C265.237 475.582 266.66 476.52 266.847 478.131ZM272.317 491H274.95V483.389H283.652V491H286.294V473.545H283.652V481.131H274.95V473.545H272.317V491ZM304.835 482.273C304.835 476.69 301.494 473.307 296.977 473.307C292.443 473.307 289.111 476.69 289.111 482.273C289.111 487.847 292.443 491.239 296.977 491.239C301.494 491.239 304.835 487.855 304.835 482.273ZM302.227 482.273C302.227 486.526 299.977 488.835 296.977 488.835C293.969 488.835 291.727 486.526 291.727 482.273C291.727 478.02 293.969 475.71 296.977 475.71C299.977 475.71 302.227 478.02 302.227 482.273ZM307.663 491H310.296V484.864H313.876C317.924 484.864 319.927 482.418 319.927 479.196C319.927 475.983 317.941 473.545 313.884 473.545H307.663V491ZM310.296 482.631V475.804H313.603C316.211 475.804 317.276 477.219 317.276 479.196C317.276 481.173 316.211 482.631 313.637 482.631H310.296ZM331.703 491H320.615V493.165H331.703V491ZM347.229 473.545H344.621V486.364H344.459L335.579 473.545H333.141V491H335.775V478.199H335.937L344.809 491H347.229V473.545ZM352.089 491L353.692 486.381H360.51L362.104 491H364.899L358.618 473.545H355.575L349.294 491H352.089ZM354.459 484.165L357.033 476.716H357.169L359.743 484.165H354.459ZM366.964 473.545V491H369.469V478.361H369.631L374.779 490.974H376.859L382.006 478.369H382.168V491H384.674V473.545H381.478L375.921 487.114H375.717L370.16 473.545H366.964ZM388.047 491H399.092V488.733H390.68V483.389H398.419V481.131H390.68V475.812H398.99V473.545H388.047V491Z" fill="#333333"/>
<rect x="1864" y="438" width="208" height="88" rx="35.2" fill="#FFD233"/>
<path d="M1915.84 473.545V484.812C1915.84 487.182 1914.2 488.886 1911.54 488.886C1908.89 488.886 1907.24 487.182 1907.24 484.812V473.545H1904.61V485.026C1904.61 488.69 1907.36 491.29 1911.54 491.29C1915.72 491.29 1918.48 488.69 1918.48 485.026V473.545H1915.84ZM1931.37 478.131H1933.91C1933.83 475.335 1931.36 473.307 1927.82 473.307C1924.31 473.307 1921.63 475.31 1921.63 478.318C1921.63 480.747 1923.37 482.17 1926.17 482.929L1928.23 483.491C1930.1 483.986 1931.54 484.599 1931.54 486.151C1931.54 487.855 1929.91 488.98 1927.67 488.98C1925.64 488.98 1923.96 488.077 1923.8 486.176H1921.16C1921.33 489.338 1923.78 491.29 1927.69 491.29C1931.79 491.29 1934.15 489.134 1934.15 486.176C1934.15 483.031 1931.34 481.812 1929.13 481.267L1927.42 480.824C1926.06 480.474 1924.25 479.835 1924.25 478.165C1924.25 476.682 1925.61 475.582 1927.76 475.582C1929.76 475.582 1931.18 476.52 1931.37 478.131ZM1936.84 491H1947.89V488.733H1939.47V483.389H1947.21V481.131H1939.47V475.812H1947.78V473.545H1936.84V491ZM1950.84 491H1953.48V484.395H1957.06C1957.12 484.395 1957.17 484.395 1957.23 484.395L1960.77 491H1963.77L1959.9 483.935C1962.04 483.142 1963.11 481.361 1963.11 479.017C1963.11 475.804 1961.11 473.545 1957.07 473.545H1950.84V491ZM1953.48 482.128V475.804H1956.79C1959.38 475.804 1960.46 477.04 1960.46 479.017C1960.46 480.986 1959.38 482.128 1956.82 482.128H1953.48ZM1979.95 473.545H1977.34V486.364H1977.18L1968.3 473.545H1965.86V491H1968.49V478.199H1968.65L1977.53 491H1979.95V473.545ZM1984.81 491L1986.41 486.381H1993.23L1994.82 491H1997.62L1991.33 473.545H1988.29L1982.01 491H1984.81ZM1987.18 484.165L1989.75 476.716H1989.89L1992.46 484.165H1987.18ZM1999.68 473.545V491H2002.19V478.361H2002.35L2007.5 490.974H2009.57L2014.72 478.369H2014.88V491H2017.39V473.545H2014.19L2008.64 487.114H2008.43L2002.88 473.545H1999.68ZM2020.76 491H2031.81V488.733H2023.4V483.389H2031.14V481.131H2023.4V475.812H2031.71V473.545H2020.76V491Z" fill="#333333"/>
<rect x="560" y="1256" width="208" height="88" rx="35.2" fill="#FFD233"/>
<path d="M600.027 1291.55H597.394V1309H600.027V1291.55ZM602.546 1293.81H607.983V1309H610.608V1293.81H616.054V1291.55H602.546V1293.81ZM618.584 1309H629.629V1306.73H621.217V1301.39H628.956V1299.13H621.217V1293.81H629.527V1291.55H618.584V1309ZM632.588 1291.55V1309H635.094V1296.36H635.256L640.404 1308.97H642.483L647.631 1296.37H647.793V1309H650.299V1291.55H647.103L641.546 1305.11H641.341L635.784 1291.55H632.588ZM663.637 1309H652.549V1311.16H663.637V1309ZM679.163 1291.55H676.555V1304.36H676.393L667.512 1291.55H665.075V1309H667.708V1296.2H667.87L676.743 1309H679.163V1291.55ZM684.023 1309L685.625 1304.38H692.443L694.037 1309H696.833L690.551 1291.55H687.509L681.228 1309H684.023ZM686.392 1302.16L688.966 1294.72H689.103L691.676 1302.16H686.392ZM698.897 1291.55V1309H701.403V1296.36H701.565L706.713 1308.97H708.792L713.94 1296.37H714.102V1309H716.607V1291.55H713.411L707.855 1305.11H707.65L702.093 1291.55H698.897ZM719.98 1309H731.026V1306.73H722.614V1301.39H730.352V1299.13H722.614V1293.81H730.924V1291.55H719.98V1309Z" fill="#333333"/>
<rect x="448" y="438" width="208" height="88" rx="35.2" fill="#FFD233"/>
<path d="M494.494 491H505.037V488.733H497.128V473.545H494.494V491ZM522.067 482.273C522.067 476.69 518.726 473.307 514.209 473.307C509.675 473.307 506.343 476.69 506.343 482.273C506.343 487.847 509.675 491.239 514.209 491.239C518.726 491.239 522.067 487.855 522.067 482.273ZM519.459 482.273C519.459 486.526 517.209 488.835 514.209 488.835C511.201 488.835 508.959 486.526 508.959 482.273C508.959 478.02 511.201 475.71 514.209 475.71C517.209 475.71 519.459 478.02 519.459 482.273ZM539.392 479.222C538.795 475.489 535.872 473.307 532.182 473.307C527.664 473.307 524.332 476.69 524.332 482.273C524.332 487.855 527.647 491.239 532.182 491.239C536.017 491.239 538.821 488.835 539.392 485.384L536.733 485.375C536.281 487.608 534.406 488.835 532.199 488.835C529.207 488.835 526.949 486.543 526.949 482.273C526.949 478.037 529.199 475.71 532.207 475.71C534.432 475.71 536.298 476.963 536.733 479.222H539.392ZM543.444 491L545.047 486.381H551.865L553.458 491H556.254L549.973 473.545H546.93L540.649 491H543.444ZM545.814 484.165L548.387 476.716H548.524L551.098 484.165H545.814ZM555.372 475.812H560.809V491H563.434V475.812H568.88V473.545H555.372V475.812ZM574.043 473.545H571.409V491H574.043V473.545ZM592.584 482.273C592.584 476.69 589.243 473.307 584.726 473.307C580.192 473.307 576.86 476.69 576.86 482.273C576.86 487.847 580.192 491.239 584.726 491.239C589.243 491.239 592.584 487.855 592.584 482.273ZM589.976 482.273C589.976 486.526 587.726 488.835 584.726 488.835C581.718 488.835 579.476 486.526 579.476 482.273C579.476 478.02 581.718 475.71 584.726 475.71C587.726 475.71 589.976 478.02 589.976 482.273ZM609.5 473.545H606.892V486.364H606.73L597.849 473.545H595.411V491H598.045V478.199H598.207L607.079 491H609.5V473.545Z" fill="#333333"/>
<rect x="2088" y="438" width="208" height="88" rx="35.2" fill="#FFD233"/>
<path d="M2137.08 473.545V484.812C2137.08 487.182 2135.44 488.886 2132.78 488.886C2130.13 488.886 2128.48 487.182 2128.48 484.812V473.545H2125.85V485.026C2125.85 488.69 2128.6 491.29 2132.78 491.29C2136.96 491.29 2139.72 488.69 2139.72 485.026V473.545H2137.08ZM2151.02 491H2139.93V493.165H2151.02V491ZM2153.93 491L2155.53 486.381H2162.35L2163.94 491H2166.74L2160.46 473.545H2157.41L2151.13 491H2153.93ZM2156.3 484.165L2158.87 476.716H2159.01L2161.58 484.165H2156.3ZM2174.45 491C2179.77 491 2182.85 487.702 2182.85 482.247C2182.85 476.818 2179.77 473.545 2174.63 473.545H2168.8V491H2174.45ZM2171.44 488.699V475.847H2174.47C2178.29 475.847 2180.26 478.131 2180.26 482.247C2180.26 486.381 2178.29 488.699 2174.31 488.699H2171.44ZM2191.32 491C2196.64 491 2199.71 487.702 2199.71 482.247C2199.71 476.818 2196.64 473.545 2191.5 473.545H2185.67V491H2191.32ZM2188.3 488.699V475.847H2191.34C2195.15 475.847 2197.12 478.131 2197.12 482.247C2197.12 486.381 2195.15 488.699 2191.17 488.699H2188.3ZM2202.53 491H2205.17V484.395H2208.74C2208.8 484.395 2208.86 484.395 2208.92 484.395L2212.46 491H2215.46L2211.59 483.935C2213.73 483.142 2214.8 481.361 2214.8 479.017C2214.8 475.804 2212.8 473.545 2208.75 473.545H2202.53V491ZM2205.17 482.128V475.804H2208.47C2211.07 475.804 2212.15 477.04 2212.15 479.017C2212.15 480.986 2211.07 482.128 2208.51 482.128H2205.17ZM2217.54 491H2228.59V488.733H2220.18V483.389H2227.92V481.131H2220.18V475.812H2228.49V473.545H2217.54V491ZM2241.07 478.131H2243.61C2243.53 475.335 2241.06 473.307 2237.52 473.307C2234.01 473.307 2231.33 475.31 2231.33 478.318C2231.33 480.747 2233.07 482.17 2235.87 482.929L2237.93 483.491C2239.8 483.986 2241.24 484.599 2241.24 486.151C2241.24 487.855 2239.61 488.98 2237.37 488.98C2235.34 488.98 2233.65 488.077 2233.5 486.176H2230.86C2231.03 489.338 2233.48 491.29 2237.39 491.29C2241.49 491.29 2243.85 489.134 2243.85 486.176C2243.85 483.031 2241.04 481.812 2238.83 481.267L2237.12 480.824C2235.76 480.474 2233.94 479.835 2233.95 478.165C2233.95 476.682 2235.31 475.582 2237.46 475.582C2239.46 475.582 2240.88 476.52 2241.07 478.131ZM2256.06 478.131H2258.6C2258.52 475.335 2256.05 473.307 2252.5 473.307C2249 473.307 2246.32 475.31 2246.32 478.318C2246.32 480.747 2248.06 482.17 2250.86 482.929L2252.92 483.491C2254.79 483.986 2256.23 484.599 2256.23 486.151C2256.23 487.855 2254.6 488.98 2252.36 488.98C2250.33 488.98 2248.64 488.077 2248.49 486.176H2245.85C2246.02 489.338 2248.47 491.29 2252.38 491.29C2256.48 491.29 2258.84 489.134 2258.84 486.176C2258.84 483.031 2256.03 481.812 2253.82 481.267L2252.11 480.824C2250.75 480.474 2248.93 479.835 2248.94 478.165C2248.94 476.682 2250.3 475.582 2252.45 475.582C2254.45 475.582 2255.87 476.52 2256.06 478.131Z" fill="#333333"/>
<rect x="784" y="1256" width="208" height="88" rx="35.2" fill="#FFD233"/>
<path d="M856.13 1309H858.764V1302.86H862.343C866.392 1302.86 868.395 1300.42 868.395 1297.2C868.395 1293.98 866.409 1291.55 862.352 1291.55H856.13V1309ZM858.764 1300.63V1293.8H862.071C864.679 1293.8 865.744 1295.22 865.744 1297.2C865.744 1299.17 864.679 1300.63 862.105 1300.63H858.764ZM871.026 1309H873.659V1302.39H877.239C877.299 1302.39 877.35 1302.39 877.409 1302.39L880.955 1309H883.955L880.086 1301.93C882.225 1301.14 883.29 1299.36 883.29 1297.02C883.29 1293.8 881.296 1291.55 877.248 1291.55H871.026V1309ZM873.659 1300.13V1293.8H876.966C879.566 1293.8 880.64 1295.04 880.64 1297.02C880.64 1298.99 879.566 1300.13 877 1300.13H873.659ZM888.672 1291.55H886.039V1309H888.672V1291.55ZM906.549 1297.22C905.952 1293.49 903.029 1291.31 899.338 1291.31C894.821 1291.31 891.489 1294.69 891.489 1300.27C891.489 1305.86 894.804 1309.24 899.338 1309.24C903.174 1309.24 905.978 1306.84 906.549 1303.38L903.89 1303.38C903.438 1305.61 901.563 1306.84 899.355 1306.84C896.364 1306.84 894.105 1304.54 894.105 1300.27C894.105 1296.04 896.355 1293.71 899.364 1293.71C901.588 1293.71 903.455 1294.96 903.89 1297.22H906.549ZM909.244 1309H920.289V1306.73H911.877V1301.39H919.616V1299.13H911.877V1293.81H920.187V1291.55H909.244V1309Z" fill="#333333"/>
<rect x="672" y="438" width="208" height="88" rx="35.2" fill="#FFD233"/>
<path d="M742.419 491H753.465V488.733H745.053V483.389H752.792V481.131H745.053V475.812H753.363V473.545H742.419V491ZM756.424 473.545V491H758.93V478.361H759.092L764.24 490.974H766.319L771.467 478.369H771.629V491H774.135V473.545H770.939L765.382 487.114H765.177L759.62 473.545H756.424ZM778.982 491L780.584 486.381H787.402L788.996 491H791.792L785.51 473.545H782.468L776.186 491H778.982ZM781.351 484.165L783.925 476.716H784.061L786.635 484.165H781.351ZM796.49 473.545H793.856V491H796.49V473.545ZM799.869 491H810.412V488.733H802.502V473.545H799.869V491Z" fill="#333333"/>
<rect x="2312" y="438" width="208" height="88" rx="35.2" fill="#FFD233"/>
<path d="M2382.42 491H2393.46V488.733H2385.05V483.389H2392.79V481.131H2385.05V475.812H2393.36V473.545H2382.42V491ZM2396.42 473.545V491H2398.93V478.361H2399.09L2404.24 490.974H2406.32L2411.47 478.369H2411.63V491H2414.13V473.545H2410.94L2405.38 487.114H2405.18L2399.62 473.545H2396.42ZM2418.98 491L2420.58 486.381H2427.4L2429 491H2431.79L2425.51 473.545H2422.47L2416.19 491H2418.98ZM2421.35 484.165L2423.93 476.716H2424.06L2426.64 484.165H2421.35ZM2436.49 473.545H2433.86V491H2436.49V473.545ZM2439.87 491H2450.41V488.733H2442.5V473.545H2439.87V491Z" fill="#333333"/>
<rect x="1008" y="1256" width="208" height="88" rx="35.2" fill="#FFD233"/>
<path d="M1083.16 1296.13H1085.7C1085.62 1293.34 1083.15 1291.31 1079.6 1291.31C1076.1 1291.31 1073.42 1293.31 1073.42 1296.32C1073.42 1298.75 1075.16 1300.17 1077.96 1300.93L1080.02 1301.49C1081.89 1301.99 1083.33 1302.6 1083.33 1304.15C1083.33 1305.86 1081.7 1306.98 1079.46 1306.98C1077.43 1306.98 1075.74 1306.08 1075.59 1304.18H1072.95C1073.12 1307.34 1075.56 1309.29 1079.48 1309.29C1083.58 1309.29 1085.94 1307.13 1085.94 1304.18C1085.94 1301.03 1083.13 1299.81 1080.92 1299.27L1079.21 1298.82C1077.85 1298.47 1076.03 1297.84 1076.04 1296.16C1076.04 1294.68 1077.4 1293.58 1079.54 1293.58C1081.55 1293.58 1082.97 1294.52 1083.16 1296.13ZM1087.77 1293.81H1093.2V1309H1095.83V1293.81H1101.28V1291.55H1087.77V1293.81ZM1118.24 1300.27C1118.24 1294.69 1114.9 1291.31 1110.38 1291.31C1105.85 1291.31 1102.52 1294.69 1102.52 1300.27C1102.52 1305.85 1105.85 1309.24 1110.38 1309.24C1114.9 1309.24 1118.24 1305.86 1118.24 1300.27ZM1115.63 1300.27C1115.63 1304.53 1113.38 1306.84 1110.38 1306.84C1107.37 1306.84 1105.13 1304.53 1105.13 1300.27C1105.13 1296.02 1107.37 1293.71 1110.38 1293.71C1113.38 1293.71 1115.63 1296.02 1115.63 1300.27ZM1135.56 1297.22C1134.97 1293.49 1132.04 1291.31 1128.35 1291.31C1123.84 1291.31 1120.5 1294.69 1120.5 1300.27C1120.5 1305.86 1123.82 1309.24 1128.35 1309.24C1132.19 1309.24 1134.99 1306.84 1135.56 1303.38L1132.91 1303.38C1132.45 1305.61 1130.58 1306.84 1128.37 1306.84C1125.38 1306.84 1123.12 1304.54 1123.12 1300.27C1123.12 1296.04 1125.37 1293.71 1128.38 1293.71C1130.6 1293.71 1132.47 1294.96 1132.91 1297.22H1135.56ZM1138.26 1309H1140.89V1303.57L1142.96 1301.2L1148.6 1309H1151.77L1144.7 1299.4L1151.74 1291.55H1148.43L1141.11 1299.88H1140.89V1291.55H1138.26V1309Z" fill="#333333"/>
<rect x="1264" y="1256" width="208" height="88" rx="35.2" fill="#FFD233"/>
<path d="M1322.19 1297.22C1321.59 1293.49 1318.67 1291.31 1314.97 1291.31C1310.46 1291.31 1307.13 1294.69 1307.13 1300.27C1307.13 1305.86 1310.44 1309.24 1314.97 1309.24C1318.81 1309.24 1321.61 1306.84 1322.19 1303.38L1319.53 1303.38C1319.07 1305.61 1317.2 1306.84 1314.99 1306.84C1312 1306.84 1309.74 1304.54 1309.74 1300.27C1309.74 1296.04 1311.99 1293.71 1315 1293.71C1317.22 1293.71 1319.09 1294.96 1319.53 1297.22H1322.19ZM1340.04 1300.27C1340.04 1294.69 1336.7 1291.31 1332.18 1291.31C1327.65 1291.31 1324.32 1294.69 1324.32 1300.27C1324.32 1305.85 1327.65 1309.24 1332.18 1309.24C1336.7 1309.24 1340.04 1305.86 1340.04 1300.27ZM1337.43 1300.27C1337.43 1304.53 1335.18 1306.84 1332.18 1306.84C1329.18 1306.84 1326.93 1304.53 1326.93 1300.27C1326.93 1296.02 1329.18 1293.71 1332.18 1293.71C1335.18 1293.71 1337.43 1296.02 1337.43 1300.27ZM1342.87 1291.55V1309H1345.38V1296.36H1345.54L1350.69 1308.97H1352.76L1357.91 1296.37H1358.07V1309H1360.58V1291.55H1357.38L1351.83 1305.11H1351.62L1346.07 1291.55H1342.87ZM1363.95 1291.55V1309H1366.46V1296.36H1366.62L1371.77 1308.97H1373.85L1379 1296.37H1379.16V1309H1381.66V1291.55H1378.47L1372.91 1305.11H1372.71L1367.15 1291.55H1363.95ZM1385.04 1309H1396.08V1306.73H1387.67V1301.39H1395.41V1299.13H1387.67V1293.81H1395.98V1291.55H1385.04V1309ZM1413.13 1291.55H1410.52V1304.36H1410.36L1401.48 1291.55H1399.04V1309H1401.67V1296.2H1401.84L1410.71 1309H1413.13V1291.55ZM1415.65 1293.81H1421.09V1309H1423.72V1293.81H1429.16V1291.55H1415.65V1293.81Z" fill="#333333"/>
<rect x="1040" y="264" width="208" height="88" rx="35.2" fill="#FFD233"/>
<path d="M1080 317C1085.31 317 1088.39 313.702 1088.39 308.247C1088.39 302.818 1085.31 299.545 1080.18 299.545H1074.35V317H1080ZM1076.98 314.699V301.847H1080.01C1083.83 301.847 1085.8 304.131 1085.8 308.247C1085.8 312.381 1083.83 314.699 1079.85 314.699H1076.98ZM1091.82 317L1093.42 312.381H1100.24L1101.83 317H1104.63L1098.35 299.545H1095.3L1089.02 317H1091.82ZM1094.19 310.165L1096.76 302.716H1096.9L1099.47 310.165H1094.19ZM1103.75 301.812H1109.18V317H1111.81V301.812H1117.25V299.545H1103.75V301.812ZM1119.78 317H1130.83V314.733H1122.42V309.389H1130.15V307.131H1122.42V301.812H1130.73V299.545H1119.78V317ZM1144.56 317.247C1146.13 317.247 1147.88 316.719 1149.06 315.619L1150.23 317H1153.12L1150.63 314.034C1151.38 313.045 1152.08 311.494 1152.08 309.074H1149.78C1149.78 310.241 1149.51 311.281 1149.06 312.151L1145.56 307.974L1146.76 307.097C1148.21 306.04 1149.08 304.821 1149.08 303.159C1149.08 301.122 1147.43 299.358 1144.75 299.358C1142.09 299.358 1140.34 301.071 1140.34 303.483C1140.34 305.043 1141.16 306.278 1142.26 307.616C1140.26 308.997 1138.91 310.284 1138.91 312.364C1138.91 315.168 1141.05 317.247 1144.56 317.247ZM1147.63 313.932C1146.72 314.682 1145.64 315.091 1144.57 315.091C1142.67 315.091 1141.44 313.804 1141.44 312.295C1141.44 311.759 1141.89 310.685 1143.25 309.679L1143.71 309.338L1147.63 313.932ZM1144.16 306.278C1143.37 305.307 1142.74 304.412 1142.74 303.526C1142.74 302.511 1143.58 301.489 1144.81 301.489C1145.98 301.489 1146.75 302.409 1146.75 303.227C1146.75 304.267 1146.18 304.898 1145.23 305.52L1144.16 306.278ZM1159.89 301.812H1165.33V317H1167.96V301.812H1173.4V299.545H1159.89V301.812ZM1178.57 299.545H1175.93V317H1178.57V299.545ZM1181.95 299.545V317H1184.45V304.361H1184.61L1189.76 316.974H1191.84L1196.99 304.369H1197.15V317H1199.66V299.545H1196.46L1190.9 313.114H1190.7L1185.14 299.545H1181.95ZM1203.03 317H1214.07V314.733H1205.66V309.389H1213.4V307.131H1205.66V301.812H1213.97V299.545H1203.03V317Z" fill="#333333"/>
<rect x="1264" y="264" width="208" height="88" rx="35.2" fill="#FFD233"/>
<path d="M1324.16 308.273C1324.16 302.69 1320.82 299.307 1316.3 299.307C1311.76 299.307 1308.43 302.69 1308.43 308.273C1308.43 313.847 1311.76 317.239 1316.3 317.239C1317.42 317.239 1318.47 317.034 1319.41 316.634L1320.9 318.568H1323.59L1321.24 315.5C1323.05 313.974 1324.16 311.486 1324.16 308.273ZM1315.41 311.341L1317.89 314.597C1317.4 314.759 1316.86 314.835 1316.3 314.835C1313.29 314.835 1311.05 312.526 1311.05 308.273C1311.05 304.02 1313.29 301.71 1316.3 301.71C1319.3 301.71 1321.55 304.02 1321.55 308.273C1321.55 310.659 1320.84 312.44 1319.68 313.531L1318 311.341H1315.41ZM1338.21 299.545V310.812C1338.21 313.182 1336.57 314.886 1333.91 314.886C1331.26 314.886 1329.62 313.182 1329.62 310.812V299.545H1326.98V311.026C1326.98 314.69 1329.73 317.29 1333.91 317.29C1338.1 317.29 1340.85 314.69 1340.85 311.026V299.545H1338.21ZM1345.7 317L1347.3 312.381H1354.12L1355.71 317H1358.51L1352.23 299.545H1349.18L1342.9 317H1345.7ZM1348.07 310.165L1350.64 302.716H1350.78L1353.35 310.165H1348.07ZM1374.66 299.545H1372.05V312.364H1371.89L1363.01 299.545H1360.57V317H1363.2V304.199H1363.37L1372.24 317H1374.66V299.545ZM1377.18 301.812H1382.62V317H1385.25V301.812H1390.69V299.545H1377.18V301.812ZM1395.86 299.545H1393.22V317H1395.86V299.545ZM1398.37 301.812H1403.81V317H1406.44V301.812H1411.88V299.545H1398.37V301.812ZM1413.06 299.545L1419.4 310.148V317H1422.02V310.148L1428.35 299.545H1425.36L1420.8 307.48H1420.62L1416.06 299.545H1413.06Z" fill="#333333"/>
<rect x="1488" y="272" width="208" height="88" rx="35.2" fill="#FFD233"/>
<path d="M1527.82 309.812H1533.26V325H1535.88V309.812H1541.33V307.545H1527.82V309.812ZM1558.29 316.273C1558.29 310.69 1554.95 307.307 1550.43 307.307C1545.9 307.307 1542.57 310.69 1542.57 316.273C1542.57 321.847 1545.9 325.239 1550.43 325.239C1554.95 325.239 1558.29 321.855 1558.29 316.273ZM1555.68 316.273C1555.68 320.526 1553.43 322.835 1550.43 322.835C1547.43 322.835 1545.18 320.526 1545.18 316.273C1545.18 312.02 1547.43 309.71 1550.43 309.71C1553.43 309.71 1555.68 312.02 1555.68 316.273ZM1559.53 309.812H1564.97V325H1567.6V309.812H1573.04V307.545H1559.53V309.812ZM1574.96 325L1576.56 320.381H1583.38L1584.97 325H1587.77L1581.49 307.545H1578.44L1572.16 325H1574.96ZM1577.33 318.165L1579.9 310.716H1580.04L1582.61 318.165H1577.33ZM1589.83 325H1600.38V322.733H1592.47V307.545H1589.83V325ZM1618.34 312.131H1620.88C1620.8 309.335 1618.33 307.307 1614.79 307.307C1611.28 307.307 1608.6 309.31 1608.6 312.318C1608.6 314.747 1610.34 316.17 1613.14 316.929L1615.2 317.491C1617.07 317.986 1618.51 318.599 1618.51 320.151C1618.51 321.855 1616.88 322.98 1614.64 322.98C1612.61 322.98 1610.92 322.077 1610.77 320.176H1608.13C1608.3 323.338 1610.75 325.29 1614.66 325.29C1618.76 325.29 1621.12 323.134 1621.12 320.176C1621.12 317.031 1618.31 315.812 1616.1 315.267L1614.39 314.824C1613.03 314.474 1611.21 313.835 1611.22 312.165C1611.22 310.682 1612.58 309.582 1614.73 309.582C1616.73 309.582 1618.15 310.52 1618.34 312.131ZM1626.44 307.545H1623.81V325H1626.44V307.545ZM1629.37 325H1641.85V322.733H1632.59L1641.77 309.301V307.545H1629.29V309.812H1638.55L1629.37 323.244V325ZM1644.69 325H1655.74V322.733H1647.33V317.389H1655.07V315.131H1647.33V309.812H1655.64V307.545H1644.69V325Z" fill="#333333"/>
<rect x="896" y="438" width="208" height="88" rx="35.2" fill="#FFD233"/>
<path d="M937.807 491H940.44V484.864H944.02C948.068 484.864 950.071 482.418 950.071 479.196C950.071 475.983 948.085 473.545 944.028 473.545H937.807V491ZM940.44 482.631V475.804H943.747C946.355 475.804 947.42 477.219 947.42 479.196C947.42 481.173 946.355 482.631 943.781 482.631H940.44ZM952.702 491H955.336V483.389H964.037V491H966.679V473.545H964.037V481.131H955.336V473.545H952.702V491ZM985.221 482.273C985.221 476.69 981.88 473.307 977.363 473.307C972.829 473.307 969.496 476.69 969.496 482.273C969.496 487.847 972.829 491.239 977.363 491.239C981.88 491.239 985.221 487.855 985.221 482.273ZM982.613 482.273C982.613 486.526 980.363 488.835 977.363 488.835C974.354 488.835 972.113 486.526 972.113 482.273C972.113 478.02 974.354 475.71 977.363 475.71C980.363 475.71 982.613 478.02 982.613 482.273ZM1002.14 473.545H999.528V486.364H999.366L990.485 473.545H988.048V491H990.681V478.199H990.843L999.716 491H1002.14V473.545ZM1005.52 491H1016.57V488.733H1008.16V483.389H1015.89V481.131H1008.16V475.812H1016.46V473.545H1005.52V491ZM1028.67 491H1017.58V493.165H1028.67V491ZM1044.2 473.545H1041.59V486.364H1041.43L1032.55 473.545H1030.11V491H1032.74V478.199H1032.91L1041.78 491H1044.2V473.545ZM1062.75 482.273C1062.75 476.69 1059.4 473.307 1054.89 473.307C1050.35 473.307 1047.02 476.69 1047.02 482.273C1047.02 487.847 1050.35 491.239 1054.89 491.239C1059.4 491.239 1062.75 487.855 1062.75 482.273ZM1060.14 482.273C1060.14 486.526 1057.89 488.835 1054.89 488.835C1051.88 488.835 1049.64 486.526 1049.64 482.273C1049.64 478.02 1051.88 475.71 1054.89 475.71C1057.89 475.71 1060.14 478.02 1060.14 482.273Z" fill="#333333"/>
<rect x="2536" y="438" width="208" height="88" rx="35.2" fill="#FFD233"/>
<path d="M2600.83 491H2603.46V484.864H2607.04C2611.09 484.864 2613.09 482.418 2613.09 479.196C2613.09 475.983 2611.11 473.545 2607.05 473.545H2600.83V491ZM2603.46 482.631V475.804H2606.77C2609.38 475.804 2610.44 477.219 2610.44 479.196C2610.44 481.173 2609.38 482.631 2606.8 482.631H2603.46ZM2615.73 491H2618.36V483.389H2627.06V491H2629.7V473.545H2627.06V481.131H2618.36V473.545H2615.73V491ZM2648.24 482.273C2648.24 476.69 2644.9 473.307 2640.39 473.307C2635.85 473.307 2632.52 476.69 2632.52 482.273C2632.52 487.847 2635.85 491.239 2640.39 491.239C2644.9 491.239 2648.24 487.855 2648.24 482.273ZM2645.64 482.273C2645.64 486.526 2643.39 488.835 2640.39 488.835C2637.38 488.835 2635.14 486.526 2635.14 482.273C2635.14 478.02 2637.38 475.71 2640.39 475.71C2643.39 475.71 2645.64 478.02 2645.64 482.273ZM2665.16 473.545H2662.55V486.364H2662.39L2653.51 473.545H2651.07V491H2653.7V478.199H2653.87L2662.74 491H2665.16V473.545ZM2668.54 491H2679.59V488.733H2671.18V483.389H2678.92V481.131H2671.18V475.812H2679.49V473.545H2668.54V491Z" fill="#333333"/>
<path d="M774.5 602C774.5 602.828 775.172 603.5 776 603.5C776.828 603.5 777.5 602.828 777.5 602H774.5ZM105.061 528.939C104.475 528.354 103.525 528.354 102.939 528.939L93.3934 538.485C92.8076 539.071 92.8076 540.021 93.3934 540.607C93.9792 541.192 94.9289 541.192 95.5147 540.607L104 532.121L112.485 540.607C113.071 541.192 114.021 541.192 114.607 540.607C115.192 540.021 115.192 539.071 114.607 538.485L105.061 528.939ZM777.5 602V590H774.5V602H777.5ZM752 564.5H128V567.5H752V564.5ZM105.5 542V530H102.5V542H105.5ZM128 564.5C115.574 564.5 105.5 554.426 105.5 542H102.5C102.5 556.083 113.917 567.5 128 567.5V564.5ZM777.5 590C777.5 575.917 766.083 564.5 752 564.5V567.5C764.426 567.5 774.5 577.574 774.5 590H777.5Z" fill="#C4C4C4"/>
<path d="M1966.5 602C1966.5 602.828 1967.17 603.5 1968 603.5C1968.83 603.5 1969.5 602.828 1969.5 602H1966.5ZM1745.06 528.939C1744.47 528.354 1743.53 528.354 1742.94 528.939L1733.39 538.485C1732.81 539.071 1732.81 540.021 1733.39 540.607C1733.98 541.192 1734.93 541.192 1735.51 540.607L1744 532.121L1752.49 540.607C1753.07 541.192 1754.02 541.192 1754.61 540.607C1755.19 540.021 1755.19 539.071 1754.61 538.485L1745.06 528.939ZM1969.5 602V590H1966.5V602H1969.5ZM1944 564.5H1768V567.5H1944V564.5ZM1745.5 542V530H1742.5V542H1745.5ZM1768 564.5C1755.57 564.5 1745.5 554.426 1745.5 542H1742.5C1742.5 556.083 1753.92 567.5 1768 567.5V564.5ZM1969.5 590C1969.5 575.917 1958.08 564.5 1944 564.5V567.5C1956.43 567.5 1966.5 577.574 1966.5 590H1969.5Z" fill="#C4C4C4"/>
<path d="M774.5 602C774.5 602.828 775.172 603.5 776 603.5C776.828 603.5 777.5 602.828 777.5 602H774.5ZM329.061 528.939C328.475 528.354 327.525 528.354 326.939 528.939L317.393 538.485C316.808 539.071 316.808 540.021 317.393 540.607C317.979 541.192 318.929 541.192 319.515 540.607L328 532.121L336.485 540.607C337.071 541.192 338.021 541.192 338.607 540.607C339.192 540.021 339.192 539.071 338.607 538.485L329.061 528.939ZM777.5 602V590H774.5V602H777.5ZM752 564.5H352V567.5H752V564.5ZM329.5 542V530H326.5V542H329.5ZM352 564.5C339.574 564.5 329.5 554.426 329.5 542H326.5C326.5 556.083 337.917 567.5 352 567.5V564.5ZM777.5 590C777.5 575.917 766.083 564.5 752 564.5V567.5C764.426 567.5 774.5 577.574 774.5 590H777.5Z" fill="#C4C4C4"/>
<path d="M1966.5 602C1966.5 602.828 1967.17 603.5 1968 603.5C1968.83 603.5 1969.5 602.828 1969.5 602H1966.5ZM1969.06 528.939C1968.47 528.354 1967.53 528.354 1966.94 528.939L1957.39 538.485C1956.81 539.071 1956.81 540.021 1957.39 540.607C1957.98 541.192 1958.93 541.192 1959.51 540.607L1968 532.121L1976.49 540.607C1977.07 541.192 1978.02 541.192 1978.61 540.607C1979.19 540.021 1979.19 539.071 1978.61 538.485L1969.06 528.939ZM1969.5 602V530H1966.5V602H1969.5Z" fill="#C4C4C4"/>
<path d="M774.5 602C774.5 602.828 775.172 603.5 776 603.5C776.828 603.5 777.5 602.828 777.5 602H774.5ZM553.061 528.939C552.475 528.354 551.525 528.354 550.939 528.939L541.393 538.485C540.808 539.071 540.808 540.021 541.393 540.607C541.979 541.192 542.929 541.192 543.515 540.607L552 532.121L560.485 540.607C561.071 541.192 562.021 541.192 562.607 540.607C563.192 540.021 563.192 539.071 562.607 538.485L553.061 528.939ZM777.5 602V590H774.5V602H777.5ZM752 564.5H576V567.5H752V564.5ZM553.5 542V530H550.5V542H553.5ZM576 564.5C563.574 564.5 553.5 554.426 553.5 542H550.5C550.5 556.083 561.917 567.5 576 567.5V564.5ZM777.5 590C777.5 575.917 766.083 564.5 752 564.5V567.5C764.426 567.5 774.5 577.574 774.5 590H777.5Z" fill="#C4C4C4"/>
<path d="M1966.5 602C1966.5 602.828 1967.17 603.5 1968 603.5C1968.83 603.5 1969.5 602.828 1969.5 602H1966.5ZM2193.06 528.939C2192.47 528.354 2191.53 528.354 2190.94 528.939L2181.39 538.485C2180.81 539.071 2180.81 540.021 2181.39 540.607C2181.98 541.192 2182.93 541.192 2183.51 540.607L2192 532.121L2200.49 540.607C2201.07 541.192 2202.02 541.192 2202.61 540.607C2203.19 540.021 2203.19 539.071 2202.61 538.485L2193.06 528.939ZM1969.5 602V590H1966.5V602H1969.5ZM1992 567.5H2168V564.5H1992V567.5ZM2193.5 542V530H2190.5V542H2193.5ZM2168 567.5C2182.08 567.5 2193.5 556.083 2193.5 542H2190.5C2190.5 554.426 2180.43 564.5 2168 564.5V567.5ZM1969.5 590C1969.5 577.574 1979.57 567.5 1992 567.5V564.5C1977.92 564.5 1966.5 575.917 1966.5 590H1969.5Z" fill="#C4C4C4"/>
<path d="M774.5 602C774.5 602.828 775.172 603.5 776 603.5C776.828 603.5 777.5 602.828 777.5 602H774.5ZM777.061 528.939C776.475 528.354 775.525 528.354 774.939 528.939L765.393 538.485C764.808 539.071 764.808 540.021 765.393 540.607C765.979 541.192 766.929 541.192 767.515 540.607L776 532.121L784.485 540.607C785.071 541.192 786.021 541.192 786.607 540.607C787.192 540.021 787.192 539.071 786.607 538.485L777.061 528.939ZM777.5 602V530H774.5V602H777.5Z" fill="#C4C4C4"/>
<path d="M1966.5 602C1966.5 602.828 1967.17 603.5 1968 603.5C1968.83 603.5 1969.5 602.828 1969.5 602H1966.5ZM2417.06 528.939C2416.47 528.354 2415.53 528.354 2414.94 528.939L2405.39 538.485C2404.81 539.071 2404.81 540.021 2405.39 540.607C2405.98 541.192 2406.93 541.192 2407.51 540.607L2416 532.121L2424.49 540.607C2425.07 541.192 2426.02 541.192 2426.61 540.607C2427.19 540.021 2427.19 539.071 2426.61 538.485L2417.06 528.939ZM1969.5 602V590H1966.5V602H1969.5ZM1992 567.5H2392V564.5H1992V567.5ZM2417.5 542V530H2414.5V542H2417.5ZM2392 567.5C2406.08 567.5 2417.5 556.083 2417.5 542H2414.5C2414.5 554.426 2404.43 564.5 2392 564.5V567.5ZM1969.5 590C1969.5 577.574 1979.57 567.5 1992 567.5V564.5C1977.92 564.5 1966.5 575.917 1966.5 590H1969.5Z" fill="#C4C4C4"/>
<path d="M774.5 602C774.5 602.828 775.172 603.5 776 603.5C776.828 603.5 777.5 602.828 777.5 602H774.5ZM1001.06 528.939C1000.47 528.354 999.525 528.354 998.939 528.939L989.393 538.485C988.808 539.071 988.808 540.021 989.393 540.607C989.979 541.192 990.929 541.192 991.515 540.607L1000 532.121L1008.49 540.607C1009.07 541.192 1010.02 541.192 1010.61 540.607C1011.19 540.021 1011.19 539.071 1010.61 538.485L1001.06 528.939ZM777.5 602V590H774.5V602H777.5ZM800 567.5H976V564.5H800V567.5ZM1001.5 542V530H998.5V542H1001.5ZM976 567.5C990.083 567.5 1001.5 556.083 1001.5 542H998.5C998.5 554.426 988.426 564.5 976 564.5V567.5ZM777.5 590C777.5 577.574 787.574 567.5 800 567.5V564.5C785.917 564.5 774.5 575.917 774.5 590H777.5Z" fill="#C4C4C4"/>
<path d="M1966.5 602C1966.5 602.828 1967.17 603.5 1968 603.5C1968.83 603.5 1969.5 602.828 1969.5 602H1966.5ZM2641.06 528.939C2640.47 528.354 2639.53 528.354 2638.94 528.939L2629.39 538.485C2628.81 539.071 2628.81 540.021 2629.39 540.607C2629.98 541.192 2630.93 541.192 2631.51 540.607L2640 532.121L2648.49 540.607C2649.07 541.192 2650.02 541.192 2650.61 540.607C2651.19 540.021 2651.19 539.071 2650.61 538.485L2641.06 528.939ZM1969.5 602V590H1966.5V602H1969.5ZM1992 567.5H2616V564.5H1992V567.5ZM2641.5 542V530H2638.5V542H2641.5ZM2616 567.5C2630.08 567.5 2641.5 556.083 2641.5 542H2638.5C2638.5 554.426 2628.43 564.5 2616 564.5V567.5ZM1969.5 590C1969.5 577.574 1979.57 567.5 1992 567.5V564.5C1977.92 564.5 1966.5 575.917 1966.5 590H1969.5Z" fill="#C4C4C4"/>
<path d="M777.5 1166C777.5 1165.17 776.828 1164.5 776 1164.5C775.172 1164.5 774.5 1165.17 774.5 1166H777.5ZM438.939 1253.06C439.525 1253.65 440.475 1253.65 441.061 1253.06L450.607 1243.51C451.192 1242.93 451.192 1241.98 450.607 1241.39C450.021 1240.81 449.071 1240.81 448.485 1241.39L440 1249.88L431.515 1241.39C430.929 1240.81 429.979 1240.81 429.393 1241.39C428.808 1241.98 428.808 1242.93 429.393 1243.51L438.939 1253.06ZM774.5 1166V1185H777.5V1166H774.5ZM752 1207.5H464V1210.5H752V1207.5ZM438.5 1233V1252H441.5V1233H438.5ZM464 1207.5C449.917 1207.5 438.5 1218.92 438.5 1233H441.5C441.5 1220.57 451.574 1210.5 464 1210.5V1207.5ZM774.5 1185C774.5 1197.43 764.426 1207.5 752 1207.5V1210.5C766.083 1210.5 777.5 1199.08 777.5 1185H774.5Z" fill="#C4C4C4"/>
<path d="M777.5 1166C777.5 1165.17 776.828 1164.5 776 1164.5C775.172 1164.5 774.5 1165.17 774.5 1166H777.5ZM662.939 1253.06C663.525 1253.65 664.475 1253.65 665.061 1253.06L674.607 1243.51C675.192 1242.93 675.192 1241.98 674.607 1241.39C674.021 1240.81 673.071 1240.81 672.485 1241.39L664 1249.88L655.515 1241.39C654.929 1240.81 653.979 1240.81 653.393 1241.39C652.808 1241.98 652.808 1242.93 653.393 1243.51L662.939 1253.06ZM774.5 1166V1185H777.5V1166H774.5ZM752 1207.5H688V1210.5H752V1207.5ZM662.5 1233V1252H665.5V1233H662.5ZM688 1207.5C673.917 1207.5 662.5 1218.92 662.5 1233H665.5C665.5 1220.57 675.574 1210.5 688 1210.5V1207.5ZM774.5 1185C774.5 1197.43 764.426 1207.5 752 1207.5V1210.5C766.083 1210.5 777.5 1199.08 777.5 1185H774.5Z" fill="#C4C4C4"/>
<path d="M777.5 1166C777.5 1165.17 776.828 1164.5 776 1164.5C775.172 1164.5 774.5 1165.17 774.5 1166H777.5ZM886.939 1253.06C887.525 1253.65 888.475 1253.65 889.061 1253.06L898.607 1243.51C899.192 1242.93 899.192 1241.98 898.607 1241.39C898.021 1240.81 897.071 1240.81 896.485 1241.39L888 1249.88L879.515 1241.39C878.929 1240.81 877.979 1240.81 877.393 1241.39C876.808 1241.98 876.808 1242.93 877.393 1243.51L886.939 1253.06ZM774.5 1166V1185H777.5V1166H774.5ZM800 1210.5H864V1207.5H800V1210.5ZM886.5 1233V1252H889.5V1233H886.5ZM864 1210.5C876.426 1210.5 886.5 1220.57 886.5 1233H889.5C889.5 1218.92 878.083 1207.5 864 1207.5V1210.5ZM774.5 1185C774.5 1199.08 785.917 1210.5 800 1210.5V1207.5C787.574 1207.5 777.5 1197.43 777.5 1185H774.5Z" fill="#C4C4C4"/>
<path d="M777.5 1166C777.5 1165.17 776.828 1164.5 776 1164.5C775.172 1164.5 774.5 1165.17 774.5 1166H777.5ZM1110.94 1253.06C1111.53 1253.65 1112.47 1253.65 1113.06 1253.06L1122.61 1243.51C1123.19 1242.93 1123.19 1241.98 1122.61 1241.39C1122.02 1240.81 1121.07 1240.81 1120.49 1241.39L1112 1249.88L1103.51 1241.39C1102.93 1240.81 1101.98 1240.81 1101.39 1241.39C1100.81 1241.98 1100.81 1242.93 1101.39 1243.51L1110.94 1253.06ZM774.5 1166V1185H777.5V1166H774.5ZM800 1210.5H1088V1207.5H800V1210.5ZM1110.5 1233V1252H1113.5V1233H1110.5ZM1088 1210.5C1100.43 1210.5 1110.5 1220.57 1110.5 1233H1113.5C1113.5 1218.92 1102.08 1207.5 1088 1207.5V1210.5ZM774.5 1185C774.5 1199.08 785.917 1210.5 800 1210.5V1207.5C787.574 1207.5 777.5 1197.43 777.5 1185H774.5Z" fill="#C4C4C4"/>
<path d="M772.216 793.343C774.421 791.552 777.579 791.552 779.784 793.343L901.784 891.343C904.739 893.744 904.739 898.256 901.784 900.657L779.784 998.657C777.579 1000.45 774.421 1000.45 772.216 998.657L650.216 900.657C647.261 898.256 647.261 893.744 650.216 891.343L772.216 793.343Z" fill="#FFD233"/>
<path d="M744.602 908H749.522V898.386H759.511V908H764.42V884.727H759.511V894.33H749.522V884.727H744.602V908ZM771.784 908L773.511 902.693H781.909L783.636 908H788.909L780.886 884.727H774.545L766.511 908H771.784ZM774.761 898.852L777.625 890.045H777.807L780.67 898.852H774.761ZM803.1 891.42H807.816C807.748 887.273 804.339 884.409 799.157 884.409C794.055 884.409 790.316 887.227 790.339 891.455C790.327 894.886 792.748 896.852 796.68 897.795L799.214 898.432C801.748 899.045 803.157 899.773 803.168 901.341C803.157 903.045 801.543 904.205 799.043 904.205C796.486 904.205 794.645 903.023 794.486 900.693H789.725C789.85 905.727 793.452 908.33 799.1 908.33C804.782 908.33 808.123 905.614 808.134 901.352C808.123 897.477 805.202 895.42 801.157 894.511L799.066 894.011C797.043 893.545 795.35 892.795 795.384 891.125C795.384 889.625 796.714 888.523 799.123 888.523C801.475 888.523 802.918 889.591 803.1 891.42Z" fill="#333333"/>
<path d="M1364.36 1018.23C1366.51 1016.59 1369.49 1016.59 1371.64 1018.23L1501.64 1116.23C1504.79 1118.64 1504.79 1123.36 1501.64 1125.77L1371.64 1223.77C1369.49 1225.41 1366.51 1225.41 1364.36 1223.77L1234.36 1125.77C1231.21 1123.36 1231.21 1118.64 1234.36 1116.23L1364.36 1018.23Z" fill="#FFD233"/>
<path d="M1308.66 1133H1313.58V1124.75H1317.17L1321.58 1133H1327.01L1322.07 1123.95C1324.71 1122.82 1326.18 1120.51 1326.18 1117.33C1326.18 1112.7 1323.12 1109.73 1317.84 1109.73H1308.66V1133ZM1313.58 1120.8V1113.75H1316.9C1319.74 1113.75 1321.11 1115.01 1321.11 1117.33C1321.11 1119.64 1319.74 1120.8 1316.92 1120.8H1313.58ZM1328.95 1133H1344.68V1128.94H1333.87V1123.39H1343.83V1119.33H1333.87V1113.78H1344.64V1109.73H1328.95V1133ZM1352.05 1109.73H1346.58L1354.62 1133H1360.96L1368.98 1109.73H1363.53L1357.89 1127.41H1357.67L1352.05 1109.73ZM1376 1109.73H1371.08V1133H1376V1109.73ZM1379.34 1133H1395.07V1128.94H1384.26V1123.39H1394.22V1119.33H1384.26V1113.78H1395.02V1109.73H1379.34V1133ZM1403.47 1133H1408.27L1412.69 1117.78H1412.87L1417.3 1133H1422.1L1428.75 1109.73H1423.38L1419.53 1125.93H1419.32L1415.08 1109.73H1410.48L1406.23 1125.9H1406.04L1402.19 1109.73H1396.81L1403.47 1133Z" fill="#333333"/>
<path d="M1364.22 745.343C1366.42 743.552 1369.58 743.552 1371.78 745.343L1493.78 843.343C1496.74 845.744 1496.74 850.256 1493.78 852.657L1371.78 950.657C1369.58 952.448 1366.42 952.448 1364.22 950.657L1242.22 852.657C1239.26 850.256 1239.26 845.744 1242.22 843.343L1364.22 745.343Z" fill="#FFD233"/>
<path d="M1342.64 843.42H1347.36C1347.29 839.273 1343.88 836.409 1338.7 836.409C1333.6 836.409 1329.86 839.227 1329.88 843.455C1329.87 846.886 1332.29 848.852 1336.22 849.795L1338.75 850.432C1341.29 851.045 1342.7 851.773 1342.71 853.341C1342.7 855.045 1341.08 856.205 1338.58 856.205C1336.03 856.205 1334.19 855.023 1334.03 852.693H1329.27C1329.39 857.727 1332.99 860.33 1338.64 860.33C1344.32 860.33 1347.66 857.614 1347.68 853.352C1347.66 849.477 1344.74 847.42 1340.7 846.511L1338.61 846.011C1336.58 845.545 1334.89 844.795 1334.93 843.125C1334.93 841.625 1336.25 840.523 1338.66 840.523C1341.02 840.523 1342.46 841.591 1342.64 843.42ZM1353.76 860L1355.49 854.693H1363.89L1365.61 860H1370.89L1362.86 836.727H1356.52L1348.49 860H1353.76ZM1356.74 850.852L1359.6 842.045H1359.78L1362.65 850.852H1356.74ZM1372.98 860H1387.88V855.943H1377.9V836.727H1372.98V860ZM1390.44 860H1406.16V855.943H1395.36V850.386H1405.31V846.33H1395.36V840.784H1406.12V836.727H1390.44V860Z" fill="#333333"/>
<path d="M774.5 788C774.5 788.828 775.172 789.5 776 789.5C776.828 789.5 777.5 788.828 777.5 788H774.5ZM777.5 691.998C777.5 691.17 776.828 690.498 776 690.498C775.172 690.498 774.5 691.17 774.5 691.998H777.5ZM777.5 788V691.998H774.5V788H777.5Z" fill="#C4C4C4"/>
<path d="M777.5 1004C777.5 1003.17 776.828 1002.5 776 1002.5C775.172 1002.5 774.5 1003.17 774.5 1004H777.5ZM774.5 1076C774.5 1076.83 775.172 1077.5 776 1077.5C776.828 1077.5 777.5 1076.83 777.5 1076H774.5ZM774.5 1004V1076H777.5V1004H774.5Z" fill="#C4C4C4"/>
<path d="M1236 849.5C1236.83 849.5 1237.5 848.829 1237.5 848C1237.5 847.172 1236.83 846.5 1236 846.5V849.5ZM948 645.499C947.172 645.499 946.5 646.171 946.5 646.999C946.5 647.828 947.172 648.499 948 648.499V645.499ZM1236 846.5H1116V849.5H1236V846.5ZM1093.5 824V670.999H1090.5V824H1093.5ZM1068 645.499H948V648.499H1068V645.499ZM1093.5 670.999C1093.5 656.916 1082.08 645.499 1068 645.499V648.499C1080.43 648.499 1090.5 658.573 1090.5 670.999H1093.5ZM1116 846.5C1103.57 846.5 1093.5 836.427 1093.5 824H1090.5C1090.5 838.083 1101.92 849.5 1116 849.5V846.5Z" fill="#C4C4C4"/>
<path d="M1500 846.5C1499.17 846.5 1498.5 847.172 1498.5 848C1498.5 848.829 1499.17 849.5 1500 849.5V846.5ZM1796 648.499C1796.83 648.499 1797.5 647.828 1797.5 646.999C1797.5 646.171 1796.83 645.499 1796 645.499V648.499ZM1500 849.5H1624V846.5H1500V849.5ZM1649.5 824V670.999H1646.5V824H1649.5ZM1672 648.499H1796V645.499H1672V648.499ZM1649.5 670.999C1649.5 658.573 1659.57 648.499 1672 648.499V645.499C1657.92 645.499 1646.5 656.916 1646.5 670.999H1649.5ZM1624 849.5C1638.08 849.5 1649.5 838.083 1649.5 824H1646.5C1646.5 836.427 1636.43 846.5 1624 846.5V849.5Z" fill="#C4C4C4"/>
<path d="M1366.5 740C1366.5 740.828 1367.17 741.5 1368 741.5C1368.83 741.5 1369.5 740.828 1369.5 740H1366.5ZM1145.5 356C1145.5 355.172 1144.83 354.5 1144 354.5C1143.17 354.5 1142.5 355.172 1142.5 356H1145.5ZM1369.5 740V572H1366.5V740H1369.5ZM1344 546.5H1168V549.5H1344V546.5ZM1145.5 524V356H1142.5V524H1145.5ZM1168 546.5C1155.57 546.5 1145.5 536.426 1145.5 524H1142.5C1142.5 538.083 1153.92 549.5 1168 549.5V546.5ZM1369.5 572C1369.5 557.917 1358.08 546.5 1344 546.5V549.5C1356.43 549.5 1366.5 559.574 1366.5 572H1369.5Z" fill="#C4C4C4"/>
<path d="M1366.5 740C1366.5 740.828 1367.17 741.5 1368 741.5C1368.83 741.5 1369.5 740.828 1369.5 740H1366.5ZM1369.5 356C1369.5 355.172 1368.83 354.5 1368 354.5C1367.17 354.5 1366.5 355.172 1366.5 356H1369.5ZM1369.5 740V356H1366.5V740H1369.5Z" fill="#C4C4C4"/>
<path d="M1366.5 740C1366.5 740.828 1367.17 741.5 1368 741.5C1368.83 741.5 1369.5 740.828 1369.5 740H1366.5ZM1593.5 364C1593.5 363.172 1592.83 362.5 1592 362.5C1591.17 362.5 1590.5 363.172 1590.5 364H1593.5ZM1369.5 740V576H1366.5V740H1369.5ZM1392 553.5H1568V550.5H1392V553.5ZM1593.5 528V364H1590.5V528H1593.5ZM1568 553.5C1582.08 553.5 1593.5 542.083 1593.5 528H1590.5C1590.5 540.426 1580.43 550.5 1568 550.5V553.5ZM1369.5 576C1369.5 563.574 1379.57 553.5 1392 553.5V550.5C1377.92 550.5 1366.5 561.917 1366.5 576H1369.5Z" fill="#C4C4C4"/>
<path d="M948 1119.5C947.172 1119.5 946.5 1120.17 946.5 1121C946.5 1121.83 947.172 1122.5 948 1122.5V1119.5ZM964 1121L964 1119.5H964V1121ZM1228 1122.5C1228.83 1122.5 1229.5 1121.83 1229.5 1121C1229.5 1120.17 1228.83 1119.5 1228 1119.5L1228 1122.5ZM948 1122.5H964V1119.5H948V1122.5ZM964 1122.5L1228 1122.5L1228 1119.5L964 1119.5L964 1122.5Z" fill="#C4C4C4"/>
<path d="M1369.5 1229C1369.5 1228.17 1368.83 1227.5 1368 1227.5C1367.17 1227.5 1366.5 1228.17 1366.5 1229H1369.5ZM1366.5 1252C1366.5 1252.83 1367.17 1253.5 1368 1253.5C1368.83 1253.5 1369.5 1252.83 1369.5 1252H1366.5ZM1366.5 1229V1252H1369.5V1229H1366.5Z" fill="#C4C4C4"/>
<path d="M1508 1119.5C1507.17 1119.5 1506.5 1120.17 1506.5 1121C1506.5 1121.83 1507.17 1122.5 1508 1122.5V1119.5ZM1969.5 691.998C1969.5 691.17 1968.83 690.498 1968 690.498C1967.17 690.498 1966.5 691.17 1966.5 691.998H1969.5ZM1508 1122.5H1944V1119.5H1508V1122.5ZM1969.5 1097V691.998H1966.5V1097H1969.5ZM1944 1122.5C1958.08 1122.5 1969.5 1111.08 1969.5 1097H1966.5C1966.5 1109.43 1956.43 1119.5 1944 1119.5V1122.5Z" fill="#C4C4C4"/>
<path d="M948 1119.5C947.172 1119.5 946.5 1120.17 946.5 1121C946.5 1121.83 947.172 1122.5 948 1122.5V1119.5ZM1369.5 956C1369.5 955.172 1368.83 954.5 1368 954.5C1367.17 954.5 1366.5 955.172 1366.5 956H1369.5ZM948 1122.5H1064V1119.5H948V1122.5ZM1089.5 1097V1024H1086.5V1097H1089.5ZM1112 1001.5H1344V998.5H1112V1001.5ZM1369.5 976V956H1366.5V976H1369.5ZM1344 1001.5C1358.08 1001.5 1369.5 990.083 1369.5 976H1366.5C1366.5 988.426 1356.43 998.5 1344 998.5V1001.5ZM1089.5 1024C1089.5 1011.57 1099.57 1001.5 1112 1001.5V998.5C1097.92 998.5 1086.5 1009.92 1086.5 1024H1089.5ZM1064 1122.5C1078.08 1122.5 1089.5 1111.08 1089.5 1097H1086.5C1086.5 1109.43 1076.43 1119.5 1064 1119.5V1122.5Z" fill="#C4C4C4"/>
<path d="M821.629 103.727H833.48V69.4787H866.847V59.3154H833.48V35.3835H870.337V25.1818H821.629V103.727ZM902.104 104.916C918.71 104.916 929.564 92.7585 929.564 74.5412C929.564 56.2088 918.71 44.0512 902.104 44.0512C885.497 44.0512 874.644 56.2088 874.644 74.5412C874.644 92.7585 885.497 104.916 902.104 104.916ZM902.142 95.2898C891.288 95.2898 886.226 85.8168 886.226 74.5029C886.226 63.2273 891.288 53.6392 902.142 53.6392C912.919 53.6392 917.982 63.2273 917.982 74.5029C917.982 85.8168 912.919 95.2898 902.142 95.2898ZM964.802 104.916C981.409 104.916 992.262 92.7585 992.262 74.5412C992.262 56.2088 981.409 44.0512 964.802 44.0512C948.195 44.0512 937.342 56.2088 937.342 74.5412C937.342 92.7585 948.195 104.916 964.802 104.916ZM964.84 95.2898C953.987 95.2898 948.924 85.8168 948.924 74.5029C948.924 63.2273 953.987 53.6392 964.84 53.6392C975.617 53.6392 980.68 63.2273 980.68 74.5029C980.68 85.8168 975.617 95.2898 964.84 95.2898ZM1024.74 104.878C1035.48 104.878 1039.7 98.3196 1041.77 94.5611H1042.73V103.727H1053.92V25.1818H1042.46V54.3679H1041.77C1039.7 50.7245 1035.78 44.0512 1024.82 44.0512C1010.59 44.0512 1000.12 55.2884 1000.12 74.3878C1000.12 93.4489 1010.43 104.878 1024.74 104.878ZM1027.27 95.098C1017.03 95.098 1011.7 86.0852 1011.7 74.2727C1011.7 62.5753 1016.91 53.7926 1027.27 53.7926C1037.28 53.7926 1042.65 61.9617 1042.65 74.2727C1042.65 86.6605 1037.16 95.098 1027.27 95.098ZM1163.27 64.4546C1163.27 39.3338 1148.24 24.108 1127.91 24.108C1107.51 24.108 1092.51 39.3338 1092.51 64.4546C1092.51 89.537 1107.51 104.801 1127.91 104.801C1148.24 104.801 1163.27 89.5753 1163.27 64.4546ZM1151.54 64.4546C1151.54 83.5924 1141.41 93.9858 1127.91 93.9858C1114.37 93.9858 1104.29 83.5924 1104.29 64.4546C1104.29 45.3168 1114.37 34.9233 1127.91 34.9233C1141.41 34.9233 1151.54 45.3168 1151.54 64.4546ZM1174.75 103.727H1186.22V67.7529C1186.22 60.0441 1192.16 54.483 1200.29 54.483C1202.67 54.483 1205.35 54.9048 1206.28 55.1733V44.2046C1205.12 44.0512 1202.86 43.9361 1201.4 43.9361C1194.5 43.9361 1188.59 47.848 1186.45 54.1762H1185.83V44.8182H1174.75V103.727ZM1233.77 104.878C1244.5 104.878 1248.72 98.3196 1250.79 94.5611H1251.75V103.727H1262.95V25.1818H1251.48V54.3679H1250.79C1248.72 50.7245 1244.81 44.0512 1233.84 44.0512C1219.61 44.0512 1209.14 55.2884 1209.14 74.3878C1209.14 93.4489 1219.46 104.878 1233.77 104.878ZM1236.3 95.098C1226.06 95.098 1220.73 86.0852 1220.73 74.2727C1220.73 62.5753 1225.94 53.7926 1236.3 53.7926C1246.31 53.7926 1251.68 61.9617 1251.68 74.2727C1251.68 86.6605 1246.19 95.098 1236.3 95.098ZM1302.33 104.916C1315.18 104.916 1324.27 98.5881 1326.88 89L1316.02 87.0441C1313.95 92.6051 1308.97 95.4432 1302.45 95.4432C1292.63 95.4432 1286.03 89.0767 1285.73 77.7245H1327.61V73.6591C1327.61 52.3736 1314.87 44.0512 1301.53 44.0512C1285.11 44.0512 1274.3 56.554 1274.3 74.6563C1274.3 92.9503 1284.96 104.916 1302.33 104.916ZM1285.76 69.1335C1286.22 60.7727 1292.28 53.5242 1301.6 53.5242C1310.5 53.5242 1316.33 60.1208 1316.37 69.1335H1285.76ZM1337.95 103.727H1349.42V67.7529C1349.42 60.0441 1355.37 54.483 1363.5 54.483C1365.87 54.483 1368.56 54.9048 1369.48 55.1733V44.2046C1368.33 44.0512 1366.07 43.9361 1364.61 43.9361C1357.71 43.9361 1351.8 47.848 1349.65 54.1762H1349.04V44.8182H1337.95V103.727ZM1377.03 103.727H1388.49V44.8182H1377.03V103.727ZM1382.82 35.7287C1386.77 35.7287 1390.07 32.6605 1390.07 28.902C1390.07 25.1435 1386.77 22.037 1382.82 22.037C1378.83 22.037 1375.57 25.1435 1375.57 28.902C1375.57 32.6605 1378.83 35.7287 1382.82 35.7287ZM1413.01 68.75C1413.01 59.3537 1418.77 53.9844 1426.74 53.9844C1434.53 53.9844 1439.25 59.0852 1439.25 67.6378V103.727H1450.71V66.2571C1450.71 51.6833 1442.7 44.0512 1430.65 44.0512C1421.8 44.0512 1416 48.1548 1413.28 54.4063H1412.55V44.8182H1401.55V103.727H1413.01V68.75ZM1488.42 127.045C1503.41 127.045 1514.99 120.18 1514.99 105.031V44.8182H1503.76V54.3679H1502.91C1500.88 50.7245 1496.81 44.0512 1485.85 44.0512C1471.62 44.0512 1461.15 55.2884 1461.15 74.0426C1461.15 92.8352 1471.85 102.845 1485.77 102.845C1496.58 102.845 1500.76 96.7472 1502.84 92.9887H1503.56V104.571C1503.56 113.814 1497.24 117.803 1488.53 117.803C1478.98 117.803 1475.26 113.009 1473.23 109.634L1463.37 113.699C1466.48 120.909 1474.34 127.045 1488.42 127.045ZM1488.3 93.3338C1478.06 93.3338 1472.73 85.4716 1472.73 73.8892C1472.73 62.5753 1477.95 53.7926 1488.3 53.7926C1498.31 53.7926 1503.68 61.9617 1503.68 73.8892C1503.68 86.0469 1498.2 93.3338 1488.3 93.3338ZM1597.96 45.8154H1609.39C1609.05 33.2358 1597.92 24.108 1581.97 24.108C1566.21 24.108 1554.13 33.1208 1554.13 46.6591C1554.13 57.5895 1561.95 63.9943 1574.57 67.4077L1583.85 69.9389C1592.25 72.1634 1598.73 74.9247 1598.73 81.9049C1598.73 89.5753 1591.4 94.6378 1581.32 94.6378C1572.19 94.6378 1564.6 90.5725 1563.91 82.0199H1552.02C1552.78 96.2486 1563.79 105.031 1581.39 105.031C1599.84 105.031 1610.47 95.3281 1610.47 82.0199C1610.47 67.8679 1597.85 62.3835 1587.88 59.929L1580.21 57.9347C1574.07 56.3622 1565.9 53.4858 1565.94 45.9688C1565.94 39.2955 1572.04 34.348 1581.7 34.348C1590.71 34.348 1597.12 38.5668 1597.96 45.8154ZM1628.58 125.818C1638.05 125.818 1644.04 120.871 1647.45 111.59L1671.8 44.9333L1659.41 44.8182L1644.5 90.5341H1643.88L1628.96 44.8182H1616.69L1638.24 104.494L1636.82 108.406C1633.91 116.23 1629.81 116.882 1623.52 115.156L1620.76 124.553C1622.14 125.166 1625.13 125.818 1628.58 125.818ZM1724.38 59.2003C1722 50.0341 1714.83 44.0512 1702.09 44.0512C1688.78 44.0512 1679.35 51.0696 1679.35 61.5014C1679.35 69.8622 1684.41 75.4233 1695.46 77.8779L1705.43 80.0639C1711.11 81.3296 1713.75 83.8608 1713.75 87.5426C1713.75 92.1066 1708.88 95.6733 1701.36 95.6733C1694.5 95.6733 1690.09 92.7202 1688.71 86.929L1677.62 88.6165C1679.54 99.0483 1688.21 104.916 1701.44 104.916C1715.67 104.916 1725.53 97.3608 1725.53 86.6989C1725.53 78.3764 1720.23 73.2372 1709.42 70.7443L1700.06 68.5966C1693.58 67.0625 1690.78 64.8764 1690.82 60.8878C1690.78 56.3622 1695.69 53.1406 1702.21 53.1406C1709.34 53.1406 1712.64 57.0909 1713.98 61.0412L1724.38 59.2003ZM1763.26 44.8182H1751.18V30.7046H1739.71V44.8182H1731.08V54.0227H1739.71V88.8083C1739.67 99.5085 1747.84 104.686 1756.89 104.494C1760.53 104.456 1762.99 103.766 1764.33 103.267L1762.26 93.7941C1761.49 93.9475 1760.07 94.2926 1758.23 94.2926C1754.51 94.2926 1751.18 93.0654 1751.18 86.4304V54.0227H1763.26V44.8182ZM1798.32 104.916C1811.17 104.916 1820.26 98.5881 1822.87 89L1812.01 87.0441C1809.94 92.6051 1804.96 95.4432 1798.44 95.4432C1788.62 95.4432 1782.02 89.0767 1781.72 77.7245H1823.6V73.6591C1823.6 52.3736 1810.86 44.0512 1797.52 44.0512C1781.1 44.0512 1770.29 56.554 1770.29 74.6563C1770.29 92.9503 1780.95 104.916 1798.32 104.916ZM1781.75 69.1335C1782.21 60.7727 1788.27 53.5242 1797.59 53.5242C1806.49 53.5242 1812.32 60.1208 1812.36 69.1335H1781.75ZM1833.94 103.727H1845.41V67.4077C1845.41 59.4688 1850.97 53.946 1857.49 53.946C1863.86 53.946 1868.27 58.1648 1868.27 64.5696V103.727H1879.7V66.1804C1879.7 59.0852 1884.03 53.946 1891.51 53.946C1897.57 53.946 1902.56 57.321 1902.56 65.2983V103.727H1914.02V64.2245C1914.02 50.7628 1906.51 44.0512 1895.84 44.0512C1887.37 44.0512 1881 48.1165 1878.16 54.4063H1877.55C1874.98 47.9631 1869.57 44.0512 1861.71 44.0512C1853.93 44.0512 1848.13 47.9247 1845.68 54.4063H1844.95V44.8182H1833.94V103.727Z" fill="#333333"/>
</svg>
