<!-- 

    DATE : 10-12-2021
    SHARE LINK : https://tahsin000.github.io/DATABASE_MANAGEMENT_SYSTEM/ERD/NURUL_ABSAR_C193050.svg

 -->

<svg width="2904" height="1352" viewBox="0 0 2904 1352" fill="none" xmlns="http://www.w3.org/2000/svg">
<rect x="368" y="960" width="320" height="80" rx="2.4" fill="#FFD233"/>
<path d="M481.512 1012H485.023V1003.82H489.796C495.194 1003.82 497.864 1000.56 497.864 996.261C497.864 991.977 495.216 988.727 489.807 988.727H481.512V1012ZM485.023 1000.84V991.739H489.432C492.909 991.739 494.33 993.625 494.33 996.261C494.33 998.898 492.909 1000.84 489.478 1000.84H485.023ZM501.276 1012H515.333V1008.98H504.788V988.727H501.276V1012ZM521.757 1012L523.893 1005.84H532.984L535.109 1012H538.837L530.462 988.727H526.405L518.03 1012H521.757ZM524.916 1002.89L528.348 992.955H528.53L531.962 1002.89H524.916ZM537.323 988.727L545.766 1002.86V1012H549.266V1002.86L557.709 988.727H553.721L547.641 999.307H547.391L541.312 988.727H537.323ZM560.321 1012H575.048V1008.98H563.832V1001.85H574.15V998.841H563.832V991.75H574.912V988.727H560.321V1012Z" fill="#333333"/>
<rect x="368" y="208" width="320" height="80" rx="2.4" fill="#FFD233"/>
<path d="M484.84 239.75H492.09V260H495.59V239.75H502.851V236.727H484.84V239.75ZM506.128 260H520.855V256.977H509.639V249.852H519.957V246.841H509.639V239.75H520.718V236.727H506.128V260ZM526.671 260L528.807 253.841H537.898L540.023 260H543.75L535.375 236.727H531.318L522.943 260H526.671ZM529.83 250.886L533.262 240.955H533.443L536.875 250.886H529.83ZM546.407 236.727V260H549.748V243.148H549.964L556.828 259.966H559.6L566.464 243.159H566.68V260H570.021V236.727H565.759L558.35 254.818H558.078L550.668 236.727H546.407Z" fill="#333333"/>
<rect x="1840" y="208" width="320" height="80" rx="2.4" fill="#FFD233"/>
<path d="M1972.53 244.08H1976.14C1975.35 239.545 1971.48 236.409 1966.46 236.409C1960.43 236.409 1956.03 240.943 1956.03 248.375C1956.03 255.739 1960.31 260.318 1966.61 260.318C1972.26 260.318 1976.3 256.614 1976.3 250.739V248.091H1967.15V250.989H1972.9C1972.82 254.739 1970.34 257.114 1966.61 257.114C1962.51 257.114 1959.52 254.011 1959.52 248.352C1959.52 242.716 1962.53 239.614 1966.48 239.614C1969.57 239.614 1971.66 241.318 1972.53 244.08ZM1981.3 260L1983.43 253.841H1992.52L1994.65 260H1998.38L1990 236.727H1985.94L1977.57 260H1981.3ZM1984.46 250.886L1987.89 240.955H1988.07L1991.5 250.886H1984.46ZM2001.03 236.727V260H2004.37V243.148H2004.59L2011.45 259.966H2014.23L2021.09 243.159H2021.31V260H2024.65V236.727H2020.39L2012.98 254.818H2012.7L2005.29 236.727H2001.03ZM2029.05 260H2043.77V256.977H2032.56V249.852H2042.88V246.841H2032.56V239.75H2043.64V236.727H2029.05V260Z" fill="#333333"/>
<path d="M513.253 513.502C515.522 511.499 518.927 511.499 521.196 513.502L696.42 667.502C699.125 669.891 699.125 674.109 696.42 676.498L521.196 830.498C518.927 832.501 515.522 832.501 513.253 830.498L338.029 676.498C335.324 674.109 335.324 669.891 338.029 667.502L513.253 513.502Z" fill="#FFD233"/>
<path d="M487.204 684H490.716V673.852H502.318V684H505.841V660.727H502.318V670.841H490.716V660.727H487.204V684ZM512.216 684L514.352 677.841H523.443L525.568 684H529.296L520.921 660.727H516.864L508.489 684H512.216ZM515.375 674.886L518.807 664.955H518.989L522.421 674.886H515.375ZM544.458 666.841H547.844C547.742 663.114 544.447 660.409 539.719 660.409C535.049 660.409 531.469 663.08 531.469 667.091C531.469 670.33 533.788 672.227 537.526 673.239L540.276 673.989C542.765 674.648 544.685 675.466 544.685 677.534C544.685 679.807 542.515 681.307 539.526 681.307C536.822 681.307 534.572 680.102 534.367 677.568H530.844C531.072 681.784 534.333 684.386 539.549 684.386C545.015 684.386 548.163 681.511 548.163 677.568C548.163 673.375 544.424 671.75 541.469 671.023L539.197 670.432C537.379 669.966 534.958 669.114 534.969 666.886C534.969 664.909 536.776 663.443 539.64 663.443C542.31 663.443 544.208 664.693 544.458 666.841Z" fill="#333333"/>
<path d="M1268.03 65.5022C1270.3 63.4993 1273.7 63.4993 1275.97 65.5022L1485.97 250.205C1488.68 252.593 1488.68 256.812 1485.97 259.201L1275.97 443.903C1273.7 445.906 1270.3 445.906 1268.03 443.903L1058.03 259.201C1055.32 256.812 1055.32 252.593 1058.03 250.205L1268.03 65.5022Z" fill="#FFD233"/>
<path d="M1177.87 267H1181.39V258.818H1186.16C1191.56 258.818 1194.23 255.557 1194.23 251.261C1194.23 246.977 1191.58 243.727 1186.17 243.727H1177.87V267ZM1181.39 255.841V246.739H1185.79C1189.27 246.739 1190.69 248.625 1190.69 251.261C1190.69 253.898 1189.27 255.841 1185.84 255.841H1181.39ZM1197.14 267L1199.27 260.841H1208.36L1210.49 267H1214.22L1205.84 243.727H1201.78L1193.41 267H1197.14ZM1200.29 257.886L1203.73 247.955H1203.91L1207.34 257.886H1200.29ZM1216.87 267H1220.38V258.193H1225.16C1225.24 258.193 1225.3 258.193 1225.38 258.193L1230.11 267H1234.11L1228.95 257.58C1231.8 256.523 1233.22 254.148 1233.22 251.023C1233.22 246.739 1230.57 243.727 1225.17 243.727H1216.87V267ZM1220.38 255.17V246.739H1224.79C1228.26 246.739 1229.69 248.386 1229.69 251.023C1229.69 253.648 1228.26 255.17 1224.84 255.17H1220.38ZM1235.65 246.75H1242.9V267H1246.4V246.75H1253.66V243.727H1235.65V246.75ZM1260.44 243.727H1256.93V267H1260.44V243.727ZM1284.18 251.295C1283.39 246.318 1279.49 243.409 1274.57 243.409C1268.55 243.409 1264.1 247.92 1264.1 255.364C1264.1 262.807 1268.52 267.318 1274.57 267.318C1279.68 267.318 1283.42 264.114 1284.18 259.511L1280.64 259.5C1280.04 262.477 1277.54 264.114 1274.59 264.114C1270.6 264.114 1267.59 261.057 1267.59 255.364C1267.59 249.716 1270.59 246.614 1274.6 246.614C1277.57 246.614 1280.06 248.284 1280.64 251.295H1284.18ZM1291.19 243.727H1287.68V267H1291.19V243.727ZM1295.6 267H1299.11V258.818H1303.89C1309.28 258.818 1311.95 255.557 1311.95 251.261C1311.95 246.977 1309.31 243.727 1303.9 243.727H1295.6V267ZM1299.11 255.841V246.739H1303.52C1307 246.739 1308.42 248.625 1308.42 251.261C1308.42 253.898 1307 255.841 1303.57 255.841H1299.11ZM1314.86 267L1317 260.841H1326.09L1328.22 267H1331.94L1323.57 243.727H1319.51L1311.14 267H1314.86ZM1318.02 257.886L1321.45 247.955H1321.64L1325.07 257.886H1318.02ZM1330.67 246.75H1337.92V267H1341.42V246.75H1348.68V243.727H1330.67V246.75ZM1351.96 267H1366.69V263.977H1355.47V256.852H1365.79V253.841H1355.47V246.75H1366.55V243.727H1351.96V267Z" fill="#333333"/>
<path d="M1996.03 865.5C1998.3 863.5 2001.7 863.5 2003.97 865.5L2157.97 1000.58C2160.68 1002.97 2160.68 1007.19 2157.97 1009.58L2003.97 1144.66C2001.7 1146.66 1998.3 1146.66 1996.03 1144.66L1842.03 1009.58C1839.32 1007.19 1839.32 1002.97 1842.03 1000.58L1996.03 865.5Z" fill="#FFD233"/>
<path d="M1962.8 1017H1966.31V1008.82H1971.08C1976.48 1008.82 1979.15 1005.56 1979.15 1001.26C1979.15 996.977 1976.5 993.727 1971.1 993.727H1962.8V1017ZM1966.31 1005.84V996.739H1970.72C1974.2 996.739 1975.62 998.625 1975.62 1001.26C1975.62 1003.9 1974.2 1005.84 1970.77 1005.84H1966.31ZM1982.57 1017H1996.62V1013.98H1986.08V993.727H1982.57V1017ZM2003.05 1017L2005.18 1010.84H2014.27L2016.4 1017H2020.13L2011.75 993.727H2007.69L1999.32 1017H2003.05ZM2006.2 1007.89L2009.64 997.955H2009.82L2013.25 1007.89H2006.2ZM2018.61 993.727L2027.05 1007.86V1017H2030.55V1007.86L2039 993.727H2035.01L2028.93 1004.31H2028.68L2022.6 993.727H2018.61Z" fill="#333333"/>
<rect x="80" y="1248" width="280" height="104" rx="32" fill="#FFD233"/>
<path d="M190.16 1312H193.671V1303.82H198.444C203.842 1303.82 206.512 1300.56 206.512 1296.26C206.512 1291.98 203.864 1288.73 198.455 1288.73H190.16V1312ZM193.671 1300.84V1291.74H198.08C201.557 1291.74 202.978 1293.62 202.978 1296.26C202.978 1298.9 201.557 1300.84 198.126 1300.84H193.671ZM222.118 1312H207.334V1314.89H222.118V1312ZM227.451 1288.73H223.939V1312H227.451V1288.73ZM239.394 1312C246.485 1312 250.587 1307.6 250.587 1300.33C250.587 1293.09 246.485 1288.73 239.633 1288.73H231.86V1312H239.394ZM235.372 1308.93V1291.8H239.417C244.508 1291.8 247.133 1294.84 247.133 1300.33C247.133 1305.84 244.508 1308.93 239.201 1308.93H235.372Z" fill="#333333"/>
<rect y="784" width="280" height="104" rx="32" fill="#FFD233"/>
<path d="M61.3884 848H64.8998V839.818H69.6725C75.0703 839.818 77.7407 836.557 77.7407 832.261C77.7407 827.977 75.093 824.727 69.6839 824.727H61.3884V848ZM64.8998 836.841V827.739H69.3089C72.7862 827.739 74.2066 829.625 74.2066 832.261C74.2066 834.898 72.7862 836.841 69.3544 836.841H64.8998ZM81.1532 848H95.21V844.977H84.6646V824.727H81.1532V848ZM101.634 848L103.77 841.841H112.861L114.986 848H118.713L110.338 824.727H106.282L97.9066 848H101.634ZM104.793 838.886L108.225 828.955H108.407L111.838 838.886H104.793ZM117.2 824.727L125.643 838.864V848H129.143V838.864L137.586 824.727H133.597L127.518 835.307H127.268L121.188 824.727H117.2ZM140.197 848H154.925V844.977H143.709V837.852H154.027V834.841H143.709V827.75H154.788V824.727H140.197V848ZM158.775 848H162.286V839.193H167.059C167.138 839.193 167.207 839.193 167.286 839.193L172.013 848H176.013L170.854 838.58C173.707 837.523 175.127 835.148 175.127 832.023C175.127 827.739 172.468 824.727 167.07 824.727H158.775V848ZM162.286 836.17V827.739H166.695C170.161 827.739 171.593 829.386 171.593 832.023C171.593 834.648 170.161 836.17 166.741 836.17H162.286ZM190.889 848H176.105V850.886H190.889V848ZM196.222 824.727H192.71V848H196.222V824.727ZM208.166 848C215.256 848 219.359 843.602 219.359 836.33C219.359 829.091 215.256 824.727 208.404 824.727H200.631V848H208.166ZM204.143 844.932V827.795H208.188C213.279 827.795 215.904 830.841 215.904 836.33C215.904 841.841 213.279 844.932 207.972 844.932H204.143Z" fill="#333333"/>
<rect x="224" width="280" height="104" rx="32" fill="#FFD233"/>
<path d="M298.13 43.75H305.38V64H308.88V43.75H316.142V40.7273H298.13V43.75ZM319.418 64H334.145V60.9773H322.929V53.8523H333.247V50.8409H322.929V43.75H334.009V40.7273H319.418V64ZM339.961 64L342.097 57.8409H351.188L353.313 64H357.041L348.666 40.7273H344.609L336.234 64H339.961ZM343.12 54.8864L346.552 44.9545H346.734L350.166 54.8864H343.12ZM359.697 40.7273V64H363.038V47.1477H363.254L370.118 63.9659H372.891L379.754 47.1591H379.97V64H383.311V40.7273H379.05L371.641 58.8182H371.368L363.959 40.7273H359.697ZM400.999 64H386.215V66.8864H400.999V64ZM406.332 40.7273H402.821V64H406.332V40.7273ZM418.276 64C425.367 64 429.469 59.6023 429.469 52.3295C429.469 45.0909 425.367 40.7273 418.514 40.7273H410.742V64H418.276ZM414.253 60.9318V43.7955H418.299C423.389 43.7955 426.014 46.8409 426.014 52.3295C426.014 57.8409 423.389 60.9318 418.083 60.9318H414.253Z" fill="#333333"/>
<rect x="544" width="280" height="104" rx="32" fill="#FFD233"/>
<path d="M618.13 43.75H625.38V64H628.88V43.75H636.142V40.7273H618.13V43.75ZM639.418 64H654.145V60.9773H642.929V53.8523H653.247V50.8409H642.929V43.75H654.009V40.7273H639.418V64ZM659.961 64L662.097 57.8409H671.188L673.313 64H677.041L668.666 40.7273H664.609L656.234 64H659.961ZM663.12 54.8864L666.552 44.9545H666.734L670.166 54.8864H663.12ZM679.697 40.7273V64H683.038V47.1477H683.254L690.118 63.9659H692.891L699.754 47.1591H699.97V64H703.311V40.7273H699.05L691.641 58.8182H691.368L683.959 40.7273H679.697ZM720.999 64H706.215V66.8864H720.999V64ZM726.332 40.7273H722.821V64H726.332V40.7273ZM738.276 64C745.367 64 749.469 59.6023 749.469 52.3295C749.469 45.0909 745.367 40.7273 738.514 40.7273H730.742V64H738.276ZM734.253 60.9318V43.7955H738.299C743.389 43.7955 746.014 46.8409 746.014 52.3295C746.014 57.8409 743.389 60.9318 738.083 60.9318H734.253Z" fill="#333333"/>
<rect x="1552" width="280" height="104" rx="32" fill="#FFD233"/>
<path d="M1636.82 46.8409H1640.2C1640.1 43.1136 1636.8 40.4091 1632.08 40.4091C1627.41 40.4091 1623.83 43.0795 1623.83 47.0909C1623.83 50.3295 1626.14 52.2273 1629.88 53.2386L1632.63 53.9886C1635.12 54.6477 1637.04 55.4659 1637.04 57.5341C1637.04 59.8068 1634.87 61.3068 1631.88 61.3068C1629.18 61.3068 1626.93 60.1023 1626.72 57.5682H1623.2C1623.43 61.7841 1626.69 64.3864 1631.91 64.3864C1637.37 64.3864 1640.52 61.5114 1640.52 57.5682C1640.52 53.375 1636.78 51.75 1633.83 51.0227L1631.55 50.4318C1629.74 49.9659 1627.32 49.1136 1627.33 46.8864C1627.33 44.9091 1629.13 43.4432 1632 43.4432C1634.67 43.4432 1636.57 44.6932 1636.82 46.8409ZM1642.86 43.75H1650.11V64H1653.61V43.75H1660.88V40.7273H1642.86V43.75ZM1663.34 64L1665.47 57.8409H1674.56L1676.69 64H1680.42L1672.04 40.7273H1667.98L1659.61 64H1663.34ZM1666.5 54.8864L1669.93 44.9545H1670.11L1673.54 54.8864H1666.5ZM1690.61 64C1697.7 64 1701.8 59.6023 1701.8 52.3295C1701.8 45.0909 1697.7 40.7273 1690.85 40.7273H1683.07V64H1690.61ZM1686.58 60.9318V43.7955H1690.63C1695.72 43.7955 1698.35 46.8409 1698.35 52.3295C1698.35 57.8409 1695.72 60.9318 1690.41 60.9318H1686.58ZM1708.97 40.7273H1705.46V64H1708.97V40.7273ZM1728.35 40.7273V55.75C1728.35 58.9091 1726.17 61.1818 1722.62 61.1818C1719.09 61.1818 1716.89 58.9091 1716.89 55.75V40.7273H1713.38V56.0341C1713.38 60.9205 1717.04 64.3864 1722.62 64.3864C1728.2 64.3864 1731.87 60.9205 1731.87 56.0341V40.7273H1728.35ZM1736.27 40.7273V64H1739.61V47.1477H1739.83L1746.69 63.9659H1749.47L1756.33 47.1591H1756.55V64H1759.89V40.7273H1755.63L1748.22 58.8182H1747.94L1740.53 40.7273H1736.27Z" fill="#333333"/>
<rect x="1856" width="280" height="104" rx="32" fill="#FFD233"/>
<path d="M1940.33 64H1943.84V55.1932H1948.62C1948.7 55.1932 1948.76 55.1932 1948.84 55.1932L1953.57 64H1957.57L1952.41 54.5795C1955.26 53.5227 1956.68 51.1477 1956.68 48.0227C1956.68 43.7386 1954.03 40.7273 1948.63 40.7273H1940.33V64ZM1943.84 52.1705V43.7386H1948.25C1951.72 43.7386 1953.15 45.3864 1953.15 48.0227C1953.15 50.6477 1951.72 52.1705 1948.3 52.1705H1943.84ZM1960.25 64H1974.98V60.9773H1963.76V53.8523H1974.08V50.8409H1963.76V43.75H1974.84V40.7273H1960.25V64ZM1991.52 46.8409H1994.91C1994.81 43.1136 1991.51 40.4091 1986.79 40.4091C1982.11 40.4091 1978.54 43.0795 1978.54 47.0909C1978.54 50.3295 1980.85 52.2273 1984.59 53.2386L1987.34 53.9886C1989.83 54.6477 1991.75 55.4659 1991.75 57.5341C1991.75 59.8068 1989.58 61.3068 1986.59 61.3068C1983.89 61.3068 1981.64 60.1023 1981.43 57.5682H1977.91C1978.14 61.7841 1981.4 64.3864 1986.61 64.3864C1992.08 64.3864 1995.23 61.5114 1995.23 57.5682C1995.23 53.375 1991.49 51.75 1988.54 51.0227L1986.26 50.4318C1984.44 49.9659 1982.02 49.1136 1982.04 46.8864C1982.04 44.9091 1983.84 43.4432 1986.71 43.4432C1989.38 43.4432 1991.27 44.6932 1991.52 46.8409ZM2013.69 40.7273V55.75C2013.69 58.9091 2011.5 61.1818 2007.96 61.1818C2004.42 61.1818 2002.23 58.9091 2002.23 55.75V40.7273H1998.72V56.0341C1998.72 60.9205 2002.38 64.3864 2007.96 64.3864C2013.54 64.3864 2017.21 60.9205 2017.21 56.0341V40.7273H2013.69ZM2021.61 64H2035.67V60.9773H2025.12V40.7273H2021.61V64ZM2034.79 43.75H2042.04V64H2045.54V43.75H2052.8V40.7273H2034.79V43.75Z" fill="#333333"/>
<rect x="2160" width="280" height="104" rx="32" fill="#FFD233"/>
<path d="M2270.3 64C2277.39 64 2281.5 59.6023 2281.5 52.3295C2281.5 45.0909 2277.39 40.7273 2270.54 40.7273H2262.77V64H2270.3ZM2266.28 60.9318V43.7955H2270.33C2275.42 43.7955 2278.04 46.8409 2278.04 52.3295C2278.04 57.8409 2275.42 60.9318 2270.11 60.9318H2266.28ZM2285.97 64L2288.1 57.8409H2297.2L2299.32 64H2303.05L2294.67 40.7273H2290.62L2282.24 64H2285.97ZM2289.13 54.8864L2292.56 44.9545H2292.74L2296.17 54.8864H2289.13ZM2301.78 43.75H2309.03V64H2312.53V43.75H2319.79V40.7273H2301.78V43.75ZM2323.06 64H2337.79V60.9773H2326.57V53.8523H2336.89V50.8409H2326.57V43.75H2337.65V40.7273H2323.06V64Z" fill="#333333"/>
<rect x="752" y="784" width="280" height="104" rx="32" fill="#FFD233"/>
<path d="M826.13 827.75H833.38V848H836.88V827.75H844.142V824.727H826.13V827.75ZM847.418 848H862.145V844.977H850.929V837.852H861.247V834.841H850.929V827.75H862.009V824.727H847.418V848ZM867.961 848L870.097 841.841H879.188L881.313 848H885.041L876.666 824.727H872.609L864.234 848H867.961ZM871.12 838.886L874.552 828.955H874.734L878.166 838.886H871.12ZM887.697 824.727V848H891.038V831.148H891.254L898.118 847.966H900.891L907.754 831.159H907.97V848H911.311V824.727H907.05L899.641 842.818H899.368L891.959 824.727H887.697ZM928.999 848H914.215V850.886H928.999V848ZM934.332 824.727H930.821V848H934.332V824.727ZM946.276 848C953.367 848 957.469 843.602 957.469 836.33C957.469 829.091 953.367 824.727 946.514 824.727H938.742V848H946.276ZM942.253 844.932V827.795H946.299C951.389 827.795 954.014 830.841 954.014 836.33C954.014 841.841 951.389 844.932 946.083 844.932H942.253Z" fill="#333333"/>
<rect x="1088" y="1248" width="344" height="104" rx="41.6" fill="#FFD233"/>
<path d="M1172.01 1312H1175.52V1303.82H1180.29C1185.69 1303.82 1188.36 1300.56 1188.36 1296.26C1188.36 1291.98 1185.71 1288.73 1180.3 1288.73H1172.01V1312ZM1175.52 1300.84V1291.74H1179.93C1183.4 1291.74 1184.82 1293.62 1184.82 1296.26C1184.82 1298.9 1183.4 1300.84 1179.97 1300.84H1175.52ZM1203.96 1312H1189.18V1314.89H1203.96V1312ZM1205.79 1312H1209.3V1303.82H1214.07C1219.47 1303.82 1222.14 1300.56 1222.14 1296.26C1222.14 1291.98 1219.49 1288.73 1214.08 1288.73H1205.79V1312ZM1209.3 1300.84V1291.74H1213.71C1217.18 1291.74 1218.6 1293.62 1218.6 1296.26C1218.6 1298.9 1217.18 1300.84 1213.75 1300.84H1209.3ZM1245.77 1300.36C1245.77 1292.92 1241.31 1288.41 1235.29 1288.41C1229.24 1288.41 1224.8 1292.92 1224.8 1300.36C1224.8 1307.8 1229.24 1312.32 1235.29 1312.32C1241.31 1312.32 1245.77 1307.81 1245.77 1300.36ZM1242.29 1300.36C1242.29 1306.03 1239.29 1309.11 1235.29 1309.11C1231.28 1309.11 1228.29 1306.03 1228.29 1300.36C1228.29 1294.69 1231.28 1291.61 1235.29 1291.61C1239.29 1291.61 1242.29 1294.69 1242.29 1300.36ZM1262.13 1294.84H1265.52C1265.42 1291.11 1262.12 1288.41 1257.39 1288.41C1252.72 1288.41 1249.14 1291.08 1249.14 1295.09C1249.14 1298.33 1251.46 1300.23 1255.2 1301.24L1257.95 1301.99C1260.44 1302.65 1262.36 1303.47 1262.36 1305.53C1262.36 1307.81 1260.19 1309.31 1257.2 1309.31C1254.5 1309.31 1252.25 1308.1 1252.04 1305.57H1248.52C1248.75 1309.78 1252.01 1312.39 1257.22 1312.39C1262.69 1312.39 1265.84 1309.51 1265.84 1305.57C1265.84 1301.38 1262.1 1299.75 1259.14 1299.02L1256.87 1298.43C1255.05 1297.97 1252.63 1297.11 1252.64 1294.89C1252.64 1292.91 1254.45 1291.44 1257.32 1291.44C1259.99 1291.44 1261.88 1292.69 1262.13 1294.84ZM1272.84 1288.73H1269.33V1312H1272.84V1288.73ZM1276.1 1291.75H1283.35V1312H1286.85V1291.75H1294.11V1288.73H1276.1V1291.75ZM1300.9 1288.73H1297.39V1312H1300.9V1288.73ZM1325.53 1300.36C1325.53 1292.92 1321.07 1288.41 1315.05 1288.41C1309 1288.41 1304.56 1292.92 1304.56 1300.36C1304.56 1307.8 1309 1312.32 1315.05 1312.32C1321.07 1312.32 1325.53 1307.81 1325.53 1300.36ZM1322.05 1300.36C1322.05 1306.03 1319.05 1309.11 1315.05 1309.11C1311.04 1309.11 1308.05 1306.03 1308.05 1300.36C1308.05 1294.69 1311.04 1291.61 1315.05 1291.61C1319.05 1291.61 1322.05 1294.69 1322.05 1300.36ZM1347.99 1288.73H1344.51V1305.82H1344.29L1332.45 1288.73H1329.2V1312H1332.71V1294.93H1332.93L1344.76 1312H1347.99V1288.73Z" fill="#333333"/>
<rect x="1456" y="1248" width="344" height="104" rx="41.6" fill="#FFD233"/>
<path d="M1578.37 1296.08H1581.97C1581.19 1291.55 1577.32 1288.41 1572.29 1288.41C1566.27 1288.41 1561.87 1292.94 1561.87 1300.38C1561.87 1307.74 1566.14 1312.32 1572.45 1312.32C1578.1 1312.32 1582.13 1308.61 1582.13 1302.74V1300.09H1572.99V1302.99H1578.74C1578.66 1306.74 1576.18 1309.11 1572.45 1309.11C1568.35 1309.11 1565.36 1306.01 1565.36 1300.35C1565.36 1294.72 1568.37 1291.61 1572.32 1291.61C1575.41 1291.61 1577.5 1293.32 1578.37 1296.08ZM1587.13 1312L1589.27 1305.84H1598.36L1600.49 1312H1604.21L1595.84 1288.73H1591.78L1583.41 1312H1587.13ZM1590.29 1302.89L1593.72 1292.95H1593.91L1597.34 1302.89H1590.29ZM1606.87 1288.73V1312H1610.21V1295.15H1610.43L1617.29 1311.97H1620.06L1626.93 1295.16H1627.14V1312H1630.48V1288.73H1626.22L1618.81 1306.82H1618.54L1611.13 1288.73H1606.87ZM1634.88 1312H1649.61V1308.98H1638.4V1301.85H1648.71V1298.84H1638.4V1291.75H1649.48V1288.73H1634.88V1312ZM1665.66 1312H1650.87V1314.89H1665.66V1312ZM1670.99 1288.73H1667.48V1312H1670.99V1288.73ZM1682.93 1312C1690.02 1312 1694.13 1307.6 1694.13 1300.33C1694.13 1293.09 1690.02 1288.73 1683.17 1288.73H1675.4V1312H1682.93ZM1678.91 1308.93V1291.8H1682.95C1688.05 1291.8 1690.67 1294.84 1690.67 1300.33C1690.67 1305.84 1688.05 1308.93 1682.74 1308.93H1678.91Z" fill="#333333"/>
<rect x="1824" y="1248" width="344" height="104" rx="41.6" fill="#FFD233"/>
<path d="M1966.16 1312H1969.67V1303.82H1974.44C1979.84 1303.82 1982.51 1300.56 1982.51 1296.26C1982.51 1291.98 1979.86 1288.73 1974.46 1288.73H1966.16V1312ZM1969.67 1300.84V1291.74H1974.08C1977.56 1291.74 1978.98 1293.62 1978.98 1296.26C1978.98 1298.9 1977.56 1300.84 1974.13 1300.84H1969.67ZM1998.12 1312H1983.33V1314.89H1998.12V1312ZM2003.45 1288.73H1999.94V1312H2003.45V1288.73ZM2015.39 1312C2022.49 1312 2026.59 1307.6 2026.59 1300.33C2026.59 1293.09 2022.49 1288.73 2015.63 1288.73H2007.86V1312H2015.39ZM2011.37 1308.93V1291.8H2015.42C2020.51 1291.8 2023.13 1294.84 2023.13 1300.33C2023.13 1305.84 2020.51 1308.93 2015.2 1308.93H2011.37Z" fill="#333333"/>
<rect x="2192" y="1248" width="344" height="104" rx="41.6" fill="#FFD233"/>
<path d="M2296.76 1312H2300.27V1303.82H2305.05C2310.44 1303.82 2313.11 1300.56 2313.11 1296.26C2313.11 1291.98 2310.47 1288.73 2305.06 1288.73H2296.76V1312ZM2300.27 1300.84V1291.74H2304.68C2308.16 1291.74 2309.58 1293.62 2309.58 1296.26C2309.58 1298.9 2308.16 1300.84 2304.73 1300.84H2300.27ZM2328.72 1312H2313.94V1314.89H2328.72V1312ZM2343.24 1294.84H2346.62C2346.52 1291.11 2343.22 1288.41 2338.5 1288.41C2333.83 1288.41 2330.25 1291.08 2330.25 1295.09C2330.25 1298.33 2332.56 1300.23 2336.3 1301.24L2339.05 1301.99C2341.54 1302.65 2343.46 1303.47 2343.46 1305.53C2343.46 1307.81 2341.29 1309.31 2338.3 1309.31C2335.6 1309.31 2333.35 1308.1 2333.14 1305.57H2329.62C2329.85 1309.78 2333.11 1312.39 2338.33 1312.39C2343.79 1312.39 2346.94 1309.51 2346.94 1305.57C2346.94 1301.38 2343.2 1299.75 2340.25 1299.02L2337.97 1298.43C2336.16 1297.97 2333.74 1297.11 2333.75 1294.89C2333.75 1292.91 2335.55 1291.44 2338.42 1291.44C2341.09 1291.44 2342.99 1292.69 2343.24 1294.84ZM2369.76 1296.3C2368.97 1291.32 2365.07 1288.41 2360.15 1288.41C2354.12 1288.41 2349.68 1292.92 2349.68 1300.36C2349.68 1307.81 2354.1 1312.32 2360.15 1312.32C2365.26 1312.32 2369 1309.11 2369.76 1304.51L2366.22 1304.5C2365.61 1307.48 2363.11 1309.11 2360.17 1309.11C2356.18 1309.11 2353.17 1306.06 2353.17 1300.36C2353.17 1294.72 2356.17 1291.61 2360.18 1291.61C2363.15 1291.61 2365.64 1293.28 2366.22 1296.3H2369.76ZM2393.47 1300.36C2393.47 1292.92 2389.02 1288.41 2383 1288.41C2376.95 1288.41 2372.51 1292.92 2372.51 1300.36C2372.51 1307.8 2376.95 1312.32 2383 1312.32C2389.02 1312.32 2393.47 1307.81 2393.47 1300.36ZM2390 1300.36C2390 1306.03 2387 1309.11 2383 1309.11C2378.99 1309.11 2376 1306.03 2376 1300.36C2376 1294.69 2378.99 1291.61 2383 1291.61C2387 1291.61 2390 1294.69 2390 1300.36ZM2397.15 1312H2400.66V1303.19H2405.43C2405.51 1303.19 2405.58 1303.19 2405.66 1303.19L2410.39 1312H2414.39L2409.23 1302.58C2412.08 1301.52 2413.5 1299.15 2413.5 1296.02C2413.5 1291.74 2410.84 1288.73 2405.44 1288.73H2397.15V1312ZM2400.66 1300.17V1291.74H2405.07C2408.54 1291.74 2409.97 1293.39 2409.97 1296.02C2409.97 1298.65 2408.54 1300.17 2405.11 1300.17H2400.66ZM2417.07 1312H2431.8V1308.98H2420.58V1301.85H2430.9V1298.84H2420.58V1291.75H2431.66V1288.73H2417.07V1312Z" fill="#333333"/>
<rect x="2560" y="1248" width="344" height="104" rx="41.6" fill="#FFD233"/>
<path d="M2678.38 1312H2681.89V1303.82H2686.66C2692.06 1303.82 2694.73 1300.56 2694.73 1296.26C2694.73 1291.98 2692.08 1288.73 2686.67 1288.73H2678.38V1312ZM2681.89 1300.84V1291.74H2686.3C2689.78 1291.74 2691.2 1293.62 2691.2 1296.26C2691.2 1298.9 2689.78 1300.84 2686.35 1300.84H2681.89ZM2710.34 1312H2695.55V1314.89H2710.34V1312ZM2709.2 1291.75H2716.45V1312H2719.95V1291.75H2727.21V1288.73H2709.2V1291.75ZM2728.69 1288.73L2737.13 1302.86V1312H2740.63V1302.86L2749.08 1288.73H2745.09L2739.01 1299.31H2738.76L2732.68 1288.73H2728.69ZM2751.69 1312H2755.2V1303.82H2759.97C2765.37 1303.82 2768.04 1300.56 2768.04 1296.26C2768.04 1291.98 2765.39 1288.73 2759.98 1288.73H2751.69V1312ZM2755.2 1300.84V1291.74H2759.61C2763.09 1291.74 2764.51 1293.62 2764.51 1296.26C2764.51 1298.9 2763.09 1300.84 2759.65 1300.84H2755.2ZM2771.45 1312H2786.18V1308.98H2774.96V1301.85H2785.28V1298.84H2774.96V1291.75H2786.04V1288.73H2771.45V1312Z" fill="#333333"/>
<rect x="384" y="1248" width="280" height="104" rx="32" fill="#FFD233"/>
<path d="M463.567 1312H467.078V1303.82H471.851C477.249 1303.82 479.919 1300.56 479.919 1296.26C479.919 1291.98 477.271 1288.73 471.862 1288.73H463.567V1312ZM467.078 1300.84V1291.74H471.487C474.965 1291.74 476.385 1293.62 476.385 1296.26C476.385 1298.9 474.965 1300.84 471.533 1300.84H467.078ZM495.525 1312H480.741V1314.89H495.525V1312ZM516.13 1288.73H512.653V1305.82H512.437L500.596 1288.73H497.346V1312H500.858V1294.93H501.074L512.903 1312H516.13V1288.73ZM522.514 1312L524.651 1305.84H533.742L535.867 1312H539.594L531.219 1288.73H527.162L518.787 1312H522.514ZM525.674 1302.89L529.105 1292.95H529.287L532.719 1302.89H525.674ZM542.251 1288.73V1312H545.592V1295.15H545.808L552.671 1311.97H555.444L562.308 1295.16H562.524V1312H565.864V1288.73H561.603L554.194 1306.82H553.921L546.512 1288.73H542.251ZM570.266 1312H584.993V1308.98H573.777V1301.85H584.095V1298.84H573.777V1291.75H584.856V1288.73H570.266V1312Z" fill="#333333"/>
<rect x="688" y="1248" width="280" height="104" rx="32" fill="#FFD233"/>
<path d="M782.09 1312H785.601V1303.82H790.374C795.772 1303.82 798.442 1300.56 798.442 1296.26C798.442 1291.98 795.794 1288.73 790.385 1288.73H782.09V1312ZM785.601 1300.84V1291.74H790.01C793.488 1291.74 794.908 1293.62 794.908 1296.26C794.908 1298.9 793.488 1300.84 790.056 1300.84H785.601ZM814.048 1312H799.264V1314.89H814.048V1312ZM817.835 1312L819.972 1305.84H829.062L831.188 1312H834.915L826.54 1288.73H822.483L814.108 1312H817.835ZM820.994 1302.89L824.426 1292.95H824.608L828.04 1302.89H820.994ZM852.228 1296.08H855.83C855.046 1291.55 851.171 1288.41 846.148 1288.41C840.126 1288.41 835.728 1292.94 835.728 1300.38C835.728 1307.74 840.001 1312.32 846.307 1312.32C851.955 1312.32 855.989 1308.61 855.989 1302.74V1300.09H846.841V1302.99H852.591C852.512 1306.74 850.035 1309.11 846.307 1309.11C842.205 1309.11 839.216 1306.01 839.216 1300.35C839.216 1294.72 842.228 1291.61 846.171 1291.61C849.262 1291.61 851.353 1293.32 852.228 1296.08ZM859.743 1312H874.47V1308.98H863.254V1301.85H873.572V1298.84H863.254V1291.75H874.333V1288.73H859.743V1312Z" fill="#333333"/>
<path d="M529.5 1044C529.5 1043.17 528.828 1042.5 528 1042.5C527.172 1042.5 526.5 1043.17 526.5 1044H529.5ZM218.939 1245.06C219.525 1245.65 220.475 1245.65 221.061 1245.06L230.607 1235.51C231.192 1234.93 231.192 1233.98 230.607 1233.39C230.021 1232.81 229.071 1232.81 228.485 1233.39L220 1241.88L211.515 1233.39C210.929 1232.81 209.979 1232.81 209.393 1233.39C208.808 1233.98 208.808 1234.93 209.393 1235.51L218.939 1245.06ZM526.5 1044V1120H529.5V1044H526.5ZM504 1142.5H244V1145.5H504V1142.5ZM218.5 1168V1244H221.5V1168H218.5ZM244 1142.5C229.917 1142.5 218.5 1153.92 218.5 1168H221.5C221.5 1155.57 231.574 1145.5 244 1145.5V1142.5ZM526.5 1120C526.5 1132.43 516.426 1142.5 504 1142.5V1145.5C518.083 1145.5 529.5 1134.08 529.5 1120H526.5Z" fill="#C4C4C4"/>
<path d="M2001.5 1150.16C2001.5 1149.33 2000.83 1148.66 2000 1148.66C1999.17 1148.66 1998.5 1149.33 1998.5 1150.16H2001.5ZM1258.94 1245.06C1259.53 1245.65 1260.47 1245.65 1261.06 1245.06L1270.61 1235.51C1271.19 1234.93 1271.19 1233.98 1270.61 1233.39C1270.02 1232.81 1269.07 1232.81 1268.49 1233.39L1260 1241.88L1251.51 1233.39C1250.93 1232.81 1249.98 1232.81 1249.39 1233.39C1248.81 1233.98 1248.81 1234.93 1249.39 1235.51L1258.94 1245.06ZM1998.5 1150.16V1173.08H2001.5V1150.16H1998.5ZM1976 1195.58H1284V1198.58H1976V1195.58ZM1258.5 1221.08V1244H1261.5V1221.08H1258.5ZM1284 1195.58C1269.92 1195.58 1258.5 1207 1258.5 1221.08H1261.5C1261.5 1208.65 1271.57 1198.58 1284 1198.58V1195.58ZM1998.5 1173.08C1998.5 1185.51 1988.43 1195.58 1976 1195.58V1198.58C1990.08 1198.58 2001.5 1187.16 2001.5 1173.08H1998.5Z" fill="#C4C4C4"/>
<path d="M529.5 1044C529.5 1043.17 528.828 1042.5 528 1042.5C527.172 1042.5 526.5 1043.17 526.5 1044H529.5ZM522.939 1245.06C523.525 1245.65 524.475 1245.65 525.061 1245.06L534.607 1235.51C535.192 1234.93 535.192 1233.98 534.607 1233.39C534.021 1232.81 533.071 1232.81 532.485 1233.39L524 1241.88L515.515 1233.39C514.929 1232.81 513.979 1232.81 513.393 1233.39C512.808 1233.98 512.808 1234.93 513.393 1235.51L522.939 1245.06ZM526.5 1044V1142H529.5V1044H526.5ZM522.5 1146V1244H525.5V1146H522.5ZM526 1142.5C524.067 1142.5 522.5 1144.07 522.5 1146H525.5C525.5 1145.72 525.724 1145.5 526 1145.5V1142.5ZM526.5 1142C526.5 1142.28 526.276 1142.5 526 1142.5V1145.5C527.933 1145.5 529.5 1143.93 529.5 1142H526.5Z" fill="#C4C4C4"/>
<path d="M529.5 1044C529.5 1043.17 528.828 1042.5 528 1042.5C527.172 1042.5 526.5 1043.17 526.5 1044H529.5ZM826.939 1245.06C827.525 1245.65 828.475 1245.65 829.061 1245.06L838.607 1235.51C839.192 1234.93 839.192 1233.98 838.607 1233.39C838.021 1232.81 837.071 1232.81 836.485 1233.39L828 1241.88L819.515 1233.39C818.929 1232.81 817.979 1232.81 817.393 1233.39C816.808 1233.98 816.808 1234.93 817.393 1235.51L826.939 1245.06ZM526.5 1044V1120H529.5V1044H526.5ZM552 1145.5H804V1142.5H552V1145.5ZM826.5 1168V1244H829.5V1168H826.5ZM804 1145.5C816.426 1145.5 826.5 1155.57 826.5 1168H829.5C829.5 1153.92 818.083 1142.5 804 1142.5V1145.5ZM526.5 1120C526.5 1134.08 537.917 1145.5 552 1145.5V1142.5C539.574 1142.5 529.5 1132.43 529.5 1120H526.5Z" fill="#C4C4C4"/>
<path d="M2001.5 1150.16C2001.5 1149.33 2000.83 1148.66 2000 1148.66C1999.17 1148.66 1998.5 1149.33 1998.5 1150.16H2001.5ZM1626.94 1245.06C1627.53 1245.65 1628.47 1245.65 1629.06 1245.06L1638.61 1235.51C1639.19 1234.93 1639.19 1233.98 1638.61 1233.39C1638.02 1232.81 1637.07 1232.81 1636.49 1233.39L1628 1241.88L1619.51 1233.39C1618.93 1232.81 1617.98 1232.81 1617.39 1233.39C1616.81 1233.98 1616.81 1234.93 1617.39 1235.51L1626.94 1245.06ZM1998.5 1150.16V1173.08H2001.5V1150.16H1998.5ZM1976 1195.58H1652V1198.58H1976V1195.58ZM1626.5 1221.08V1244H1629.5V1221.08H1626.5ZM1652 1195.58C1637.92 1195.58 1626.5 1207 1626.5 1221.08H1629.5C1629.5 1208.65 1639.57 1198.58 1652 1198.58V1195.58ZM1998.5 1173.08C1998.5 1185.51 1988.43 1195.58 1976 1195.58V1198.58C1990.08 1198.58 2001.5 1187.16 2001.5 1173.08H1998.5Z" fill="#C4C4C4"/>
<path d="M2001.5 1150.16C2001.5 1149.33 2000.83 1148.66 2000 1148.66C1999.17 1148.66 1998.5 1149.33 1998.5 1150.16H2001.5ZM1994.94 1245.06C1995.53 1245.65 1996.47 1245.65 1997.06 1245.06L2006.61 1235.51C2007.19 1234.93 2007.19 1233.98 2006.61 1233.39C2006.02 1232.81 2005.07 1232.81 2004.49 1233.39L1996 1241.88L1987.51 1233.39C1986.93 1232.81 1985.98 1232.81 1985.39 1233.39C1984.81 1233.98 1984.81 1234.93 1985.39 1235.51L1994.94 1245.06ZM1998.5 1150.16V1195.08H2001.5V1150.16H1998.5ZM1994.5 1199.08V1244H1997.5V1199.08H1994.5ZM1998 1195.58C1996.07 1195.58 1994.5 1197.15 1994.5 1199.08H1997.5C1997.5 1198.8 1997.72 1198.58 1998 1198.58V1195.58ZM1998.5 1195.08C1998.5 1195.36 1998.28 1195.58 1998 1195.58V1198.58C1999.93 1198.58 2001.5 1197.01 2001.5 1195.08H1998.5Z" fill="#C4C4C4"/>
<path d="M2001.5 1150.16C2001.5 1149.33 2000.83 1148.66 2000 1148.66C1999.17 1148.66 1998.5 1149.33 1998.5 1150.16H2001.5ZM2362.94 1245.06C2363.53 1245.65 2364.47 1245.65 2365.06 1245.06L2374.61 1235.51C2375.19 1234.93 2375.19 1233.98 2374.61 1233.39C2374.02 1232.81 2373.07 1232.81 2372.49 1233.39L2364 1241.88L2355.51 1233.39C2354.93 1232.81 2353.98 1232.81 2353.39 1233.39C2352.81 1233.98 2352.81 1234.93 2353.39 1235.51L2362.94 1245.06ZM1998.5 1150.16V1173.08H2001.5V1150.16H1998.5ZM2024 1198.58H2340V1195.58H2024V1198.58ZM2362.5 1221.08V1244H2365.5V1221.08H2362.5ZM2340 1198.58C2352.43 1198.58 2362.5 1208.65 2362.5 1221.08H2365.5C2365.5 1207 2354.08 1195.58 2340 1195.58V1198.58ZM1998.5 1173.08C1998.5 1187.16 2009.92 1198.58 2024 1198.58V1195.58C2011.57 1195.58 2001.5 1185.51 2001.5 1173.08H1998.5Z" fill="#C4C4C4"/>
<path d="M2001.5 1150.16C2001.5 1149.33 2000.83 1148.66 2000 1148.66C1999.17 1148.66 1998.5 1149.33 1998.5 1150.16H2001.5ZM2730.94 1245.06C2731.53 1245.65 2732.47 1245.65 2733.06 1245.06L2742.61 1235.51C2743.19 1234.93 2743.19 1233.98 2742.61 1233.39C2742.02 1232.81 2741.07 1232.81 2740.49 1233.39L2732 1241.88L2723.51 1233.39C2722.93 1232.81 2721.98 1232.81 2721.39 1233.39C2720.81 1233.98 2720.81 1234.93 2721.39 1235.51L2730.94 1245.06ZM1998.5 1150.16V1173.08H2001.5V1150.16H1998.5ZM2024 1198.58H2708V1195.58H2024V1198.58ZM2730.5 1221.08V1244H2733.5V1221.08H2730.5ZM2708 1198.58C2720.43 1198.58 2730.5 1208.65 2730.5 1221.08H2733.5C2733.5 1207 2722.08 1195.58 2708 1195.58V1198.58ZM1998.5 1173.08C1998.5 1187.16 2009.92 1198.58 2024 1198.58V1195.58C2011.57 1195.58 2001.5 1185.51 2001.5 1173.08H1998.5Z" fill="#C4C4C4"/>
<path d="M702.449 670.5C701.621 670.5 700.949 671.172 700.949 672C700.949 672.828 701.621 673.5 702.449 673.5V670.5ZM890.94 781.061C891.525 781.646 892.475 781.646 893.061 781.061L902.607 771.515C903.193 770.929 903.193 769.979 902.607 769.393C902.021 768.808 901.071 768.808 900.486 769.393L892 777.879L883.515 769.393C882.929 768.808 881.979 768.808 881.394 769.393C880.808 769.979 880.808 770.929 881.394 771.515L890.94 781.061ZM702.449 673.5H868V670.5H702.449V673.5ZM890.5 696V780H893.5V696H890.5ZM868 673.5C880.427 673.5 890.5 683.574 890.5 696H893.5C893.5 681.917 882.083 670.5 868 670.5V673.5Z" fill="#C4C4C4"/>
<path d="M332 673.5C332.828 673.5 333.5 672.828 333.5 672C333.5 671.172 332.828 670.5 332 670.5V673.5ZM138.939 781.061C139.525 781.646 140.475 781.646 141.061 781.061L150.607 771.515C151.192 770.929 151.192 769.979 150.607 769.393C150.021 768.808 149.071 768.808 148.485 769.393L140 777.879L131.515 769.393C130.929 768.808 129.979 768.808 129.393 769.393C128.808 769.979 128.808 770.929 129.393 771.515L138.939 781.061ZM332 670.5H164V673.5H332V670.5ZM138.5 696V780H141.5V696H138.5ZM164 670.5C149.917 670.5 138.5 681.917 138.5 696H141.5C141.5 683.574 151.574 673.5 164 673.5V670.5Z" fill="#C4C4C4"/>
<path d="M519.055 835.86C518.985 835.035 518.26 834.422 517.434 834.491C516.609 834.561 515.996 835.286 516.065 836.112L519.055 835.86ZM526.17 956.14C526.239 956.965 526.965 957.578 527.79 957.509C528.616 957.439 529.229 956.714 529.159 955.888L526.17 956.14ZM516.065 836.112L526.17 956.14L529.159 955.888L519.055 835.86L516.065 836.112Z" fill="#C4C4C4"/>
<path d="M526.5 204C526.5 204.828 527.172 205.5 528 205.5C528.828 205.5 529.5 204.828 529.5 204H526.5ZM365.061 106.939C364.475 106.354 363.525 106.354 362.939 106.939L353.393 116.485C352.808 117.071 352.808 118.021 353.393 118.607C353.979 119.192 354.929 119.192 355.515 118.607L364 110.121L372.485 118.607C373.071 119.192 374.021 119.192 374.607 118.607C375.192 118.021 375.192 117.071 374.607 116.485L365.061 106.939ZM529.5 204V180H526.5V204H529.5ZM504 154.5H388V157.5H504V154.5ZM365.5 132V108H362.5V132H365.5ZM388 154.5C375.574 154.5 365.5 144.426 365.5 132H362.5C362.5 146.083 373.917 157.5 388 157.5V154.5ZM529.5 180C529.5 165.917 518.083 154.5 504 154.5V157.5C516.426 157.5 526.5 167.574 526.5 180H529.5Z" fill="#C4C4C4"/>
<path d="M526.5 204C526.5 204.828 527.172 205.5 528 205.5C528.828 205.5 529.5 204.828 529.5 204H526.5ZM685.061 106.939C684.475 106.354 683.525 106.354 682.939 106.939L673.393 116.485C672.808 117.071 672.808 118.021 673.393 118.607C673.979 119.192 674.929 119.192 675.515 118.607L684 110.121L692.485 118.607C693.071 119.192 694.021 119.192 694.607 118.607C695.192 118.021 695.192 117.071 694.607 116.485L685.061 106.939ZM529.5 204V180H526.5V204H529.5ZM552 157.5H660V154.5H552V157.5ZM685.5 132V108H682.5V132H685.5ZM660 157.5C674.083 157.5 685.5 146.083 685.5 132H682.5C682.5 144.426 672.426 154.5 660 154.5V157.5ZM529.5 180C529.5 167.574 539.574 157.5 552 157.5V154.5C537.917 154.5 526.5 165.917 526.5 180H529.5Z" fill="#C4C4C4"/>
<path d="M529.306 292.067C529.346 291.24 528.707 290.537 527.88 290.497C527.052 290.457 526.349 291.096 526.309 291.923L529.306 292.067ZM515.918 507.933C515.878 508.76 516.517 509.463 517.344 509.503C518.172 509.543 518.875 508.904 518.915 508.077L515.918 507.933ZM526.309 291.923L515.918 507.933L518.915 508.077L529.306 292.067L526.309 291.923Z" fill="#C4C4C4"/>
<path d="M692.027 246.573C691.199 246.558 690.515 247.217 690.5 248.045C690.485 248.874 691.144 249.557 691.972 249.573L692.027 246.573ZM1051.97 256.13C1052.8 256.145 1053.49 255.485 1053.5 254.657C1053.52 253.829 1052.86 253.145 1052.03 253.13L1051.97 256.13ZM691.972 249.573L1051.97 256.13L1052.03 253.13L692.027 246.573L691.972 249.573Z" fill="#C4C4C4"/>
<path d="M1998.5 204C1998.5 204.828 1999.17 205.5 2000 205.5C2000.83 205.5 2001.5 204.828 2001.5 204H1998.5ZM1693.06 106.939C1692.47 106.354 1691.53 106.354 1690.94 106.939L1681.39 116.485C1680.81 117.071 1680.81 118.021 1681.39 118.607C1681.98 119.192 1682.93 119.192 1683.51 118.607L1692 110.121L1700.49 118.607C1701.07 119.192 1702.02 119.192 1702.61 118.607C1703.19 118.021 1703.19 117.071 1702.61 116.485L1693.06 106.939ZM2001.5 204V180H1998.5V204H2001.5ZM1976 154.5H1716V157.5H1976V154.5ZM1693.5 132V108H1690.5V132H1693.5ZM1716 154.5C1703.57 154.5 1693.5 144.426 1693.5 132H1690.5C1690.5 146.083 1701.92 157.5 1716 157.5V154.5ZM2001.5 180C2001.5 165.917 1990.08 154.5 1976 154.5V157.5C1988.43 157.5 1998.5 167.574 1998.5 180H2001.5Z" fill="#C4C4C4"/>
<path d="M1998.5 204C1998.5 204.828 1999.17 205.5 2000 205.5C2000.83 205.5 2001.5 204.828 2001.5 204H1998.5ZM1997.06 106.939C1996.47 106.354 1995.53 106.354 1994.94 106.939L1985.39 116.485C1984.81 117.071 1984.81 118.021 1985.39 118.607C1985.98 119.192 1986.93 119.192 1987.51 118.607L1996 110.121L2004.49 118.607C2005.07 119.192 2006.02 119.192 2006.61 118.607C2007.19 118.021 2007.19 117.071 2006.61 116.485L1997.06 106.939ZM2001.5 204V158H1998.5V204H2001.5ZM1997.5 154V108H1994.5V154H1997.5ZM1998 154.5C1997.72 154.5 1997.5 154.276 1997.5 154H1994.5C1994.5 155.933 1996.07 157.5 1998 157.5V154.5ZM2001.5 158C2001.5 156.067 1999.93 154.5 1998 154.5V157.5C1998.28 157.5 1998.5 157.724 1998.5 158H2001.5Z" fill="#C4C4C4"/>
<path d="M1998.5 204C1998.5 204.828 1999.17 205.5 2000 205.5C2000.83 205.5 2001.5 204.828 2001.5 204H1998.5ZM2301.06 106.939C2300.47 106.354 2299.53 106.354 2298.94 106.939L2289.39 116.485C2288.81 117.071 2288.81 118.021 2289.39 118.607C2289.98 119.192 2290.93 119.192 2291.51 118.607L2300 110.121L2308.49 118.607C2309.07 119.192 2310.02 119.192 2310.61 118.607C2311.19 118.021 2311.19 117.071 2310.61 116.485L2301.06 106.939ZM2001.5 204V180H1998.5V204H2001.5ZM2024 157.5H2276V154.5H2024V157.5ZM2301.5 132V108H2298.5V132H2301.5ZM2276 157.5C2290.08 157.5 2301.5 146.083 2301.5 132H2298.5C2298.5 144.426 2288.43 154.5 2276 154.5V157.5ZM2001.5 180C2001.5 167.574 2011.57 157.5 2024 157.5V154.5C2009.92 154.5 1998.5 165.917 1998.5 180H2001.5Z" fill="#C4C4C4"/>
<path d="M1491.97 253.127C1491.14 253.143 1490.48 253.827 1490.5 254.655C1490.52 255.483 1491.2 256.142 1492.03 256.126L1491.97 253.127ZM1836.03 249.576C1836.86 249.56 1837.52 248.876 1837.5 248.048C1837.48 247.219 1836.8 246.561 1835.97 246.576L1836.03 249.576ZM1492.03 256.126L1836.03 249.576L1835.97 246.576L1491.97 253.127L1492.03 256.126Z" fill="#C4C4C4"/>
<path d="M692.007 998.518C691.178 998.514 690.504 999.183 690.5 1000.01C690.496 1000.84 691.165 1001.51 691.993 1001.52L692.007 998.518ZM1835.99 1006.56C1836.82 1006.57 1837.5 1005.9 1837.5 1005.07C1837.5 1004.24 1836.84 1003.57 1836.01 1003.56L1835.99 1006.56ZM691.993 1001.52L1835.99 1006.56L1836.01 1003.56L692.007 998.518L691.993 1001.52Z" fill="#C4C4C4"/>
<path d="M1998.5 860C1998.5 860.828 1999.17 861.5 2000 861.5C2000.83 861.5 2001.5 860.828 2001.5 860H1998.5ZM2001.5 292C2001.5 291.172 2000.83 290.5 2000 290.5C1999.17 290.5 1998.5 291.172 1998.5 292H2001.5ZM2001.5 860V292H1998.5V860H2001.5Z" fill="#C4C4C4"/>
</svg>
